<?xml version="1.0" encoding="UTF-8" standalone="no"?>
<svg
   xmlns:dc="http://purl.org/dc/elements/1.1/"
   xmlns:cc="http://creativecommons.org/ns#"
   xmlns:rdf="http://www.w3.org/1999/02/22-rdf-syntax-ns#"
   xmlns:svg="http://www.w3.org/2000/svg"
   xmlns="http://www.w3.org/2000/svg"
   xmlns:sodipodi="http://sodipodi.sourceforge.net/DTD/sodipodi-0.dtd"
   xmlns:inkscape="http://www.inkscape.org/namespaces/inkscape"
   width="30mm"
   height="15mm"
   viewBox="0 0 30 15"
   version="1.1"
   id="svg8"
   inkscape:version="1.0 (4035a4fb49, 2020-05-01)"
   sodipodi:docname="horizon.svg">
  <defs
     id="defs2">
    <inkscape:path-effect
       effect="join_type"
       id="path-effect924"
       is_visible="false"
       lpeversion="1"
       linecap_type="peak"
       line_width="1"
       linejoin_type="extrp_arc"
       miter_limit="100"
       attempt_force_join="true" />
    <inkscape:path-effect
       effect="join_type"
       id="path-effect887"
       is_visible="false"
       lpeversion="1"
       linecap_type="peak"
       line_width="1"
       linejoin_type="extrp_arc"
       miter_limit="100"
       attempt_force_join="true" />
    <inkscape:path-effect
       attempt_force_join="true"
       miter_limit="100"
       linejoin_type="extrp_arc"
       line_width="1"
       linecap_type="peak"
       lpeversion="1"
       is_visible="false"
       id="path-effect851"
       effect="join_type" />
    <inkscape:path-effect
       effect="join_type"
       id="path-effect2200"
       is_visible="true"
       lpeversion="1"
       linecap_type="peak"
       line_width="-0.4"
       linejoin_type="extrp_arc"
       miter_limit="100"
       attempt_force_join="true" />
  </defs>
  <sodipodi:namedview
     id="base"
     pagecolor="#ffffff"
     bordercolor="#666666"
     borderopacity="1.0"
     inkscape:pageopacity="0.0"
     inkscape:pageshadow="2"
     inkscape:zoom="5.6568543"
     inkscape:cx="82.646212"
     inkscape:cy="6.0211049"
     inkscape:document-units="mm"
     inkscape:current-layer="g922"
     inkscape:document-rotation="0"
     showgrid="true"
     inkscape:window-width="1920"
     inkscape:window-height="1017"
     inkscape:window-x="1912"
     inkscape:window-y="-8"
     inkscape:window-maximized="1"
     inkscape:lockguides="true"
     fit-margin-top="0"
     lock-margins="true"
     fit-margin-left="0"
     fit-margin-right="0"
     fit-margin-bottom="0">
    <inkscape:grid
       type="xygrid"
       id="grid833"
       units="mm"
       spacingx="0.25"
       spacingy="0.25"
       originx="0"
       originy="0" />
  </sodipodi:namedview>
  <metadata
     id="metadata5">
    <rdf:RDF>
      <cc:Work
         rdf:about="">
        <dc:format>image/svg+xml</dc:format>
        <dc:type
           rdf:resource="http://purl.org/dc/dcmitype/StillImage" />
        <dc:title></dc:title>
      </cc:Work>
    </rdf:RDF>
  </metadata>
  <g
     sodipodi:insensitive="true"
     inkscape:groupmode="layer"
     id="layer2"
     inkscape:label="Lines"
     style="display:none;opacity:1"
     transform="translate(-19.25,-41.292969)">
    <g
       transform="translate(0.99999847,0.98043093)"
       inkscape:path-effect="#path-effect851"
       style="stroke:#000000;stroke-width:1;stroke-linecap:square;stroke-linejoin:miter;stroke-miterlimit:5;stroke-dasharray:none;stroke-opacity:1;paint-order:stroke markers fill"
       id="g2271">
      <path
         inkscape:original-d="m 19.750001,45.75 v -1 l 1,-1 1,1 v 8 l -1,1 -1,-1 v -3 l 1,-1 h 25 l 1,1 1e-6,3 -1,0.999999 -1.000001,-1.000001 V 44.750001 L 43.749999,43.75 l -1,1 V 46.749999 44.75 l -0.999998,-0.999999 -3,-10e-7 -1,1.000001 V 45.75 l 1,1 h 1 l 1,-1 v -1 l -0.75,-0.75"
         sodipodi:nodetypes="cccccccccccccccccccccccccccc"
         id="path1671"
         d="m 19.750001,45.75 v -1 l 1,-1 1,1 v 8 l -1,1 -1,-1 v -3 l 1,-1 h 25 l 1,1 1e-6,3 -1,0.999999 -1.000001,-1.000001 V 44.750001 L 43.749999,43.75 l -1,1 V 46.749999 44.75 l -0.999998,-0.999999 -3,-10e-7 -1,1.000001 V 45.75 l 1,1 h 1 l 1,-1 v -1 l -0.75,-0.75"
         style="fill:none;fill-rule:evenodd;stroke:#000000;stroke-width:1;stroke-linecap:square;stroke-linejoin:miter;stroke-miterlimit:5;stroke-dasharray:none;stroke-opacity:1;paint-order:stroke markers fill" />
      <path
         inkscape:original-d="m 24.750001,45.75 v 7 l 1,1.000001 1,-1.000001 v -1"
         sodipodi:nodetypes="ccccc"
         id="path1675"
         d="m 24.750001,45.75 v 7 l 1,1.000001 1,-1.000001 v -1"
         style="fill:none;fill-rule:evenodd;stroke:#000000;stroke-width:1;stroke-linecap:square;stroke-linejoin:miter;stroke-miterlimit:5;stroke-dasharray:none;stroke-opacity:1;paint-order:stroke markers fill" />
      <path
         inkscape:original-d="m 27.000001,44 0.75,0.75 v 1 l -1,1 h -1 l -1,-1 v -0.999999 l 1,-1.000001 2.000002,2e-6 1.999998,-1e-6 1,1 V 45.75 l -1,1 h -1 1 l 1,1 -1e-6,4.999999 1.000001,1.000001 1.000001,-1.000001 v -1"
         sodipodi:nodetypes="cccccccccccccccccccc"
         id="path1677"
         d="m 27.000001,44 0.75,0.75 v 1 l -1,1 h -1 l -1,-1 v -0.999999 l 1,-1.000001 2.000002,2e-6 1.999998,-1e-6 1,1 V 45.75 l -1,1 h -1 1 l 1,1 -1e-6,4.999999 1.000001,1.000001 1.000001,-1.000001 v -1"
         style="fill:none;fill-rule:evenodd;stroke:#000000;stroke-width:1;stroke-linecap:square;stroke-linejoin:miter;stroke-miterlimit:5;stroke-dasharray:none;stroke-opacity:1;paint-order:stroke markers fill" />
      <path
         inkscape:original-d="m 30.750001,45.75 1,1 1,-1.000462 v -2 V 45.75 l 1.000001,1 1,-1 V 44.750002 L 35.75,43.750001 36.750001,44.75 v 1 1 l 1,-1 1,1.000001 1e-6,5.999999 -1,1.000001 -1,-1 v -1"
         sodipodi:nodetypes="cccccccccccccccccc"
         id="path1679"
         d="m 30.750001,45.75 1,1 1,-1.000462 v -2 V 45.75 l 1.000001,1 1,-1 V 44.750002 L 35.75,43.750001 36.750001,44.75 v 1 1 l 1,-1 1,1.000001 1e-6,5.999999 -1,1.000001 -1,-1 v -1"
         style="fill:none;fill-rule:evenodd;stroke:#000000;stroke-width:1;stroke-linecap:square;stroke-linejoin:miter;stroke-miterlimit:5;stroke-dasharray:none;stroke-opacity:1;paint-order:stroke markers fill" />
    </g>
  </g>
  <g
     transform="translate(-19.25,-41.292969)"
     style="display:inline;opacity:1"
     inkscape:label="Lines copy"
     id="g922"
     inkscape:groupmode="layer">
    <g
       transform="translate(1.0000005,0.98042993)"
       id="g920"
       style="stroke:#000000;stroke-width:1;stroke-linecap:square;stroke-linejoin:miter;stroke-miterlimit:5;stroke-dasharray:none;stroke-opacity:1;paint-order:stroke markers fill">
      <path
         sodipodi:nodetypes="cccccccccccccccccccccccccccccccccccccccccccccccccccccccccccccccccccccccc"
         id="path928"
         d="m 20.75,43.042969 -1.5,1.5 V 45.75 v 0.5 l 0.500001,0.5 0.499999,-0.5 v -0.5 -0.792969 l 0.5,-0.5 0.5,0.5 V 48.25 H 20.542969 L 19.25,49.542969 v 3.414062 l 1.5,1.5 1.5,-1.5 V 49.25 h 22 v 3.707031 l 1.5,1.5 1.5,-1.5 V 49.542969 L 45.957031,48.25 H 45.25 v -3.707031 l -1.5,-1.5 -1,1 L 41.957031,43.25 H 38.542969 L 37.25,44.542969 v 1.414062 L 38.542969,47.25 h 1.414062 L 41.25,45.957031 V 44.542969 L 40.957031,44.25 h 0.585938 L 42.25,44.957031 V 46.75 l 0.500001,0.5 0.499999,-0.5 v -1.792969 l 0.5,-0.5 0.5,0.5 V 48.25 h -22 V 44.542969 Z M 38.957031,44.25 h 0.585938 l 0.103515,0.103516 0.603516,0.603515 v 0.585938 L 39.542969,46.25 H 38.957031 L 38.25,45.542969 v -0.585938 z m -18,5 H 21.25 v 3.292969 l -0.5,0.5 -0.5,-0.5 v -2.585938 z m 24.292969,0 h 0.292969 L 46.25,49.957031 v 2.585938 l -0.5,0.5 -0.5,-0.5 z"
         style="color:#000000;font-style:normal;font-variant:normal;font-weight:normal;font-stretch:normal;font-size:medium;line-height:normal;font-family:sans-serif;font-variant-ligatures:normal;font-variant-position:normal;font-variant-caps:normal;font-variant-numeric:normal;font-variant-alternates:normal;font-variant-east-asian:normal;font-feature-settings:normal;font-variation-settings:normal;text-indent:0;text-align:start;text-decoration:none;text-decoration-line:none;text-decoration-style:solid;text-decoration-color:#000000;letter-spacing:normal;word-spacing:normal;text-transform:none;writing-mode:lr-tb;direction:ltr;text-orientation:mixed;dominant-baseline:auto;baseline-shift:baseline;text-anchor:start;white-space:normal;shape-padding:0;shape-margin:0;inline-size:0;clip-rule:nonzero;display:inline;overflow:visible;visibility:visible;opacity:1;isolation:auto;mix-blend-mode:normal;color-interpolation:sRGB;color-interpolation-filters:linearRGB;solid-color:#000000;solid-opacity:1;vector-effect:none;fill:#000000;fill-opacity:1;fill-rule:evenodd;stroke:none;stroke-width:1;stroke-linecap:square;stroke-linejoin:miter;stroke-miterlimit:5;stroke-dasharray:none;stroke-dashoffset:0;stroke-opacity:1;paint-order:stroke markers fill;color-rendering:auto;image-rendering:auto;shape-rendering:auto;text-rendering:auto;enable-background:accumulate;stop-color:#000000;stop-opacity:1" />
      <path
         sodipodi:nodetypes="cccccccccccccccc"
         id="path932"
         d="m 24.25,45.25 v 0.5 7.207031 l 1.5,1.5 1.5,-1.5 V 51.75 51.25 L 26.750001,50.75 26.25,51.25 v 0.5 0.792969 l -0.5,0.5 -0.5,-0.5 V 45.75 45.25 Z"
         style="color:#000000;font-style:normal;font-variant:normal;font-weight:normal;font-stretch:normal;font-size:medium;line-height:normal;font-family:sans-serif;font-variant-ligatures:normal;font-variant-position:normal;font-variant-caps:normal;font-variant-numeric:normal;font-variant-alternates:normal;font-variant-east-asian:normal;font-feature-settings:normal;font-variation-settings:normal;text-indent:0;text-align:start;text-decoration:none;text-decoration-line:none;text-decoration-style:solid;text-decoration-color:#000000;letter-spacing:normal;word-spacing:normal;text-transform:none;writing-mode:lr-tb;direction:ltr;text-orientation:mixed;dominant-baseline:auto;baseline-shift:baseline;text-anchor:start;white-space:normal;shape-padding:0;shape-margin:0;inline-size:0;clip-rule:nonzero;display:inline;overflow:visible;visibility:visible;opacity:1;isolation:auto;mix-blend-mode:normal;color-interpolation:sRGB;color-interpolation-filters:linearRGB;solid-color:#000000;solid-opacity:1;vector-effect:none;fill:#000000;fill-opacity:1;fill-rule:evenodd;stroke:none;stroke-width:1;stroke-linecap:square;stroke-linejoin:miter;stroke-miterlimit:5;stroke-dasharray:none;stroke-dashoffset:0;stroke-opacity:1;paint-order:stroke markers fill;color-rendering:auto;image-rendering:auto;shape-rendering:auto;text-rendering:auto;enable-background:accumulate;stop-color:#000000;stop-opacity:1" />
      <path
         sodipodi:nodetypes="ccccccccccccccccccccccccccccccccccccccccccccc"
         id="path936"
         d="M 25.542969,43.25 24.25,44.542969 v 1.414062 L 25.542969,47.25 h 1.414062 L 28.25,45.957031 V 44.542969 L 27.957031,44.25 h 1.585938 L 30.25,44.957031 v 0.585938 L 29.542969,46.25 H 28.75 l -0.499999,0.5 0.499999,0.5 h 0.792969 L 30.25,47.957031 v 5 l 1.5,1.5 1.5,-1.5 V 51.75 51.25 L 32.750001,50.75 32.25,51.25 v 0.5 0.792969 l -0.5,0.5 -0.5,-0.5 v -5 L 30.457031,46.75 31.25,45.957031 V 44.542969 L 29.957031,43.25 H 27.75 Z m 0.414062,1 h 0.585938 l 0.103515,0.103516 0.603516,0.603515 v 0.585938 L 26.542969,46.25 H 25.957031 L 25.25,45.542969 v -0.585938 z"
         style="color:#000000;font-style:normal;font-variant:normal;font-weight:normal;font-stretch:normal;font-size:medium;line-height:normal;font-family:sans-serif;font-variant-ligatures:normal;font-variant-position:normal;font-variant-caps:normal;font-variant-numeric:normal;font-variant-alternates:normal;font-variant-east-asian:normal;font-feature-settings:normal;font-variation-settings:normal;text-indent:0;text-align:start;text-decoration:none;text-decoration-line:none;text-decoration-style:solid;text-decoration-color:#000000;letter-spacing:normal;word-spacing:normal;text-transform:none;writing-mode:lr-tb;direction:ltr;text-orientation:mixed;dominant-baseline:auto;baseline-shift:baseline;text-anchor:start;white-space:normal;shape-padding:0;shape-margin:0;inline-size:0;clip-rule:nonzero;display:inline;overflow:visible;visibility:visible;opacity:1;isolation:auto;mix-blend-mode:normal;color-interpolation:sRGB;color-interpolation-filters:linearRGB;solid-color:#000000;solid-opacity:1;vector-effect:none;fill:#000000;fill-opacity:1;fill-rule:evenodd;stroke:none;stroke-width:1;stroke-linecap:square;stroke-linejoin:miter;stroke-miterlimit:5;stroke-dasharray:none;stroke-dashoffset:0;stroke-opacity:1;paint-order:stroke markers fill;color-rendering:auto;image-rendering:auto;shape-rendering:auto;text-rendering:auto;enable-background:accumulate;stop-color:#000000;stop-opacity:1" />
      <path
         sodipodi:nodetypes="ccccccccccccccccccccccccccccccccccccccccc"
         id="path940"
         d="m 35.75,43.042969 -1.5,1.5 v 1 l -0.5,0.5 -0.5,-0.5 -10e-7,-1.79343 -0.499999,-0.5 -0.5,0.5 v 1.79343 l -0.5,0.5 L 31.103516,45.396484 30.75,45.042969 30.042969,45.75 l 0.353515,0.353516 1.353516,1.353515 1,-1 1,1 1.5,-1.5 v -1 l 0.5,-0.5 0.5,0.5 V 45.75 47.957031 l 1.5,-1.5 0.5,0.5 v 5.585938 l -0.5,0.5 -0.5,-0.5 V 51.75 51.25 L 36.750001,50.75 36.25,51.25 v 0.5 1.207031 l 1.5,1.5 1.5,-1.5 v -6.414062 l -1.5,-1.5 -0.5,0.5 v -1 z"
         style="color:#000000;font-style:normal;font-variant:normal;font-weight:normal;font-stretch:normal;font-size:medium;line-height:normal;font-family:sans-serif;font-variant-ligatures:normal;font-variant-position:normal;font-variant-caps:normal;font-variant-numeric:normal;font-variant-alternates:normal;font-variant-east-asian:normal;font-feature-settings:normal;font-variation-settings:normal;text-indent:0;text-align:start;text-decoration:none;text-decoration-line:none;text-decoration-style:solid;text-decoration-color:#000000;letter-spacing:normal;word-spacing:normal;text-transform:none;writing-mode:lr-tb;direction:ltr;text-orientation:mixed;dominant-baseline:auto;baseline-shift:baseline;text-anchor:start;white-space:normal;shape-padding:0;shape-margin:0;inline-size:0;clip-rule:nonzero;display:inline;overflow:visible;visibility:visible;opacity:1;isolation:auto;mix-blend-mode:normal;color-interpolation:sRGB;color-interpolation-filters:linearRGB;solid-color:#000000;solid-opacity:1;vector-effect:none;fill:#000000;fill-opacity:1;fill-rule:evenodd;stroke:none;stroke-width:1;stroke-linecap:square;stroke-linejoin:miter;stroke-miterlimit:5;stroke-dasharray:none;stroke-dashoffset:0;stroke-opacity:1;paint-order:stroke markers fill;color-rendering:auto;image-rendering:auto;shape-rendering:auto;text-rendering:auto;enable-background:accumulate;stop-color:#000000;stop-opacity:1" />
    </g>
    <path
       sodipodi:nodetypes="ccccccc"
       id="path946"
       d="m 33.75,43.648399 -0.5,-0.5 v -0.5 l 0.5,-0.5 0.5,0.5 v 0.5 z"
       style="fill:#000000;fill-opacity:1;fill-rule:evenodd;stroke:none;stroke-width:0.264583px;stroke-linecap:butt;stroke-linejoin:miter;stroke-opacity:1" />
  </g>
</svg>
