M48
; DRILL file {KiCad (5.1.4)-1} date 9/19/2021 10:16:23 PM
; FORMAT={-:-/ absolute / metric / decimal}
; #@! TF.CreationDate,2021-09-19T22:16:23-04:00
; #@! TF.GenerationSoftware,Kicad,Pcbnew,(5.1.4)-1
; #@! TF.FileFunction,Plated,1,2,PTH
FMAT,2
METRIC
T1C0.400
T2C2.200
%
G90
G05
T1
X213.85Y-124.5
X214.333Y-123.333
X214.333Y-125.667
X215.5Y-122.85
X215.5Y-126.15
X216.667Y-123.333
X216.667Y-125.667
X217.15Y-124.5
X186.85Y-99.5
X187.333Y-98.333
X187.333Y-100.667
X188.5Y-97.85
X188.5Y-101.15
X189.667Y-98.333
X189.667Y-100.667
X190.15Y-99.5
X308.35Y-146.0
X308.833Y-144.833
X308.833Y-147.167
X310.0Y-144.35
X310.0Y-147.65
X311.167Y-144.833
X311.167Y-147.167
X311.65Y-146.0
X186.85Y-124.5
X187.333Y-123.333
X187.333Y-125.667
X188.5Y-122.85
X188.5Y-126.15
X189.667Y-123.333
X189.667Y-125.667
X190.15Y-124.5
X92.35Y-112.0
X92.833Y-110.833
X92.833Y-113.167
X94.0Y-110.35
X94.0Y-113.65
X95.167Y-110.833
X95.167Y-113.167
X95.65Y-112.0
X308.35Y-112.0
X308.833Y-110.833
X308.833Y-113.167
X310.0Y-110.35
X310.0Y-113.65
X311.167Y-110.833
X311.167Y-113.167
X311.65Y-112.0
X213.85Y-99.5
X214.333Y-98.333
X214.333Y-100.667
X215.5Y-97.85
X215.5Y-101.15
X216.667Y-98.333
X216.667Y-100.667
X217.15Y-99.5
X92.35Y-146.0
X92.833Y-144.833
X92.833Y-147.167
X94.0Y-144.35
X94.0Y-147.65
X95.167Y-144.833
X95.167Y-147.167
X95.65Y-146.0
T2
X188.5Y-124.5
X94.0Y-112.0
X310.0Y-112.0
X215.5Y-99.5
X94.0Y-146.0
X215.5Y-124.5
X188.5Y-99.5
X310.0Y-146.0
T0
M30
