G04 #@! TF.GenerationSoftware,KiCad,Pcbnew,(5.1.4)-1*
G04 #@! TF.CreationDate,2021-09-24T23:07:36-04:00*
G04 #@! TF.ProjectId,horizon-choc-bottom-plate,686f7269-7a6f-46e2-9d63-686f632d626f,rev?*
G04 #@! TF.SameCoordinates,Original*
G04 #@! TF.FileFunction,Legend,Bot*
G04 #@! TF.FilePolarity,Positive*
%FSLAX46Y46*%
G04 Gerber Fmt 4.6, Leading zero omitted, Abs format (unit mm)*
G04 Created by KiCad (PCBNEW (5.1.4)-1) date 2021-09-24 23:07:36*
%MOMM*%
%LPD*%
G04 APERTURE LIST*
%ADD10C,0.150000*%
%ADD11C,0.010000*%
%ADD12C,0.802000*%
%ADD13C,4.502000*%
G04 APERTURE END LIST*
D10*
X206428571Y-104952380D02*
X206428571Y-104285714D01*
X206428571Y-104476190D02*
X206380952Y-104380952D01*
X206333333Y-104333333D01*
X206238095Y-104285714D01*
X206142857Y-104285714D01*
X205428571Y-104904761D02*
X205523809Y-104952380D01*
X205714285Y-104952380D01*
X205809523Y-104904761D01*
X205857142Y-104809523D01*
X205857142Y-104428571D01*
X205809523Y-104333333D01*
X205714285Y-104285714D01*
X205523809Y-104285714D01*
X205428571Y-104333333D01*
X205380952Y-104428571D01*
X205380952Y-104523809D01*
X205857142Y-104619047D01*
X205047619Y-104285714D02*
X204809523Y-104952380D01*
X204571428Y-104285714D01*
X204238095Y-104047619D02*
X204190476Y-104000000D01*
X204095238Y-103952380D01*
X203857142Y-103952380D01*
X203761904Y-104000000D01*
X203714285Y-104047619D01*
X203666666Y-104142857D01*
X203666666Y-104238095D01*
X203714285Y-104380952D01*
X204285714Y-104952380D01*
X203666666Y-104952380D01*
X202238095Y-105285714D02*
X202238095Y-103857142D01*
X200190476Y-104857142D02*
X200238095Y-104904761D01*
X200380952Y-104952380D01*
X200476190Y-104952380D01*
X200619047Y-104904761D01*
X200714285Y-104809523D01*
X200761904Y-104714285D01*
X200809523Y-104523809D01*
X200809523Y-104380952D01*
X200761904Y-104190476D01*
X200714285Y-104095238D01*
X200619047Y-104000000D01*
X200476190Y-103952380D01*
X200380952Y-103952380D01*
X200238095Y-104000000D01*
X200190476Y-104047619D01*
X199761904Y-104952380D02*
X199761904Y-103952380D01*
X199333333Y-104952380D02*
X199333333Y-104428571D01*
X199380952Y-104333333D01*
X199476190Y-104285714D01*
X199619047Y-104285714D01*
X199714285Y-104333333D01*
X199761904Y-104380952D01*
X198714285Y-104952380D02*
X198809523Y-104904761D01*
X198857142Y-104857142D01*
X198904761Y-104761904D01*
X198904761Y-104476190D01*
X198857142Y-104380952D01*
X198809523Y-104333333D01*
X198714285Y-104285714D01*
X198571428Y-104285714D01*
X198476190Y-104333333D01*
X198428571Y-104380952D01*
X198380952Y-104476190D01*
X198380952Y-104761904D01*
X198428571Y-104857142D01*
X198476190Y-104904761D01*
X198571428Y-104952380D01*
X198714285Y-104952380D01*
X197523809Y-104904761D02*
X197619047Y-104952380D01*
X197809523Y-104952380D01*
X197904761Y-104904761D01*
X197952380Y-104857142D01*
X198000000Y-104761904D01*
X198000000Y-104476190D01*
X197952380Y-104380952D01*
X197904761Y-104333333D01*
X197809523Y-104285714D01*
X197619047Y-104285714D01*
X197523809Y-104333333D01*
X206619047Y-105952380D02*
X206619047Y-106666666D01*
X206666666Y-106809523D01*
X206761904Y-106904761D01*
X206904761Y-106952380D01*
X207000000Y-106952380D01*
X205666666Y-106952380D02*
X206142857Y-106952380D01*
X206142857Y-105952380D01*
X204761904Y-106857142D02*
X204809523Y-106904761D01*
X204952380Y-106952380D01*
X205047619Y-106952380D01*
X205190476Y-106904761D01*
X205285714Y-106809523D01*
X205333333Y-106714285D01*
X205380952Y-106523809D01*
X205380952Y-106380952D01*
X205333333Y-106190476D01*
X205285714Y-106095238D01*
X205190476Y-106000000D01*
X205047619Y-105952380D01*
X204952380Y-105952380D01*
X204809523Y-106000000D01*
X204761904Y-106047619D01*
X204047619Y-105952380D02*
X204047619Y-106666666D01*
X204095238Y-106809523D01*
X204190476Y-106904761D01*
X204333333Y-106952380D01*
X204428571Y-106952380D01*
X203095238Y-106952380D02*
X203571428Y-106952380D01*
X203571428Y-105952380D01*
X202190476Y-106857142D02*
X202238095Y-106904761D01*
X202380952Y-106952380D01*
X202476190Y-106952380D01*
X202619047Y-106904761D01*
X202714285Y-106809523D01*
X202761904Y-106714285D01*
X202809523Y-106523809D01*
X202809523Y-106380952D01*
X202761904Y-106190476D01*
X202714285Y-106095238D01*
X202619047Y-106000000D01*
X202476190Y-105952380D01*
X202380952Y-105952380D01*
X202238095Y-106000000D01*
X202190476Y-106047619D01*
X201476190Y-105952380D02*
X201476190Y-106666666D01*
X201523809Y-106809523D01*
X201619047Y-106904761D01*
X201761904Y-106952380D01*
X201857142Y-106952380D01*
X200523809Y-106952380D02*
X201000000Y-106952380D01*
X201000000Y-105952380D01*
X199619047Y-106857142D02*
X199666666Y-106904761D01*
X199809523Y-106952380D01*
X199904761Y-106952380D01*
X200047619Y-106904761D01*
X200142857Y-106809523D01*
X200190476Y-106714285D01*
X200238095Y-106523809D01*
X200238095Y-106380952D01*
X200190476Y-106190476D01*
X200142857Y-106095238D01*
X200047619Y-106000000D01*
X199904761Y-105952380D01*
X199809523Y-105952380D01*
X199666666Y-106000000D01*
X199619047Y-106047619D01*
X198904761Y-105952380D02*
X198904761Y-106666666D01*
X198952380Y-106809523D01*
X199047619Y-106904761D01*
X199190476Y-106952380D01*
X199285714Y-106952380D01*
X197952380Y-106952380D02*
X198428571Y-106952380D01*
X198428571Y-105952380D01*
X197047619Y-106857142D02*
X197095238Y-106904761D01*
X197238095Y-106952380D01*
X197333333Y-106952380D01*
X197476190Y-106904761D01*
X197571428Y-106809523D01*
X197619047Y-106714285D01*
X197666666Y-106523809D01*
X197666666Y-106380952D01*
X197619047Y-106190476D01*
X197571428Y-106095238D01*
X197476190Y-106000000D01*
X197333333Y-105952380D01*
X197238095Y-105952380D01*
X197095238Y-106000000D01*
X197047619Y-106047619D01*
X213166666Y-96285714D02*
X213166666Y-97095238D01*
X213214285Y-97190476D01*
X213261904Y-97238095D01*
X213357142Y-97285714D01*
X213500000Y-97285714D01*
X213595238Y-97238095D01*
X213166666Y-96904761D02*
X213261904Y-96952380D01*
X213452380Y-96952380D01*
X213547619Y-96904761D01*
X213595238Y-96857142D01*
X213642857Y-96761904D01*
X213642857Y-96476190D01*
X213595238Y-96380952D01*
X213547619Y-96333333D01*
X213452380Y-96285714D01*
X213261904Y-96285714D01*
X213166666Y-96333333D01*
X212690476Y-96952380D02*
X212690476Y-96285714D01*
X212690476Y-95952380D02*
X212738095Y-96000000D01*
X212690476Y-96047619D01*
X212642857Y-96000000D01*
X212690476Y-95952380D01*
X212690476Y-96047619D01*
X212357142Y-96285714D02*
X211976190Y-96285714D01*
X212214285Y-95952380D02*
X212214285Y-96809523D01*
X212166666Y-96904761D01*
X212071428Y-96952380D01*
X211976190Y-96952380D01*
X211642857Y-96952380D02*
X211642857Y-95952380D01*
X211214285Y-96952380D02*
X211214285Y-96428571D01*
X211261904Y-96333333D01*
X211357142Y-96285714D01*
X211500000Y-96285714D01*
X211595238Y-96333333D01*
X211642857Y-96380952D01*
X210309523Y-96285714D02*
X210309523Y-96952380D01*
X210738095Y-96285714D02*
X210738095Y-96809523D01*
X210690476Y-96904761D01*
X210595238Y-96952380D01*
X210452380Y-96952380D01*
X210357142Y-96904761D01*
X210309523Y-96857142D01*
X209833333Y-96952380D02*
X209833333Y-95952380D01*
X209833333Y-96333333D02*
X209738095Y-96285714D01*
X209547619Y-96285714D01*
X209452380Y-96333333D01*
X209404761Y-96380952D01*
X209357142Y-96476190D01*
X209357142Y-96761904D01*
X209404761Y-96857142D01*
X209452380Y-96904761D01*
X209547619Y-96952380D01*
X209738095Y-96952380D01*
X209833333Y-96904761D01*
X208928571Y-96857142D02*
X208880952Y-96904761D01*
X208928571Y-96952380D01*
X208976190Y-96904761D01*
X208928571Y-96857142D01*
X208928571Y-96952380D01*
X208023809Y-96904761D02*
X208119047Y-96952380D01*
X208309523Y-96952380D01*
X208404761Y-96904761D01*
X208452380Y-96857142D01*
X208500000Y-96761904D01*
X208500000Y-96476190D01*
X208452380Y-96380952D01*
X208404761Y-96333333D01*
X208309523Y-96285714D01*
X208119047Y-96285714D01*
X208023809Y-96333333D01*
X207452380Y-96952380D02*
X207547619Y-96904761D01*
X207595238Y-96857142D01*
X207642857Y-96761904D01*
X207642857Y-96476190D01*
X207595238Y-96380952D01*
X207547619Y-96333333D01*
X207452380Y-96285714D01*
X207309523Y-96285714D01*
X207214285Y-96333333D01*
X207166666Y-96380952D01*
X207119047Y-96476190D01*
X207119047Y-96761904D01*
X207166666Y-96857142D01*
X207214285Y-96904761D01*
X207309523Y-96952380D01*
X207452380Y-96952380D01*
X206690476Y-96952380D02*
X206690476Y-96285714D01*
X206690476Y-96380952D02*
X206642857Y-96333333D01*
X206547619Y-96285714D01*
X206404761Y-96285714D01*
X206309523Y-96333333D01*
X206261904Y-96428571D01*
X206261904Y-96952380D01*
X206261904Y-96428571D02*
X206214285Y-96333333D01*
X206119047Y-96285714D01*
X205976190Y-96285714D01*
X205880952Y-96333333D01*
X205833333Y-96428571D01*
X205833333Y-96952380D01*
X204642857Y-95904761D02*
X205500000Y-97190476D01*
X204357142Y-96904761D02*
X204261904Y-96952380D01*
X204071428Y-96952380D01*
X203976190Y-96904761D01*
X203928571Y-96809523D01*
X203928571Y-96761904D01*
X203976190Y-96666666D01*
X204071428Y-96619047D01*
X204214285Y-96619047D01*
X204309523Y-96571428D01*
X204357142Y-96476190D01*
X204357142Y-96428571D01*
X204309523Y-96333333D01*
X204214285Y-96285714D01*
X204071428Y-96285714D01*
X203976190Y-96333333D01*
X203500000Y-96952380D02*
X203500000Y-95952380D01*
X203404761Y-96571428D02*
X203119047Y-96952380D01*
X203119047Y-96285714D02*
X203500000Y-96666666D01*
X202261904Y-96952380D02*
X202261904Y-96428571D01*
X202309523Y-96333333D01*
X202404761Y-96285714D01*
X202595238Y-96285714D01*
X202690476Y-96333333D01*
X202261904Y-96904761D02*
X202357142Y-96952380D01*
X202595238Y-96952380D01*
X202690476Y-96904761D01*
X202738095Y-96809523D01*
X202738095Y-96714285D01*
X202690476Y-96619047D01*
X202595238Y-96571428D01*
X202357142Y-96571428D01*
X202261904Y-96523809D01*
X201785714Y-96952380D02*
X201785714Y-96285714D01*
X201785714Y-96476190D02*
X201738095Y-96380952D01*
X201690476Y-96333333D01*
X201595238Y-96285714D01*
X201500000Y-96285714D01*
X201166666Y-96952380D02*
X201166666Y-96285714D01*
X201166666Y-96476190D02*
X201119047Y-96380952D01*
X201071428Y-96333333D01*
X200976190Y-96285714D01*
X200880952Y-96285714D01*
X200547619Y-96952380D02*
X200547619Y-96285714D01*
X200547619Y-96380952D02*
X200500000Y-96333333D01*
X200404761Y-96285714D01*
X200261904Y-96285714D01*
X200166666Y-96333333D01*
X200119047Y-96428571D01*
X200119047Y-96952380D01*
X200119047Y-96428571D02*
X200071428Y-96333333D01*
X199976190Y-96285714D01*
X199833333Y-96285714D01*
X199738095Y-96333333D01*
X199690476Y-96428571D01*
X199690476Y-96952380D01*
X198785714Y-96952380D02*
X198785714Y-96428571D01*
X198833333Y-96333333D01*
X198928571Y-96285714D01*
X199119047Y-96285714D01*
X199214285Y-96333333D01*
X198785714Y-96904761D02*
X198880952Y-96952380D01*
X199119047Y-96952380D01*
X199214285Y-96904761D01*
X199261904Y-96809523D01*
X199261904Y-96714285D01*
X199214285Y-96619047D01*
X199119047Y-96571428D01*
X198880952Y-96571428D01*
X198785714Y-96523809D01*
X198309523Y-96285714D02*
X198309523Y-96952380D01*
X198309523Y-96380952D02*
X198261904Y-96333333D01*
X198166666Y-96285714D01*
X198023809Y-96285714D01*
X197928571Y-96333333D01*
X197880952Y-96428571D01*
X197880952Y-96952380D01*
X197404761Y-96285714D02*
X197404761Y-96952380D01*
X197404761Y-96380952D02*
X197357142Y-96333333D01*
X197261904Y-96285714D01*
X197119047Y-96285714D01*
X197023809Y-96333333D01*
X196976190Y-96428571D01*
X196976190Y-96952380D01*
X195785714Y-95904761D02*
X196642857Y-97190476D01*
X195452380Y-96952380D02*
X195452380Y-95952380D01*
X195023809Y-96952380D02*
X195023809Y-96428571D01*
X195071428Y-96333333D01*
X195166666Y-96285714D01*
X195309523Y-96285714D01*
X195404761Y-96333333D01*
X195452380Y-96380952D01*
X194404761Y-96952380D02*
X194500000Y-96904761D01*
X194547619Y-96857142D01*
X194595238Y-96761904D01*
X194595238Y-96476190D01*
X194547619Y-96380952D01*
X194500000Y-96333333D01*
X194404761Y-96285714D01*
X194261904Y-96285714D01*
X194166666Y-96333333D01*
X194119047Y-96380952D01*
X194071428Y-96476190D01*
X194071428Y-96761904D01*
X194119047Y-96857142D01*
X194166666Y-96904761D01*
X194261904Y-96952380D01*
X194404761Y-96952380D01*
X193642857Y-96952380D02*
X193642857Y-96285714D01*
X193642857Y-96476190D02*
X193595238Y-96380952D01*
X193547619Y-96333333D01*
X193452380Y-96285714D01*
X193357142Y-96285714D01*
X193023809Y-96952380D02*
X193023809Y-96285714D01*
X193023809Y-95952380D02*
X193071428Y-96000000D01*
X193023809Y-96047619D01*
X192976190Y-96000000D01*
X193023809Y-95952380D01*
X193023809Y-96047619D01*
X192642857Y-96285714D02*
X192119047Y-96285714D01*
X192642857Y-96952380D01*
X192119047Y-96952380D01*
X191595238Y-96952380D02*
X191690476Y-96904761D01*
X191738095Y-96857142D01*
X191785714Y-96761904D01*
X191785714Y-96476190D01*
X191738095Y-96380952D01*
X191690476Y-96333333D01*
X191595238Y-96285714D01*
X191452380Y-96285714D01*
X191357142Y-96333333D01*
X191309523Y-96380952D01*
X191261904Y-96476190D01*
X191261904Y-96761904D01*
X191309523Y-96857142D01*
X191357142Y-96904761D01*
X191452380Y-96952380D01*
X191595238Y-96952380D01*
X190833333Y-96285714D02*
X190833333Y-96952380D01*
X190833333Y-96380952D02*
X190785714Y-96333333D01*
X190690476Y-96285714D01*
X190547619Y-96285714D01*
X190452380Y-96333333D01*
X190404761Y-96428571D01*
X190404761Y-96952380D01*
D11*
G36*
X207222169Y-98695895D02*
G01*
X206888794Y-99029269D01*
X206888794Y-100676389D01*
X206000500Y-100676389D01*
X206000500Y-100102422D01*
X205555294Y-100102422D01*
X205555294Y-100676389D01*
X203333500Y-100676389D01*
X203333500Y-100546215D01*
X203490309Y-100389405D01*
X203647118Y-100232594D01*
X203823503Y-100232595D01*
X203999887Y-100232595D01*
X204111195Y-100121295D01*
X204222502Y-100009996D01*
X204222501Y-100009994D01*
X203241071Y-100009994D01*
X203065036Y-100186028D01*
X202889000Y-100362063D01*
X202889000Y-100676389D01*
X199778206Y-100676389D01*
X199778206Y-100232595D01*
X199333000Y-100232595D01*
X199333000Y-100676389D01*
X197111206Y-100676389D01*
X197111206Y-99212712D01*
X197193579Y-99130515D01*
X197203118Y-99120997D01*
X197212714Y-99111424D01*
X197222290Y-99101872D01*
X197231764Y-99092423D01*
X197241059Y-99083154D01*
X197250096Y-99074144D01*
X197258793Y-99065473D01*
X197267074Y-99057220D01*
X197274857Y-99049463D01*
X197282065Y-99042282D01*
X197288617Y-99035756D01*
X197294435Y-99029963D01*
X197299439Y-99024983D01*
X197303550Y-99020894D01*
X197304705Y-99019745D01*
X197333458Y-98991174D01*
X197555706Y-99213418D01*
X197555706Y-100009993D01*
X197666831Y-100121117D01*
X197777956Y-100232240D01*
X197889081Y-100121117D01*
X198000206Y-100009993D01*
X198000206Y-99212715D01*
X198313824Y-98899095D01*
X198443998Y-98899094D01*
X198574172Y-98899094D01*
X198444000Y-99029272D01*
X198444000Y-99657213D01*
X199019380Y-100232595D01*
X199333000Y-100232595D01*
X199778206Y-100232595D01*
X199778206Y-100101716D01*
X200000102Y-99879816D01*
X200333301Y-100213015D01*
X200666500Y-100546213D01*
X200666500Y-99213418D01*
X200667205Y-99212713D01*
X199777500Y-99212713D01*
X199777500Y-99473768D01*
X199620691Y-99630579D01*
X199463882Y-99787389D01*
X199202826Y-99787389D01*
X198889206Y-99473771D01*
X198889206Y-99212715D01*
X199046015Y-99055905D01*
X199202824Y-98899094D01*
X199333352Y-98899095D01*
X199463879Y-98899095D01*
X199620690Y-99055904D01*
X199777500Y-99212713D01*
X200667205Y-99212713D01*
X200777625Y-99102294D01*
X200888750Y-98991171D01*
X200999875Y-99102295D01*
X201111000Y-99213418D01*
X201111000Y-99657215D01*
X201444346Y-99990560D01*
X201462545Y-100008758D01*
X201480497Y-100026707D01*
X201498177Y-100044382D01*
X201515559Y-100061757D01*
X201532617Y-100078806D01*
X201549324Y-100095503D01*
X201565656Y-100111823D01*
X201581586Y-100127739D01*
X201597088Y-100143226D01*
X201612137Y-100158258D01*
X201626706Y-100172809D01*
X201640770Y-100186854D01*
X201654304Y-100200365D01*
X201667280Y-100213319D01*
X201679673Y-100225689D01*
X201691458Y-100237448D01*
X201702608Y-100248572D01*
X201713097Y-100259034D01*
X201722901Y-100268809D01*
X201731992Y-100277871D01*
X201740345Y-100286193D01*
X201747934Y-100293751D01*
X201754733Y-100300518D01*
X201760717Y-100306469D01*
X201765859Y-100311577D01*
X201770134Y-100315818D01*
X201773516Y-100319164D01*
X201775978Y-100321591D01*
X201777496Y-100323072D01*
X201778042Y-100323582D01*
X201778044Y-100323582D01*
X201778561Y-100323066D01*
X201780045Y-100321585D01*
X201782462Y-100319169D01*
X201785783Y-100315851D01*
X201789974Y-100311662D01*
X201795005Y-100306634D01*
X201800842Y-100300799D01*
X201807456Y-100294188D01*
X201814813Y-100286834D01*
X201822882Y-100278767D01*
X201831632Y-100270020D01*
X201841030Y-100260625D01*
X201851046Y-100250612D01*
X201861646Y-100240015D01*
X201872799Y-100228864D01*
X201884475Y-100217192D01*
X201896640Y-100205029D01*
X201909263Y-100192409D01*
X201922312Y-100179362D01*
X201935756Y-100165921D01*
X201949563Y-100152117D01*
X201963701Y-100137981D01*
X201978138Y-100123547D01*
X201992843Y-100108844D01*
X202000149Y-100101540D01*
X202221902Y-99879821D01*
X202666396Y-100324317D01*
X202888648Y-100102066D01*
X203110899Y-99879816D01*
X203241071Y-100009994D01*
X204222501Y-100009994D01*
X204111201Y-99898692D01*
X203999899Y-99787389D01*
X203647121Y-99787389D01*
X203490310Y-99630580D01*
X203333500Y-99473771D01*
X203333500Y-99212599D01*
X203490437Y-99055847D01*
X203647374Y-98899094D01*
X204351959Y-98899094D01*
X204286877Y-98964191D01*
X204221794Y-99029287D01*
X204221794Y-99657213D01*
X204797174Y-100232595D01*
X205425117Y-100232595D01*
X205490206Y-100167508D01*
X205555294Y-100102422D01*
X206000500Y-100102422D01*
X206000500Y-99212713D01*
X205555294Y-99212713D01*
X205555294Y-99473768D01*
X205398485Y-99630579D01*
X205241676Y-99787389D01*
X204980621Y-99787389D01*
X204823810Y-99630580D01*
X204667000Y-99473771D01*
X204667000Y-99212715D01*
X204823809Y-99055905D01*
X204980618Y-98899094D01*
X205111146Y-98899095D01*
X205241674Y-98899095D01*
X205555294Y-99212713D01*
X206000500Y-99212713D01*
X206000500Y-99029274D01*
X205713164Y-98741934D01*
X205425827Y-98454595D01*
X204444398Y-98454595D01*
X203462969Y-98454594D01*
X203175984Y-98741580D01*
X202889000Y-99028565D01*
X202889000Y-99473066D01*
X202777698Y-99584366D01*
X202666396Y-99695667D01*
X202555448Y-99584717D01*
X202444500Y-99473768D01*
X202444500Y-98676490D01*
X202333375Y-98565367D01*
X202222250Y-98454243D01*
X202111125Y-98565367D01*
X202000000Y-98676490D01*
X202000000Y-99473066D01*
X201777750Y-99695312D01*
X201555500Y-99473066D01*
X201555500Y-99029264D01*
X201222448Y-98696245D01*
X201204255Y-98678053D01*
X201186308Y-98660108D01*
X201168634Y-98642436D01*
X201151258Y-98625062D01*
X201134206Y-98608013D01*
X201117505Y-98591314D01*
X201101180Y-98574991D01*
X201085257Y-98559070D01*
X201069761Y-98543576D01*
X201054720Y-98528537D01*
X201040158Y-98513977D01*
X201026101Y-98499923D01*
X201012576Y-98486400D01*
X200999609Y-98473435D01*
X200987224Y-98461052D01*
X200975449Y-98449279D01*
X200964308Y-98438141D01*
X200953828Y-98427663D01*
X200944036Y-98417873D01*
X200934955Y-98408795D01*
X200926614Y-98400455D01*
X200919036Y-98392880D01*
X200912249Y-98386095D01*
X200906279Y-98380126D01*
X200901150Y-98374999D01*
X200896889Y-98370741D01*
X200893522Y-98367376D01*
X200891075Y-98364930D01*
X200889574Y-98363430D01*
X200889044Y-98362902D01*
X200888530Y-98363379D01*
X200887044Y-98364828D01*
X200884613Y-98367223D01*
X200881262Y-98370540D01*
X200877016Y-98374750D01*
X200871903Y-98379830D01*
X200865947Y-98385753D01*
X200859174Y-98392493D01*
X200851611Y-98400025D01*
X200843283Y-98408322D01*
X200834217Y-98417359D01*
X200824437Y-98427110D01*
X200813971Y-98437549D01*
X200802843Y-98448651D01*
X200791080Y-98460389D01*
X200778707Y-98472737D01*
X200765751Y-98485671D01*
X200752237Y-98499164D01*
X200738192Y-98513190D01*
X200723640Y-98527723D01*
X200708608Y-98542738D01*
X200693122Y-98558208D01*
X200677208Y-98574109D01*
X200660891Y-98590414D01*
X200644198Y-98607097D01*
X200627153Y-98624132D01*
X200609785Y-98641494D01*
X200592117Y-98659157D01*
X200574176Y-98677095D01*
X200555987Y-98695282D01*
X200555522Y-98695748D01*
X200222352Y-99028917D01*
X199935192Y-98741756D01*
X199648031Y-98454595D01*
X198888853Y-98454594D01*
X198129674Y-98454594D01*
X197953639Y-98630631D01*
X197777604Y-98806667D01*
X197555706Y-98584770D01*
X197540876Y-98569941D01*
X197526297Y-98555367D01*
X197511999Y-98541077D01*
X197498016Y-98527105D01*
X197484379Y-98513481D01*
X197471119Y-98500237D01*
X197458269Y-98487405D01*
X197445860Y-98475017D01*
X197433924Y-98463104D01*
X197422492Y-98451698D01*
X197411597Y-98440831D01*
X197401270Y-98430534D01*
X197391544Y-98420839D01*
X197382449Y-98411778D01*
X197374018Y-98403383D01*
X197366283Y-98395684D01*
X197359275Y-98388715D01*
X197353026Y-98382505D01*
X197347567Y-98377089D01*
X197342932Y-98372496D01*
X197339151Y-98368758D01*
X197336256Y-98365908D01*
X197334279Y-98363977D01*
X197333251Y-98362996D01*
X197333104Y-98362872D01*
X197332571Y-98363367D01*
X197331066Y-98364834D01*
X197328615Y-98367247D01*
X197325245Y-98370581D01*
X197320981Y-98374809D01*
X197315849Y-98379906D01*
X197309874Y-98385845D01*
X197303084Y-98392602D01*
X197295504Y-98400150D01*
X197287159Y-98408463D01*
X197278076Y-98417515D01*
X197268280Y-98427281D01*
X197257798Y-98437734D01*
X197246655Y-98448849D01*
X197234878Y-98460600D01*
X197222492Y-98472961D01*
X197209524Y-98485907D01*
X197195998Y-98499410D01*
X197181941Y-98513446D01*
X197167380Y-98527988D01*
X197152339Y-98543011D01*
X197136845Y-98558489D01*
X197120924Y-98574396D01*
X197104601Y-98590706D01*
X197087903Y-98607393D01*
X197070856Y-98624431D01*
X197053485Y-98641795D01*
X197035816Y-98659458D01*
X197017876Y-98677395D01*
X196999690Y-98695580D01*
X196999553Y-98695717D01*
X196666706Y-99028563D01*
X196666706Y-100676389D01*
X196352380Y-100676389D01*
X195777706Y-101251065D01*
X195777706Y-102768715D01*
X196444456Y-103435463D01*
X197111206Y-102768715D01*
X197111206Y-101120889D01*
X196666706Y-101120889D01*
X196666706Y-102584562D01*
X196555758Y-102695512D01*
X196545307Y-102705961D01*
X196535121Y-102716143D01*
X196525242Y-102726014D01*
X196515718Y-102735529D01*
X196506591Y-102744642D01*
X196497909Y-102753310D01*
X196489714Y-102761487D01*
X196482053Y-102769128D01*
X196474970Y-102776189D01*
X196468510Y-102782625D01*
X196462719Y-102788391D01*
X196457641Y-102793443D01*
X196453321Y-102797734D01*
X196449804Y-102801222D01*
X196447134Y-102803860D01*
X196445358Y-102805604D01*
X196444520Y-102806409D01*
X196444457Y-102806461D01*
X196443932Y-102805970D01*
X196442455Y-102804525D01*
X196440070Y-102802171D01*
X196436823Y-102798954D01*
X196432758Y-102794918D01*
X196427920Y-102790108D01*
X196422354Y-102784568D01*
X196416106Y-102778344D01*
X196409220Y-102771481D01*
X196401741Y-102764023D01*
X196393714Y-102756014D01*
X196385184Y-102747501D01*
X196376197Y-102738527D01*
X196366796Y-102729137D01*
X196357027Y-102719377D01*
X196346935Y-102709290D01*
X196336565Y-102698923D01*
X196333155Y-102695513D01*
X196222206Y-102584566D01*
X196222206Y-101435215D01*
X196379368Y-101278052D01*
X196536529Y-101120889D01*
X196666706Y-101120889D01*
X197111206Y-101120889D01*
X199333000Y-101120889D01*
X199333000Y-102768009D01*
X199666552Y-103101560D01*
X200000103Y-103435111D01*
X200333302Y-103101912D01*
X200666500Y-102768713D01*
X200666500Y-102121012D01*
X200444250Y-101898766D01*
X200222000Y-102121012D01*
X200222000Y-102584566D01*
X200111051Y-102695513D01*
X200000101Y-102806461D01*
X199889153Y-102695512D01*
X199778206Y-102584562D01*
X199778206Y-101120889D01*
X202889000Y-101120889D01*
X202889037Y-101852726D01*
X202889073Y-102584564D01*
X202777750Y-102695527D01*
X202666428Y-102806490D01*
X202444500Y-102584566D01*
X202444500Y-102121012D01*
X202222250Y-101898766D01*
X202000000Y-102121012D01*
X202000000Y-102768715D01*
X202666750Y-103435463D01*
X203333500Y-102768715D01*
X203333500Y-101120889D01*
X205555294Y-101120889D01*
X205555294Y-102584566D01*
X205444345Y-102695513D01*
X205333396Y-102806461D01*
X205222448Y-102695512D01*
X205111500Y-102584562D01*
X205111500Y-102121016D01*
X205000552Y-102010066D01*
X204990099Y-101999615D01*
X204979905Y-101989431D01*
X204970018Y-101979559D01*
X204960482Y-101970043D01*
X204951341Y-101960928D01*
X204942642Y-101952259D01*
X204934429Y-101944081D01*
X204926747Y-101936439D01*
X204919642Y-101929378D01*
X204913158Y-101922942D01*
X204907342Y-101917176D01*
X204902237Y-101912125D01*
X204897889Y-101907834D01*
X204894343Y-101904349D01*
X204891645Y-101901712D01*
X204889839Y-101899970D01*
X204888970Y-101899168D01*
X204888897Y-101899117D01*
X204888339Y-101899609D01*
X204886829Y-101901054D01*
X204884411Y-101903408D01*
X204881132Y-101906627D01*
X204877037Y-101910664D01*
X204872170Y-101915476D01*
X204866576Y-101921017D01*
X204860302Y-101927243D01*
X204853391Y-101934109D01*
X204845890Y-101941570D01*
X204837842Y-101949581D01*
X204829294Y-101958097D01*
X204820290Y-101967074D01*
X204810875Y-101976466D01*
X204801096Y-101986229D01*
X204790996Y-101996318D01*
X204780621Y-102006688D01*
X204777242Y-102010066D01*
X204666294Y-102121016D01*
X204666294Y-102768009D01*
X205333398Y-103435111D01*
X205666949Y-103101559D01*
X206000500Y-102768008D01*
X206000500Y-101120889D01*
X206888794Y-101120889D01*
X206888794Y-102768715D01*
X207221993Y-103101913D01*
X207240189Y-103120108D01*
X207258139Y-103138056D01*
X207275816Y-103155730D01*
X207293194Y-103173105D01*
X207310248Y-103190155D01*
X207326953Y-103206854D01*
X207343281Y-103223176D01*
X207359207Y-103239095D01*
X207374706Y-103254586D01*
X207389751Y-103269622D01*
X207404317Y-103284178D01*
X207418377Y-103298228D01*
X207431906Y-103311746D01*
X207444878Y-103324706D01*
X207457267Y-103337083D01*
X207469047Y-103348849D01*
X207480192Y-103359981D01*
X207490677Y-103370451D01*
X207500475Y-103380235D01*
X207509561Y-103389305D01*
X207517908Y-103397637D01*
X207525492Y-103405203D01*
X207532285Y-103411980D01*
X207538262Y-103417940D01*
X207543398Y-103423058D01*
X207547666Y-103427308D01*
X207551041Y-103430664D01*
X207553496Y-103433101D01*
X207555006Y-103434591D01*
X207555544Y-103435111D01*
X207555545Y-103435111D01*
X207556059Y-103434617D01*
X207557545Y-103433150D01*
X207559976Y-103430737D01*
X207563328Y-103427404D01*
X207567574Y-103423176D01*
X207572688Y-103418079D01*
X207578645Y-103412140D01*
X207585418Y-103405383D01*
X207592982Y-103397836D01*
X207601310Y-103389523D01*
X207610378Y-103380471D01*
X207620158Y-103370706D01*
X207630626Y-103360252D01*
X207641755Y-103349137D01*
X207653519Y-103337386D01*
X207665893Y-103325024D01*
X207678851Y-103312078D01*
X207692366Y-103298574D01*
X207706413Y-103284537D01*
X207720967Y-103269994D01*
X207736000Y-103254969D01*
X207751488Y-103239489D01*
X207767404Y-103223581D01*
X207783722Y-103207268D01*
X207800417Y-103190579D01*
X207817463Y-103173537D01*
X207834834Y-103156170D01*
X207852503Y-103138503D01*
X207870446Y-103120562D01*
X207889096Y-103101912D01*
X208222294Y-102768713D01*
X208222294Y-101435213D01*
X207777795Y-101435213D01*
X207777794Y-102009888D01*
X207777794Y-102584562D01*
X207666847Y-102695512D01*
X207656396Y-102705961D01*
X207646210Y-102716143D01*
X207636331Y-102726014D01*
X207626807Y-102735529D01*
X207617680Y-102744642D01*
X207608997Y-102753310D01*
X207600803Y-102761487D01*
X207593142Y-102769128D01*
X207586059Y-102776189D01*
X207579599Y-102782625D01*
X207573808Y-102788391D01*
X207568730Y-102793443D01*
X207564410Y-102797734D01*
X207560892Y-102801222D01*
X207558223Y-102803860D01*
X207556447Y-102805604D01*
X207555609Y-102806409D01*
X207555546Y-102806461D01*
X207555021Y-102805970D01*
X207553544Y-102804525D01*
X207551159Y-102802171D01*
X207547912Y-102798954D01*
X207543847Y-102794918D01*
X207539009Y-102790108D01*
X207533443Y-102784568D01*
X207527195Y-102778344D01*
X207520309Y-102771481D01*
X207512830Y-102764023D01*
X207504803Y-102756014D01*
X207496273Y-102747501D01*
X207487286Y-102738527D01*
X207477885Y-102729137D01*
X207468116Y-102719377D01*
X207458024Y-102709290D01*
X207447654Y-102698923D01*
X207444244Y-102695513D01*
X207333294Y-102584566D01*
X207333294Y-101120889D01*
X207463468Y-101120889D01*
X207620631Y-101278051D01*
X207777795Y-101435213D01*
X208222294Y-101435213D01*
X208222294Y-101251063D01*
X207934957Y-100963726D01*
X207647619Y-100676389D01*
X207333294Y-100676389D01*
X207333294Y-99213418D01*
X207444419Y-99102295D01*
X207555544Y-98991171D01*
X207666669Y-99102294D01*
X207777794Y-99213418D01*
X207777794Y-99676971D01*
X207888919Y-99788095D01*
X208000044Y-99899218D01*
X208111169Y-99788095D01*
X208222294Y-99676971D01*
X208222294Y-99029269D01*
X207888919Y-98695895D01*
X207555545Y-98362520D01*
X207222169Y-98695895D01*
X207222169Y-98695895D01*
G37*
X207222169Y-98695895D02*
X206888794Y-99029269D01*
X206888794Y-100676389D01*
X206000500Y-100676389D01*
X206000500Y-100102422D01*
X205555294Y-100102422D01*
X205555294Y-100676389D01*
X203333500Y-100676389D01*
X203333500Y-100546215D01*
X203490309Y-100389405D01*
X203647118Y-100232594D01*
X203823503Y-100232595D01*
X203999887Y-100232595D01*
X204111195Y-100121295D01*
X204222502Y-100009996D01*
X204222501Y-100009994D01*
X203241071Y-100009994D01*
X203065036Y-100186028D01*
X202889000Y-100362063D01*
X202889000Y-100676389D01*
X199778206Y-100676389D01*
X199778206Y-100232595D01*
X199333000Y-100232595D01*
X199333000Y-100676389D01*
X197111206Y-100676389D01*
X197111206Y-99212712D01*
X197193579Y-99130515D01*
X197203118Y-99120997D01*
X197212714Y-99111424D01*
X197222290Y-99101872D01*
X197231764Y-99092423D01*
X197241059Y-99083154D01*
X197250096Y-99074144D01*
X197258793Y-99065473D01*
X197267074Y-99057220D01*
X197274857Y-99049463D01*
X197282065Y-99042282D01*
X197288617Y-99035756D01*
X197294435Y-99029963D01*
X197299439Y-99024983D01*
X197303550Y-99020894D01*
X197304705Y-99019745D01*
X197333458Y-98991174D01*
X197555706Y-99213418D01*
X197555706Y-100009993D01*
X197666831Y-100121117D01*
X197777956Y-100232240D01*
X197889081Y-100121117D01*
X198000206Y-100009993D01*
X198000206Y-99212715D01*
X198313824Y-98899095D01*
X198443998Y-98899094D01*
X198574172Y-98899094D01*
X198444000Y-99029272D01*
X198444000Y-99657213D01*
X199019380Y-100232595D01*
X199333000Y-100232595D01*
X199778206Y-100232595D01*
X199778206Y-100101716D01*
X200000102Y-99879816D01*
X200333301Y-100213015D01*
X200666500Y-100546213D01*
X200666500Y-99213418D01*
X200667205Y-99212713D01*
X199777500Y-99212713D01*
X199777500Y-99473768D01*
X199620691Y-99630579D01*
X199463882Y-99787389D01*
X199202826Y-99787389D01*
X198889206Y-99473771D01*
X198889206Y-99212715D01*
X199046015Y-99055905D01*
X199202824Y-98899094D01*
X199333352Y-98899095D01*
X199463879Y-98899095D01*
X199620690Y-99055904D01*
X199777500Y-99212713D01*
X200667205Y-99212713D01*
X200777625Y-99102294D01*
X200888750Y-98991171D01*
X200999875Y-99102295D01*
X201111000Y-99213418D01*
X201111000Y-99657215D01*
X201444346Y-99990560D01*
X201462545Y-100008758D01*
X201480497Y-100026707D01*
X201498177Y-100044382D01*
X201515559Y-100061757D01*
X201532617Y-100078806D01*
X201549324Y-100095503D01*
X201565656Y-100111823D01*
X201581586Y-100127739D01*
X201597088Y-100143226D01*
X201612137Y-100158258D01*
X201626706Y-100172809D01*
X201640770Y-100186854D01*
X201654304Y-100200365D01*
X201667280Y-100213319D01*
X201679673Y-100225689D01*
X201691458Y-100237448D01*
X201702608Y-100248572D01*
X201713097Y-100259034D01*
X201722901Y-100268809D01*
X201731992Y-100277871D01*
X201740345Y-100286193D01*
X201747934Y-100293751D01*
X201754733Y-100300518D01*
X201760717Y-100306469D01*
X201765859Y-100311577D01*
X201770134Y-100315818D01*
X201773516Y-100319164D01*
X201775978Y-100321591D01*
X201777496Y-100323072D01*
X201778042Y-100323582D01*
X201778044Y-100323582D01*
X201778561Y-100323066D01*
X201780045Y-100321585D01*
X201782462Y-100319169D01*
X201785783Y-100315851D01*
X201789974Y-100311662D01*
X201795005Y-100306634D01*
X201800842Y-100300799D01*
X201807456Y-100294188D01*
X201814813Y-100286834D01*
X201822882Y-100278767D01*
X201831632Y-100270020D01*
X201841030Y-100260625D01*
X201851046Y-100250612D01*
X201861646Y-100240015D01*
X201872799Y-100228864D01*
X201884475Y-100217192D01*
X201896640Y-100205029D01*
X201909263Y-100192409D01*
X201922312Y-100179362D01*
X201935756Y-100165921D01*
X201949563Y-100152117D01*
X201963701Y-100137981D01*
X201978138Y-100123547D01*
X201992843Y-100108844D01*
X202000149Y-100101540D01*
X202221902Y-99879821D01*
X202666396Y-100324317D01*
X202888648Y-100102066D01*
X203110899Y-99879816D01*
X203241071Y-100009994D01*
X204222501Y-100009994D01*
X204111201Y-99898692D01*
X203999899Y-99787389D01*
X203647121Y-99787389D01*
X203490310Y-99630580D01*
X203333500Y-99473771D01*
X203333500Y-99212599D01*
X203490437Y-99055847D01*
X203647374Y-98899094D01*
X204351959Y-98899094D01*
X204286877Y-98964191D01*
X204221794Y-99029287D01*
X204221794Y-99657213D01*
X204797174Y-100232595D01*
X205425117Y-100232595D01*
X205490206Y-100167508D01*
X205555294Y-100102422D01*
X206000500Y-100102422D01*
X206000500Y-99212713D01*
X205555294Y-99212713D01*
X205555294Y-99473768D01*
X205398485Y-99630579D01*
X205241676Y-99787389D01*
X204980621Y-99787389D01*
X204823810Y-99630580D01*
X204667000Y-99473771D01*
X204667000Y-99212715D01*
X204823809Y-99055905D01*
X204980618Y-98899094D01*
X205111146Y-98899095D01*
X205241674Y-98899095D01*
X205555294Y-99212713D01*
X206000500Y-99212713D01*
X206000500Y-99029274D01*
X205713164Y-98741934D01*
X205425827Y-98454595D01*
X204444398Y-98454595D01*
X203462969Y-98454594D01*
X203175984Y-98741580D01*
X202889000Y-99028565D01*
X202889000Y-99473066D01*
X202777698Y-99584366D01*
X202666396Y-99695667D01*
X202555448Y-99584717D01*
X202444500Y-99473768D01*
X202444500Y-98676490D01*
X202333375Y-98565367D01*
X202222250Y-98454243D01*
X202111125Y-98565367D01*
X202000000Y-98676490D01*
X202000000Y-99473066D01*
X201777750Y-99695312D01*
X201555500Y-99473066D01*
X201555500Y-99029264D01*
X201222448Y-98696245D01*
X201204255Y-98678053D01*
X201186308Y-98660108D01*
X201168634Y-98642436D01*
X201151258Y-98625062D01*
X201134206Y-98608013D01*
X201117505Y-98591314D01*
X201101180Y-98574991D01*
X201085257Y-98559070D01*
X201069761Y-98543576D01*
X201054720Y-98528537D01*
X201040158Y-98513977D01*
X201026101Y-98499923D01*
X201012576Y-98486400D01*
X200999609Y-98473435D01*
X200987224Y-98461052D01*
X200975449Y-98449279D01*
X200964308Y-98438141D01*
X200953828Y-98427663D01*
X200944036Y-98417873D01*
X200934955Y-98408795D01*
X200926614Y-98400455D01*
X200919036Y-98392880D01*
X200912249Y-98386095D01*
X200906279Y-98380126D01*
X200901150Y-98374999D01*
X200896889Y-98370741D01*
X200893522Y-98367376D01*
X200891075Y-98364930D01*
X200889574Y-98363430D01*
X200889044Y-98362902D01*
X200888530Y-98363379D01*
X200887044Y-98364828D01*
X200884613Y-98367223D01*
X200881262Y-98370540D01*
X200877016Y-98374750D01*
X200871903Y-98379830D01*
X200865947Y-98385753D01*
X200859174Y-98392493D01*
X200851611Y-98400025D01*
X200843283Y-98408322D01*
X200834217Y-98417359D01*
X200824437Y-98427110D01*
X200813971Y-98437549D01*
X200802843Y-98448651D01*
X200791080Y-98460389D01*
X200778707Y-98472737D01*
X200765751Y-98485671D01*
X200752237Y-98499164D01*
X200738192Y-98513190D01*
X200723640Y-98527723D01*
X200708608Y-98542738D01*
X200693122Y-98558208D01*
X200677208Y-98574109D01*
X200660891Y-98590414D01*
X200644198Y-98607097D01*
X200627153Y-98624132D01*
X200609785Y-98641494D01*
X200592117Y-98659157D01*
X200574176Y-98677095D01*
X200555987Y-98695282D01*
X200555522Y-98695748D01*
X200222352Y-99028917D01*
X199935192Y-98741756D01*
X199648031Y-98454595D01*
X198888853Y-98454594D01*
X198129674Y-98454594D01*
X197953639Y-98630631D01*
X197777604Y-98806667D01*
X197555706Y-98584770D01*
X197540876Y-98569941D01*
X197526297Y-98555367D01*
X197511999Y-98541077D01*
X197498016Y-98527105D01*
X197484379Y-98513481D01*
X197471119Y-98500237D01*
X197458269Y-98487405D01*
X197445860Y-98475017D01*
X197433924Y-98463104D01*
X197422492Y-98451698D01*
X197411597Y-98440831D01*
X197401270Y-98430534D01*
X197391544Y-98420839D01*
X197382449Y-98411778D01*
X197374018Y-98403383D01*
X197366283Y-98395684D01*
X197359275Y-98388715D01*
X197353026Y-98382505D01*
X197347567Y-98377089D01*
X197342932Y-98372496D01*
X197339151Y-98368758D01*
X197336256Y-98365908D01*
X197334279Y-98363977D01*
X197333251Y-98362996D01*
X197333104Y-98362872D01*
X197332571Y-98363367D01*
X197331066Y-98364834D01*
X197328615Y-98367247D01*
X197325245Y-98370581D01*
X197320981Y-98374809D01*
X197315849Y-98379906D01*
X197309874Y-98385845D01*
X197303084Y-98392602D01*
X197295504Y-98400150D01*
X197287159Y-98408463D01*
X197278076Y-98417515D01*
X197268280Y-98427281D01*
X197257798Y-98437734D01*
X197246655Y-98448849D01*
X197234878Y-98460600D01*
X197222492Y-98472961D01*
X197209524Y-98485907D01*
X197195998Y-98499410D01*
X197181941Y-98513446D01*
X197167380Y-98527988D01*
X197152339Y-98543011D01*
X197136845Y-98558489D01*
X197120924Y-98574396D01*
X197104601Y-98590706D01*
X197087903Y-98607393D01*
X197070856Y-98624431D01*
X197053485Y-98641795D01*
X197035816Y-98659458D01*
X197017876Y-98677395D01*
X196999690Y-98695580D01*
X196999553Y-98695717D01*
X196666706Y-99028563D01*
X196666706Y-100676389D01*
X196352380Y-100676389D01*
X195777706Y-101251065D01*
X195777706Y-102768715D01*
X196444456Y-103435463D01*
X197111206Y-102768715D01*
X197111206Y-101120889D01*
X196666706Y-101120889D01*
X196666706Y-102584562D01*
X196555758Y-102695512D01*
X196545307Y-102705961D01*
X196535121Y-102716143D01*
X196525242Y-102726014D01*
X196515718Y-102735529D01*
X196506591Y-102744642D01*
X196497909Y-102753310D01*
X196489714Y-102761487D01*
X196482053Y-102769128D01*
X196474970Y-102776189D01*
X196468510Y-102782625D01*
X196462719Y-102788391D01*
X196457641Y-102793443D01*
X196453321Y-102797734D01*
X196449804Y-102801222D01*
X196447134Y-102803860D01*
X196445358Y-102805604D01*
X196444520Y-102806409D01*
X196444457Y-102806461D01*
X196443932Y-102805970D01*
X196442455Y-102804525D01*
X196440070Y-102802171D01*
X196436823Y-102798954D01*
X196432758Y-102794918D01*
X196427920Y-102790108D01*
X196422354Y-102784568D01*
X196416106Y-102778344D01*
X196409220Y-102771481D01*
X196401741Y-102764023D01*
X196393714Y-102756014D01*
X196385184Y-102747501D01*
X196376197Y-102738527D01*
X196366796Y-102729137D01*
X196357027Y-102719377D01*
X196346935Y-102709290D01*
X196336565Y-102698923D01*
X196333155Y-102695513D01*
X196222206Y-102584566D01*
X196222206Y-101435215D01*
X196379368Y-101278052D01*
X196536529Y-101120889D01*
X196666706Y-101120889D01*
X197111206Y-101120889D01*
X199333000Y-101120889D01*
X199333000Y-102768009D01*
X199666552Y-103101560D01*
X200000103Y-103435111D01*
X200333302Y-103101912D01*
X200666500Y-102768713D01*
X200666500Y-102121012D01*
X200444250Y-101898766D01*
X200222000Y-102121012D01*
X200222000Y-102584566D01*
X200111051Y-102695513D01*
X200000101Y-102806461D01*
X199889153Y-102695512D01*
X199778206Y-102584562D01*
X199778206Y-101120889D01*
X202889000Y-101120889D01*
X202889037Y-101852726D01*
X202889073Y-102584564D01*
X202777750Y-102695527D01*
X202666428Y-102806490D01*
X202444500Y-102584566D01*
X202444500Y-102121012D01*
X202222250Y-101898766D01*
X202000000Y-102121012D01*
X202000000Y-102768715D01*
X202666750Y-103435463D01*
X203333500Y-102768715D01*
X203333500Y-101120889D01*
X205555294Y-101120889D01*
X205555294Y-102584566D01*
X205444345Y-102695513D01*
X205333396Y-102806461D01*
X205222448Y-102695512D01*
X205111500Y-102584562D01*
X205111500Y-102121016D01*
X205000552Y-102010066D01*
X204990099Y-101999615D01*
X204979905Y-101989431D01*
X204970018Y-101979559D01*
X204960482Y-101970043D01*
X204951341Y-101960928D01*
X204942642Y-101952259D01*
X204934429Y-101944081D01*
X204926747Y-101936439D01*
X204919642Y-101929378D01*
X204913158Y-101922942D01*
X204907342Y-101917176D01*
X204902237Y-101912125D01*
X204897889Y-101907834D01*
X204894343Y-101904349D01*
X204891645Y-101901712D01*
X204889839Y-101899970D01*
X204888970Y-101899168D01*
X204888897Y-101899117D01*
X204888339Y-101899609D01*
X204886829Y-101901054D01*
X204884411Y-101903408D01*
X204881132Y-101906627D01*
X204877037Y-101910664D01*
X204872170Y-101915476D01*
X204866576Y-101921017D01*
X204860302Y-101927243D01*
X204853391Y-101934109D01*
X204845890Y-101941570D01*
X204837842Y-101949581D01*
X204829294Y-101958097D01*
X204820290Y-101967074D01*
X204810875Y-101976466D01*
X204801096Y-101986229D01*
X204790996Y-101996318D01*
X204780621Y-102006688D01*
X204777242Y-102010066D01*
X204666294Y-102121016D01*
X204666294Y-102768009D01*
X205333398Y-103435111D01*
X205666949Y-103101559D01*
X206000500Y-102768008D01*
X206000500Y-101120889D01*
X206888794Y-101120889D01*
X206888794Y-102768715D01*
X207221993Y-103101913D01*
X207240189Y-103120108D01*
X207258139Y-103138056D01*
X207275816Y-103155730D01*
X207293194Y-103173105D01*
X207310248Y-103190155D01*
X207326953Y-103206854D01*
X207343281Y-103223176D01*
X207359207Y-103239095D01*
X207374706Y-103254586D01*
X207389751Y-103269622D01*
X207404317Y-103284178D01*
X207418377Y-103298228D01*
X207431906Y-103311746D01*
X207444878Y-103324706D01*
X207457267Y-103337083D01*
X207469047Y-103348849D01*
X207480192Y-103359981D01*
X207490677Y-103370451D01*
X207500475Y-103380235D01*
X207509561Y-103389305D01*
X207517908Y-103397637D01*
X207525492Y-103405203D01*
X207532285Y-103411980D01*
X207538262Y-103417940D01*
X207543398Y-103423058D01*
X207547666Y-103427308D01*
X207551041Y-103430664D01*
X207553496Y-103433101D01*
X207555006Y-103434591D01*
X207555544Y-103435111D01*
X207555545Y-103435111D01*
X207556059Y-103434617D01*
X207557545Y-103433150D01*
X207559976Y-103430737D01*
X207563328Y-103427404D01*
X207567574Y-103423176D01*
X207572688Y-103418079D01*
X207578645Y-103412140D01*
X207585418Y-103405383D01*
X207592982Y-103397836D01*
X207601310Y-103389523D01*
X207610378Y-103380471D01*
X207620158Y-103370706D01*
X207630626Y-103360252D01*
X207641755Y-103349137D01*
X207653519Y-103337386D01*
X207665893Y-103325024D01*
X207678851Y-103312078D01*
X207692366Y-103298574D01*
X207706413Y-103284537D01*
X207720967Y-103269994D01*
X207736000Y-103254969D01*
X207751488Y-103239489D01*
X207767404Y-103223581D01*
X207783722Y-103207268D01*
X207800417Y-103190579D01*
X207817463Y-103173537D01*
X207834834Y-103156170D01*
X207852503Y-103138503D01*
X207870446Y-103120562D01*
X207889096Y-103101912D01*
X208222294Y-102768713D01*
X208222294Y-101435213D01*
X207777795Y-101435213D01*
X207777794Y-102009888D01*
X207777794Y-102584562D01*
X207666847Y-102695512D01*
X207656396Y-102705961D01*
X207646210Y-102716143D01*
X207636331Y-102726014D01*
X207626807Y-102735529D01*
X207617680Y-102744642D01*
X207608997Y-102753310D01*
X207600803Y-102761487D01*
X207593142Y-102769128D01*
X207586059Y-102776189D01*
X207579599Y-102782625D01*
X207573808Y-102788391D01*
X207568730Y-102793443D01*
X207564410Y-102797734D01*
X207560892Y-102801222D01*
X207558223Y-102803860D01*
X207556447Y-102805604D01*
X207555609Y-102806409D01*
X207555546Y-102806461D01*
X207555021Y-102805970D01*
X207553544Y-102804525D01*
X207551159Y-102802171D01*
X207547912Y-102798954D01*
X207543847Y-102794918D01*
X207539009Y-102790108D01*
X207533443Y-102784568D01*
X207527195Y-102778344D01*
X207520309Y-102771481D01*
X207512830Y-102764023D01*
X207504803Y-102756014D01*
X207496273Y-102747501D01*
X207487286Y-102738527D01*
X207477885Y-102729137D01*
X207468116Y-102719377D01*
X207458024Y-102709290D01*
X207447654Y-102698923D01*
X207444244Y-102695513D01*
X207333294Y-102584566D01*
X207333294Y-101120889D01*
X207463468Y-101120889D01*
X207620631Y-101278051D01*
X207777795Y-101435213D01*
X208222294Y-101435213D01*
X208222294Y-101251063D01*
X207934957Y-100963726D01*
X207647619Y-100676389D01*
X207333294Y-100676389D01*
X207333294Y-99213418D01*
X207444419Y-99102295D01*
X207555544Y-98991171D01*
X207666669Y-99102294D01*
X207777794Y-99213418D01*
X207777794Y-99676971D01*
X207888919Y-99788095D01*
X208000044Y-99899218D01*
X208111169Y-99788095D01*
X208222294Y-99676971D01*
X208222294Y-99029269D01*
X207888919Y-98695895D01*
X207555545Y-98362520D01*
X207222169Y-98695895D01*
G36*
X202000000Y-97787490D02*
G01*
X202000000Y-98010449D01*
X202110950Y-98121397D01*
X202221899Y-98232344D01*
X202333200Y-98121042D01*
X202444500Y-98009740D01*
X202444500Y-97787490D01*
X202222250Y-97565244D01*
X202000000Y-97787490D01*
X202000000Y-97787490D01*
G37*
X202000000Y-97787490D02*
X202000000Y-98010449D01*
X202110950Y-98121397D01*
X202221899Y-98232344D01*
X202333200Y-98121042D01*
X202444500Y-98009740D01*
X202444500Y-97787490D01*
X202222250Y-97565244D01*
X202000000Y-97787490D01*
D10*
%LPC*%
D12*
X216666726Y-123333274D03*
X215500000Y-122850000D03*
X214333274Y-123333274D03*
X213850000Y-124500000D03*
X214333274Y-125666726D03*
X215500000Y-126150000D03*
X216666726Y-125666726D03*
X217150000Y-124500000D03*
D13*
X215500000Y-124500000D03*
D12*
X189666726Y-123333274D03*
X188500000Y-122850000D03*
X187333274Y-123333274D03*
X186850000Y-124500000D03*
X187333274Y-125666726D03*
X188500000Y-126150000D03*
X189666726Y-125666726D03*
X190150000Y-124500000D03*
D13*
X188500000Y-124500000D03*
D12*
X216666726Y-98333274D03*
X215500000Y-97850000D03*
X214333274Y-98333274D03*
X213850000Y-99500000D03*
X214333274Y-100666726D03*
X215500000Y-101150000D03*
X216666726Y-100666726D03*
X217150000Y-99500000D03*
D13*
X215500000Y-99500000D03*
D12*
X189666726Y-98333274D03*
X188500000Y-97850000D03*
X187333274Y-98333274D03*
X186850000Y-99500000D03*
X187333274Y-100666726D03*
X188500000Y-101150000D03*
X189666726Y-100666726D03*
X190150000Y-99500000D03*
D13*
X188500000Y-99500000D03*
D12*
X95166726Y-110833274D03*
X94000000Y-110350000D03*
X92833274Y-110833274D03*
X92350000Y-112000000D03*
X92833274Y-113166726D03*
X94000000Y-113650000D03*
X95166726Y-113166726D03*
X95650000Y-112000000D03*
D13*
X94000000Y-112000000D03*
D12*
X311166726Y-144833274D03*
X310000000Y-144350000D03*
X308833274Y-144833274D03*
X308350000Y-146000000D03*
X308833274Y-147166726D03*
X310000000Y-147650000D03*
X311166726Y-147166726D03*
X311650000Y-146000000D03*
D13*
X310000000Y-146000000D03*
D12*
X311166726Y-110833274D03*
X310000000Y-110350000D03*
X308833274Y-110833274D03*
X308350000Y-112000000D03*
X308833274Y-113166726D03*
X310000000Y-113650000D03*
X311166726Y-113166726D03*
X311650000Y-112000000D03*
D13*
X310000000Y-112000000D03*
D12*
X95166726Y-144833274D03*
X94000000Y-144350000D03*
X92833274Y-144833274D03*
X92350000Y-146000000D03*
X92833274Y-147166726D03*
X94000000Y-147650000D03*
X95166726Y-147166726D03*
X95650000Y-146000000D03*
D13*
X94000000Y-146000000D03*
M02*
