G04 #@! TF.GenerationSoftware,KiCad,Pcbnew,(5.1.4)-1*
G04 #@! TF.CreationDate,2021-09-25T13:38:48-04:00*
G04 #@! TF.ProjectId,horizon-choc-bottom-plate,686f7269-7a6f-46e2-9d63-686f632d626f,rev?*
G04 #@! TF.SameCoordinates,Original*
G04 #@! TF.FileFunction,Legend,Bot*
G04 #@! TF.FilePolarity,Positive*
%FSLAX46Y46*%
G04 Gerber Fmt 4.6, Leading zero omitted, Abs format (unit mm)*
G04 Created by KiCad (PCBNEW (5.1.4)-1) date 2021-09-25 13:38:48*
%MOMM*%
%LPD*%
G04 APERTURE LIST*
%ADD10C,0.150000*%
%ADD11C,0.010000*%
%ADD12C,0.802000*%
%ADD13C,4.502000*%
G04 APERTURE END LIST*
D10*
X206428571Y-115952380D02*
X206428571Y-115285714D01*
X206428571Y-115476190D02*
X206380952Y-115380952D01*
X206333333Y-115333333D01*
X206238095Y-115285714D01*
X206142857Y-115285714D01*
X205428571Y-115904761D02*
X205523809Y-115952380D01*
X205714285Y-115952380D01*
X205809523Y-115904761D01*
X205857142Y-115809523D01*
X205857142Y-115428571D01*
X205809523Y-115333333D01*
X205714285Y-115285714D01*
X205523809Y-115285714D01*
X205428571Y-115333333D01*
X205380952Y-115428571D01*
X205380952Y-115523809D01*
X205857142Y-115619047D01*
X205047619Y-115285714D02*
X204809523Y-115952380D01*
X204571428Y-115285714D01*
X204238095Y-115047619D02*
X204190476Y-115000000D01*
X204095238Y-114952380D01*
X203857142Y-114952380D01*
X203761904Y-115000000D01*
X203714285Y-115047619D01*
X203666666Y-115142857D01*
X203666666Y-115238095D01*
X203714285Y-115380952D01*
X204285714Y-115952380D01*
X203666666Y-115952380D01*
X202238095Y-116285714D02*
X202238095Y-114857142D01*
X200190476Y-115857142D02*
X200238095Y-115904761D01*
X200380952Y-115952380D01*
X200476190Y-115952380D01*
X200619047Y-115904761D01*
X200714285Y-115809523D01*
X200761904Y-115714285D01*
X200809523Y-115523809D01*
X200809523Y-115380952D01*
X200761904Y-115190476D01*
X200714285Y-115095238D01*
X200619047Y-115000000D01*
X200476190Y-114952380D01*
X200380952Y-114952380D01*
X200238095Y-115000000D01*
X200190476Y-115047619D01*
X199761904Y-115952380D02*
X199761904Y-114952380D01*
X199333333Y-115952380D02*
X199333333Y-115428571D01*
X199380952Y-115333333D01*
X199476190Y-115285714D01*
X199619047Y-115285714D01*
X199714285Y-115333333D01*
X199761904Y-115380952D01*
X198714285Y-115952380D02*
X198809523Y-115904761D01*
X198857142Y-115857142D01*
X198904761Y-115761904D01*
X198904761Y-115476190D01*
X198857142Y-115380952D01*
X198809523Y-115333333D01*
X198714285Y-115285714D01*
X198571428Y-115285714D01*
X198476190Y-115333333D01*
X198428571Y-115380952D01*
X198380952Y-115476190D01*
X198380952Y-115761904D01*
X198428571Y-115857142D01*
X198476190Y-115904761D01*
X198571428Y-115952380D01*
X198714285Y-115952380D01*
X197523809Y-115904761D02*
X197619047Y-115952380D01*
X197809523Y-115952380D01*
X197904761Y-115904761D01*
X197952380Y-115857142D01*
X198000000Y-115761904D01*
X198000000Y-115476190D01*
X197952380Y-115380952D01*
X197904761Y-115333333D01*
X197809523Y-115285714D01*
X197619047Y-115285714D01*
X197523809Y-115333333D01*
X206619047Y-126952380D02*
X206619047Y-127666666D01*
X206666666Y-127809523D01*
X206761904Y-127904761D01*
X206904761Y-127952380D01*
X207000000Y-127952380D01*
X205666666Y-127952380D02*
X206142857Y-127952380D01*
X206142857Y-126952380D01*
X204761904Y-127857142D02*
X204809523Y-127904761D01*
X204952380Y-127952380D01*
X205047619Y-127952380D01*
X205190476Y-127904761D01*
X205285714Y-127809523D01*
X205333333Y-127714285D01*
X205380952Y-127523809D01*
X205380952Y-127380952D01*
X205333333Y-127190476D01*
X205285714Y-127095238D01*
X205190476Y-127000000D01*
X205047619Y-126952380D01*
X204952380Y-126952380D01*
X204809523Y-127000000D01*
X204761904Y-127047619D01*
X204047619Y-126952380D02*
X204047619Y-127666666D01*
X204095238Y-127809523D01*
X204190476Y-127904761D01*
X204333333Y-127952380D01*
X204428571Y-127952380D01*
X203095238Y-127952380D02*
X203571428Y-127952380D01*
X203571428Y-126952380D01*
X202190476Y-127857142D02*
X202238095Y-127904761D01*
X202380952Y-127952380D01*
X202476190Y-127952380D01*
X202619047Y-127904761D01*
X202714285Y-127809523D01*
X202761904Y-127714285D01*
X202809523Y-127523809D01*
X202809523Y-127380952D01*
X202761904Y-127190476D01*
X202714285Y-127095238D01*
X202619047Y-127000000D01*
X202476190Y-126952380D01*
X202380952Y-126952380D01*
X202238095Y-127000000D01*
X202190476Y-127047619D01*
X201476190Y-126952380D02*
X201476190Y-127666666D01*
X201523809Y-127809523D01*
X201619047Y-127904761D01*
X201761904Y-127952380D01*
X201857142Y-127952380D01*
X200523809Y-127952380D02*
X201000000Y-127952380D01*
X201000000Y-126952380D01*
X199619047Y-127857142D02*
X199666666Y-127904761D01*
X199809523Y-127952380D01*
X199904761Y-127952380D01*
X200047619Y-127904761D01*
X200142857Y-127809523D01*
X200190476Y-127714285D01*
X200238095Y-127523809D01*
X200238095Y-127380952D01*
X200190476Y-127190476D01*
X200142857Y-127095238D01*
X200047619Y-127000000D01*
X199904761Y-126952380D01*
X199809523Y-126952380D01*
X199666666Y-127000000D01*
X199619047Y-127047619D01*
X198904761Y-126952380D02*
X198904761Y-127666666D01*
X198952380Y-127809523D01*
X199047619Y-127904761D01*
X199190476Y-127952380D01*
X199285714Y-127952380D01*
X197952380Y-127952380D02*
X198428571Y-127952380D01*
X198428571Y-126952380D01*
X197047619Y-127857142D02*
X197095238Y-127904761D01*
X197238095Y-127952380D01*
X197333333Y-127952380D01*
X197476190Y-127904761D01*
X197571428Y-127809523D01*
X197619047Y-127714285D01*
X197666666Y-127523809D01*
X197666666Y-127380952D01*
X197619047Y-127190476D01*
X197571428Y-127095238D01*
X197476190Y-127000000D01*
X197333333Y-126952380D01*
X197238095Y-126952380D01*
X197095238Y-127000000D01*
X197047619Y-127047619D01*
X213166666Y-96285714D02*
X213166666Y-97095238D01*
X213214285Y-97190476D01*
X213261904Y-97238095D01*
X213357142Y-97285714D01*
X213500000Y-97285714D01*
X213595238Y-97238095D01*
X213166666Y-96904761D02*
X213261904Y-96952380D01*
X213452380Y-96952380D01*
X213547619Y-96904761D01*
X213595238Y-96857142D01*
X213642857Y-96761904D01*
X213642857Y-96476190D01*
X213595238Y-96380952D01*
X213547619Y-96333333D01*
X213452380Y-96285714D01*
X213261904Y-96285714D01*
X213166666Y-96333333D01*
X212690476Y-96952380D02*
X212690476Y-96285714D01*
X212690476Y-95952380D02*
X212738095Y-96000000D01*
X212690476Y-96047619D01*
X212642857Y-96000000D01*
X212690476Y-95952380D01*
X212690476Y-96047619D01*
X212357142Y-96285714D02*
X211976190Y-96285714D01*
X212214285Y-95952380D02*
X212214285Y-96809523D01*
X212166666Y-96904761D01*
X212071428Y-96952380D01*
X211976190Y-96952380D01*
X211642857Y-96952380D02*
X211642857Y-95952380D01*
X211214285Y-96952380D02*
X211214285Y-96428571D01*
X211261904Y-96333333D01*
X211357142Y-96285714D01*
X211500000Y-96285714D01*
X211595238Y-96333333D01*
X211642857Y-96380952D01*
X210309523Y-96285714D02*
X210309523Y-96952380D01*
X210738095Y-96285714D02*
X210738095Y-96809523D01*
X210690476Y-96904761D01*
X210595238Y-96952380D01*
X210452380Y-96952380D01*
X210357142Y-96904761D01*
X210309523Y-96857142D01*
X209833333Y-96952380D02*
X209833333Y-95952380D01*
X209833333Y-96333333D02*
X209738095Y-96285714D01*
X209547619Y-96285714D01*
X209452380Y-96333333D01*
X209404761Y-96380952D01*
X209357142Y-96476190D01*
X209357142Y-96761904D01*
X209404761Y-96857142D01*
X209452380Y-96904761D01*
X209547619Y-96952380D01*
X209738095Y-96952380D01*
X209833333Y-96904761D01*
X208928571Y-96857142D02*
X208880952Y-96904761D01*
X208928571Y-96952380D01*
X208976190Y-96904761D01*
X208928571Y-96857142D01*
X208928571Y-96952380D01*
X208023809Y-96904761D02*
X208119047Y-96952380D01*
X208309523Y-96952380D01*
X208404761Y-96904761D01*
X208452380Y-96857142D01*
X208500000Y-96761904D01*
X208500000Y-96476190D01*
X208452380Y-96380952D01*
X208404761Y-96333333D01*
X208309523Y-96285714D01*
X208119047Y-96285714D01*
X208023809Y-96333333D01*
X207452380Y-96952380D02*
X207547619Y-96904761D01*
X207595238Y-96857142D01*
X207642857Y-96761904D01*
X207642857Y-96476190D01*
X207595238Y-96380952D01*
X207547619Y-96333333D01*
X207452380Y-96285714D01*
X207309523Y-96285714D01*
X207214285Y-96333333D01*
X207166666Y-96380952D01*
X207119047Y-96476190D01*
X207119047Y-96761904D01*
X207166666Y-96857142D01*
X207214285Y-96904761D01*
X207309523Y-96952380D01*
X207452380Y-96952380D01*
X206690476Y-96952380D02*
X206690476Y-96285714D01*
X206690476Y-96380952D02*
X206642857Y-96333333D01*
X206547619Y-96285714D01*
X206404761Y-96285714D01*
X206309523Y-96333333D01*
X206261904Y-96428571D01*
X206261904Y-96952380D01*
X206261904Y-96428571D02*
X206214285Y-96333333D01*
X206119047Y-96285714D01*
X205976190Y-96285714D01*
X205880952Y-96333333D01*
X205833333Y-96428571D01*
X205833333Y-96952380D01*
X204642857Y-95904761D02*
X205500000Y-97190476D01*
X204357142Y-96904761D02*
X204261904Y-96952380D01*
X204071428Y-96952380D01*
X203976190Y-96904761D01*
X203928571Y-96809523D01*
X203928571Y-96761904D01*
X203976190Y-96666666D01*
X204071428Y-96619047D01*
X204214285Y-96619047D01*
X204309523Y-96571428D01*
X204357142Y-96476190D01*
X204357142Y-96428571D01*
X204309523Y-96333333D01*
X204214285Y-96285714D01*
X204071428Y-96285714D01*
X203976190Y-96333333D01*
X203500000Y-96952380D02*
X203500000Y-95952380D01*
X203404761Y-96571428D02*
X203119047Y-96952380D01*
X203119047Y-96285714D02*
X203500000Y-96666666D01*
X202261904Y-96952380D02*
X202261904Y-96428571D01*
X202309523Y-96333333D01*
X202404761Y-96285714D01*
X202595238Y-96285714D01*
X202690476Y-96333333D01*
X202261904Y-96904761D02*
X202357142Y-96952380D01*
X202595238Y-96952380D01*
X202690476Y-96904761D01*
X202738095Y-96809523D01*
X202738095Y-96714285D01*
X202690476Y-96619047D01*
X202595238Y-96571428D01*
X202357142Y-96571428D01*
X202261904Y-96523809D01*
X201785714Y-96952380D02*
X201785714Y-96285714D01*
X201785714Y-96476190D02*
X201738095Y-96380952D01*
X201690476Y-96333333D01*
X201595238Y-96285714D01*
X201500000Y-96285714D01*
X201166666Y-96952380D02*
X201166666Y-96285714D01*
X201166666Y-96476190D02*
X201119047Y-96380952D01*
X201071428Y-96333333D01*
X200976190Y-96285714D01*
X200880952Y-96285714D01*
X200547619Y-96952380D02*
X200547619Y-96285714D01*
X200547619Y-96380952D02*
X200500000Y-96333333D01*
X200404761Y-96285714D01*
X200261904Y-96285714D01*
X200166666Y-96333333D01*
X200119047Y-96428571D01*
X200119047Y-96952380D01*
X200119047Y-96428571D02*
X200071428Y-96333333D01*
X199976190Y-96285714D01*
X199833333Y-96285714D01*
X199738095Y-96333333D01*
X199690476Y-96428571D01*
X199690476Y-96952380D01*
X198785714Y-96952380D02*
X198785714Y-96428571D01*
X198833333Y-96333333D01*
X198928571Y-96285714D01*
X199119047Y-96285714D01*
X199214285Y-96333333D01*
X198785714Y-96904761D02*
X198880952Y-96952380D01*
X199119047Y-96952380D01*
X199214285Y-96904761D01*
X199261904Y-96809523D01*
X199261904Y-96714285D01*
X199214285Y-96619047D01*
X199119047Y-96571428D01*
X198880952Y-96571428D01*
X198785714Y-96523809D01*
X198309523Y-96285714D02*
X198309523Y-96952380D01*
X198309523Y-96380952D02*
X198261904Y-96333333D01*
X198166666Y-96285714D01*
X198023809Y-96285714D01*
X197928571Y-96333333D01*
X197880952Y-96428571D01*
X197880952Y-96952380D01*
X197404761Y-96285714D02*
X197404761Y-96952380D01*
X197404761Y-96380952D02*
X197357142Y-96333333D01*
X197261904Y-96285714D01*
X197119047Y-96285714D01*
X197023809Y-96333333D01*
X196976190Y-96428571D01*
X196976190Y-96952380D01*
X195785714Y-95904761D02*
X196642857Y-97190476D01*
X195452380Y-96952380D02*
X195452380Y-95952380D01*
X195023809Y-96952380D02*
X195023809Y-96428571D01*
X195071428Y-96333333D01*
X195166666Y-96285714D01*
X195309523Y-96285714D01*
X195404761Y-96333333D01*
X195452380Y-96380952D01*
X194404761Y-96952380D02*
X194500000Y-96904761D01*
X194547619Y-96857142D01*
X194595238Y-96761904D01*
X194595238Y-96476190D01*
X194547619Y-96380952D01*
X194500000Y-96333333D01*
X194404761Y-96285714D01*
X194261904Y-96285714D01*
X194166666Y-96333333D01*
X194119047Y-96380952D01*
X194071428Y-96476190D01*
X194071428Y-96761904D01*
X194119047Y-96857142D01*
X194166666Y-96904761D01*
X194261904Y-96952380D01*
X194404761Y-96952380D01*
X193642857Y-96952380D02*
X193642857Y-96285714D01*
X193642857Y-96476190D02*
X193595238Y-96380952D01*
X193547619Y-96333333D01*
X193452380Y-96285714D01*
X193357142Y-96285714D01*
X193023809Y-96952380D02*
X193023809Y-96285714D01*
X193023809Y-95952380D02*
X193071428Y-96000000D01*
X193023809Y-96047619D01*
X192976190Y-96000000D01*
X193023809Y-95952380D01*
X193023809Y-96047619D01*
X192642857Y-96285714D02*
X192119047Y-96285714D01*
X192642857Y-96952380D01*
X192119047Y-96952380D01*
X191595238Y-96952380D02*
X191690476Y-96904761D01*
X191738095Y-96857142D01*
X191785714Y-96761904D01*
X191785714Y-96476190D01*
X191738095Y-96380952D01*
X191690476Y-96333333D01*
X191595238Y-96285714D01*
X191452380Y-96285714D01*
X191357142Y-96333333D01*
X191309523Y-96380952D01*
X191261904Y-96476190D01*
X191261904Y-96761904D01*
X191309523Y-96857142D01*
X191357142Y-96904761D01*
X191452380Y-96952380D01*
X191595238Y-96952380D01*
X190833333Y-96285714D02*
X190833333Y-96952380D01*
X190833333Y-96380952D02*
X190785714Y-96333333D01*
X190690476Y-96285714D01*
X190547619Y-96285714D01*
X190452380Y-96333333D01*
X190404761Y-96428571D01*
X190404761Y-96952380D01*
D11*
G36*
X207222169Y-109695895D02*
G01*
X206888794Y-110029269D01*
X206888794Y-111676389D01*
X206000500Y-111676389D01*
X206000500Y-111102422D01*
X205555294Y-111102422D01*
X205555294Y-111676389D01*
X203333500Y-111676389D01*
X203333500Y-111546215D01*
X203490309Y-111389405D01*
X203647118Y-111232594D01*
X203823503Y-111232595D01*
X203999887Y-111232595D01*
X204111195Y-111121295D01*
X204222502Y-111009996D01*
X204222501Y-111009994D01*
X203241071Y-111009994D01*
X203065036Y-111186028D01*
X202889000Y-111362063D01*
X202889000Y-111676389D01*
X199778206Y-111676389D01*
X199778206Y-111232595D01*
X199333000Y-111232595D01*
X199333000Y-111676389D01*
X197111206Y-111676389D01*
X197111206Y-110212712D01*
X197193579Y-110130515D01*
X197203118Y-110120997D01*
X197212714Y-110111424D01*
X197222290Y-110101872D01*
X197231764Y-110092423D01*
X197241059Y-110083154D01*
X197250096Y-110074144D01*
X197258793Y-110065473D01*
X197267074Y-110057220D01*
X197274857Y-110049463D01*
X197282065Y-110042282D01*
X197288617Y-110035756D01*
X197294435Y-110029963D01*
X197299439Y-110024983D01*
X197303550Y-110020894D01*
X197304705Y-110019745D01*
X197333458Y-109991174D01*
X197555706Y-110213418D01*
X197555706Y-111009993D01*
X197666831Y-111121117D01*
X197777956Y-111232240D01*
X197889081Y-111121117D01*
X198000206Y-111009993D01*
X198000206Y-110212715D01*
X198313824Y-109899095D01*
X198443998Y-109899094D01*
X198574172Y-109899094D01*
X198444000Y-110029272D01*
X198444000Y-110657213D01*
X199019380Y-111232595D01*
X199333000Y-111232595D01*
X199778206Y-111232595D01*
X199778206Y-111101716D01*
X200000102Y-110879816D01*
X200333301Y-111213015D01*
X200666500Y-111546213D01*
X200666500Y-110213418D01*
X200667205Y-110212713D01*
X199777500Y-110212713D01*
X199777500Y-110473768D01*
X199620691Y-110630579D01*
X199463882Y-110787389D01*
X199202826Y-110787389D01*
X198889206Y-110473771D01*
X198889206Y-110212715D01*
X199046015Y-110055905D01*
X199202824Y-109899094D01*
X199333352Y-109899095D01*
X199463879Y-109899095D01*
X199620690Y-110055904D01*
X199777500Y-110212713D01*
X200667205Y-110212713D01*
X200777625Y-110102294D01*
X200888750Y-109991171D01*
X200999875Y-110102295D01*
X201111000Y-110213418D01*
X201111000Y-110657215D01*
X201444346Y-110990560D01*
X201462545Y-111008758D01*
X201480497Y-111026707D01*
X201498177Y-111044382D01*
X201515559Y-111061757D01*
X201532617Y-111078806D01*
X201549324Y-111095503D01*
X201565656Y-111111823D01*
X201581586Y-111127739D01*
X201597088Y-111143226D01*
X201612137Y-111158258D01*
X201626706Y-111172809D01*
X201640770Y-111186854D01*
X201654304Y-111200365D01*
X201667280Y-111213319D01*
X201679673Y-111225689D01*
X201691458Y-111237448D01*
X201702608Y-111248572D01*
X201713097Y-111259034D01*
X201722901Y-111268809D01*
X201731992Y-111277871D01*
X201740345Y-111286193D01*
X201747934Y-111293751D01*
X201754733Y-111300518D01*
X201760717Y-111306469D01*
X201765859Y-111311577D01*
X201770134Y-111315818D01*
X201773516Y-111319164D01*
X201775978Y-111321591D01*
X201777496Y-111323072D01*
X201778042Y-111323582D01*
X201778044Y-111323582D01*
X201778561Y-111323066D01*
X201780045Y-111321585D01*
X201782462Y-111319169D01*
X201785783Y-111315851D01*
X201789974Y-111311662D01*
X201795005Y-111306634D01*
X201800842Y-111300799D01*
X201807456Y-111294188D01*
X201814813Y-111286834D01*
X201822882Y-111278767D01*
X201831632Y-111270020D01*
X201841030Y-111260625D01*
X201851046Y-111250612D01*
X201861646Y-111240015D01*
X201872799Y-111228864D01*
X201884475Y-111217192D01*
X201896640Y-111205029D01*
X201909263Y-111192409D01*
X201922312Y-111179362D01*
X201935756Y-111165921D01*
X201949563Y-111152117D01*
X201963701Y-111137981D01*
X201978138Y-111123547D01*
X201992843Y-111108844D01*
X202000149Y-111101540D01*
X202221902Y-110879821D01*
X202666396Y-111324317D01*
X202888648Y-111102066D01*
X203110899Y-110879816D01*
X203241071Y-111009994D01*
X204222501Y-111009994D01*
X204111201Y-110898692D01*
X203999899Y-110787389D01*
X203647121Y-110787389D01*
X203490310Y-110630580D01*
X203333500Y-110473771D01*
X203333500Y-110212599D01*
X203490437Y-110055847D01*
X203647374Y-109899094D01*
X204351959Y-109899094D01*
X204286877Y-109964191D01*
X204221794Y-110029287D01*
X204221794Y-110657213D01*
X204797174Y-111232595D01*
X205425117Y-111232595D01*
X205490206Y-111167508D01*
X205555294Y-111102422D01*
X206000500Y-111102422D01*
X206000500Y-110212713D01*
X205555294Y-110212713D01*
X205555294Y-110473768D01*
X205398485Y-110630579D01*
X205241676Y-110787389D01*
X204980621Y-110787389D01*
X204823810Y-110630580D01*
X204667000Y-110473771D01*
X204667000Y-110212715D01*
X204823809Y-110055905D01*
X204980618Y-109899094D01*
X205111146Y-109899095D01*
X205241674Y-109899095D01*
X205555294Y-110212713D01*
X206000500Y-110212713D01*
X206000500Y-110029274D01*
X205713164Y-109741934D01*
X205425827Y-109454595D01*
X204444398Y-109454595D01*
X203462969Y-109454594D01*
X203175984Y-109741580D01*
X202889000Y-110028565D01*
X202889000Y-110473066D01*
X202777698Y-110584366D01*
X202666396Y-110695667D01*
X202555448Y-110584717D01*
X202444500Y-110473768D01*
X202444500Y-109676490D01*
X202333375Y-109565367D01*
X202222250Y-109454243D01*
X202111125Y-109565367D01*
X202000000Y-109676490D01*
X202000000Y-110473066D01*
X201777750Y-110695312D01*
X201555500Y-110473066D01*
X201555500Y-110029264D01*
X201222448Y-109696245D01*
X201204255Y-109678053D01*
X201186308Y-109660108D01*
X201168634Y-109642436D01*
X201151258Y-109625062D01*
X201134206Y-109608013D01*
X201117505Y-109591314D01*
X201101180Y-109574991D01*
X201085257Y-109559070D01*
X201069761Y-109543576D01*
X201054720Y-109528537D01*
X201040158Y-109513977D01*
X201026101Y-109499923D01*
X201012576Y-109486400D01*
X200999609Y-109473435D01*
X200987224Y-109461052D01*
X200975449Y-109449279D01*
X200964308Y-109438141D01*
X200953828Y-109427663D01*
X200944036Y-109417873D01*
X200934955Y-109408795D01*
X200926614Y-109400455D01*
X200919036Y-109392880D01*
X200912249Y-109386095D01*
X200906279Y-109380126D01*
X200901150Y-109374999D01*
X200896889Y-109370741D01*
X200893522Y-109367376D01*
X200891075Y-109364930D01*
X200889574Y-109363430D01*
X200889044Y-109362902D01*
X200888530Y-109363379D01*
X200887044Y-109364828D01*
X200884613Y-109367223D01*
X200881262Y-109370540D01*
X200877016Y-109374750D01*
X200871903Y-109379830D01*
X200865947Y-109385753D01*
X200859174Y-109392493D01*
X200851611Y-109400025D01*
X200843283Y-109408322D01*
X200834217Y-109417359D01*
X200824437Y-109427110D01*
X200813971Y-109437549D01*
X200802843Y-109448651D01*
X200791080Y-109460389D01*
X200778707Y-109472737D01*
X200765751Y-109485671D01*
X200752237Y-109499164D01*
X200738192Y-109513190D01*
X200723640Y-109527723D01*
X200708608Y-109542738D01*
X200693122Y-109558208D01*
X200677208Y-109574109D01*
X200660891Y-109590414D01*
X200644198Y-109607097D01*
X200627153Y-109624132D01*
X200609785Y-109641494D01*
X200592117Y-109659157D01*
X200574176Y-109677095D01*
X200555987Y-109695282D01*
X200555522Y-109695748D01*
X200222352Y-110028917D01*
X199935192Y-109741756D01*
X199648031Y-109454595D01*
X198888853Y-109454594D01*
X198129674Y-109454594D01*
X197953639Y-109630631D01*
X197777604Y-109806667D01*
X197555706Y-109584770D01*
X197540876Y-109569941D01*
X197526297Y-109555367D01*
X197511999Y-109541077D01*
X197498016Y-109527105D01*
X197484379Y-109513481D01*
X197471119Y-109500237D01*
X197458269Y-109487405D01*
X197445860Y-109475017D01*
X197433924Y-109463104D01*
X197422492Y-109451698D01*
X197411597Y-109440831D01*
X197401270Y-109430534D01*
X197391544Y-109420839D01*
X197382449Y-109411778D01*
X197374018Y-109403383D01*
X197366283Y-109395684D01*
X197359275Y-109388715D01*
X197353026Y-109382505D01*
X197347567Y-109377089D01*
X197342932Y-109372496D01*
X197339151Y-109368758D01*
X197336256Y-109365908D01*
X197334279Y-109363977D01*
X197333251Y-109362996D01*
X197333104Y-109362872D01*
X197332571Y-109363367D01*
X197331066Y-109364834D01*
X197328615Y-109367247D01*
X197325245Y-109370581D01*
X197320981Y-109374809D01*
X197315849Y-109379906D01*
X197309874Y-109385845D01*
X197303084Y-109392602D01*
X197295504Y-109400150D01*
X197287159Y-109408463D01*
X197278076Y-109417515D01*
X197268280Y-109427281D01*
X197257798Y-109437734D01*
X197246655Y-109448849D01*
X197234878Y-109460600D01*
X197222492Y-109472961D01*
X197209524Y-109485907D01*
X197195998Y-109499410D01*
X197181941Y-109513446D01*
X197167380Y-109527988D01*
X197152339Y-109543011D01*
X197136845Y-109558489D01*
X197120924Y-109574396D01*
X197104601Y-109590706D01*
X197087903Y-109607393D01*
X197070856Y-109624431D01*
X197053485Y-109641795D01*
X197035816Y-109659458D01*
X197017876Y-109677395D01*
X196999690Y-109695580D01*
X196999553Y-109695717D01*
X196666706Y-110028563D01*
X196666706Y-111676389D01*
X196352380Y-111676389D01*
X195777706Y-112251065D01*
X195777706Y-113768715D01*
X196444456Y-114435463D01*
X197111206Y-113768715D01*
X197111206Y-112120889D01*
X196666706Y-112120889D01*
X196666706Y-113584562D01*
X196555758Y-113695512D01*
X196545307Y-113705961D01*
X196535121Y-113716143D01*
X196525242Y-113726014D01*
X196515718Y-113735529D01*
X196506591Y-113744642D01*
X196497909Y-113753310D01*
X196489714Y-113761487D01*
X196482053Y-113769128D01*
X196474970Y-113776189D01*
X196468510Y-113782625D01*
X196462719Y-113788391D01*
X196457641Y-113793443D01*
X196453321Y-113797734D01*
X196449804Y-113801222D01*
X196447134Y-113803860D01*
X196445358Y-113805604D01*
X196444520Y-113806409D01*
X196444457Y-113806461D01*
X196443932Y-113805970D01*
X196442455Y-113804525D01*
X196440070Y-113802171D01*
X196436823Y-113798954D01*
X196432758Y-113794918D01*
X196427920Y-113790108D01*
X196422354Y-113784568D01*
X196416106Y-113778344D01*
X196409220Y-113771481D01*
X196401741Y-113764023D01*
X196393714Y-113756014D01*
X196385184Y-113747501D01*
X196376197Y-113738527D01*
X196366796Y-113729137D01*
X196357027Y-113719377D01*
X196346935Y-113709290D01*
X196336565Y-113698923D01*
X196333155Y-113695513D01*
X196222206Y-113584566D01*
X196222206Y-112435215D01*
X196379368Y-112278052D01*
X196536529Y-112120889D01*
X196666706Y-112120889D01*
X197111206Y-112120889D01*
X199333000Y-112120889D01*
X199333000Y-113768009D01*
X199666552Y-114101560D01*
X200000103Y-114435111D01*
X200333302Y-114101912D01*
X200666500Y-113768713D01*
X200666500Y-113121012D01*
X200444250Y-112898766D01*
X200222000Y-113121012D01*
X200222000Y-113584566D01*
X200111051Y-113695513D01*
X200000101Y-113806461D01*
X199889153Y-113695512D01*
X199778206Y-113584562D01*
X199778206Y-112120889D01*
X202889000Y-112120889D01*
X202889037Y-112852726D01*
X202889073Y-113584564D01*
X202777750Y-113695527D01*
X202666428Y-113806490D01*
X202444500Y-113584566D01*
X202444500Y-113121012D01*
X202222250Y-112898766D01*
X202000000Y-113121012D01*
X202000000Y-113768715D01*
X202666750Y-114435463D01*
X203333500Y-113768715D01*
X203333500Y-112120889D01*
X205555294Y-112120889D01*
X205555294Y-113584566D01*
X205444345Y-113695513D01*
X205333396Y-113806461D01*
X205222448Y-113695512D01*
X205111500Y-113584562D01*
X205111500Y-113121016D01*
X205000552Y-113010066D01*
X204990099Y-112999615D01*
X204979905Y-112989431D01*
X204970018Y-112979559D01*
X204960482Y-112970043D01*
X204951341Y-112960928D01*
X204942642Y-112952259D01*
X204934429Y-112944081D01*
X204926747Y-112936439D01*
X204919642Y-112929378D01*
X204913158Y-112922942D01*
X204907342Y-112917176D01*
X204902237Y-112912125D01*
X204897889Y-112907834D01*
X204894343Y-112904349D01*
X204891645Y-112901712D01*
X204889839Y-112899970D01*
X204888970Y-112899168D01*
X204888897Y-112899117D01*
X204888339Y-112899609D01*
X204886829Y-112901054D01*
X204884411Y-112903408D01*
X204881132Y-112906627D01*
X204877037Y-112910664D01*
X204872170Y-112915476D01*
X204866576Y-112921017D01*
X204860302Y-112927243D01*
X204853391Y-112934109D01*
X204845890Y-112941570D01*
X204837842Y-112949581D01*
X204829294Y-112958097D01*
X204820290Y-112967074D01*
X204810875Y-112976466D01*
X204801096Y-112986229D01*
X204790996Y-112996318D01*
X204780621Y-113006688D01*
X204777242Y-113010066D01*
X204666294Y-113121016D01*
X204666294Y-113768009D01*
X205333398Y-114435111D01*
X205666949Y-114101559D01*
X206000500Y-113768008D01*
X206000500Y-112120889D01*
X206888794Y-112120889D01*
X206888794Y-113768715D01*
X207221993Y-114101913D01*
X207240189Y-114120108D01*
X207258139Y-114138056D01*
X207275816Y-114155730D01*
X207293194Y-114173105D01*
X207310248Y-114190155D01*
X207326953Y-114206854D01*
X207343281Y-114223176D01*
X207359207Y-114239095D01*
X207374706Y-114254586D01*
X207389751Y-114269622D01*
X207404317Y-114284178D01*
X207418377Y-114298228D01*
X207431906Y-114311746D01*
X207444878Y-114324706D01*
X207457267Y-114337083D01*
X207469047Y-114348849D01*
X207480192Y-114359981D01*
X207490677Y-114370451D01*
X207500475Y-114380235D01*
X207509561Y-114389305D01*
X207517908Y-114397637D01*
X207525492Y-114405203D01*
X207532285Y-114411980D01*
X207538262Y-114417940D01*
X207543398Y-114423058D01*
X207547666Y-114427308D01*
X207551041Y-114430664D01*
X207553496Y-114433101D01*
X207555006Y-114434591D01*
X207555544Y-114435111D01*
X207555545Y-114435111D01*
X207556059Y-114434617D01*
X207557545Y-114433150D01*
X207559976Y-114430737D01*
X207563328Y-114427404D01*
X207567574Y-114423176D01*
X207572688Y-114418079D01*
X207578645Y-114412140D01*
X207585418Y-114405383D01*
X207592982Y-114397836D01*
X207601310Y-114389523D01*
X207610378Y-114380471D01*
X207620158Y-114370706D01*
X207630626Y-114360252D01*
X207641755Y-114349137D01*
X207653519Y-114337386D01*
X207665893Y-114325024D01*
X207678851Y-114312078D01*
X207692366Y-114298574D01*
X207706413Y-114284537D01*
X207720967Y-114269994D01*
X207736000Y-114254969D01*
X207751488Y-114239489D01*
X207767404Y-114223581D01*
X207783722Y-114207268D01*
X207800417Y-114190579D01*
X207817463Y-114173537D01*
X207834834Y-114156170D01*
X207852503Y-114138503D01*
X207870446Y-114120562D01*
X207889096Y-114101912D01*
X208222294Y-113768713D01*
X208222294Y-112435213D01*
X207777795Y-112435213D01*
X207777794Y-113009888D01*
X207777794Y-113584562D01*
X207666847Y-113695512D01*
X207656396Y-113705961D01*
X207646210Y-113716143D01*
X207636331Y-113726014D01*
X207626807Y-113735529D01*
X207617680Y-113744642D01*
X207608997Y-113753310D01*
X207600803Y-113761487D01*
X207593142Y-113769128D01*
X207586059Y-113776189D01*
X207579599Y-113782625D01*
X207573808Y-113788391D01*
X207568730Y-113793443D01*
X207564410Y-113797734D01*
X207560892Y-113801222D01*
X207558223Y-113803860D01*
X207556447Y-113805604D01*
X207555609Y-113806409D01*
X207555546Y-113806461D01*
X207555021Y-113805970D01*
X207553544Y-113804525D01*
X207551159Y-113802171D01*
X207547912Y-113798954D01*
X207543847Y-113794918D01*
X207539009Y-113790108D01*
X207533443Y-113784568D01*
X207527195Y-113778344D01*
X207520309Y-113771481D01*
X207512830Y-113764023D01*
X207504803Y-113756014D01*
X207496273Y-113747501D01*
X207487286Y-113738527D01*
X207477885Y-113729137D01*
X207468116Y-113719377D01*
X207458024Y-113709290D01*
X207447654Y-113698923D01*
X207444244Y-113695513D01*
X207333294Y-113584566D01*
X207333294Y-112120889D01*
X207463468Y-112120889D01*
X207620631Y-112278051D01*
X207777795Y-112435213D01*
X208222294Y-112435213D01*
X208222294Y-112251063D01*
X207934957Y-111963726D01*
X207647619Y-111676389D01*
X207333294Y-111676389D01*
X207333294Y-110213418D01*
X207444419Y-110102295D01*
X207555544Y-109991171D01*
X207666669Y-110102294D01*
X207777794Y-110213418D01*
X207777794Y-110676971D01*
X207888919Y-110788095D01*
X208000044Y-110899218D01*
X208111169Y-110788095D01*
X208222294Y-110676971D01*
X208222294Y-110029269D01*
X207888919Y-109695895D01*
X207555545Y-109362520D01*
X207222169Y-109695895D01*
X207222169Y-109695895D01*
G37*
X207222169Y-109695895D02*
X206888794Y-110029269D01*
X206888794Y-111676389D01*
X206000500Y-111676389D01*
X206000500Y-111102422D01*
X205555294Y-111102422D01*
X205555294Y-111676389D01*
X203333500Y-111676389D01*
X203333500Y-111546215D01*
X203490309Y-111389405D01*
X203647118Y-111232594D01*
X203823503Y-111232595D01*
X203999887Y-111232595D01*
X204111195Y-111121295D01*
X204222502Y-111009996D01*
X204222501Y-111009994D01*
X203241071Y-111009994D01*
X203065036Y-111186028D01*
X202889000Y-111362063D01*
X202889000Y-111676389D01*
X199778206Y-111676389D01*
X199778206Y-111232595D01*
X199333000Y-111232595D01*
X199333000Y-111676389D01*
X197111206Y-111676389D01*
X197111206Y-110212712D01*
X197193579Y-110130515D01*
X197203118Y-110120997D01*
X197212714Y-110111424D01*
X197222290Y-110101872D01*
X197231764Y-110092423D01*
X197241059Y-110083154D01*
X197250096Y-110074144D01*
X197258793Y-110065473D01*
X197267074Y-110057220D01*
X197274857Y-110049463D01*
X197282065Y-110042282D01*
X197288617Y-110035756D01*
X197294435Y-110029963D01*
X197299439Y-110024983D01*
X197303550Y-110020894D01*
X197304705Y-110019745D01*
X197333458Y-109991174D01*
X197555706Y-110213418D01*
X197555706Y-111009993D01*
X197666831Y-111121117D01*
X197777956Y-111232240D01*
X197889081Y-111121117D01*
X198000206Y-111009993D01*
X198000206Y-110212715D01*
X198313824Y-109899095D01*
X198443998Y-109899094D01*
X198574172Y-109899094D01*
X198444000Y-110029272D01*
X198444000Y-110657213D01*
X199019380Y-111232595D01*
X199333000Y-111232595D01*
X199778206Y-111232595D01*
X199778206Y-111101716D01*
X200000102Y-110879816D01*
X200333301Y-111213015D01*
X200666500Y-111546213D01*
X200666500Y-110213418D01*
X200667205Y-110212713D01*
X199777500Y-110212713D01*
X199777500Y-110473768D01*
X199620691Y-110630579D01*
X199463882Y-110787389D01*
X199202826Y-110787389D01*
X198889206Y-110473771D01*
X198889206Y-110212715D01*
X199046015Y-110055905D01*
X199202824Y-109899094D01*
X199333352Y-109899095D01*
X199463879Y-109899095D01*
X199620690Y-110055904D01*
X199777500Y-110212713D01*
X200667205Y-110212713D01*
X200777625Y-110102294D01*
X200888750Y-109991171D01*
X200999875Y-110102295D01*
X201111000Y-110213418D01*
X201111000Y-110657215D01*
X201444346Y-110990560D01*
X201462545Y-111008758D01*
X201480497Y-111026707D01*
X201498177Y-111044382D01*
X201515559Y-111061757D01*
X201532617Y-111078806D01*
X201549324Y-111095503D01*
X201565656Y-111111823D01*
X201581586Y-111127739D01*
X201597088Y-111143226D01*
X201612137Y-111158258D01*
X201626706Y-111172809D01*
X201640770Y-111186854D01*
X201654304Y-111200365D01*
X201667280Y-111213319D01*
X201679673Y-111225689D01*
X201691458Y-111237448D01*
X201702608Y-111248572D01*
X201713097Y-111259034D01*
X201722901Y-111268809D01*
X201731992Y-111277871D01*
X201740345Y-111286193D01*
X201747934Y-111293751D01*
X201754733Y-111300518D01*
X201760717Y-111306469D01*
X201765859Y-111311577D01*
X201770134Y-111315818D01*
X201773516Y-111319164D01*
X201775978Y-111321591D01*
X201777496Y-111323072D01*
X201778042Y-111323582D01*
X201778044Y-111323582D01*
X201778561Y-111323066D01*
X201780045Y-111321585D01*
X201782462Y-111319169D01*
X201785783Y-111315851D01*
X201789974Y-111311662D01*
X201795005Y-111306634D01*
X201800842Y-111300799D01*
X201807456Y-111294188D01*
X201814813Y-111286834D01*
X201822882Y-111278767D01*
X201831632Y-111270020D01*
X201841030Y-111260625D01*
X201851046Y-111250612D01*
X201861646Y-111240015D01*
X201872799Y-111228864D01*
X201884475Y-111217192D01*
X201896640Y-111205029D01*
X201909263Y-111192409D01*
X201922312Y-111179362D01*
X201935756Y-111165921D01*
X201949563Y-111152117D01*
X201963701Y-111137981D01*
X201978138Y-111123547D01*
X201992843Y-111108844D01*
X202000149Y-111101540D01*
X202221902Y-110879821D01*
X202666396Y-111324317D01*
X202888648Y-111102066D01*
X203110899Y-110879816D01*
X203241071Y-111009994D01*
X204222501Y-111009994D01*
X204111201Y-110898692D01*
X203999899Y-110787389D01*
X203647121Y-110787389D01*
X203490310Y-110630580D01*
X203333500Y-110473771D01*
X203333500Y-110212599D01*
X203490437Y-110055847D01*
X203647374Y-109899094D01*
X204351959Y-109899094D01*
X204286877Y-109964191D01*
X204221794Y-110029287D01*
X204221794Y-110657213D01*
X204797174Y-111232595D01*
X205425117Y-111232595D01*
X205490206Y-111167508D01*
X205555294Y-111102422D01*
X206000500Y-111102422D01*
X206000500Y-110212713D01*
X205555294Y-110212713D01*
X205555294Y-110473768D01*
X205398485Y-110630579D01*
X205241676Y-110787389D01*
X204980621Y-110787389D01*
X204823810Y-110630580D01*
X204667000Y-110473771D01*
X204667000Y-110212715D01*
X204823809Y-110055905D01*
X204980618Y-109899094D01*
X205111146Y-109899095D01*
X205241674Y-109899095D01*
X205555294Y-110212713D01*
X206000500Y-110212713D01*
X206000500Y-110029274D01*
X205713164Y-109741934D01*
X205425827Y-109454595D01*
X204444398Y-109454595D01*
X203462969Y-109454594D01*
X203175984Y-109741580D01*
X202889000Y-110028565D01*
X202889000Y-110473066D01*
X202777698Y-110584366D01*
X202666396Y-110695667D01*
X202555448Y-110584717D01*
X202444500Y-110473768D01*
X202444500Y-109676490D01*
X202333375Y-109565367D01*
X202222250Y-109454243D01*
X202111125Y-109565367D01*
X202000000Y-109676490D01*
X202000000Y-110473066D01*
X201777750Y-110695312D01*
X201555500Y-110473066D01*
X201555500Y-110029264D01*
X201222448Y-109696245D01*
X201204255Y-109678053D01*
X201186308Y-109660108D01*
X201168634Y-109642436D01*
X201151258Y-109625062D01*
X201134206Y-109608013D01*
X201117505Y-109591314D01*
X201101180Y-109574991D01*
X201085257Y-109559070D01*
X201069761Y-109543576D01*
X201054720Y-109528537D01*
X201040158Y-109513977D01*
X201026101Y-109499923D01*
X201012576Y-109486400D01*
X200999609Y-109473435D01*
X200987224Y-109461052D01*
X200975449Y-109449279D01*
X200964308Y-109438141D01*
X200953828Y-109427663D01*
X200944036Y-109417873D01*
X200934955Y-109408795D01*
X200926614Y-109400455D01*
X200919036Y-109392880D01*
X200912249Y-109386095D01*
X200906279Y-109380126D01*
X200901150Y-109374999D01*
X200896889Y-109370741D01*
X200893522Y-109367376D01*
X200891075Y-109364930D01*
X200889574Y-109363430D01*
X200889044Y-109362902D01*
X200888530Y-109363379D01*
X200887044Y-109364828D01*
X200884613Y-109367223D01*
X200881262Y-109370540D01*
X200877016Y-109374750D01*
X200871903Y-109379830D01*
X200865947Y-109385753D01*
X200859174Y-109392493D01*
X200851611Y-109400025D01*
X200843283Y-109408322D01*
X200834217Y-109417359D01*
X200824437Y-109427110D01*
X200813971Y-109437549D01*
X200802843Y-109448651D01*
X200791080Y-109460389D01*
X200778707Y-109472737D01*
X200765751Y-109485671D01*
X200752237Y-109499164D01*
X200738192Y-109513190D01*
X200723640Y-109527723D01*
X200708608Y-109542738D01*
X200693122Y-109558208D01*
X200677208Y-109574109D01*
X200660891Y-109590414D01*
X200644198Y-109607097D01*
X200627153Y-109624132D01*
X200609785Y-109641494D01*
X200592117Y-109659157D01*
X200574176Y-109677095D01*
X200555987Y-109695282D01*
X200555522Y-109695748D01*
X200222352Y-110028917D01*
X199935192Y-109741756D01*
X199648031Y-109454595D01*
X198888853Y-109454594D01*
X198129674Y-109454594D01*
X197953639Y-109630631D01*
X197777604Y-109806667D01*
X197555706Y-109584770D01*
X197540876Y-109569941D01*
X197526297Y-109555367D01*
X197511999Y-109541077D01*
X197498016Y-109527105D01*
X197484379Y-109513481D01*
X197471119Y-109500237D01*
X197458269Y-109487405D01*
X197445860Y-109475017D01*
X197433924Y-109463104D01*
X197422492Y-109451698D01*
X197411597Y-109440831D01*
X197401270Y-109430534D01*
X197391544Y-109420839D01*
X197382449Y-109411778D01*
X197374018Y-109403383D01*
X197366283Y-109395684D01*
X197359275Y-109388715D01*
X197353026Y-109382505D01*
X197347567Y-109377089D01*
X197342932Y-109372496D01*
X197339151Y-109368758D01*
X197336256Y-109365908D01*
X197334279Y-109363977D01*
X197333251Y-109362996D01*
X197333104Y-109362872D01*
X197332571Y-109363367D01*
X197331066Y-109364834D01*
X197328615Y-109367247D01*
X197325245Y-109370581D01*
X197320981Y-109374809D01*
X197315849Y-109379906D01*
X197309874Y-109385845D01*
X197303084Y-109392602D01*
X197295504Y-109400150D01*
X197287159Y-109408463D01*
X197278076Y-109417515D01*
X197268280Y-109427281D01*
X197257798Y-109437734D01*
X197246655Y-109448849D01*
X197234878Y-109460600D01*
X197222492Y-109472961D01*
X197209524Y-109485907D01*
X197195998Y-109499410D01*
X197181941Y-109513446D01*
X197167380Y-109527988D01*
X197152339Y-109543011D01*
X197136845Y-109558489D01*
X197120924Y-109574396D01*
X197104601Y-109590706D01*
X197087903Y-109607393D01*
X197070856Y-109624431D01*
X197053485Y-109641795D01*
X197035816Y-109659458D01*
X197017876Y-109677395D01*
X196999690Y-109695580D01*
X196999553Y-109695717D01*
X196666706Y-110028563D01*
X196666706Y-111676389D01*
X196352380Y-111676389D01*
X195777706Y-112251065D01*
X195777706Y-113768715D01*
X196444456Y-114435463D01*
X197111206Y-113768715D01*
X197111206Y-112120889D01*
X196666706Y-112120889D01*
X196666706Y-113584562D01*
X196555758Y-113695512D01*
X196545307Y-113705961D01*
X196535121Y-113716143D01*
X196525242Y-113726014D01*
X196515718Y-113735529D01*
X196506591Y-113744642D01*
X196497909Y-113753310D01*
X196489714Y-113761487D01*
X196482053Y-113769128D01*
X196474970Y-113776189D01*
X196468510Y-113782625D01*
X196462719Y-113788391D01*
X196457641Y-113793443D01*
X196453321Y-113797734D01*
X196449804Y-113801222D01*
X196447134Y-113803860D01*
X196445358Y-113805604D01*
X196444520Y-113806409D01*
X196444457Y-113806461D01*
X196443932Y-113805970D01*
X196442455Y-113804525D01*
X196440070Y-113802171D01*
X196436823Y-113798954D01*
X196432758Y-113794918D01*
X196427920Y-113790108D01*
X196422354Y-113784568D01*
X196416106Y-113778344D01*
X196409220Y-113771481D01*
X196401741Y-113764023D01*
X196393714Y-113756014D01*
X196385184Y-113747501D01*
X196376197Y-113738527D01*
X196366796Y-113729137D01*
X196357027Y-113719377D01*
X196346935Y-113709290D01*
X196336565Y-113698923D01*
X196333155Y-113695513D01*
X196222206Y-113584566D01*
X196222206Y-112435215D01*
X196379368Y-112278052D01*
X196536529Y-112120889D01*
X196666706Y-112120889D01*
X197111206Y-112120889D01*
X199333000Y-112120889D01*
X199333000Y-113768009D01*
X199666552Y-114101560D01*
X200000103Y-114435111D01*
X200333302Y-114101912D01*
X200666500Y-113768713D01*
X200666500Y-113121012D01*
X200444250Y-112898766D01*
X200222000Y-113121012D01*
X200222000Y-113584566D01*
X200111051Y-113695513D01*
X200000101Y-113806461D01*
X199889153Y-113695512D01*
X199778206Y-113584562D01*
X199778206Y-112120889D01*
X202889000Y-112120889D01*
X202889037Y-112852726D01*
X202889073Y-113584564D01*
X202777750Y-113695527D01*
X202666428Y-113806490D01*
X202444500Y-113584566D01*
X202444500Y-113121012D01*
X202222250Y-112898766D01*
X202000000Y-113121012D01*
X202000000Y-113768715D01*
X202666750Y-114435463D01*
X203333500Y-113768715D01*
X203333500Y-112120889D01*
X205555294Y-112120889D01*
X205555294Y-113584566D01*
X205444345Y-113695513D01*
X205333396Y-113806461D01*
X205222448Y-113695512D01*
X205111500Y-113584562D01*
X205111500Y-113121016D01*
X205000552Y-113010066D01*
X204990099Y-112999615D01*
X204979905Y-112989431D01*
X204970018Y-112979559D01*
X204960482Y-112970043D01*
X204951341Y-112960928D01*
X204942642Y-112952259D01*
X204934429Y-112944081D01*
X204926747Y-112936439D01*
X204919642Y-112929378D01*
X204913158Y-112922942D01*
X204907342Y-112917176D01*
X204902237Y-112912125D01*
X204897889Y-112907834D01*
X204894343Y-112904349D01*
X204891645Y-112901712D01*
X204889839Y-112899970D01*
X204888970Y-112899168D01*
X204888897Y-112899117D01*
X204888339Y-112899609D01*
X204886829Y-112901054D01*
X204884411Y-112903408D01*
X204881132Y-112906627D01*
X204877037Y-112910664D01*
X204872170Y-112915476D01*
X204866576Y-112921017D01*
X204860302Y-112927243D01*
X204853391Y-112934109D01*
X204845890Y-112941570D01*
X204837842Y-112949581D01*
X204829294Y-112958097D01*
X204820290Y-112967074D01*
X204810875Y-112976466D01*
X204801096Y-112986229D01*
X204790996Y-112996318D01*
X204780621Y-113006688D01*
X204777242Y-113010066D01*
X204666294Y-113121016D01*
X204666294Y-113768009D01*
X205333398Y-114435111D01*
X205666949Y-114101559D01*
X206000500Y-113768008D01*
X206000500Y-112120889D01*
X206888794Y-112120889D01*
X206888794Y-113768715D01*
X207221993Y-114101913D01*
X207240189Y-114120108D01*
X207258139Y-114138056D01*
X207275816Y-114155730D01*
X207293194Y-114173105D01*
X207310248Y-114190155D01*
X207326953Y-114206854D01*
X207343281Y-114223176D01*
X207359207Y-114239095D01*
X207374706Y-114254586D01*
X207389751Y-114269622D01*
X207404317Y-114284178D01*
X207418377Y-114298228D01*
X207431906Y-114311746D01*
X207444878Y-114324706D01*
X207457267Y-114337083D01*
X207469047Y-114348849D01*
X207480192Y-114359981D01*
X207490677Y-114370451D01*
X207500475Y-114380235D01*
X207509561Y-114389305D01*
X207517908Y-114397637D01*
X207525492Y-114405203D01*
X207532285Y-114411980D01*
X207538262Y-114417940D01*
X207543398Y-114423058D01*
X207547666Y-114427308D01*
X207551041Y-114430664D01*
X207553496Y-114433101D01*
X207555006Y-114434591D01*
X207555544Y-114435111D01*
X207555545Y-114435111D01*
X207556059Y-114434617D01*
X207557545Y-114433150D01*
X207559976Y-114430737D01*
X207563328Y-114427404D01*
X207567574Y-114423176D01*
X207572688Y-114418079D01*
X207578645Y-114412140D01*
X207585418Y-114405383D01*
X207592982Y-114397836D01*
X207601310Y-114389523D01*
X207610378Y-114380471D01*
X207620158Y-114370706D01*
X207630626Y-114360252D01*
X207641755Y-114349137D01*
X207653519Y-114337386D01*
X207665893Y-114325024D01*
X207678851Y-114312078D01*
X207692366Y-114298574D01*
X207706413Y-114284537D01*
X207720967Y-114269994D01*
X207736000Y-114254969D01*
X207751488Y-114239489D01*
X207767404Y-114223581D01*
X207783722Y-114207268D01*
X207800417Y-114190579D01*
X207817463Y-114173537D01*
X207834834Y-114156170D01*
X207852503Y-114138503D01*
X207870446Y-114120562D01*
X207889096Y-114101912D01*
X208222294Y-113768713D01*
X208222294Y-112435213D01*
X207777795Y-112435213D01*
X207777794Y-113009888D01*
X207777794Y-113584562D01*
X207666847Y-113695512D01*
X207656396Y-113705961D01*
X207646210Y-113716143D01*
X207636331Y-113726014D01*
X207626807Y-113735529D01*
X207617680Y-113744642D01*
X207608997Y-113753310D01*
X207600803Y-113761487D01*
X207593142Y-113769128D01*
X207586059Y-113776189D01*
X207579599Y-113782625D01*
X207573808Y-113788391D01*
X207568730Y-113793443D01*
X207564410Y-113797734D01*
X207560892Y-113801222D01*
X207558223Y-113803860D01*
X207556447Y-113805604D01*
X207555609Y-113806409D01*
X207555546Y-113806461D01*
X207555021Y-113805970D01*
X207553544Y-113804525D01*
X207551159Y-113802171D01*
X207547912Y-113798954D01*
X207543847Y-113794918D01*
X207539009Y-113790108D01*
X207533443Y-113784568D01*
X207527195Y-113778344D01*
X207520309Y-113771481D01*
X207512830Y-113764023D01*
X207504803Y-113756014D01*
X207496273Y-113747501D01*
X207487286Y-113738527D01*
X207477885Y-113729137D01*
X207468116Y-113719377D01*
X207458024Y-113709290D01*
X207447654Y-113698923D01*
X207444244Y-113695513D01*
X207333294Y-113584566D01*
X207333294Y-112120889D01*
X207463468Y-112120889D01*
X207620631Y-112278051D01*
X207777795Y-112435213D01*
X208222294Y-112435213D01*
X208222294Y-112251063D01*
X207934957Y-111963726D01*
X207647619Y-111676389D01*
X207333294Y-111676389D01*
X207333294Y-110213418D01*
X207444419Y-110102295D01*
X207555544Y-109991171D01*
X207666669Y-110102294D01*
X207777794Y-110213418D01*
X207777794Y-110676971D01*
X207888919Y-110788095D01*
X208000044Y-110899218D01*
X208111169Y-110788095D01*
X208222294Y-110676971D01*
X208222294Y-110029269D01*
X207888919Y-109695895D01*
X207555545Y-109362520D01*
X207222169Y-109695895D01*
G36*
X202000000Y-108787490D02*
G01*
X202000000Y-109010449D01*
X202110950Y-109121397D01*
X202221899Y-109232344D01*
X202333200Y-109121042D01*
X202444500Y-109009740D01*
X202444500Y-108787490D01*
X202222250Y-108565244D01*
X202000000Y-108787490D01*
X202000000Y-108787490D01*
G37*
X202000000Y-108787490D02*
X202000000Y-109010449D01*
X202110950Y-109121397D01*
X202221899Y-109232344D01*
X202333200Y-109121042D01*
X202444500Y-109009740D01*
X202444500Y-108787490D01*
X202222250Y-108565244D01*
X202000000Y-108787490D01*
D10*
%LPC*%
D12*
X216666726Y-123333274D03*
X215500000Y-122850000D03*
X214333274Y-123333274D03*
X213850000Y-124500000D03*
X214333274Y-125666726D03*
X215500000Y-126150000D03*
X216666726Y-125666726D03*
X217150000Y-124500000D03*
D13*
X215500000Y-124500000D03*
D12*
X189666726Y-123333274D03*
X188500000Y-122850000D03*
X187333274Y-123333274D03*
X186850000Y-124500000D03*
X187333274Y-125666726D03*
X188500000Y-126150000D03*
X189666726Y-125666726D03*
X190150000Y-124500000D03*
D13*
X188500000Y-124500000D03*
D12*
X216666726Y-98333274D03*
X215500000Y-97850000D03*
X214333274Y-98333274D03*
X213850000Y-99500000D03*
X214333274Y-100666726D03*
X215500000Y-101150000D03*
X216666726Y-100666726D03*
X217150000Y-99500000D03*
D13*
X215500000Y-99500000D03*
D12*
X189666726Y-98333274D03*
X188500000Y-97850000D03*
X187333274Y-98333274D03*
X186850000Y-99500000D03*
X187333274Y-100666726D03*
X188500000Y-101150000D03*
X189666726Y-100666726D03*
X190150000Y-99500000D03*
D13*
X188500000Y-99500000D03*
D12*
X95166726Y-110833274D03*
X94000000Y-110350000D03*
X92833274Y-110833274D03*
X92350000Y-112000000D03*
X92833274Y-113166726D03*
X94000000Y-113650000D03*
X95166726Y-113166726D03*
X95650000Y-112000000D03*
D13*
X94000000Y-112000000D03*
D12*
X311166726Y-144833274D03*
X310000000Y-144350000D03*
X308833274Y-144833274D03*
X308350000Y-146000000D03*
X308833274Y-147166726D03*
X310000000Y-147650000D03*
X311166726Y-147166726D03*
X311650000Y-146000000D03*
D13*
X310000000Y-146000000D03*
D12*
X311166726Y-110833274D03*
X310000000Y-110350000D03*
X308833274Y-110833274D03*
X308350000Y-112000000D03*
X308833274Y-113166726D03*
X310000000Y-113650000D03*
X311166726Y-113166726D03*
X311650000Y-112000000D03*
D13*
X310000000Y-112000000D03*
D12*
X95166726Y-144833274D03*
X94000000Y-144350000D03*
X92833274Y-144833274D03*
X92350000Y-146000000D03*
X92833274Y-147166726D03*
X94000000Y-147650000D03*
X95166726Y-147166726D03*
X95650000Y-146000000D03*
D13*
X94000000Y-146000000D03*
M02*
