G04 #@! TF.GenerationSoftware,KiCad,Pcbnew,(5.1.4)-1*
G04 #@! TF.CreationDate,2021-09-24T23:07:36-04:00*
G04 #@! TF.ProjectId,horizon-choc-bottom-plate,686f7269-7a6f-46e2-9d63-686f632d626f,rev?*
G04 #@! TF.SameCoordinates,Original*
G04 #@! TF.FileFunction,Profile,NP*
%FSLAX46Y46*%
G04 Gerber Fmt 4.6, Leading zero omitted, Abs format (unit mm)*
G04 Created by KiCad (PCBNEW (5.1.4)-1) date 2021-09-24 23:07:36*
%MOMM*%
%LPD*%
G04 APERTURE LIST*
%ADD10C,0.050000*%
G04 APERTURE END LIST*
D10*
X76000000Y-97000000D02*
G75*
G02X78000000Y-95000000I2000000J0D01*
G01*
X78000000Y-163000000D02*
G75*
G02X76000000Y-161000000I0J2000000D01*
G01*
X328000000Y-161000000D02*
G75*
G02X326000000Y-163000000I-2000000J0D01*
G01*
X326000000Y-95000000D02*
G75*
G02X328000000Y-97000000I0J-2000000D01*
G01*
X76000000Y-97000000D02*
X76000000Y-161000000D01*
X326000000Y-95000000D02*
X78000000Y-95000000D01*
X328000000Y-161000000D02*
X328000000Y-97000000D01*
X78000000Y-163000000D02*
X326000000Y-163000000D01*
X217200000Y-133700000D02*
G75*
G03X217200000Y-133700000I-1200000J0D01*
G01*
X212200000Y-131600000D02*
G75*
G03X212200000Y-131600000I-1200000J0D01*
G01*
X217350000Y-137500000D02*
G75*
G03X217350000Y-137500000I-850000J0D01*
G01*
X212700000Y-137500000D02*
G75*
G03X212700000Y-137500000I-1700000J0D01*
G01*
X206350000Y-137500000D02*
G75*
G03X206350000Y-137500000I-850000J0D01*
G01*
X199200000Y-133700000D02*
G75*
G03X199200000Y-133700000I-1200000J0D01*
G01*
X194200000Y-131600000D02*
G75*
G03X194200000Y-131600000I-1200000J0D01*
G01*
X199350000Y-137500000D02*
G75*
G03X199350000Y-137500000I-850000J0D01*
G01*
X194700000Y-137500000D02*
G75*
G03X194700000Y-137500000I-1700000J0D01*
G01*
X188350000Y-137500000D02*
G75*
G03X188350000Y-137500000I-850000J0D01*
G01*
X212650000Y-143400000D02*
G75*
G03X212650000Y-141000000I0J1200000D01*
G01*
X209350000Y-141000000D02*
G75*
G03X209350000Y-143400000I0J-1200000D01*
G01*
X212650000Y-143400000D02*
X209350000Y-143400000D01*
X209350000Y-141000000D02*
X212650000Y-141000000D01*
X194650000Y-143400000D02*
G75*
G03X194650000Y-141000000I0J1200000D01*
G01*
X191350000Y-141000000D02*
G75*
G03X191350000Y-143400000I0J-1200000D01*
G01*
X194650000Y-143400000D02*
X191350000Y-143400000D01*
X191350000Y-141000000D02*
X194650000Y-141000000D01*
X191850000Y-115250000D02*
G75*
G03X191850000Y-115250000I-1100000J0D01*
G01*
X187350000Y-115250000D02*
G75*
G03X187350000Y-115250000I-1100000J0D01*
G01*
X191850000Y-108750000D02*
G75*
G03X191850000Y-108750000I-1100000J0D01*
G01*
X187350000Y-108750000D02*
G75*
G03X187350000Y-108750000I-1100000J0D01*
G01*
X86650000Y-143400000D02*
G75*
G03X86650000Y-141000000I0J1200000D01*
G01*
X83350000Y-141000000D02*
G75*
G03X83350000Y-143400000I0J-1200000D01*
G01*
X86650000Y-143400000D02*
X83350000Y-143400000D01*
X83350000Y-141000000D02*
X86650000Y-141000000D01*
X86650000Y-160400000D02*
G75*
G03X86650000Y-158000000I0J1200000D01*
G01*
X83350000Y-158000000D02*
G75*
G03X83350000Y-160400000I0J-1200000D01*
G01*
X86650000Y-160400000D02*
X83350000Y-160400000D01*
X83350000Y-158000000D02*
X86650000Y-158000000D01*
X86650000Y-126400000D02*
G75*
G03X86650000Y-124000000I0J1200000D01*
G01*
X83350000Y-124000000D02*
G75*
G03X83350000Y-126400000I0J-1200000D01*
G01*
X86650000Y-126400000D02*
X83350000Y-126400000D01*
X83350000Y-124000000D02*
X86650000Y-124000000D01*
X86650000Y-109400000D02*
G75*
G03X86650000Y-107000000I0J1200000D01*
G01*
X83350000Y-107000000D02*
G75*
G03X83350000Y-109400000I0J-1200000D01*
G01*
X86650000Y-109400000D02*
X83350000Y-109400000D01*
X83350000Y-107000000D02*
X86650000Y-107000000D01*
X91200000Y-99700000D02*
G75*
G03X91200000Y-99700000I-1200000J0D01*
G01*
X86200000Y-97600000D02*
G75*
G03X86200000Y-97600000I-1200000J0D01*
G01*
X91350000Y-103500000D02*
G75*
G03X91350000Y-103500000I-850000J0D01*
G01*
X86700000Y-103500000D02*
G75*
G03X86700000Y-103500000I-1700000J0D01*
G01*
X80350000Y-103500000D02*
G75*
G03X80350000Y-103500000I-850000J0D01*
G01*
X91200000Y-133700000D02*
G75*
G03X91200000Y-133700000I-1200000J0D01*
G01*
X86200000Y-131600000D02*
G75*
G03X86200000Y-131600000I-1200000J0D01*
G01*
X91350000Y-137500000D02*
G75*
G03X91350000Y-137500000I-850000J0D01*
G01*
X86700000Y-137500000D02*
G75*
G03X86700000Y-137500000I-1700000J0D01*
G01*
X80350000Y-137500000D02*
G75*
G03X80350000Y-137500000I-850000J0D01*
G01*
X91200000Y-150700000D02*
G75*
G03X91200000Y-150700000I-1200000J0D01*
G01*
X86200000Y-148600000D02*
G75*
G03X86200000Y-148600000I-1200000J0D01*
G01*
X91350000Y-154500000D02*
G75*
G03X91350000Y-154500000I-850000J0D01*
G01*
X86700000Y-154500000D02*
G75*
G03X86700000Y-154500000I-1700000J0D01*
G01*
X80350000Y-154500000D02*
G75*
G03X80350000Y-154500000I-850000J0D01*
G01*
X91200000Y-116700000D02*
G75*
G03X91200000Y-116700000I-1200000J0D01*
G01*
X86200000Y-114600000D02*
G75*
G03X86200000Y-114600000I-1200000J0D01*
G01*
X91350000Y-120500000D02*
G75*
G03X91350000Y-120500000I-850000J0D01*
G01*
X86700000Y-120500000D02*
G75*
G03X86700000Y-120500000I-1700000J0D01*
G01*
X80350000Y-120500000D02*
G75*
G03X80350000Y-120500000I-850000J0D01*
G01*
X104650000Y-109400000D02*
G75*
G03X104650000Y-107000000I0J1200000D01*
G01*
X101350000Y-107000000D02*
G75*
G03X101350000Y-109400000I0J-1200000D01*
G01*
X104650000Y-109400000D02*
X101350000Y-109400000D01*
X101350000Y-107000000D02*
X104650000Y-107000000D01*
X122650000Y-109400000D02*
G75*
G03X122650000Y-107000000I0J1200000D01*
G01*
X119350000Y-107000000D02*
G75*
G03X119350000Y-109400000I0J-1200000D01*
G01*
X122650000Y-109400000D02*
X119350000Y-109400000D01*
X119350000Y-107000000D02*
X122650000Y-107000000D01*
X140650000Y-109400000D02*
G75*
G03X140650000Y-107000000I0J1200000D01*
G01*
X137350000Y-107000000D02*
G75*
G03X137350000Y-109400000I0J-1200000D01*
G01*
X140650000Y-109400000D02*
X137350000Y-109400000D01*
X137350000Y-107000000D02*
X140650000Y-107000000D01*
X158650000Y-109400000D02*
G75*
G03X158650000Y-107000000I0J1200000D01*
G01*
X155350000Y-107000000D02*
G75*
G03X155350000Y-109400000I0J-1200000D01*
G01*
X158650000Y-109400000D02*
X155350000Y-109400000D01*
X155350000Y-107000000D02*
X158650000Y-107000000D01*
X176650000Y-109400000D02*
G75*
G03X176650000Y-107000000I0J1200000D01*
G01*
X173350000Y-107000000D02*
G75*
G03X173350000Y-109400000I0J-1200000D01*
G01*
X176650000Y-109400000D02*
X173350000Y-109400000D01*
X173350000Y-107000000D02*
X176650000Y-107000000D01*
X230650000Y-109400000D02*
G75*
G03X230650000Y-107000000I0J1200000D01*
G01*
X227350000Y-107000000D02*
G75*
G03X227350000Y-109400000I0J-1200000D01*
G01*
X230650000Y-109400000D02*
X227350000Y-109400000D01*
X227350000Y-107000000D02*
X230650000Y-107000000D01*
X248650000Y-109400000D02*
G75*
G03X248650000Y-107000000I0J1200000D01*
G01*
X245350000Y-107000000D02*
G75*
G03X245350000Y-109400000I0J-1200000D01*
G01*
X248650000Y-109400000D02*
X245350000Y-109400000D01*
X245350000Y-107000000D02*
X248650000Y-107000000D01*
X266650000Y-109400000D02*
G75*
G03X266650000Y-107000000I0J1200000D01*
G01*
X263350000Y-107000000D02*
G75*
G03X263350000Y-109400000I0J-1200000D01*
G01*
X266650000Y-109400000D02*
X263350000Y-109400000D01*
X263350000Y-107000000D02*
X266650000Y-107000000D01*
X284650000Y-109400000D02*
G75*
G03X284650000Y-107000000I0J1200000D01*
G01*
X281350000Y-107000000D02*
G75*
G03X281350000Y-109400000I0J-1200000D01*
G01*
X284650000Y-109400000D02*
X281350000Y-109400000D01*
X281350000Y-107000000D02*
X284650000Y-107000000D01*
X302650000Y-109400000D02*
G75*
G03X302650000Y-107000000I0J1200000D01*
G01*
X299350000Y-107000000D02*
G75*
G03X299350000Y-109400000I0J-1200000D01*
G01*
X302650000Y-109400000D02*
X299350000Y-109400000D01*
X299350000Y-107000000D02*
X302650000Y-107000000D01*
X320650000Y-109400000D02*
G75*
G03X320650000Y-107000000I0J1200000D01*
G01*
X317350000Y-107000000D02*
G75*
G03X317350000Y-109400000I0J-1200000D01*
G01*
X320650000Y-109400000D02*
X317350000Y-109400000D01*
X317350000Y-107000000D02*
X320650000Y-107000000D01*
X104650000Y-126400000D02*
G75*
G03X104650000Y-124000000I0J1200000D01*
G01*
X101350000Y-124000000D02*
G75*
G03X101350000Y-126400000I0J-1200000D01*
G01*
X104650000Y-126400000D02*
X101350000Y-126400000D01*
X101350000Y-124000000D02*
X104650000Y-124000000D01*
X122650000Y-126400000D02*
G75*
G03X122650000Y-124000000I0J1200000D01*
G01*
X119350000Y-124000000D02*
G75*
G03X119350000Y-126400000I0J-1200000D01*
G01*
X122650000Y-126400000D02*
X119350000Y-126400000D01*
X119350000Y-124000000D02*
X122650000Y-124000000D01*
X140650000Y-126400000D02*
G75*
G03X140650000Y-124000000I0J1200000D01*
G01*
X137350000Y-124000000D02*
G75*
G03X137350000Y-126400000I0J-1200000D01*
G01*
X140650000Y-126400000D02*
X137350000Y-126400000D01*
X137350000Y-124000000D02*
X140650000Y-124000000D01*
X158650000Y-126400000D02*
G75*
G03X158650000Y-124000000I0J1200000D01*
G01*
X155350000Y-124000000D02*
G75*
G03X155350000Y-126400000I0J-1200000D01*
G01*
X158650000Y-126400000D02*
X155350000Y-126400000D01*
X155350000Y-124000000D02*
X158650000Y-124000000D01*
X176650000Y-126400000D02*
G75*
G03X176650000Y-124000000I0J1200000D01*
G01*
X173350000Y-124000000D02*
G75*
G03X173350000Y-126400000I0J-1200000D01*
G01*
X176650000Y-126400000D02*
X173350000Y-126400000D01*
X173350000Y-124000000D02*
X176650000Y-124000000D01*
X230650000Y-126400000D02*
G75*
G03X230650000Y-124000000I0J1200000D01*
G01*
X227350000Y-124000000D02*
G75*
G03X227350000Y-126400000I0J-1200000D01*
G01*
X230650000Y-126400000D02*
X227350000Y-126400000D01*
X227350000Y-124000000D02*
X230650000Y-124000000D01*
X248650000Y-126400000D02*
G75*
G03X248650000Y-124000000I0J1200000D01*
G01*
X245350000Y-124000000D02*
G75*
G03X245350000Y-126400000I0J-1200000D01*
G01*
X248650000Y-126400000D02*
X245350000Y-126400000D01*
X245350000Y-124000000D02*
X248650000Y-124000000D01*
X266650000Y-126400000D02*
G75*
G03X266650000Y-124000000I0J1200000D01*
G01*
X263350000Y-124000000D02*
G75*
G03X263350000Y-126400000I0J-1200000D01*
G01*
X266650000Y-126400000D02*
X263350000Y-126400000D01*
X263350000Y-124000000D02*
X266650000Y-124000000D01*
X284650000Y-126400000D02*
G75*
G03X284650000Y-124000000I0J1200000D01*
G01*
X281350000Y-124000000D02*
G75*
G03X281350000Y-126400000I0J-1200000D01*
G01*
X284650000Y-126400000D02*
X281350000Y-126400000D01*
X281350000Y-124000000D02*
X284650000Y-124000000D01*
X302650000Y-126400000D02*
G75*
G03X302650000Y-124000000I0J1200000D01*
G01*
X299350000Y-124000000D02*
G75*
G03X299350000Y-126400000I0J-1200000D01*
G01*
X302650000Y-126400000D02*
X299350000Y-126400000D01*
X299350000Y-124000000D02*
X302650000Y-124000000D01*
X320650000Y-126400000D02*
G75*
G03X320650000Y-124000000I0J1200000D01*
G01*
X317350000Y-124000000D02*
G75*
G03X317350000Y-126400000I0J-1200000D01*
G01*
X320650000Y-126400000D02*
X317350000Y-126400000D01*
X317350000Y-124000000D02*
X320650000Y-124000000D01*
X104650000Y-143400000D02*
G75*
G03X104650000Y-141000000I0J1200000D01*
G01*
X101350000Y-141000000D02*
G75*
G03X101350000Y-143400000I0J-1200000D01*
G01*
X104650000Y-143400000D02*
X101350000Y-143400000D01*
X101350000Y-141000000D02*
X104650000Y-141000000D01*
X122650000Y-143400000D02*
G75*
G03X122650000Y-141000000I0J1200000D01*
G01*
X119350000Y-141000000D02*
G75*
G03X119350000Y-143400000I0J-1200000D01*
G01*
X122650000Y-143400000D02*
X119350000Y-143400000D01*
X119350000Y-141000000D02*
X122650000Y-141000000D01*
X140650000Y-143400000D02*
G75*
G03X140650000Y-141000000I0J1200000D01*
G01*
X137350000Y-141000000D02*
G75*
G03X137350000Y-143400000I0J-1200000D01*
G01*
X140650000Y-143400000D02*
X137350000Y-143400000D01*
X137350000Y-141000000D02*
X140650000Y-141000000D01*
X158650000Y-143400000D02*
G75*
G03X158650000Y-141000000I0J1200000D01*
G01*
X155350000Y-141000000D02*
G75*
G03X155350000Y-143400000I0J-1200000D01*
G01*
X158650000Y-143400000D02*
X155350000Y-143400000D01*
X155350000Y-141000000D02*
X158650000Y-141000000D01*
X176650000Y-143400000D02*
G75*
G03X176650000Y-141000000I0J1200000D01*
G01*
X173350000Y-141000000D02*
G75*
G03X173350000Y-143400000I0J-1200000D01*
G01*
X176650000Y-143400000D02*
X173350000Y-143400000D01*
X173350000Y-141000000D02*
X176650000Y-141000000D01*
X230650000Y-143400000D02*
G75*
G03X230650000Y-141000000I0J1200000D01*
G01*
X227350000Y-141000000D02*
G75*
G03X227350000Y-143400000I0J-1200000D01*
G01*
X230650000Y-143400000D02*
X227350000Y-143400000D01*
X227350000Y-141000000D02*
X230650000Y-141000000D01*
X248650000Y-143400000D02*
G75*
G03X248650000Y-141000000I0J1200000D01*
G01*
X245350000Y-141000000D02*
G75*
G03X245350000Y-143400000I0J-1200000D01*
G01*
X248650000Y-143400000D02*
X245350000Y-143400000D01*
X245350000Y-141000000D02*
X248650000Y-141000000D01*
X266650000Y-143400000D02*
G75*
G03X266650000Y-141000000I0J1200000D01*
G01*
X263350000Y-141000000D02*
G75*
G03X263350000Y-143400000I0J-1200000D01*
G01*
X266650000Y-143400000D02*
X263350000Y-143400000D01*
X263350000Y-141000000D02*
X266650000Y-141000000D01*
X284650000Y-143400000D02*
G75*
G03X284650000Y-141000000I0J1200000D01*
G01*
X281350000Y-141000000D02*
G75*
G03X281350000Y-143400000I0J-1200000D01*
G01*
X284650000Y-143400000D02*
X281350000Y-143400000D01*
X281350000Y-141000000D02*
X284650000Y-141000000D01*
X302650000Y-143400000D02*
G75*
G03X302650000Y-141000000I0J1200000D01*
G01*
X299350000Y-141000000D02*
G75*
G03X299350000Y-143400000I0J-1200000D01*
G01*
X302650000Y-143400000D02*
X299350000Y-143400000D01*
X299350000Y-141000000D02*
X302650000Y-141000000D01*
X320650000Y-143400000D02*
G75*
G03X320650000Y-141000000I0J1200000D01*
G01*
X317350000Y-141000000D02*
G75*
G03X317350000Y-143400000I0J-1200000D01*
G01*
X320650000Y-143400000D02*
X317350000Y-143400000D01*
X317350000Y-141000000D02*
X320650000Y-141000000D01*
X104650000Y-160400000D02*
G75*
G03X104650000Y-158000000I0J1200000D01*
G01*
X101350000Y-158000000D02*
G75*
G03X101350000Y-160400000I0J-1200000D01*
G01*
X104650000Y-160400000D02*
X101350000Y-160400000D01*
X101350000Y-158000000D02*
X104650000Y-158000000D01*
X122650000Y-160400000D02*
G75*
G03X122650000Y-158000000I0J1200000D01*
G01*
X119350000Y-158000000D02*
G75*
G03X119350000Y-160400000I0J-1200000D01*
G01*
X122650000Y-160400000D02*
X119350000Y-160400000D01*
X119350000Y-158000000D02*
X122650000Y-158000000D01*
X140650000Y-160400000D02*
G75*
G03X140650000Y-158000000I0J1200000D01*
G01*
X137350000Y-158000000D02*
G75*
G03X137350000Y-160400000I0J-1200000D01*
G01*
X140650000Y-160400000D02*
X137350000Y-160400000D01*
X137350000Y-158000000D02*
X140650000Y-158000000D01*
X158650000Y-160400000D02*
G75*
G03X158650000Y-158000000I0J1200000D01*
G01*
X155350000Y-158000000D02*
G75*
G03X155350000Y-160400000I0J-1200000D01*
G01*
X158650000Y-160400000D02*
X155350000Y-160400000D01*
X155350000Y-158000000D02*
X158650000Y-158000000D01*
X176650000Y-160400000D02*
G75*
G03X176650000Y-158000000I0J1200000D01*
G01*
X173350000Y-158000000D02*
G75*
G03X173350000Y-160400000I0J-1200000D01*
G01*
X176650000Y-160400000D02*
X173350000Y-160400000D01*
X173350000Y-158000000D02*
X176650000Y-158000000D01*
X194650000Y-160400000D02*
G75*
G03X194650000Y-158000000I0J1200000D01*
G01*
X191350000Y-158000000D02*
G75*
G03X191350000Y-160400000I0J-1200000D01*
G01*
X194650000Y-160400000D02*
X191350000Y-160400000D01*
X191350000Y-158000000D02*
X194650000Y-158000000D01*
X212650000Y-160400000D02*
G75*
G03X212650000Y-158000000I0J1200000D01*
G01*
X209350000Y-158000000D02*
G75*
G03X209350000Y-160400000I0J-1200000D01*
G01*
X212650000Y-160400000D02*
X209350000Y-160400000D01*
X209350000Y-158000000D02*
X212650000Y-158000000D01*
X230650000Y-160400000D02*
G75*
G03X230650000Y-158000000I0J1200000D01*
G01*
X227350000Y-158000000D02*
G75*
G03X227350000Y-160400000I0J-1200000D01*
G01*
X230650000Y-160400000D02*
X227350000Y-160400000D01*
X227350000Y-158000000D02*
X230650000Y-158000000D01*
X248650000Y-160400000D02*
G75*
G03X248650000Y-158000000I0J1200000D01*
G01*
X245350000Y-158000000D02*
G75*
G03X245350000Y-160400000I0J-1200000D01*
G01*
X248650000Y-160400000D02*
X245350000Y-160400000D01*
X245350000Y-158000000D02*
X248650000Y-158000000D01*
X266650000Y-160400000D02*
G75*
G03X266650000Y-158000000I0J1200000D01*
G01*
X263350000Y-158000000D02*
G75*
G03X263350000Y-160400000I0J-1200000D01*
G01*
X266650000Y-160400000D02*
X263350000Y-160400000D01*
X263350000Y-158000000D02*
X266650000Y-158000000D01*
X284650000Y-160400000D02*
G75*
G03X284650000Y-158000000I0J1200000D01*
G01*
X281350000Y-158000000D02*
G75*
G03X281350000Y-160400000I0J-1200000D01*
G01*
X284650000Y-160400000D02*
X281350000Y-160400000D01*
X281350000Y-158000000D02*
X284650000Y-158000000D01*
X302650000Y-160400000D02*
G75*
G03X302650000Y-158000000I0J1200000D01*
G01*
X299350000Y-158000000D02*
G75*
G03X299350000Y-160400000I0J-1200000D01*
G01*
X302650000Y-160400000D02*
X299350000Y-160400000D01*
X299350000Y-158000000D02*
X302650000Y-158000000D01*
X320650000Y-160400000D02*
G75*
G03X320650000Y-158000000I0J1200000D01*
G01*
X317350000Y-158000000D02*
G75*
G03X317350000Y-160400000I0J-1200000D01*
G01*
X320650000Y-160400000D02*
X317350000Y-160400000D01*
X317350000Y-158000000D02*
X320650000Y-158000000D01*
X109200000Y-99700000D02*
G75*
G03X109200000Y-99700000I-1200000J0D01*
G01*
X104200000Y-97600000D02*
G75*
G03X104200000Y-97600000I-1200000J0D01*
G01*
X109350000Y-103500000D02*
G75*
G03X109350000Y-103500000I-850000J0D01*
G01*
X104700000Y-103500000D02*
G75*
G03X104700000Y-103500000I-1700000J0D01*
G01*
X98350000Y-103500000D02*
G75*
G03X98350000Y-103500000I-850000J0D01*
G01*
X127200000Y-99700000D02*
G75*
G03X127200000Y-99700000I-1200000J0D01*
G01*
X122200000Y-97600000D02*
G75*
G03X122200000Y-97600000I-1200000J0D01*
G01*
X127350000Y-103500000D02*
G75*
G03X127350000Y-103500000I-850000J0D01*
G01*
X122700000Y-103500000D02*
G75*
G03X122700000Y-103500000I-1700000J0D01*
G01*
X116350000Y-103500000D02*
G75*
G03X116350000Y-103500000I-850000J0D01*
G01*
X145200000Y-99700000D02*
G75*
G03X145200000Y-99700000I-1200000J0D01*
G01*
X140200000Y-97600000D02*
G75*
G03X140200000Y-97600000I-1200000J0D01*
G01*
X145350000Y-103500000D02*
G75*
G03X145350000Y-103500000I-850000J0D01*
G01*
X140700000Y-103500000D02*
G75*
G03X140700000Y-103500000I-1700000J0D01*
G01*
X134350000Y-103500000D02*
G75*
G03X134350000Y-103500000I-850000J0D01*
G01*
X163200000Y-99700000D02*
G75*
G03X163200000Y-99700000I-1200000J0D01*
G01*
X158200000Y-97600000D02*
G75*
G03X158200000Y-97600000I-1200000J0D01*
G01*
X163350000Y-103500000D02*
G75*
G03X163350000Y-103500000I-850000J0D01*
G01*
X158700000Y-103500000D02*
G75*
G03X158700000Y-103500000I-1700000J0D01*
G01*
X152350000Y-103500000D02*
G75*
G03X152350000Y-103500000I-850000J0D01*
G01*
X235200000Y-99700000D02*
G75*
G03X235200000Y-99700000I-1200000J0D01*
G01*
X230200000Y-97600000D02*
G75*
G03X230200000Y-97600000I-1200000J0D01*
G01*
X235350000Y-103500000D02*
G75*
G03X235350000Y-103500000I-850000J0D01*
G01*
X230700000Y-103500000D02*
G75*
G03X230700000Y-103500000I-1700000J0D01*
G01*
X224350000Y-103500000D02*
G75*
G03X224350000Y-103500000I-850000J0D01*
G01*
X253200000Y-99700000D02*
G75*
G03X253200000Y-99700000I-1200000J0D01*
G01*
X248200000Y-97600000D02*
G75*
G03X248200000Y-97600000I-1200000J0D01*
G01*
X253350000Y-103500000D02*
G75*
G03X253350000Y-103500000I-850000J0D01*
G01*
X248700000Y-103500000D02*
G75*
G03X248700000Y-103500000I-1700000J0D01*
G01*
X242350000Y-103500000D02*
G75*
G03X242350000Y-103500000I-850000J0D01*
G01*
X271200000Y-99700000D02*
G75*
G03X271200000Y-99700000I-1200000J0D01*
G01*
X266200000Y-97600000D02*
G75*
G03X266200000Y-97600000I-1200000J0D01*
G01*
X271350000Y-103500000D02*
G75*
G03X271350000Y-103500000I-850000J0D01*
G01*
X266700000Y-103500000D02*
G75*
G03X266700000Y-103500000I-1700000J0D01*
G01*
X260350000Y-103500000D02*
G75*
G03X260350000Y-103500000I-850000J0D01*
G01*
X289200000Y-99700000D02*
G75*
G03X289200000Y-99700000I-1200000J0D01*
G01*
X284200000Y-97600000D02*
G75*
G03X284200000Y-97600000I-1200000J0D01*
G01*
X289350000Y-103500000D02*
G75*
G03X289350000Y-103500000I-850000J0D01*
G01*
X284700000Y-103500000D02*
G75*
G03X284700000Y-103500000I-1700000J0D01*
G01*
X278350000Y-103500000D02*
G75*
G03X278350000Y-103500000I-850000J0D01*
G01*
X307200000Y-99700000D02*
G75*
G03X307200000Y-99700000I-1200000J0D01*
G01*
X302200000Y-97600000D02*
G75*
G03X302200000Y-97600000I-1200000J0D01*
G01*
X307350000Y-103500000D02*
G75*
G03X307350000Y-103500000I-850000J0D01*
G01*
X302700000Y-103500000D02*
G75*
G03X302700000Y-103500000I-1700000J0D01*
G01*
X296350000Y-103500000D02*
G75*
G03X296350000Y-103500000I-850000J0D01*
G01*
X325200000Y-99700000D02*
G75*
G03X325200000Y-99700000I-1200000J0D01*
G01*
X320200000Y-97600000D02*
G75*
G03X320200000Y-97600000I-1200000J0D01*
G01*
X325350000Y-103500000D02*
G75*
G03X325350000Y-103500000I-850000J0D01*
G01*
X320700000Y-103500000D02*
G75*
G03X320700000Y-103500000I-1700000J0D01*
G01*
X314350000Y-103500000D02*
G75*
G03X314350000Y-103500000I-850000J0D01*
G01*
X109200000Y-116700000D02*
G75*
G03X109200000Y-116700000I-1200000J0D01*
G01*
X104200000Y-114600000D02*
G75*
G03X104200000Y-114600000I-1200000J0D01*
G01*
X109350000Y-120500000D02*
G75*
G03X109350000Y-120500000I-850000J0D01*
G01*
X104700000Y-120500000D02*
G75*
G03X104700000Y-120500000I-1700000J0D01*
G01*
X98350000Y-120500000D02*
G75*
G03X98350000Y-120500000I-850000J0D01*
G01*
X127200000Y-116700000D02*
G75*
G03X127200000Y-116700000I-1200000J0D01*
G01*
X122200000Y-114600000D02*
G75*
G03X122200000Y-114600000I-1200000J0D01*
G01*
X127350000Y-120500000D02*
G75*
G03X127350000Y-120500000I-850000J0D01*
G01*
X122700000Y-120500000D02*
G75*
G03X122700000Y-120500000I-1700000J0D01*
G01*
X116350000Y-120500000D02*
G75*
G03X116350000Y-120500000I-850000J0D01*
G01*
X145200000Y-116700000D02*
G75*
G03X145200000Y-116700000I-1200000J0D01*
G01*
X140200000Y-114600000D02*
G75*
G03X140200000Y-114600000I-1200000J0D01*
G01*
X145350000Y-120500000D02*
G75*
G03X145350000Y-120500000I-850000J0D01*
G01*
X140700000Y-120500000D02*
G75*
G03X140700000Y-120500000I-1700000J0D01*
G01*
X134350000Y-120500000D02*
G75*
G03X134350000Y-120500000I-850000J0D01*
G01*
X163200000Y-116700000D02*
G75*
G03X163200000Y-116700000I-1200000J0D01*
G01*
X158200000Y-114600000D02*
G75*
G03X158200000Y-114600000I-1200000J0D01*
G01*
X163350000Y-120500000D02*
G75*
G03X163350000Y-120500000I-850000J0D01*
G01*
X158700000Y-120500000D02*
G75*
G03X158700000Y-120500000I-1700000J0D01*
G01*
X152350000Y-120500000D02*
G75*
G03X152350000Y-120500000I-850000J0D01*
G01*
X181200000Y-116700000D02*
G75*
G03X181200000Y-116700000I-1200000J0D01*
G01*
X176200000Y-114600000D02*
G75*
G03X176200000Y-114600000I-1200000J0D01*
G01*
X181350000Y-120500000D02*
G75*
G03X181350000Y-120500000I-850000J0D01*
G01*
X176700000Y-120500000D02*
G75*
G03X176700000Y-120500000I-1700000J0D01*
G01*
X170350000Y-120500000D02*
G75*
G03X170350000Y-120500000I-850000J0D01*
G01*
X235200000Y-116700000D02*
G75*
G03X235200000Y-116700000I-1200000J0D01*
G01*
X230200000Y-114600000D02*
G75*
G03X230200000Y-114600000I-1200000J0D01*
G01*
X235350000Y-120500000D02*
G75*
G03X235350000Y-120500000I-850000J0D01*
G01*
X230700000Y-120500000D02*
G75*
G03X230700000Y-120500000I-1700000J0D01*
G01*
X224350000Y-120500000D02*
G75*
G03X224350000Y-120500000I-850000J0D01*
G01*
X253200000Y-116700000D02*
G75*
G03X253200000Y-116700000I-1200000J0D01*
G01*
X248200000Y-114600000D02*
G75*
G03X248200000Y-114600000I-1200000J0D01*
G01*
X253350000Y-120500000D02*
G75*
G03X253350000Y-120500000I-850000J0D01*
G01*
X248700000Y-120500000D02*
G75*
G03X248700000Y-120500000I-1700000J0D01*
G01*
X242350000Y-120500000D02*
G75*
G03X242350000Y-120500000I-850000J0D01*
G01*
X271200000Y-116700000D02*
G75*
G03X271200000Y-116700000I-1200000J0D01*
G01*
X266200000Y-114600000D02*
G75*
G03X266200000Y-114600000I-1200000J0D01*
G01*
X271350000Y-120500000D02*
G75*
G03X271350000Y-120500000I-850000J0D01*
G01*
X266700000Y-120500000D02*
G75*
G03X266700000Y-120500000I-1700000J0D01*
G01*
X260350000Y-120500000D02*
G75*
G03X260350000Y-120500000I-850000J0D01*
G01*
X289200000Y-116700000D02*
G75*
G03X289200000Y-116700000I-1200000J0D01*
G01*
X284200000Y-114600000D02*
G75*
G03X284200000Y-114600000I-1200000J0D01*
G01*
X289350000Y-120500000D02*
G75*
G03X289350000Y-120500000I-850000J0D01*
G01*
X284700000Y-120500000D02*
G75*
G03X284700000Y-120500000I-1700000J0D01*
G01*
X278350000Y-120500000D02*
G75*
G03X278350000Y-120500000I-850000J0D01*
G01*
X307200000Y-116700000D02*
G75*
G03X307200000Y-116700000I-1200000J0D01*
G01*
X302200000Y-114600000D02*
G75*
G03X302200000Y-114600000I-1200000J0D01*
G01*
X307350000Y-120500000D02*
G75*
G03X307350000Y-120500000I-850000J0D01*
G01*
X302700000Y-120500000D02*
G75*
G03X302700000Y-120500000I-1700000J0D01*
G01*
X296350000Y-120500000D02*
G75*
G03X296350000Y-120500000I-850000J0D01*
G01*
X325200000Y-116700000D02*
G75*
G03X325200000Y-116700000I-1200000J0D01*
G01*
X320200000Y-114600000D02*
G75*
G03X320200000Y-114600000I-1200000J0D01*
G01*
X325350000Y-120500000D02*
G75*
G03X325350000Y-120500000I-850000J0D01*
G01*
X320700000Y-120500000D02*
G75*
G03X320700000Y-120500000I-1700000J0D01*
G01*
X314350000Y-120500000D02*
G75*
G03X314350000Y-120500000I-850000J0D01*
G01*
X109200000Y-133700000D02*
G75*
G03X109200000Y-133700000I-1200000J0D01*
G01*
X104200000Y-131600000D02*
G75*
G03X104200000Y-131600000I-1200000J0D01*
G01*
X109350000Y-137500000D02*
G75*
G03X109350000Y-137500000I-850000J0D01*
G01*
X104700000Y-137500000D02*
G75*
G03X104700000Y-137500000I-1700000J0D01*
G01*
X98350000Y-137500000D02*
G75*
G03X98350000Y-137500000I-850000J0D01*
G01*
X127200000Y-133700000D02*
G75*
G03X127200000Y-133700000I-1200000J0D01*
G01*
X122200000Y-131600000D02*
G75*
G03X122200000Y-131600000I-1200000J0D01*
G01*
X127350000Y-137500000D02*
G75*
G03X127350000Y-137500000I-850000J0D01*
G01*
X122700000Y-137500000D02*
G75*
G03X122700000Y-137500000I-1700000J0D01*
G01*
X116350000Y-137500000D02*
G75*
G03X116350000Y-137500000I-850000J0D01*
G01*
X145200000Y-133700000D02*
G75*
G03X145200000Y-133700000I-1200000J0D01*
G01*
X140200000Y-131600000D02*
G75*
G03X140200000Y-131600000I-1200000J0D01*
G01*
X145350000Y-137500000D02*
G75*
G03X145350000Y-137500000I-850000J0D01*
G01*
X140700000Y-137500000D02*
G75*
G03X140700000Y-137500000I-1700000J0D01*
G01*
X134350000Y-137500000D02*
G75*
G03X134350000Y-137500000I-850000J0D01*
G01*
X163200000Y-133700000D02*
G75*
G03X163200000Y-133700000I-1200000J0D01*
G01*
X158200000Y-131600000D02*
G75*
G03X158200000Y-131600000I-1200000J0D01*
G01*
X163350000Y-137500000D02*
G75*
G03X163350000Y-137500000I-850000J0D01*
G01*
X158700000Y-137500000D02*
G75*
G03X158700000Y-137500000I-1700000J0D01*
G01*
X152350000Y-137500000D02*
G75*
G03X152350000Y-137500000I-850000J0D01*
G01*
X181200000Y-133700000D02*
G75*
G03X181200000Y-133700000I-1200000J0D01*
G01*
X176200000Y-131600000D02*
G75*
G03X176200000Y-131600000I-1200000J0D01*
G01*
X181350000Y-137500000D02*
G75*
G03X181350000Y-137500000I-850000J0D01*
G01*
X176700000Y-137500000D02*
G75*
G03X176700000Y-137500000I-1700000J0D01*
G01*
X170350000Y-137500000D02*
G75*
G03X170350000Y-137500000I-850000J0D01*
G01*
X235200000Y-133700000D02*
G75*
G03X235200000Y-133700000I-1200000J0D01*
G01*
X230200000Y-131600000D02*
G75*
G03X230200000Y-131600000I-1200000J0D01*
G01*
X235350000Y-137500000D02*
G75*
G03X235350000Y-137500000I-850000J0D01*
G01*
X230700000Y-137500000D02*
G75*
G03X230700000Y-137500000I-1700000J0D01*
G01*
X224350000Y-137500000D02*
G75*
G03X224350000Y-137500000I-850000J0D01*
G01*
X253200000Y-133700000D02*
G75*
G03X253200000Y-133700000I-1200000J0D01*
G01*
X248200000Y-131600000D02*
G75*
G03X248200000Y-131600000I-1200000J0D01*
G01*
X253350000Y-137500000D02*
G75*
G03X253350000Y-137500000I-850000J0D01*
G01*
X248700000Y-137500000D02*
G75*
G03X248700000Y-137500000I-1700000J0D01*
G01*
X242350000Y-137500000D02*
G75*
G03X242350000Y-137500000I-850000J0D01*
G01*
X271200000Y-133700000D02*
G75*
G03X271200000Y-133700000I-1200000J0D01*
G01*
X266200000Y-131600000D02*
G75*
G03X266200000Y-131600000I-1200000J0D01*
G01*
X271350000Y-137500000D02*
G75*
G03X271350000Y-137500000I-850000J0D01*
G01*
X266700000Y-137500000D02*
G75*
G03X266700000Y-137500000I-1700000J0D01*
G01*
X260350000Y-137500000D02*
G75*
G03X260350000Y-137500000I-850000J0D01*
G01*
X289200000Y-133700000D02*
G75*
G03X289200000Y-133700000I-1200000J0D01*
G01*
X284200000Y-131600000D02*
G75*
G03X284200000Y-131600000I-1200000J0D01*
G01*
X289350000Y-137500000D02*
G75*
G03X289350000Y-137500000I-850000J0D01*
G01*
X284700000Y-137500000D02*
G75*
G03X284700000Y-137500000I-1700000J0D01*
G01*
X278350000Y-137500000D02*
G75*
G03X278350000Y-137500000I-850000J0D01*
G01*
X307200000Y-133700000D02*
G75*
G03X307200000Y-133700000I-1200000J0D01*
G01*
X302200000Y-131600000D02*
G75*
G03X302200000Y-131600000I-1200000J0D01*
G01*
X307350000Y-137500000D02*
G75*
G03X307350000Y-137500000I-850000J0D01*
G01*
X302700000Y-137500000D02*
G75*
G03X302700000Y-137500000I-1700000J0D01*
G01*
X296350000Y-137500000D02*
G75*
G03X296350000Y-137500000I-850000J0D01*
G01*
X325200000Y-133700000D02*
G75*
G03X325200000Y-133700000I-1200000J0D01*
G01*
X320200000Y-131600000D02*
G75*
G03X320200000Y-131600000I-1200000J0D01*
G01*
X325350000Y-137500000D02*
G75*
G03X325350000Y-137500000I-850000J0D01*
G01*
X320700000Y-137500000D02*
G75*
G03X320700000Y-137500000I-1700000J0D01*
G01*
X314350000Y-137500000D02*
G75*
G03X314350000Y-137500000I-850000J0D01*
G01*
X109200000Y-150700000D02*
G75*
G03X109200000Y-150700000I-1200000J0D01*
G01*
X104200000Y-148600000D02*
G75*
G03X104200000Y-148600000I-1200000J0D01*
G01*
X109350000Y-154500000D02*
G75*
G03X109350000Y-154500000I-850000J0D01*
G01*
X104700000Y-154500000D02*
G75*
G03X104700000Y-154500000I-1700000J0D01*
G01*
X98350000Y-154500000D02*
G75*
G03X98350000Y-154500000I-850000J0D01*
G01*
X127200000Y-150700000D02*
G75*
G03X127200000Y-150700000I-1200000J0D01*
G01*
X122200000Y-148600000D02*
G75*
G03X122200000Y-148600000I-1200000J0D01*
G01*
X127350000Y-154500000D02*
G75*
G03X127350000Y-154500000I-850000J0D01*
G01*
X122700000Y-154500000D02*
G75*
G03X122700000Y-154500000I-1700000J0D01*
G01*
X116350000Y-154500000D02*
G75*
G03X116350000Y-154500000I-850000J0D01*
G01*
X145200000Y-150700000D02*
G75*
G03X145200000Y-150700000I-1200000J0D01*
G01*
X140200000Y-148600000D02*
G75*
G03X140200000Y-148600000I-1200000J0D01*
G01*
X145350000Y-154500000D02*
G75*
G03X145350000Y-154500000I-850000J0D01*
G01*
X140700000Y-154500000D02*
G75*
G03X140700000Y-154500000I-1700000J0D01*
G01*
X134350000Y-154500000D02*
G75*
G03X134350000Y-154500000I-850000J0D01*
G01*
X163200000Y-150700000D02*
G75*
G03X163200000Y-150700000I-1200000J0D01*
G01*
X158200000Y-148600000D02*
G75*
G03X158200000Y-148600000I-1200000J0D01*
G01*
X163350000Y-154500000D02*
G75*
G03X163350000Y-154500000I-850000J0D01*
G01*
X158700000Y-154500000D02*
G75*
G03X158700000Y-154500000I-1700000J0D01*
G01*
X152350000Y-154500000D02*
G75*
G03X152350000Y-154500000I-850000J0D01*
G01*
X181200000Y-150700000D02*
G75*
G03X181200000Y-150700000I-1200000J0D01*
G01*
X176200000Y-148600000D02*
G75*
G03X176200000Y-148600000I-1200000J0D01*
G01*
X181350000Y-154500000D02*
G75*
G03X181350000Y-154500000I-850000J0D01*
G01*
X176700000Y-154500000D02*
G75*
G03X176700000Y-154500000I-1700000J0D01*
G01*
X170350000Y-154500000D02*
G75*
G03X170350000Y-154500000I-850000J0D01*
G01*
X199200000Y-150700000D02*
G75*
G03X199200000Y-150700000I-1200000J0D01*
G01*
X194200000Y-148600000D02*
G75*
G03X194200000Y-148600000I-1200000J0D01*
G01*
X199350000Y-154500000D02*
G75*
G03X199350000Y-154500000I-850000J0D01*
G01*
X194700000Y-154500000D02*
G75*
G03X194700000Y-154500000I-1700000J0D01*
G01*
X188350000Y-154500000D02*
G75*
G03X188350000Y-154500000I-850000J0D01*
G01*
X217200000Y-150700000D02*
G75*
G03X217200000Y-150700000I-1200000J0D01*
G01*
X212200000Y-148600000D02*
G75*
G03X212200000Y-148600000I-1200000J0D01*
G01*
X217350000Y-154500000D02*
G75*
G03X217350000Y-154500000I-850000J0D01*
G01*
X212700000Y-154500000D02*
G75*
G03X212700000Y-154500000I-1700000J0D01*
G01*
X206350000Y-154500000D02*
G75*
G03X206350000Y-154500000I-850000J0D01*
G01*
X235200000Y-150700000D02*
G75*
G03X235200000Y-150700000I-1200000J0D01*
G01*
X230200000Y-148600000D02*
G75*
G03X230200000Y-148600000I-1200000J0D01*
G01*
X235350000Y-154500000D02*
G75*
G03X235350000Y-154500000I-850000J0D01*
G01*
X230700000Y-154500000D02*
G75*
G03X230700000Y-154500000I-1700000J0D01*
G01*
X224350000Y-154500000D02*
G75*
G03X224350000Y-154500000I-850000J0D01*
G01*
X253200000Y-150700000D02*
G75*
G03X253200000Y-150700000I-1200000J0D01*
G01*
X248200000Y-148600000D02*
G75*
G03X248200000Y-148600000I-1200000J0D01*
G01*
X253350000Y-154500000D02*
G75*
G03X253350000Y-154500000I-850000J0D01*
G01*
X248700000Y-154500000D02*
G75*
G03X248700000Y-154500000I-1700000J0D01*
G01*
X242350000Y-154500000D02*
G75*
G03X242350000Y-154500000I-850000J0D01*
G01*
X271200000Y-150700000D02*
G75*
G03X271200000Y-150700000I-1200000J0D01*
G01*
X266200000Y-148600000D02*
G75*
G03X266200000Y-148600000I-1200000J0D01*
G01*
X271350000Y-154500000D02*
G75*
G03X271350000Y-154500000I-850000J0D01*
G01*
X266700000Y-154500000D02*
G75*
G03X266700000Y-154500000I-1700000J0D01*
G01*
X260350000Y-154500000D02*
G75*
G03X260350000Y-154500000I-850000J0D01*
G01*
X289200000Y-150700000D02*
G75*
G03X289200000Y-150700000I-1200000J0D01*
G01*
X284200000Y-148600000D02*
G75*
G03X284200000Y-148600000I-1200000J0D01*
G01*
X289350000Y-154500000D02*
G75*
G03X289350000Y-154500000I-850000J0D01*
G01*
X284700000Y-154500000D02*
G75*
G03X284700000Y-154500000I-1700000J0D01*
G01*
X278350000Y-154500000D02*
G75*
G03X278350000Y-154500000I-850000J0D01*
G01*
X307200000Y-150700000D02*
G75*
G03X307200000Y-150700000I-1200000J0D01*
G01*
X302200000Y-148600000D02*
G75*
G03X302200000Y-148600000I-1200000J0D01*
G01*
X307350000Y-154500000D02*
G75*
G03X307350000Y-154500000I-850000J0D01*
G01*
X302700000Y-154500000D02*
G75*
G03X302700000Y-154500000I-1700000J0D01*
G01*
X296350000Y-154500000D02*
G75*
G03X296350000Y-154500000I-850000J0D01*
G01*
X325200000Y-150700000D02*
G75*
G03X325200000Y-150700000I-1200000J0D01*
G01*
X320200000Y-148600000D02*
G75*
G03X320200000Y-148600000I-1200000J0D01*
G01*
X325350000Y-154500000D02*
G75*
G03X325350000Y-154500000I-850000J0D01*
G01*
X320700000Y-154500000D02*
G75*
G03X320700000Y-154500000I-1700000J0D01*
G01*
X314350000Y-154500000D02*
G75*
G03X314350000Y-154500000I-850000J0D01*
G01*
X181200000Y-99700000D02*
G75*
G03X181200000Y-99700000I-1200000J0D01*
G01*
X176200000Y-97600000D02*
G75*
G03X176200000Y-97600000I-1200000J0D01*
G01*
X181350000Y-103500000D02*
G75*
G03X181350000Y-103500000I-850000J0D01*
G01*
X176700000Y-103500000D02*
G75*
G03X176700000Y-103500000I-1700000J0D01*
G01*
X170350000Y-103500000D02*
G75*
G03X170350000Y-103500000I-850000J0D01*
G01*
X210720000Y-99030000D02*
X210720000Y-126970000D01*
X208520000Y-99030000D02*
X208520000Y-126970000D01*
X195480000Y-99030000D02*
X195480000Y-126970000D01*
X193280000Y-99030000D02*
X193280000Y-126970000D01*
X210720000Y-126970000D02*
G75*
G02X208520000Y-126970000I-1100000J0D01*
G01*
X195480000Y-126970000D02*
G75*
G02X193280000Y-126970000I-1100000J0D01*
G01*
X208520000Y-99030000D02*
G75*
G02X210720000Y-99030000I1100000J0D01*
G01*
X193280000Y-99030000D02*
G75*
G02X195480000Y-99030000I1100000J0D01*
G01*
M02*
