G04 #@! TF.GenerationSoftware,KiCad,Pcbnew,(5.1.4)-1*
G04 #@! TF.CreationDate,2021-09-19T22:16:23-04:00*
G04 #@! TF.ProjectId,horizon-choc-bottom-plate,686f7269-7a6f-46e2-9d63-686f632d626f,rev?*
G04 #@! TF.SameCoordinates,Original*
G04 #@! TF.FileFunction,Legend,Top*
G04 #@! TF.FilePolarity,Positive*
%FSLAX46Y46*%
G04 Gerber Fmt 4.6, Leading zero omitted, Abs format (unit mm)*
G04 Created by KiCad (PCBNEW (5.1.4)-1) date 2021-09-19 22:16:23*
%MOMM*%
%LPD*%
G04 APERTURE LIST*
%ADD10C,0.150000*%
%ADD11C,0.802000*%
%ADD12C,4.502000*%
G04 APERTURE END LIST*
D10*
X197380952Y-95952380D02*
X197380952Y-96666666D01*
X197333333Y-96809523D01*
X197238095Y-96904761D01*
X197095238Y-96952380D01*
X197000000Y-96952380D01*
X198333333Y-96952380D02*
X197857142Y-96952380D01*
X197857142Y-95952380D01*
X199238095Y-96857142D02*
X199190476Y-96904761D01*
X199047619Y-96952380D01*
X198952380Y-96952380D01*
X198809523Y-96904761D01*
X198714285Y-96809523D01*
X198666666Y-96714285D01*
X198619047Y-96523809D01*
X198619047Y-96380952D01*
X198666666Y-96190476D01*
X198714285Y-96095238D01*
X198809523Y-96000000D01*
X198952380Y-95952380D01*
X199047619Y-95952380D01*
X199190476Y-96000000D01*
X199238095Y-96047619D01*
X199952380Y-95952380D02*
X199952380Y-96666666D01*
X199904761Y-96809523D01*
X199809523Y-96904761D01*
X199666666Y-96952380D01*
X199571428Y-96952380D01*
X200904761Y-96952380D02*
X200428571Y-96952380D01*
X200428571Y-95952380D01*
X201809523Y-96857142D02*
X201761904Y-96904761D01*
X201619047Y-96952380D01*
X201523809Y-96952380D01*
X201380952Y-96904761D01*
X201285714Y-96809523D01*
X201238095Y-96714285D01*
X201190476Y-96523809D01*
X201190476Y-96380952D01*
X201238095Y-96190476D01*
X201285714Y-96095238D01*
X201380952Y-96000000D01*
X201523809Y-95952380D01*
X201619047Y-95952380D01*
X201761904Y-96000000D01*
X201809523Y-96047619D01*
X202523809Y-95952380D02*
X202523809Y-96666666D01*
X202476190Y-96809523D01*
X202380952Y-96904761D01*
X202238095Y-96952380D01*
X202142857Y-96952380D01*
X203476190Y-96952380D02*
X203000000Y-96952380D01*
X203000000Y-95952380D01*
X204380952Y-96857142D02*
X204333333Y-96904761D01*
X204190476Y-96952380D01*
X204095238Y-96952380D01*
X203952380Y-96904761D01*
X203857142Y-96809523D01*
X203809523Y-96714285D01*
X203761904Y-96523809D01*
X203761904Y-96380952D01*
X203809523Y-96190476D01*
X203857142Y-96095238D01*
X203952380Y-96000000D01*
X204095238Y-95952380D01*
X204190476Y-95952380D01*
X204333333Y-96000000D01*
X204380952Y-96047619D01*
X205095238Y-95952380D02*
X205095238Y-96666666D01*
X205047619Y-96809523D01*
X204952380Y-96904761D01*
X204809523Y-96952380D01*
X204714285Y-96952380D01*
X206047619Y-96952380D02*
X205571428Y-96952380D01*
X205571428Y-95952380D01*
X206952380Y-96857142D02*
X206904761Y-96904761D01*
X206761904Y-96952380D01*
X206666666Y-96952380D01*
X206523809Y-96904761D01*
X206428571Y-96809523D01*
X206380952Y-96714285D01*
X206333333Y-96523809D01*
X206333333Y-96380952D01*
X206380952Y-96190476D01*
X206428571Y-96095238D01*
X206523809Y-96000000D01*
X206666666Y-95952380D01*
X206761904Y-95952380D01*
X206904761Y-96000000D01*
X206952380Y-96047619D01*
%LPC*%
D11*
X216666726Y-123333274D03*
X215500000Y-122850000D03*
X214333274Y-123333274D03*
X213850000Y-124500000D03*
X214333274Y-125666726D03*
X215500000Y-126150000D03*
X216666726Y-125666726D03*
X217150000Y-124500000D03*
D12*
X215500000Y-124500000D03*
D11*
X189666726Y-123333274D03*
X188500000Y-122850000D03*
X187333274Y-123333274D03*
X186850000Y-124500000D03*
X187333274Y-125666726D03*
X188500000Y-126150000D03*
X189666726Y-125666726D03*
X190150000Y-124500000D03*
D12*
X188500000Y-124500000D03*
D11*
X216666726Y-98333274D03*
X215500000Y-97850000D03*
X214333274Y-98333274D03*
X213850000Y-99500000D03*
X214333274Y-100666726D03*
X215500000Y-101150000D03*
X216666726Y-100666726D03*
X217150000Y-99500000D03*
D12*
X215500000Y-99500000D03*
D11*
X189666726Y-98333274D03*
X188500000Y-97850000D03*
X187333274Y-98333274D03*
X186850000Y-99500000D03*
X187333274Y-100666726D03*
X188500000Y-101150000D03*
X189666726Y-100666726D03*
X190150000Y-99500000D03*
D12*
X188500000Y-99500000D03*
D11*
X95166726Y-110833274D03*
X94000000Y-110350000D03*
X92833274Y-110833274D03*
X92350000Y-112000000D03*
X92833274Y-113166726D03*
X94000000Y-113650000D03*
X95166726Y-113166726D03*
X95650000Y-112000000D03*
D12*
X94000000Y-112000000D03*
D11*
X311166726Y-144833274D03*
X310000000Y-144350000D03*
X308833274Y-144833274D03*
X308350000Y-146000000D03*
X308833274Y-147166726D03*
X310000000Y-147650000D03*
X311166726Y-147166726D03*
X311650000Y-146000000D03*
D12*
X310000000Y-146000000D03*
D11*
X311166726Y-110833274D03*
X310000000Y-110350000D03*
X308833274Y-110833274D03*
X308350000Y-112000000D03*
X308833274Y-113166726D03*
X310000000Y-113650000D03*
X311166726Y-113166726D03*
X311650000Y-112000000D03*
D12*
X310000000Y-112000000D03*
D11*
X95166726Y-144833274D03*
X94000000Y-144350000D03*
X92833274Y-144833274D03*
X92350000Y-146000000D03*
X92833274Y-147166726D03*
X94000000Y-147650000D03*
X95166726Y-147166726D03*
X95650000Y-146000000D03*
D12*
X94000000Y-146000000D03*
M02*
