G04 #@! TF.GenerationSoftware,KiCad,Pcbnew,(5.1.4)-1*
G04 #@! TF.CreationDate,2021-09-19T22:16:23-04:00*
G04 #@! TF.ProjectId,horizon-choc-bottom-plate,686f7269-7a6f-46e2-9d63-686f632d626f,rev?*
G04 #@! TF.SameCoordinates,Original*
G04 #@! TF.FileFunction,Legend,Bot*
G04 #@! TF.FilePolarity,Positive*
%FSLAX46Y46*%
G04 Gerber Fmt 4.6, Leading zero omitted, Abs format (unit mm)*
G04 Created by KiCad (PCBNEW (5.1.4)-1) date 2021-09-19 22:16:23*
%MOMM*%
%LPD*%
G04 APERTURE LIST*
%ADD10C,0.150000*%
%ADD11C,0.802000*%
%ADD12C,4.502000*%
G04 APERTURE END LIST*
D10*
%LPC*%
D11*
X216666726Y-123333274D03*
X215500000Y-122850000D03*
X214333274Y-123333274D03*
X213850000Y-124500000D03*
X214333274Y-125666726D03*
X215500000Y-126150000D03*
X216666726Y-125666726D03*
X217150000Y-124500000D03*
D12*
X215500000Y-124500000D03*
D11*
X189666726Y-123333274D03*
X188500000Y-122850000D03*
X187333274Y-123333274D03*
X186850000Y-124500000D03*
X187333274Y-125666726D03*
X188500000Y-126150000D03*
X189666726Y-125666726D03*
X190150000Y-124500000D03*
D12*
X188500000Y-124500000D03*
D11*
X216666726Y-98333274D03*
X215500000Y-97850000D03*
X214333274Y-98333274D03*
X213850000Y-99500000D03*
X214333274Y-100666726D03*
X215500000Y-101150000D03*
X216666726Y-100666726D03*
X217150000Y-99500000D03*
D12*
X215500000Y-99500000D03*
D11*
X189666726Y-98333274D03*
X188500000Y-97850000D03*
X187333274Y-98333274D03*
X186850000Y-99500000D03*
X187333274Y-100666726D03*
X188500000Y-101150000D03*
X189666726Y-100666726D03*
X190150000Y-99500000D03*
D12*
X188500000Y-99500000D03*
D11*
X95166726Y-110833274D03*
X94000000Y-110350000D03*
X92833274Y-110833274D03*
X92350000Y-112000000D03*
X92833274Y-113166726D03*
X94000000Y-113650000D03*
X95166726Y-113166726D03*
X95650000Y-112000000D03*
D12*
X94000000Y-112000000D03*
D11*
X311166726Y-144833274D03*
X310000000Y-144350000D03*
X308833274Y-144833274D03*
X308350000Y-146000000D03*
X308833274Y-147166726D03*
X310000000Y-147650000D03*
X311166726Y-147166726D03*
X311650000Y-146000000D03*
D12*
X310000000Y-146000000D03*
D11*
X311166726Y-110833274D03*
X310000000Y-110350000D03*
X308833274Y-110833274D03*
X308350000Y-112000000D03*
X308833274Y-113166726D03*
X310000000Y-113650000D03*
X311166726Y-113166726D03*
X311650000Y-112000000D03*
D12*
X310000000Y-112000000D03*
D11*
X95166726Y-144833274D03*
X94000000Y-144350000D03*
X92833274Y-144833274D03*
X92350000Y-146000000D03*
X92833274Y-147166726D03*
X94000000Y-147650000D03*
X95166726Y-147166726D03*
X95650000Y-146000000D03*
D12*
X94000000Y-146000000D03*
M02*
