M48
; DRILL file {KiCad (5.1.4)-1} date 9/20/2021 9:29:10 PM
; FORMAT={-:-/ absolute / metric / decimal}
; #@! TF.CreationDate,2021-09-20T21:29:10-04:00
; #@! TF.GenerationSoftware,Kicad,Pcbnew,(5.1.4)-1
; #@! TF.FileFunction,NonPlated,1,2,NPTH
FMAT,2
METRIC
T1C1.750
T2C4.000
%
G90
G05
T1
X308.42Y-123.5
X318.58Y-123.5
X270.42Y-104.5
X280.58Y-104.5
X118.42Y-161.5
X128.58Y-161.5
X289.42Y-123.5
X299.58Y-123.5
X175.42Y-104.5
X185.58Y-104.5
X327.42Y-142.5
X337.58Y-142.5
X308.42Y-104.5
X318.58Y-104.5
X175.42Y-142.5
X185.58Y-142.5
X156.42Y-104.5
X166.58Y-104.5
X270.42Y-142.5
X280.58Y-142.5
X251.42Y-123.5
X261.58Y-123.5
X137.42Y-104.5
X147.58Y-104.5
X289.42Y-161.5
X299.58Y-161.5
X137.42Y-161.5
X147.58Y-161.5
X213.42Y-142.5
X223.58Y-142.5
X175.42Y-123.5
X185.58Y-123.5
X232.42Y-161.5
X242.58Y-161.5
X80.42Y-142.5
X90.58Y-142.5
X118.42Y-123.5
X128.58Y-123.5
X213.42Y-161.5
X223.58Y-161.5
X251.42Y-142.5
X261.58Y-142.5
X232.42Y-123.5
X242.58Y-123.5
X327.42Y-161.5
X337.58Y-161.5
X232.42Y-142.5
X242.58Y-142.5
X289.42Y-104.5
X299.58Y-104.5
X251.42Y-161.5
X261.58Y-161.5
X156.42Y-142.5
X166.58Y-142.5
X156.42Y-123.5
X166.58Y-123.5
X99.42Y-142.5
X109.58Y-142.5
X99.42Y-161.5
X109.58Y-161.5
X327.42Y-104.5
X337.58Y-104.5
X270.42Y-161.5
X280.58Y-161.5
X156.42Y-161.5
X166.58Y-161.5
X80.42Y-104.5
X90.58Y-104.5
X137.42Y-142.5
X147.58Y-142.5
X99.42Y-123.5
X109.58Y-123.5
X175.42Y-161.5
X185.58Y-161.5
X270.42Y-123.5
X280.58Y-123.5
X137.42Y-123.5
X147.58Y-123.5
X308.42Y-142.5
X318.58Y-142.5
X80.42Y-123.5
X90.58Y-123.5
X194.42Y-142.5
X204.58Y-142.5
X251.42Y-104.5
X261.58Y-104.5
X308.42Y-161.5
X318.58Y-161.5
X118.42Y-142.5
X128.58Y-142.5
X232.42Y-104.5
X242.58Y-104.5
X327.42Y-123.5
X337.58Y-123.5
X99.42Y-104.5
X109.58Y-104.5
X80.42Y-161.5
X90.58Y-161.5
X289.42Y-142.5
X299.58Y-142.5
X118.42Y-104.5
X128.58Y-104.5
X194.42Y-161.5
X204.58Y-161.5
T2
X142.5Y-142.5
X104.5Y-123.5
X180.5Y-161.5
X275.5Y-123.5
X142.5Y-123.5
X313.5Y-142.5
X85.5Y-123.5
X199.5Y-142.5
X256.5Y-104.5
X313.5Y-161.5
X123.5Y-142.5
X237.5Y-104.5
X332.5Y-123.5
X104.5Y-104.5
X85.5Y-161.5
X294.5Y-142.5
X123.5Y-104.5
X199.5Y-161.5
X313.5Y-123.5
X275.5Y-104.5
X123.5Y-161.5
X294.5Y-123.5
X180.5Y-104.5
X332.5Y-142.5
X313.5Y-104.5
X180.5Y-142.5
X161.5Y-104.5
X275.5Y-142.5
X256.5Y-123.5
X142.5Y-104.5
X294.5Y-161.5
X142.5Y-161.5
X218.5Y-142.5
X180.5Y-123.5
X237.5Y-161.5
X85.5Y-142.5
X123.5Y-123.5
X218.5Y-161.5
X256.5Y-142.5
X237.5Y-123.5
X332.5Y-161.5
X237.5Y-142.5
X294.5Y-104.5
X256.5Y-161.5
X161.5Y-142.5
X161.5Y-123.5
X104.5Y-142.5
X104.5Y-161.5
X332.5Y-104.5
X275.5Y-161.5
X161.5Y-161.5
X85.5Y-104.5
T0
M30
