M48
; DRILL file {KiCad (5.1.4)-1} date 9/25/2021 1:38:15 PM
; FORMAT={-:-/ absolute / metric / decimal}
; #@! TF.CreationDate,2021-09-25T13:38:15-04:00
; #@! TF.GenerationSoftware,Kicad,Pcbnew,(5.1.4)-1
; #@! TF.FileFunction,Plated,1,2,PTH
FMAT,2
METRIC
T1C0.400
T2C1.000
T3C1.500
T4C2.200
%
G90
G05
T1
X207.15Y-167.15
X210.85Y-148.15
X221.35Y-100.0
X221.833Y-98.833
X221.833Y-101.167
X223.0Y-98.35
X223.0Y-101.65
X224.167Y-98.833
X224.167Y-101.167
X224.65Y-100.0
X321.35Y-114.0
X321.833Y-112.833
X321.833Y-115.167
X323.0Y-112.35
X323.0Y-115.65
X324.167Y-112.833
X324.167Y-115.167
X324.65Y-114.0
X321.35Y-152.0
X321.833Y-150.833
X321.833Y-153.167
X323.0Y-150.35
X323.0Y-153.65
X324.167Y-150.833
X324.167Y-153.167
X324.65Y-152.0
X193.35Y-128.0
X193.833Y-126.833
X193.833Y-129.167
X195.0Y-126.35
X195.0Y-129.65
X196.167Y-126.833
X196.167Y-129.167
X196.65Y-128.0
X193.35Y-100.0
X193.833Y-98.833
X193.833Y-101.167
X195.0Y-98.35
X195.0Y-101.65
X196.167Y-98.833
X196.167Y-101.167
X196.65Y-100.0
X93.35Y-114.0
X93.833Y-112.833
X93.833Y-115.167
X95.0Y-112.35
X95.0Y-115.65
X96.167Y-112.833
X96.167Y-115.167
X96.65Y-114.0
X221.35Y-128.0
X221.833Y-126.833
X221.833Y-129.167
X223.0Y-126.35
X223.0Y-129.65
X224.167Y-126.833
X224.167Y-129.167
X224.65Y-128.0
X93.35Y-152.0
X93.833Y-150.833
X93.833Y-153.167
X95.0Y-150.35
X95.0Y-153.65
X96.167Y-150.833
X96.167Y-153.167
X96.65Y-152.0
T2
X192.75Y-110.75
X192.75Y-117.25
X197.25Y-110.75
X197.25Y-117.25
X201.38Y-99.03
X201.38Y-101.57
X201.38Y-104.11
X201.38Y-106.65
X201.38Y-109.19
X201.38Y-111.73
X201.38Y-114.27
X201.38Y-116.81
X201.38Y-119.35
X201.38Y-121.89
X201.38Y-124.43
X201.38Y-126.97
X216.62Y-99.03
X216.62Y-101.57
X216.62Y-104.11
X216.62Y-106.65
X216.62Y-109.19
X216.62Y-111.73
X216.62Y-114.27
X216.62Y-116.81
X216.62Y-119.35
X216.62Y-121.89
X216.62Y-124.43
X216.62Y-126.97
T3
X100.69Y-139.96
X107.04Y-137.42
X100.69Y-101.96
X107.04Y-99.42
X195.69Y-158.96
X202.04Y-156.42
X233.69Y-120.96
X240.04Y-118.42
X119.69Y-120.96
X126.04Y-118.42
X309.69Y-101.96
X316.04Y-99.42
X252.69Y-120.96
X259.04Y-118.42
X271.69Y-158.96
X278.04Y-156.42
X252.69Y-101.96
X259.04Y-99.42
X100.69Y-158.96
X107.04Y-156.42
X252.69Y-158.96
X259.04Y-156.42
X157.69Y-101.96
X164.04Y-99.42
X271.69Y-139.96
X278.04Y-137.42
X309.69Y-120.96
X316.04Y-118.42
X176.69Y-120.96
X183.04Y-118.42
X195.69Y-139.96
X202.04Y-137.42
X119.69Y-158.96
X126.04Y-156.42
X176.69Y-139.96
X183.04Y-137.42
X157.69Y-158.96
X164.04Y-156.42
X328.69Y-120.96
X335.04Y-118.42
X290.69Y-139.96
X297.04Y-137.42
X157.69Y-120.96
X164.04Y-118.42
X100.69Y-120.96
X107.04Y-118.42
X81.69Y-101.96
X88.04Y-99.42
X290.69Y-101.96
X297.04Y-99.42
X233.69Y-139.96
X240.04Y-137.42
X233.69Y-101.96
X240.04Y-99.42
X233.69Y-158.96
X240.04Y-156.42
X176.69Y-101.96
X183.04Y-99.42
X81.69Y-158.96
X88.04Y-156.42
X214.69Y-158.96
X221.04Y-156.42
X119.69Y-101.96
X126.04Y-99.42
X328.69Y-158.96
X335.04Y-156.42
X157.69Y-139.96
X164.04Y-137.42
X252.69Y-139.96
X259.04Y-137.42
X119.69Y-139.96
X126.04Y-137.42
X309.69Y-139.96
X316.04Y-137.42
X271.69Y-120.96
X278.04Y-118.42
X138.69Y-120.96
X145.04Y-118.42
X328.69Y-101.96
X335.04Y-99.42
X309.69Y-158.96
X316.04Y-156.42
X271.69Y-101.96
X278.04Y-99.42
X290.69Y-158.96
X297.04Y-156.42
X81.69Y-120.96
X88.04Y-118.42
X176.69Y-158.96
X183.04Y-156.42
X138.69Y-101.96
X145.04Y-99.42
X328.69Y-139.96
X335.04Y-137.42
X81.69Y-139.96
X88.04Y-137.42
X290.69Y-120.96
X297.04Y-118.42
X214.69Y-139.96
X221.04Y-137.42
X138.69Y-158.96
X145.04Y-156.42
X138.69Y-139.96
X145.04Y-137.42
T4
X223.0Y-100.0
X323.0Y-114.0
X323.0Y-152.0
X195.0Y-128.0
X195.0Y-100.0
X95.0Y-114.0
X223.0Y-128.0
X95.0Y-152.0
T0
M30
