G04 #@! TF.GenerationSoftware,KiCad,Pcbnew,(5.1.4)-1*
G04 #@! TF.CreationDate,2021-09-25T13:38:15-04:00*
G04 #@! TF.ProjectId,horizon-mx,686f7269-7a6f-46e2-9d6d-782e6b696361,rev?*
G04 #@! TF.SameCoordinates,Original*
G04 #@! TF.FileFunction,Legend,Top*
G04 #@! TF.FilePolarity,Positive*
%FSLAX46Y46*%
G04 Gerber Fmt 4.6, Leading zero omitted, Abs format (unit mm)*
G04 Created by KiCad (PCBNEW (5.1.4)-1) date 2021-09-25 13:38:15*
%MOMM*%
%LPD*%
G04 APERTURE LIST*
%ADD10C,0.010000*%
%ADD11C,0.150000*%
%ADD12C,1.902000*%
%ADD13C,1.852000*%
%ADD14C,2.402000*%
%ADD15C,4.102000*%
%ADD16C,0.802000*%
%ADD17C,4.502000*%
G04 APERTURE END LIST*
D10*
G36*
X211811161Y-109712205D02*
G01*
X212459892Y-110360934D01*
X212459892Y-113314201D01*
X211900748Y-113873344D01*
X211341604Y-114432486D01*
X210731319Y-114432486D01*
X210731319Y-117280722D01*
X210947220Y-117496620D01*
X211163122Y-117712519D01*
X211379020Y-117496617D01*
X211594919Y-117280715D01*
X211594919Y-116378679D01*
X211810817Y-116162777D01*
X211831160Y-116142440D01*
X211850995Y-116122623D01*
X211870235Y-116103411D01*
X211888793Y-116084893D01*
X211906579Y-116067156D01*
X211923508Y-116050287D01*
X211939490Y-116034374D01*
X211954438Y-116019503D01*
X211968264Y-116005761D01*
X211980881Y-115993237D01*
X211992200Y-115982017D01*
X212002134Y-115972189D01*
X212010594Y-115963840D01*
X212017494Y-115957056D01*
X212022745Y-115951926D01*
X212026260Y-115948537D01*
X212027950Y-115946975D01*
X212028092Y-115946875D01*
X212029178Y-115947832D01*
X212032118Y-115950645D01*
X212036821Y-115955226D01*
X212043201Y-115961488D01*
X212051169Y-115969343D01*
X212060638Y-115978705D01*
X212071520Y-115989485D01*
X212083726Y-116001596D01*
X212097169Y-116014952D01*
X212111761Y-116029464D01*
X212127413Y-116045045D01*
X212144038Y-116061608D01*
X212161548Y-116079065D01*
X212179855Y-116097329D01*
X212198872Y-116116313D01*
X212218509Y-116135929D01*
X212238679Y-116156090D01*
X212244680Y-116162091D01*
X212459892Y-116377306D01*
X212459892Y-117639066D01*
X211162430Y-118936524D01*
X210513702Y-118287791D01*
X209864973Y-117639058D01*
X209864973Y-114432486D01*
X208136400Y-114432486D01*
X208136400Y-117639058D01*
X207488015Y-118287448D01*
X207452607Y-118322855D01*
X207417679Y-118357781D01*
X207383281Y-118392174D01*
X207349463Y-118425985D01*
X207316276Y-118459163D01*
X207283771Y-118491659D01*
X207251997Y-118523420D01*
X207221005Y-118554399D01*
X207190845Y-118584543D01*
X207161569Y-118613803D01*
X207133225Y-118642128D01*
X207105864Y-118669469D01*
X207079538Y-118695774D01*
X207054295Y-118720994D01*
X207030187Y-118745078D01*
X207007264Y-118767976D01*
X206985575Y-118789637D01*
X206965173Y-118810012D01*
X206946106Y-118829050D01*
X206928426Y-118846700D01*
X206912182Y-118862913D01*
X206897425Y-118877638D01*
X206884205Y-118890825D01*
X206872573Y-118902423D01*
X206862580Y-118912383D01*
X206854274Y-118920653D01*
X206847707Y-118927184D01*
X206842930Y-118931925D01*
X206839992Y-118934826D01*
X206838943Y-118935837D01*
X206838942Y-118935838D01*
X206837942Y-118934875D01*
X206835050Y-118932021D01*
X206830318Y-118927325D01*
X206823796Y-118920839D01*
X206815533Y-118912612D01*
X206805581Y-118902694D01*
X206793990Y-118891136D01*
X206780810Y-118877989D01*
X206766091Y-118863302D01*
X206749884Y-118847126D01*
X206732239Y-118829511D01*
X206713206Y-118810508D01*
X206692836Y-118790166D01*
X206671180Y-118768536D01*
X206648287Y-118745669D01*
X206624208Y-118721614D01*
X206598993Y-118696422D01*
X206572693Y-118670144D01*
X206545358Y-118642829D01*
X206517038Y-118614527D01*
X206487784Y-118585291D01*
X206457646Y-118555168D01*
X206426674Y-118524210D01*
X206394919Y-118492468D01*
X206362431Y-118459990D01*
X206329261Y-118426829D01*
X206295459Y-118393033D01*
X206261074Y-118358654D01*
X206226158Y-118323741D01*
X206189867Y-118287450D01*
X205541481Y-117639063D01*
X205541481Y-115044143D01*
X206406454Y-115044143D01*
X206406454Y-117280715D01*
X206622352Y-117496617D01*
X206838251Y-117712519D01*
X207054152Y-117496620D01*
X207270054Y-117280722D01*
X207270054Y-114432486D01*
X207018116Y-114432486D01*
X206712285Y-114738315D01*
X206406454Y-115044143D01*
X205541481Y-115044143D01*
X205541481Y-114685798D01*
X206100625Y-114126656D01*
X206659769Y-113567513D01*
X207270054Y-113567513D01*
X207270054Y-110719278D01*
X207054152Y-110503379D01*
X206838251Y-110287481D01*
X206622352Y-110503382D01*
X206406454Y-110719284D01*
X206406454Y-111621321D01*
X206190555Y-111837222D01*
X206170213Y-111857559D01*
X206150378Y-111877377D01*
X206131137Y-111896588D01*
X206112580Y-111915106D01*
X206094793Y-111932843D01*
X206077865Y-111949712D01*
X206061883Y-111965626D01*
X206046935Y-111980497D01*
X206033108Y-111994238D01*
X206020492Y-112006762D01*
X206009173Y-112017982D01*
X205999239Y-112027810D01*
X205990778Y-112036160D01*
X205983878Y-112042943D01*
X205978627Y-112048073D01*
X205975113Y-112051463D01*
X205973422Y-112053025D01*
X205973281Y-112053124D01*
X205972194Y-112052167D01*
X205969255Y-112049354D01*
X205964551Y-112044773D01*
X205958171Y-112038512D01*
X205950203Y-112030656D01*
X205940734Y-112021295D01*
X205929853Y-112010515D01*
X205917646Y-111998403D01*
X205904203Y-111985048D01*
X205889612Y-111970536D01*
X205873959Y-111954955D01*
X205857334Y-111938392D01*
X205839824Y-111920934D01*
X205821517Y-111902670D01*
X205802501Y-111883686D01*
X205782864Y-111864070D01*
X205762694Y-111843909D01*
X205756693Y-111837909D01*
X205541481Y-111622694D01*
X205541481Y-110360934D01*
X206190211Y-109712205D01*
X206838942Y-109063475D01*
X208136400Y-110360941D01*
X208136400Y-113567513D01*
X209864973Y-113567513D01*
X209864973Y-110719284D01*
X210731319Y-110719284D01*
X210731319Y-113567513D01*
X210983257Y-113567513D01*
X211289088Y-113261685D01*
X211594919Y-112955856D01*
X211594919Y-110719278D01*
X211379017Y-110503379D01*
X211163115Y-110287481D01*
X210947217Y-110503382D01*
X210731319Y-110719284D01*
X209864973Y-110719284D01*
X209864973Y-110360941D01*
X210513702Y-109712208D01*
X211162430Y-109063475D01*
X211811161Y-109712205D01*
X211811161Y-109712205D01*
G37*
X211811161Y-109712205D02*
X212459892Y-110360934D01*
X212459892Y-113314201D01*
X211900748Y-113873344D01*
X211341604Y-114432486D01*
X210731319Y-114432486D01*
X210731319Y-117280722D01*
X210947220Y-117496620D01*
X211163122Y-117712519D01*
X211379020Y-117496617D01*
X211594919Y-117280715D01*
X211594919Y-116378679D01*
X211810817Y-116162777D01*
X211831160Y-116142440D01*
X211850995Y-116122623D01*
X211870235Y-116103411D01*
X211888793Y-116084893D01*
X211906579Y-116067156D01*
X211923508Y-116050287D01*
X211939490Y-116034374D01*
X211954438Y-116019503D01*
X211968264Y-116005761D01*
X211980881Y-115993237D01*
X211992200Y-115982017D01*
X212002134Y-115972189D01*
X212010594Y-115963840D01*
X212017494Y-115957056D01*
X212022745Y-115951926D01*
X212026260Y-115948537D01*
X212027950Y-115946975D01*
X212028092Y-115946875D01*
X212029178Y-115947832D01*
X212032118Y-115950645D01*
X212036821Y-115955226D01*
X212043201Y-115961488D01*
X212051169Y-115969343D01*
X212060638Y-115978705D01*
X212071520Y-115989485D01*
X212083726Y-116001596D01*
X212097169Y-116014952D01*
X212111761Y-116029464D01*
X212127413Y-116045045D01*
X212144038Y-116061608D01*
X212161548Y-116079065D01*
X212179855Y-116097329D01*
X212198872Y-116116313D01*
X212218509Y-116135929D01*
X212238679Y-116156090D01*
X212244680Y-116162091D01*
X212459892Y-116377306D01*
X212459892Y-117639066D01*
X211162430Y-118936524D01*
X210513702Y-118287791D01*
X209864973Y-117639058D01*
X209864973Y-114432486D01*
X208136400Y-114432486D01*
X208136400Y-117639058D01*
X207488015Y-118287448D01*
X207452607Y-118322855D01*
X207417679Y-118357781D01*
X207383281Y-118392174D01*
X207349463Y-118425985D01*
X207316276Y-118459163D01*
X207283771Y-118491659D01*
X207251997Y-118523420D01*
X207221005Y-118554399D01*
X207190845Y-118584543D01*
X207161569Y-118613803D01*
X207133225Y-118642128D01*
X207105864Y-118669469D01*
X207079538Y-118695774D01*
X207054295Y-118720994D01*
X207030187Y-118745078D01*
X207007264Y-118767976D01*
X206985575Y-118789637D01*
X206965173Y-118810012D01*
X206946106Y-118829050D01*
X206928426Y-118846700D01*
X206912182Y-118862913D01*
X206897425Y-118877638D01*
X206884205Y-118890825D01*
X206872573Y-118902423D01*
X206862580Y-118912383D01*
X206854274Y-118920653D01*
X206847707Y-118927184D01*
X206842930Y-118931925D01*
X206839992Y-118934826D01*
X206838943Y-118935837D01*
X206838942Y-118935838D01*
X206837942Y-118934875D01*
X206835050Y-118932021D01*
X206830318Y-118927325D01*
X206823796Y-118920839D01*
X206815533Y-118912612D01*
X206805581Y-118902694D01*
X206793990Y-118891136D01*
X206780810Y-118877989D01*
X206766091Y-118863302D01*
X206749884Y-118847126D01*
X206732239Y-118829511D01*
X206713206Y-118810508D01*
X206692836Y-118790166D01*
X206671180Y-118768536D01*
X206648287Y-118745669D01*
X206624208Y-118721614D01*
X206598993Y-118696422D01*
X206572693Y-118670144D01*
X206545358Y-118642829D01*
X206517038Y-118614527D01*
X206487784Y-118585291D01*
X206457646Y-118555168D01*
X206426674Y-118524210D01*
X206394919Y-118492468D01*
X206362431Y-118459990D01*
X206329261Y-118426829D01*
X206295459Y-118393033D01*
X206261074Y-118358654D01*
X206226158Y-118323741D01*
X206189867Y-118287450D01*
X205541481Y-117639063D01*
X205541481Y-115044143D01*
X206406454Y-115044143D01*
X206406454Y-117280715D01*
X206622352Y-117496617D01*
X206838251Y-117712519D01*
X207054152Y-117496620D01*
X207270054Y-117280722D01*
X207270054Y-114432486D01*
X207018116Y-114432486D01*
X206712285Y-114738315D01*
X206406454Y-115044143D01*
X205541481Y-115044143D01*
X205541481Y-114685798D01*
X206100625Y-114126656D01*
X206659769Y-113567513D01*
X207270054Y-113567513D01*
X207270054Y-110719278D01*
X207054152Y-110503379D01*
X206838251Y-110287481D01*
X206622352Y-110503382D01*
X206406454Y-110719284D01*
X206406454Y-111621321D01*
X206190555Y-111837222D01*
X206170213Y-111857559D01*
X206150378Y-111877377D01*
X206131137Y-111896588D01*
X206112580Y-111915106D01*
X206094793Y-111932843D01*
X206077865Y-111949712D01*
X206061883Y-111965626D01*
X206046935Y-111980497D01*
X206033108Y-111994238D01*
X206020492Y-112006762D01*
X206009173Y-112017982D01*
X205999239Y-112027810D01*
X205990778Y-112036160D01*
X205983878Y-112042943D01*
X205978627Y-112048073D01*
X205975113Y-112051463D01*
X205973422Y-112053025D01*
X205973281Y-112053124D01*
X205972194Y-112052167D01*
X205969255Y-112049354D01*
X205964551Y-112044773D01*
X205958171Y-112038512D01*
X205950203Y-112030656D01*
X205940734Y-112021295D01*
X205929853Y-112010515D01*
X205917646Y-111998403D01*
X205904203Y-111985048D01*
X205889612Y-111970536D01*
X205873959Y-111954955D01*
X205857334Y-111938392D01*
X205839824Y-111920934D01*
X205821517Y-111902670D01*
X205802501Y-111883686D01*
X205782864Y-111864070D01*
X205762694Y-111843909D01*
X205756693Y-111837909D01*
X205541481Y-111622694D01*
X205541481Y-110360934D01*
X206190211Y-109712205D01*
X206838942Y-109063475D01*
X208136400Y-110360941D01*
X208136400Y-113567513D01*
X209864973Y-113567513D01*
X209864973Y-110719284D01*
X210731319Y-110719284D01*
X210731319Y-113567513D01*
X210983257Y-113567513D01*
X211289088Y-113261685D01*
X211594919Y-112955856D01*
X211594919Y-110719278D01*
X211379017Y-110503379D01*
X211163115Y-110287481D01*
X210947217Y-110503382D01*
X210731319Y-110719284D01*
X209864973Y-110719284D01*
X209864973Y-110360941D01*
X210513702Y-109712208D01*
X211162430Y-109063475D01*
X211811161Y-109712205D01*
D11*
X194946428Y-114982142D02*
X194982142Y-114875000D01*
X195017857Y-114839285D01*
X195089285Y-114803571D01*
X195196428Y-114803571D01*
X195267857Y-114839285D01*
X195303571Y-114875000D01*
X195339285Y-114946428D01*
X195339285Y-115232142D01*
X194589285Y-115232142D01*
X194589285Y-114982142D01*
X194625000Y-114910714D01*
X194660714Y-114875000D01*
X194732142Y-114839285D01*
X194803571Y-114839285D01*
X194875000Y-114875000D01*
X194910714Y-114910714D01*
X194946428Y-114982142D01*
X194946428Y-115232142D01*
X194589285Y-114589285D02*
X194589285Y-114160714D01*
X195339285Y-114375000D02*
X194589285Y-114375000D01*
X195339285Y-113910714D02*
X194589285Y-113910714D01*
X195339285Y-113482142D01*
X194589285Y-113482142D01*
X195339285Y-112732142D02*
X195339285Y-113160714D01*
X195339285Y-112946428D02*
X194589285Y-112946428D01*
X194696428Y-113017857D01*
X194767857Y-113089285D01*
X194803571Y-113160714D01*
X331142857Y-158803571D02*
X331250000Y-158839285D01*
X331428571Y-158839285D01*
X331500000Y-158803571D01*
X331535714Y-158767857D01*
X331571428Y-158696428D01*
X331571428Y-158625000D01*
X331535714Y-158553571D01*
X331500000Y-158517857D01*
X331428571Y-158482142D01*
X331285714Y-158446428D01*
X331214285Y-158410714D01*
X331178571Y-158375000D01*
X331142857Y-158303571D01*
X331142857Y-158232142D01*
X331178571Y-158160714D01*
X331214285Y-158125000D01*
X331285714Y-158089285D01*
X331464285Y-158089285D01*
X331571428Y-158125000D01*
X331821428Y-158089285D02*
X332000000Y-158839285D01*
X332142857Y-158303571D01*
X332285714Y-158839285D01*
X332464285Y-158089285D01*
X333107142Y-158089285D02*
X332750000Y-158089285D01*
X332714285Y-158446428D01*
X332750000Y-158410714D01*
X332821428Y-158375000D01*
X333000000Y-158375000D01*
X333071428Y-158410714D01*
X333107142Y-158446428D01*
X333142857Y-158517857D01*
X333142857Y-158696428D01*
X333107142Y-158767857D01*
X333071428Y-158803571D01*
X333000000Y-158839285D01*
X332821428Y-158839285D01*
X332750000Y-158803571D01*
X332714285Y-158767857D01*
X333428571Y-158160714D02*
X333464285Y-158125000D01*
X333535714Y-158089285D01*
X333714285Y-158089285D01*
X333785714Y-158125000D01*
X333821428Y-158160714D01*
X333857142Y-158232142D01*
X333857142Y-158303571D01*
X333821428Y-158410714D01*
X333392857Y-158839285D01*
X333857142Y-158839285D01*
X312142857Y-158803571D02*
X312250000Y-158839285D01*
X312428571Y-158839285D01*
X312500000Y-158803571D01*
X312535714Y-158767857D01*
X312571428Y-158696428D01*
X312571428Y-158625000D01*
X312535714Y-158553571D01*
X312500000Y-158517857D01*
X312428571Y-158482142D01*
X312285714Y-158446428D01*
X312214285Y-158410714D01*
X312178571Y-158375000D01*
X312142857Y-158303571D01*
X312142857Y-158232142D01*
X312178571Y-158160714D01*
X312214285Y-158125000D01*
X312285714Y-158089285D01*
X312464285Y-158089285D01*
X312571428Y-158125000D01*
X312821428Y-158089285D02*
X313000000Y-158839285D01*
X313142857Y-158303571D01*
X313285714Y-158839285D01*
X313464285Y-158089285D01*
X314107142Y-158089285D02*
X313750000Y-158089285D01*
X313714285Y-158446428D01*
X313750000Y-158410714D01*
X313821428Y-158375000D01*
X314000000Y-158375000D01*
X314071428Y-158410714D01*
X314107142Y-158446428D01*
X314142857Y-158517857D01*
X314142857Y-158696428D01*
X314107142Y-158767857D01*
X314071428Y-158803571D01*
X314000000Y-158839285D01*
X313821428Y-158839285D01*
X313750000Y-158803571D01*
X313714285Y-158767857D01*
X314857142Y-158839285D02*
X314428571Y-158839285D01*
X314642857Y-158839285D02*
X314642857Y-158089285D01*
X314571428Y-158196428D01*
X314500000Y-158267857D01*
X314428571Y-158303571D01*
X293142857Y-158803571D02*
X293250000Y-158839285D01*
X293428571Y-158839285D01*
X293500000Y-158803571D01*
X293535714Y-158767857D01*
X293571428Y-158696428D01*
X293571428Y-158625000D01*
X293535714Y-158553571D01*
X293500000Y-158517857D01*
X293428571Y-158482142D01*
X293285714Y-158446428D01*
X293214285Y-158410714D01*
X293178571Y-158375000D01*
X293142857Y-158303571D01*
X293142857Y-158232142D01*
X293178571Y-158160714D01*
X293214285Y-158125000D01*
X293285714Y-158089285D01*
X293464285Y-158089285D01*
X293571428Y-158125000D01*
X293821428Y-158089285D02*
X294000000Y-158839285D01*
X294142857Y-158303571D01*
X294285714Y-158839285D01*
X294464285Y-158089285D01*
X295107142Y-158089285D02*
X294750000Y-158089285D01*
X294714285Y-158446428D01*
X294750000Y-158410714D01*
X294821428Y-158375000D01*
X295000000Y-158375000D01*
X295071428Y-158410714D01*
X295107142Y-158446428D01*
X295142857Y-158517857D01*
X295142857Y-158696428D01*
X295107142Y-158767857D01*
X295071428Y-158803571D01*
X295000000Y-158839285D01*
X294821428Y-158839285D01*
X294750000Y-158803571D01*
X294714285Y-158767857D01*
X295607142Y-158089285D02*
X295678571Y-158089285D01*
X295750000Y-158125000D01*
X295785714Y-158160714D01*
X295821428Y-158232142D01*
X295857142Y-158375000D01*
X295857142Y-158553571D01*
X295821428Y-158696428D01*
X295785714Y-158767857D01*
X295750000Y-158803571D01*
X295678571Y-158839285D01*
X295607142Y-158839285D01*
X295535714Y-158803571D01*
X295500000Y-158767857D01*
X295464285Y-158696428D01*
X295428571Y-158553571D01*
X295428571Y-158375000D01*
X295464285Y-158232142D01*
X295500000Y-158160714D01*
X295535714Y-158125000D01*
X295607142Y-158089285D01*
X274142857Y-158803571D02*
X274250000Y-158839285D01*
X274428571Y-158839285D01*
X274500000Y-158803571D01*
X274535714Y-158767857D01*
X274571428Y-158696428D01*
X274571428Y-158625000D01*
X274535714Y-158553571D01*
X274500000Y-158517857D01*
X274428571Y-158482142D01*
X274285714Y-158446428D01*
X274214285Y-158410714D01*
X274178571Y-158375000D01*
X274142857Y-158303571D01*
X274142857Y-158232142D01*
X274178571Y-158160714D01*
X274214285Y-158125000D01*
X274285714Y-158089285D01*
X274464285Y-158089285D01*
X274571428Y-158125000D01*
X274821428Y-158089285D02*
X275000000Y-158839285D01*
X275142857Y-158303571D01*
X275285714Y-158839285D01*
X275464285Y-158089285D01*
X276071428Y-158339285D02*
X276071428Y-158839285D01*
X275892857Y-158053571D02*
X275714285Y-158589285D01*
X276178571Y-158589285D01*
X276500000Y-158839285D02*
X276642857Y-158839285D01*
X276714285Y-158803571D01*
X276750000Y-158767857D01*
X276821428Y-158660714D01*
X276857142Y-158517857D01*
X276857142Y-158232142D01*
X276821428Y-158160714D01*
X276785714Y-158125000D01*
X276714285Y-158089285D01*
X276571428Y-158089285D01*
X276500000Y-158125000D01*
X276464285Y-158160714D01*
X276428571Y-158232142D01*
X276428571Y-158410714D01*
X276464285Y-158482142D01*
X276500000Y-158517857D01*
X276571428Y-158553571D01*
X276714285Y-158553571D01*
X276785714Y-158517857D01*
X276821428Y-158482142D01*
X276857142Y-158410714D01*
X255142857Y-158803571D02*
X255250000Y-158839285D01*
X255428571Y-158839285D01*
X255500000Y-158803571D01*
X255535714Y-158767857D01*
X255571428Y-158696428D01*
X255571428Y-158625000D01*
X255535714Y-158553571D01*
X255500000Y-158517857D01*
X255428571Y-158482142D01*
X255285714Y-158446428D01*
X255214285Y-158410714D01*
X255178571Y-158375000D01*
X255142857Y-158303571D01*
X255142857Y-158232142D01*
X255178571Y-158160714D01*
X255214285Y-158125000D01*
X255285714Y-158089285D01*
X255464285Y-158089285D01*
X255571428Y-158125000D01*
X255821428Y-158089285D02*
X256000000Y-158839285D01*
X256142857Y-158303571D01*
X256285714Y-158839285D01*
X256464285Y-158089285D01*
X257071428Y-158339285D02*
X257071428Y-158839285D01*
X256892857Y-158053571D02*
X256714285Y-158589285D01*
X257178571Y-158589285D01*
X257571428Y-158410714D02*
X257500000Y-158375000D01*
X257464285Y-158339285D01*
X257428571Y-158267857D01*
X257428571Y-158232142D01*
X257464285Y-158160714D01*
X257500000Y-158125000D01*
X257571428Y-158089285D01*
X257714285Y-158089285D01*
X257785714Y-158125000D01*
X257821428Y-158160714D01*
X257857142Y-158232142D01*
X257857142Y-158267857D01*
X257821428Y-158339285D01*
X257785714Y-158375000D01*
X257714285Y-158410714D01*
X257571428Y-158410714D01*
X257500000Y-158446428D01*
X257464285Y-158482142D01*
X257428571Y-158553571D01*
X257428571Y-158696428D01*
X257464285Y-158767857D01*
X257500000Y-158803571D01*
X257571428Y-158839285D01*
X257714285Y-158839285D01*
X257785714Y-158803571D01*
X257821428Y-158767857D01*
X257857142Y-158696428D01*
X257857142Y-158553571D01*
X257821428Y-158482142D01*
X257785714Y-158446428D01*
X257714285Y-158410714D01*
X236142857Y-158803571D02*
X236250000Y-158839285D01*
X236428571Y-158839285D01*
X236500000Y-158803571D01*
X236535714Y-158767857D01*
X236571428Y-158696428D01*
X236571428Y-158625000D01*
X236535714Y-158553571D01*
X236500000Y-158517857D01*
X236428571Y-158482142D01*
X236285714Y-158446428D01*
X236214285Y-158410714D01*
X236178571Y-158375000D01*
X236142857Y-158303571D01*
X236142857Y-158232142D01*
X236178571Y-158160714D01*
X236214285Y-158125000D01*
X236285714Y-158089285D01*
X236464285Y-158089285D01*
X236571428Y-158125000D01*
X236821428Y-158089285D02*
X237000000Y-158839285D01*
X237142857Y-158303571D01*
X237285714Y-158839285D01*
X237464285Y-158089285D01*
X238071428Y-158339285D02*
X238071428Y-158839285D01*
X237892857Y-158053571D02*
X237714285Y-158589285D01*
X238178571Y-158589285D01*
X238392857Y-158089285D02*
X238892857Y-158089285D01*
X238571428Y-158839285D01*
X217142857Y-158803571D02*
X217250000Y-158839285D01*
X217428571Y-158839285D01*
X217500000Y-158803571D01*
X217535714Y-158767857D01*
X217571428Y-158696428D01*
X217571428Y-158625000D01*
X217535714Y-158553571D01*
X217500000Y-158517857D01*
X217428571Y-158482142D01*
X217285714Y-158446428D01*
X217214285Y-158410714D01*
X217178571Y-158375000D01*
X217142857Y-158303571D01*
X217142857Y-158232142D01*
X217178571Y-158160714D01*
X217214285Y-158125000D01*
X217285714Y-158089285D01*
X217464285Y-158089285D01*
X217571428Y-158125000D01*
X217821428Y-158089285D02*
X218000000Y-158839285D01*
X218142857Y-158303571D01*
X218285714Y-158839285D01*
X218464285Y-158089285D01*
X219071428Y-158339285D02*
X219071428Y-158839285D01*
X218892857Y-158053571D02*
X218714285Y-158589285D01*
X219178571Y-158589285D01*
X219785714Y-158089285D02*
X219642857Y-158089285D01*
X219571428Y-158125000D01*
X219535714Y-158160714D01*
X219464285Y-158267857D01*
X219428571Y-158410714D01*
X219428571Y-158696428D01*
X219464285Y-158767857D01*
X219500000Y-158803571D01*
X219571428Y-158839285D01*
X219714285Y-158839285D01*
X219785714Y-158803571D01*
X219821428Y-158767857D01*
X219857142Y-158696428D01*
X219857142Y-158517857D01*
X219821428Y-158446428D01*
X219785714Y-158410714D01*
X219714285Y-158375000D01*
X219571428Y-158375000D01*
X219500000Y-158410714D01*
X219464285Y-158446428D01*
X219428571Y-158517857D01*
X198142857Y-158803571D02*
X198250000Y-158839285D01*
X198428571Y-158839285D01*
X198500000Y-158803571D01*
X198535714Y-158767857D01*
X198571428Y-158696428D01*
X198571428Y-158625000D01*
X198535714Y-158553571D01*
X198500000Y-158517857D01*
X198428571Y-158482142D01*
X198285714Y-158446428D01*
X198214285Y-158410714D01*
X198178571Y-158375000D01*
X198142857Y-158303571D01*
X198142857Y-158232142D01*
X198178571Y-158160714D01*
X198214285Y-158125000D01*
X198285714Y-158089285D01*
X198464285Y-158089285D01*
X198571428Y-158125000D01*
X198821428Y-158089285D02*
X199000000Y-158839285D01*
X199142857Y-158303571D01*
X199285714Y-158839285D01*
X199464285Y-158089285D01*
X200071428Y-158339285D02*
X200071428Y-158839285D01*
X199892857Y-158053571D02*
X199714285Y-158589285D01*
X200178571Y-158589285D01*
X200821428Y-158089285D02*
X200464285Y-158089285D01*
X200428571Y-158446428D01*
X200464285Y-158410714D01*
X200535714Y-158375000D01*
X200714285Y-158375000D01*
X200785714Y-158410714D01*
X200821428Y-158446428D01*
X200857142Y-158517857D01*
X200857142Y-158696428D01*
X200821428Y-158767857D01*
X200785714Y-158803571D01*
X200714285Y-158839285D01*
X200535714Y-158839285D01*
X200464285Y-158803571D01*
X200428571Y-158767857D01*
X179142857Y-158803571D02*
X179250000Y-158839285D01*
X179428571Y-158839285D01*
X179500000Y-158803571D01*
X179535714Y-158767857D01*
X179571428Y-158696428D01*
X179571428Y-158625000D01*
X179535714Y-158553571D01*
X179500000Y-158517857D01*
X179428571Y-158482142D01*
X179285714Y-158446428D01*
X179214285Y-158410714D01*
X179178571Y-158375000D01*
X179142857Y-158303571D01*
X179142857Y-158232142D01*
X179178571Y-158160714D01*
X179214285Y-158125000D01*
X179285714Y-158089285D01*
X179464285Y-158089285D01*
X179571428Y-158125000D01*
X179821428Y-158089285D02*
X180000000Y-158839285D01*
X180142857Y-158303571D01*
X180285714Y-158839285D01*
X180464285Y-158089285D01*
X181071428Y-158339285D02*
X181071428Y-158839285D01*
X180892857Y-158053571D02*
X180714285Y-158589285D01*
X181178571Y-158589285D01*
X181785714Y-158339285D02*
X181785714Y-158839285D01*
X181607142Y-158053571D02*
X181428571Y-158589285D01*
X181892857Y-158589285D01*
X160142857Y-158803571D02*
X160250000Y-158839285D01*
X160428571Y-158839285D01*
X160500000Y-158803571D01*
X160535714Y-158767857D01*
X160571428Y-158696428D01*
X160571428Y-158625000D01*
X160535714Y-158553571D01*
X160500000Y-158517857D01*
X160428571Y-158482142D01*
X160285714Y-158446428D01*
X160214285Y-158410714D01*
X160178571Y-158375000D01*
X160142857Y-158303571D01*
X160142857Y-158232142D01*
X160178571Y-158160714D01*
X160214285Y-158125000D01*
X160285714Y-158089285D01*
X160464285Y-158089285D01*
X160571428Y-158125000D01*
X160821428Y-158089285D02*
X161000000Y-158839285D01*
X161142857Y-158303571D01*
X161285714Y-158839285D01*
X161464285Y-158089285D01*
X162071428Y-158339285D02*
X162071428Y-158839285D01*
X161892857Y-158053571D02*
X161714285Y-158589285D01*
X162178571Y-158589285D01*
X162392857Y-158089285D02*
X162857142Y-158089285D01*
X162607142Y-158375000D01*
X162714285Y-158375000D01*
X162785714Y-158410714D01*
X162821428Y-158446428D01*
X162857142Y-158517857D01*
X162857142Y-158696428D01*
X162821428Y-158767857D01*
X162785714Y-158803571D01*
X162714285Y-158839285D01*
X162500000Y-158839285D01*
X162428571Y-158803571D01*
X162392857Y-158767857D01*
X141142857Y-158803571D02*
X141250000Y-158839285D01*
X141428571Y-158839285D01*
X141500000Y-158803571D01*
X141535714Y-158767857D01*
X141571428Y-158696428D01*
X141571428Y-158625000D01*
X141535714Y-158553571D01*
X141500000Y-158517857D01*
X141428571Y-158482142D01*
X141285714Y-158446428D01*
X141214285Y-158410714D01*
X141178571Y-158375000D01*
X141142857Y-158303571D01*
X141142857Y-158232142D01*
X141178571Y-158160714D01*
X141214285Y-158125000D01*
X141285714Y-158089285D01*
X141464285Y-158089285D01*
X141571428Y-158125000D01*
X141821428Y-158089285D02*
X142000000Y-158839285D01*
X142142857Y-158303571D01*
X142285714Y-158839285D01*
X142464285Y-158089285D01*
X143071428Y-158339285D02*
X143071428Y-158839285D01*
X142892857Y-158053571D02*
X142714285Y-158589285D01*
X143178571Y-158589285D01*
X143428571Y-158160714D02*
X143464285Y-158125000D01*
X143535714Y-158089285D01*
X143714285Y-158089285D01*
X143785714Y-158125000D01*
X143821428Y-158160714D01*
X143857142Y-158232142D01*
X143857142Y-158303571D01*
X143821428Y-158410714D01*
X143392857Y-158839285D01*
X143857142Y-158839285D01*
X122142857Y-158803571D02*
X122250000Y-158839285D01*
X122428571Y-158839285D01*
X122500000Y-158803571D01*
X122535714Y-158767857D01*
X122571428Y-158696428D01*
X122571428Y-158625000D01*
X122535714Y-158553571D01*
X122500000Y-158517857D01*
X122428571Y-158482142D01*
X122285714Y-158446428D01*
X122214285Y-158410714D01*
X122178571Y-158375000D01*
X122142857Y-158303571D01*
X122142857Y-158232142D01*
X122178571Y-158160714D01*
X122214285Y-158125000D01*
X122285714Y-158089285D01*
X122464285Y-158089285D01*
X122571428Y-158125000D01*
X122821428Y-158089285D02*
X123000000Y-158839285D01*
X123142857Y-158303571D01*
X123285714Y-158839285D01*
X123464285Y-158089285D01*
X124071428Y-158339285D02*
X124071428Y-158839285D01*
X123892857Y-158053571D02*
X123714285Y-158589285D01*
X124178571Y-158589285D01*
X124857142Y-158839285D02*
X124428571Y-158839285D01*
X124642857Y-158839285D02*
X124642857Y-158089285D01*
X124571428Y-158196428D01*
X124500000Y-158267857D01*
X124428571Y-158303571D01*
X103142857Y-158803571D02*
X103250000Y-158839285D01*
X103428571Y-158839285D01*
X103500000Y-158803571D01*
X103535714Y-158767857D01*
X103571428Y-158696428D01*
X103571428Y-158625000D01*
X103535714Y-158553571D01*
X103500000Y-158517857D01*
X103428571Y-158482142D01*
X103285714Y-158446428D01*
X103214285Y-158410714D01*
X103178571Y-158375000D01*
X103142857Y-158303571D01*
X103142857Y-158232142D01*
X103178571Y-158160714D01*
X103214285Y-158125000D01*
X103285714Y-158089285D01*
X103464285Y-158089285D01*
X103571428Y-158125000D01*
X103821428Y-158089285D02*
X104000000Y-158839285D01*
X104142857Y-158303571D01*
X104285714Y-158839285D01*
X104464285Y-158089285D01*
X105071428Y-158339285D02*
X105071428Y-158839285D01*
X104892857Y-158053571D02*
X104714285Y-158589285D01*
X105178571Y-158589285D01*
X105607142Y-158089285D02*
X105678571Y-158089285D01*
X105750000Y-158125000D01*
X105785714Y-158160714D01*
X105821428Y-158232142D01*
X105857142Y-158375000D01*
X105857142Y-158553571D01*
X105821428Y-158696428D01*
X105785714Y-158767857D01*
X105750000Y-158803571D01*
X105678571Y-158839285D01*
X105607142Y-158839285D01*
X105535714Y-158803571D01*
X105500000Y-158767857D01*
X105464285Y-158696428D01*
X105428571Y-158553571D01*
X105428571Y-158375000D01*
X105464285Y-158232142D01*
X105500000Y-158160714D01*
X105535714Y-158125000D01*
X105607142Y-158089285D01*
X84142857Y-158803571D02*
X84250000Y-158839285D01*
X84428571Y-158839285D01*
X84500000Y-158803571D01*
X84535714Y-158767857D01*
X84571428Y-158696428D01*
X84571428Y-158625000D01*
X84535714Y-158553571D01*
X84500000Y-158517857D01*
X84428571Y-158482142D01*
X84285714Y-158446428D01*
X84214285Y-158410714D01*
X84178571Y-158375000D01*
X84142857Y-158303571D01*
X84142857Y-158232142D01*
X84178571Y-158160714D01*
X84214285Y-158125000D01*
X84285714Y-158089285D01*
X84464285Y-158089285D01*
X84571428Y-158125000D01*
X84821428Y-158089285D02*
X85000000Y-158839285D01*
X85142857Y-158303571D01*
X85285714Y-158839285D01*
X85464285Y-158089285D01*
X85678571Y-158089285D02*
X86142857Y-158089285D01*
X85892857Y-158375000D01*
X86000000Y-158375000D01*
X86071428Y-158410714D01*
X86107142Y-158446428D01*
X86142857Y-158517857D01*
X86142857Y-158696428D01*
X86107142Y-158767857D01*
X86071428Y-158803571D01*
X86000000Y-158839285D01*
X85785714Y-158839285D01*
X85714285Y-158803571D01*
X85678571Y-158767857D01*
X86500000Y-158839285D02*
X86642857Y-158839285D01*
X86714285Y-158803571D01*
X86750000Y-158767857D01*
X86821428Y-158660714D01*
X86857142Y-158517857D01*
X86857142Y-158232142D01*
X86821428Y-158160714D01*
X86785714Y-158125000D01*
X86714285Y-158089285D01*
X86571428Y-158089285D01*
X86500000Y-158125000D01*
X86464285Y-158160714D01*
X86428571Y-158232142D01*
X86428571Y-158410714D01*
X86464285Y-158482142D01*
X86500000Y-158517857D01*
X86571428Y-158553571D01*
X86714285Y-158553571D01*
X86785714Y-158517857D01*
X86821428Y-158482142D01*
X86857142Y-158410714D01*
X331142857Y-139803571D02*
X331250000Y-139839285D01*
X331428571Y-139839285D01*
X331500000Y-139803571D01*
X331535714Y-139767857D01*
X331571428Y-139696428D01*
X331571428Y-139625000D01*
X331535714Y-139553571D01*
X331500000Y-139517857D01*
X331428571Y-139482142D01*
X331285714Y-139446428D01*
X331214285Y-139410714D01*
X331178571Y-139375000D01*
X331142857Y-139303571D01*
X331142857Y-139232142D01*
X331178571Y-139160714D01*
X331214285Y-139125000D01*
X331285714Y-139089285D01*
X331464285Y-139089285D01*
X331571428Y-139125000D01*
X331821428Y-139089285D02*
X332000000Y-139839285D01*
X332142857Y-139303571D01*
X332285714Y-139839285D01*
X332464285Y-139089285D01*
X332678571Y-139089285D02*
X333142857Y-139089285D01*
X332892857Y-139375000D01*
X333000000Y-139375000D01*
X333071428Y-139410714D01*
X333107142Y-139446428D01*
X333142857Y-139517857D01*
X333142857Y-139696428D01*
X333107142Y-139767857D01*
X333071428Y-139803571D01*
X333000000Y-139839285D01*
X332785714Y-139839285D01*
X332714285Y-139803571D01*
X332678571Y-139767857D01*
X333571428Y-139410714D02*
X333500000Y-139375000D01*
X333464285Y-139339285D01*
X333428571Y-139267857D01*
X333428571Y-139232142D01*
X333464285Y-139160714D01*
X333500000Y-139125000D01*
X333571428Y-139089285D01*
X333714285Y-139089285D01*
X333785714Y-139125000D01*
X333821428Y-139160714D01*
X333857142Y-139232142D01*
X333857142Y-139267857D01*
X333821428Y-139339285D01*
X333785714Y-139375000D01*
X333714285Y-139410714D01*
X333571428Y-139410714D01*
X333500000Y-139446428D01*
X333464285Y-139482142D01*
X333428571Y-139553571D01*
X333428571Y-139696428D01*
X333464285Y-139767857D01*
X333500000Y-139803571D01*
X333571428Y-139839285D01*
X333714285Y-139839285D01*
X333785714Y-139803571D01*
X333821428Y-139767857D01*
X333857142Y-139696428D01*
X333857142Y-139553571D01*
X333821428Y-139482142D01*
X333785714Y-139446428D01*
X333714285Y-139410714D01*
X312142857Y-139803571D02*
X312250000Y-139839285D01*
X312428571Y-139839285D01*
X312500000Y-139803571D01*
X312535714Y-139767857D01*
X312571428Y-139696428D01*
X312571428Y-139625000D01*
X312535714Y-139553571D01*
X312500000Y-139517857D01*
X312428571Y-139482142D01*
X312285714Y-139446428D01*
X312214285Y-139410714D01*
X312178571Y-139375000D01*
X312142857Y-139303571D01*
X312142857Y-139232142D01*
X312178571Y-139160714D01*
X312214285Y-139125000D01*
X312285714Y-139089285D01*
X312464285Y-139089285D01*
X312571428Y-139125000D01*
X312821428Y-139089285D02*
X313000000Y-139839285D01*
X313142857Y-139303571D01*
X313285714Y-139839285D01*
X313464285Y-139089285D01*
X313678571Y-139089285D02*
X314142857Y-139089285D01*
X313892857Y-139375000D01*
X314000000Y-139375000D01*
X314071428Y-139410714D01*
X314107142Y-139446428D01*
X314142857Y-139517857D01*
X314142857Y-139696428D01*
X314107142Y-139767857D01*
X314071428Y-139803571D01*
X314000000Y-139839285D01*
X313785714Y-139839285D01*
X313714285Y-139803571D01*
X313678571Y-139767857D01*
X314392857Y-139089285D02*
X314892857Y-139089285D01*
X314571428Y-139839285D01*
X293142857Y-139803571D02*
X293250000Y-139839285D01*
X293428571Y-139839285D01*
X293500000Y-139803571D01*
X293535714Y-139767857D01*
X293571428Y-139696428D01*
X293571428Y-139625000D01*
X293535714Y-139553571D01*
X293500000Y-139517857D01*
X293428571Y-139482142D01*
X293285714Y-139446428D01*
X293214285Y-139410714D01*
X293178571Y-139375000D01*
X293142857Y-139303571D01*
X293142857Y-139232142D01*
X293178571Y-139160714D01*
X293214285Y-139125000D01*
X293285714Y-139089285D01*
X293464285Y-139089285D01*
X293571428Y-139125000D01*
X293821428Y-139089285D02*
X294000000Y-139839285D01*
X294142857Y-139303571D01*
X294285714Y-139839285D01*
X294464285Y-139089285D01*
X294678571Y-139089285D02*
X295142857Y-139089285D01*
X294892857Y-139375000D01*
X295000000Y-139375000D01*
X295071428Y-139410714D01*
X295107142Y-139446428D01*
X295142857Y-139517857D01*
X295142857Y-139696428D01*
X295107142Y-139767857D01*
X295071428Y-139803571D01*
X295000000Y-139839285D01*
X294785714Y-139839285D01*
X294714285Y-139803571D01*
X294678571Y-139767857D01*
X295785714Y-139089285D02*
X295642857Y-139089285D01*
X295571428Y-139125000D01*
X295535714Y-139160714D01*
X295464285Y-139267857D01*
X295428571Y-139410714D01*
X295428571Y-139696428D01*
X295464285Y-139767857D01*
X295500000Y-139803571D01*
X295571428Y-139839285D01*
X295714285Y-139839285D01*
X295785714Y-139803571D01*
X295821428Y-139767857D01*
X295857142Y-139696428D01*
X295857142Y-139517857D01*
X295821428Y-139446428D01*
X295785714Y-139410714D01*
X295714285Y-139375000D01*
X295571428Y-139375000D01*
X295500000Y-139410714D01*
X295464285Y-139446428D01*
X295428571Y-139517857D01*
X274142857Y-139803571D02*
X274250000Y-139839285D01*
X274428571Y-139839285D01*
X274500000Y-139803571D01*
X274535714Y-139767857D01*
X274571428Y-139696428D01*
X274571428Y-139625000D01*
X274535714Y-139553571D01*
X274500000Y-139517857D01*
X274428571Y-139482142D01*
X274285714Y-139446428D01*
X274214285Y-139410714D01*
X274178571Y-139375000D01*
X274142857Y-139303571D01*
X274142857Y-139232142D01*
X274178571Y-139160714D01*
X274214285Y-139125000D01*
X274285714Y-139089285D01*
X274464285Y-139089285D01*
X274571428Y-139125000D01*
X274821428Y-139089285D02*
X275000000Y-139839285D01*
X275142857Y-139303571D01*
X275285714Y-139839285D01*
X275464285Y-139089285D01*
X275678571Y-139089285D02*
X276142857Y-139089285D01*
X275892857Y-139375000D01*
X276000000Y-139375000D01*
X276071428Y-139410714D01*
X276107142Y-139446428D01*
X276142857Y-139517857D01*
X276142857Y-139696428D01*
X276107142Y-139767857D01*
X276071428Y-139803571D01*
X276000000Y-139839285D01*
X275785714Y-139839285D01*
X275714285Y-139803571D01*
X275678571Y-139767857D01*
X276821428Y-139089285D02*
X276464285Y-139089285D01*
X276428571Y-139446428D01*
X276464285Y-139410714D01*
X276535714Y-139375000D01*
X276714285Y-139375000D01*
X276785714Y-139410714D01*
X276821428Y-139446428D01*
X276857142Y-139517857D01*
X276857142Y-139696428D01*
X276821428Y-139767857D01*
X276785714Y-139803571D01*
X276714285Y-139839285D01*
X276535714Y-139839285D01*
X276464285Y-139803571D01*
X276428571Y-139767857D01*
X255142857Y-139803571D02*
X255250000Y-139839285D01*
X255428571Y-139839285D01*
X255500000Y-139803571D01*
X255535714Y-139767857D01*
X255571428Y-139696428D01*
X255571428Y-139625000D01*
X255535714Y-139553571D01*
X255500000Y-139517857D01*
X255428571Y-139482142D01*
X255285714Y-139446428D01*
X255214285Y-139410714D01*
X255178571Y-139375000D01*
X255142857Y-139303571D01*
X255142857Y-139232142D01*
X255178571Y-139160714D01*
X255214285Y-139125000D01*
X255285714Y-139089285D01*
X255464285Y-139089285D01*
X255571428Y-139125000D01*
X255821428Y-139089285D02*
X256000000Y-139839285D01*
X256142857Y-139303571D01*
X256285714Y-139839285D01*
X256464285Y-139089285D01*
X256678571Y-139089285D02*
X257142857Y-139089285D01*
X256892857Y-139375000D01*
X257000000Y-139375000D01*
X257071428Y-139410714D01*
X257107142Y-139446428D01*
X257142857Y-139517857D01*
X257142857Y-139696428D01*
X257107142Y-139767857D01*
X257071428Y-139803571D01*
X257000000Y-139839285D01*
X256785714Y-139839285D01*
X256714285Y-139803571D01*
X256678571Y-139767857D01*
X257785714Y-139339285D02*
X257785714Y-139839285D01*
X257607142Y-139053571D02*
X257428571Y-139589285D01*
X257892857Y-139589285D01*
X236142857Y-139803571D02*
X236250000Y-139839285D01*
X236428571Y-139839285D01*
X236500000Y-139803571D01*
X236535714Y-139767857D01*
X236571428Y-139696428D01*
X236571428Y-139625000D01*
X236535714Y-139553571D01*
X236500000Y-139517857D01*
X236428571Y-139482142D01*
X236285714Y-139446428D01*
X236214285Y-139410714D01*
X236178571Y-139375000D01*
X236142857Y-139303571D01*
X236142857Y-139232142D01*
X236178571Y-139160714D01*
X236214285Y-139125000D01*
X236285714Y-139089285D01*
X236464285Y-139089285D01*
X236571428Y-139125000D01*
X236821428Y-139089285D02*
X237000000Y-139839285D01*
X237142857Y-139303571D01*
X237285714Y-139839285D01*
X237464285Y-139089285D01*
X237678571Y-139089285D02*
X238142857Y-139089285D01*
X237892857Y-139375000D01*
X238000000Y-139375000D01*
X238071428Y-139410714D01*
X238107142Y-139446428D01*
X238142857Y-139517857D01*
X238142857Y-139696428D01*
X238107142Y-139767857D01*
X238071428Y-139803571D01*
X238000000Y-139839285D01*
X237785714Y-139839285D01*
X237714285Y-139803571D01*
X237678571Y-139767857D01*
X238392857Y-139089285D02*
X238857142Y-139089285D01*
X238607142Y-139375000D01*
X238714285Y-139375000D01*
X238785714Y-139410714D01*
X238821428Y-139446428D01*
X238857142Y-139517857D01*
X238857142Y-139696428D01*
X238821428Y-139767857D01*
X238785714Y-139803571D01*
X238714285Y-139839285D01*
X238500000Y-139839285D01*
X238428571Y-139803571D01*
X238392857Y-139767857D01*
X217142857Y-139803571D02*
X217250000Y-139839285D01*
X217428571Y-139839285D01*
X217500000Y-139803571D01*
X217535714Y-139767857D01*
X217571428Y-139696428D01*
X217571428Y-139625000D01*
X217535714Y-139553571D01*
X217500000Y-139517857D01*
X217428571Y-139482142D01*
X217285714Y-139446428D01*
X217214285Y-139410714D01*
X217178571Y-139375000D01*
X217142857Y-139303571D01*
X217142857Y-139232142D01*
X217178571Y-139160714D01*
X217214285Y-139125000D01*
X217285714Y-139089285D01*
X217464285Y-139089285D01*
X217571428Y-139125000D01*
X217821428Y-139089285D02*
X218000000Y-139839285D01*
X218142857Y-139303571D01*
X218285714Y-139839285D01*
X218464285Y-139089285D01*
X218678571Y-139089285D02*
X219142857Y-139089285D01*
X218892857Y-139375000D01*
X219000000Y-139375000D01*
X219071428Y-139410714D01*
X219107142Y-139446428D01*
X219142857Y-139517857D01*
X219142857Y-139696428D01*
X219107142Y-139767857D01*
X219071428Y-139803571D01*
X219000000Y-139839285D01*
X218785714Y-139839285D01*
X218714285Y-139803571D01*
X218678571Y-139767857D01*
X219428571Y-139160714D02*
X219464285Y-139125000D01*
X219535714Y-139089285D01*
X219714285Y-139089285D01*
X219785714Y-139125000D01*
X219821428Y-139160714D01*
X219857142Y-139232142D01*
X219857142Y-139303571D01*
X219821428Y-139410714D01*
X219392857Y-139839285D01*
X219857142Y-139839285D01*
X198142857Y-139803571D02*
X198250000Y-139839285D01*
X198428571Y-139839285D01*
X198500000Y-139803571D01*
X198535714Y-139767857D01*
X198571428Y-139696428D01*
X198571428Y-139625000D01*
X198535714Y-139553571D01*
X198500000Y-139517857D01*
X198428571Y-139482142D01*
X198285714Y-139446428D01*
X198214285Y-139410714D01*
X198178571Y-139375000D01*
X198142857Y-139303571D01*
X198142857Y-139232142D01*
X198178571Y-139160714D01*
X198214285Y-139125000D01*
X198285714Y-139089285D01*
X198464285Y-139089285D01*
X198571428Y-139125000D01*
X198821428Y-139089285D02*
X199000000Y-139839285D01*
X199142857Y-139303571D01*
X199285714Y-139839285D01*
X199464285Y-139089285D01*
X199678571Y-139089285D02*
X200142857Y-139089285D01*
X199892857Y-139375000D01*
X200000000Y-139375000D01*
X200071428Y-139410714D01*
X200107142Y-139446428D01*
X200142857Y-139517857D01*
X200142857Y-139696428D01*
X200107142Y-139767857D01*
X200071428Y-139803571D01*
X200000000Y-139839285D01*
X199785714Y-139839285D01*
X199714285Y-139803571D01*
X199678571Y-139767857D01*
X200857142Y-139839285D02*
X200428571Y-139839285D01*
X200642857Y-139839285D02*
X200642857Y-139089285D01*
X200571428Y-139196428D01*
X200500000Y-139267857D01*
X200428571Y-139303571D01*
X179142857Y-139803571D02*
X179250000Y-139839285D01*
X179428571Y-139839285D01*
X179500000Y-139803571D01*
X179535714Y-139767857D01*
X179571428Y-139696428D01*
X179571428Y-139625000D01*
X179535714Y-139553571D01*
X179500000Y-139517857D01*
X179428571Y-139482142D01*
X179285714Y-139446428D01*
X179214285Y-139410714D01*
X179178571Y-139375000D01*
X179142857Y-139303571D01*
X179142857Y-139232142D01*
X179178571Y-139160714D01*
X179214285Y-139125000D01*
X179285714Y-139089285D01*
X179464285Y-139089285D01*
X179571428Y-139125000D01*
X179821428Y-139089285D02*
X180000000Y-139839285D01*
X180142857Y-139303571D01*
X180285714Y-139839285D01*
X180464285Y-139089285D01*
X180678571Y-139089285D02*
X181142857Y-139089285D01*
X180892857Y-139375000D01*
X181000000Y-139375000D01*
X181071428Y-139410714D01*
X181107142Y-139446428D01*
X181142857Y-139517857D01*
X181142857Y-139696428D01*
X181107142Y-139767857D01*
X181071428Y-139803571D01*
X181000000Y-139839285D01*
X180785714Y-139839285D01*
X180714285Y-139803571D01*
X180678571Y-139767857D01*
X181607142Y-139089285D02*
X181678571Y-139089285D01*
X181750000Y-139125000D01*
X181785714Y-139160714D01*
X181821428Y-139232142D01*
X181857142Y-139375000D01*
X181857142Y-139553571D01*
X181821428Y-139696428D01*
X181785714Y-139767857D01*
X181750000Y-139803571D01*
X181678571Y-139839285D01*
X181607142Y-139839285D01*
X181535714Y-139803571D01*
X181500000Y-139767857D01*
X181464285Y-139696428D01*
X181428571Y-139553571D01*
X181428571Y-139375000D01*
X181464285Y-139232142D01*
X181500000Y-139160714D01*
X181535714Y-139125000D01*
X181607142Y-139089285D01*
X160142857Y-139803571D02*
X160250000Y-139839285D01*
X160428571Y-139839285D01*
X160500000Y-139803571D01*
X160535714Y-139767857D01*
X160571428Y-139696428D01*
X160571428Y-139625000D01*
X160535714Y-139553571D01*
X160500000Y-139517857D01*
X160428571Y-139482142D01*
X160285714Y-139446428D01*
X160214285Y-139410714D01*
X160178571Y-139375000D01*
X160142857Y-139303571D01*
X160142857Y-139232142D01*
X160178571Y-139160714D01*
X160214285Y-139125000D01*
X160285714Y-139089285D01*
X160464285Y-139089285D01*
X160571428Y-139125000D01*
X160821428Y-139089285D02*
X161000000Y-139839285D01*
X161142857Y-139303571D01*
X161285714Y-139839285D01*
X161464285Y-139089285D01*
X161714285Y-139160714D02*
X161750000Y-139125000D01*
X161821428Y-139089285D01*
X162000000Y-139089285D01*
X162071428Y-139125000D01*
X162107142Y-139160714D01*
X162142857Y-139232142D01*
X162142857Y-139303571D01*
X162107142Y-139410714D01*
X161678571Y-139839285D01*
X162142857Y-139839285D01*
X162500000Y-139839285D02*
X162642857Y-139839285D01*
X162714285Y-139803571D01*
X162750000Y-139767857D01*
X162821428Y-139660714D01*
X162857142Y-139517857D01*
X162857142Y-139232142D01*
X162821428Y-139160714D01*
X162785714Y-139125000D01*
X162714285Y-139089285D01*
X162571428Y-139089285D01*
X162500000Y-139125000D01*
X162464285Y-139160714D01*
X162428571Y-139232142D01*
X162428571Y-139410714D01*
X162464285Y-139482142D01*
X162500000Y-139517857D01*
X162571428Y-139553571D01*
X162714285Y-139553571D01*
X162785714Y-139517857D01*
X162821428Y-139482142D01*
X162857142Y-139410714D01*
X141142857Y-139803571D02*
X141250000Y-139839285D01*
X141428571Y-139839285D01*
X141500000Y-139803571D01*
X141535714Y-139767857D01*
X141571428Y-139696428D01*
X141571428Y-139625000D01*
X141535714Y-139553571D01*
X141500000Y-139517857D01*
X141428571Y-139482142D01*
X141285714Y-139446428D01*
X141214285Y-139410714D01*
X141178571Y-139375000D01*
X141142857Y-139303571D01*
X141142857Y-139232142D01*
X141178571Y-139160714D01*
X141214285Y-139125000D01*
X141285714Y-139089285D01*
X141464285Y-139089285D01*
X141571428Y-139125000D01*
X141821428Y-139089285D02*
X142000000Y-139839285D01*
X142142857Y-139303571D01*
X142285714Y-139839285D01*
X142464285Y-139089285D01*
X142714285Y-139160714D02*
X142750000Y-139125000D01*
X142821428Y-139089285D01*
X143000000Y-139089285D01*
X143071428Y-139125000D01*
X143107142Y-139160714D01*
X143142857Y-139232142D01*
X143142857Y-139303571D01*
X143107142Y-139410714D01*
X142678571Y-139839285D01*
X143142857Y-139839285D01*
X143571428Y-139410714D02*
X143500000Y-139375000D01*
X143464285Y-139339285D01*
X143428571Y-139267857D01*
X143428571Y-139232142D01*
X143464285Y-139160714D01*
X143500000Y-139125000D01*
X143571428Y-139089285D01*
X143714285Y-139089285D01*
X143785714Y-139125000D01*
X143821428Y-139160714D01*
X143857142Y-139232142D01*
X143857142Y-139267857D01*
X143821428Y-139339285D01*
X143785714Y-139375000D01*
X143714285Y-139410714D01*
X143571428Y-139410714D01*
X143500000Y-139446428D01*
X143464285Y-139482142D01*
X143428571Y-139553571D01*
X143428571Y-139696428D01*
X143464285Y-139767857D01*
X143500000Y-139803571D01*
X143571428Y-139839285D01*
X143714285Y-139839285D01*
X143785714Y-139803571D01*
X143821428Y-139767857D01*
X143857142Y-139696428D01*
X143857142Y-139553571D01*
X143821428Y-139482142D01*
X143785714Y-139446428D01*
X143714285Y-139410714D01*
X122142857Y-139803571D02*
X122250000Y-139839285D01*
X122428571Y-139839285D01*
X122500000Y-139803571D01*
X122535714Y-139767857D01*
X122571428Y-139696428D01*
X122571428Y-139625000D01*
X122535714Y-139553571D01*
X122500000Y-139517857D01*
X122428571Y-139482142D01*
X122285714Y-139446428D01*
X122214285Y-139410714D01*
X122178571Y-139375000D01*
X122142857Y-139303571D01*
X122142857Y-139232142D01*
X122178571Y-139160714D01*
X122214285Y-139125000D01*
X122285714Y-139089285D01*
X122464285Y-139089285D01*
X122571428Y-139125000D01*
X122821428Y-139089285D02*
X123000000Y-139839285D01*
X123142857Y-139303571D01*
X123285714Y-139839285D01*
X123464285Y-139089285D01*
X123714285Y-139160714D02*
X123750000Y-139125000D01*
X123821428Y-139089285D01*
X124000000Y-139089285D01*
X124071428Y-139125000D01*
X124107142Y-139160714D01*
X124142857Y-139232142D01*
X124142857Y-139303571D01*
X124107142Y-139410714D01*
X123678571Y-139839285D01*
X124142857Y-139839285D01*
X124392857Y-139089285D02*
X124892857Y-139089285D01*
X124571428Y-139839285D01*
X103142857Y-139803571D02*
X103250000Y-139839285D01*
X103428571Y-139839285D01*
X103500000Y-139803571D01*
X103535714Y-139767857D01*
X103571428Y-139696428D01*
X103571428Y-139625000D01*
X103535714Y-139553571D01*
X103500000Y-139517857D01*
X103428571Y-139482142D01*
X103285714Y-139446428D01*
X103214285Y-139410714D01*
X103178571Y-139375000D01*
X103142857Y-139303571D01*
X103142857Y-139232142D01*
X103178571Y-139160714D01*
X103214285Y-139125000D01*
X103285714Y-139089285D01*
X103464285Y-139089285D01*
X103571428Y-139125000D01*
X103821428Y-139089285D02*
X104000000Y-139839285D01*
X104142857Y-139303571D01*
X104285714Y-139839285D01*
X104464285Y-139089285D01*
X104714285Y-139160714D02*
X104750000Y-139125000D01*
X104821428Y-139089285D01*
X105000000Y-139089285D01*
X105071428Y-139125000D01*
X105107142Y-139160714D01*
X105142857Y-139232142D01*
X105142857Y-139303571D01*
X105107142Y-139410714D01*
X104678571Y-139839285D01*
X105142857Y-139839285D01*
X105785714Y-139089285D02*
X105642857Y-139089285D01*
X105571428Y-139125000D01*
X105535714Y-139160714D01*
X105464285Y-139267857D01*
X105428571Y-139410714D01*
X105428571Y-139696428D01*
X105464285Y-139767857D01*
X105500000Y-139803571D01*
X105571428Y-139839285D01*
X105714285Y-139839285D01*
X105785714Y-139803571D01*
X105821428Y-139767857D01*
X105857142Y-139696428D01*
X105857142Y-139517857D01*
X105821428Y-139446428D01*
X105785714Y-139410714D01*
X105714285Y-139375000D01*
X105571428Y-139375000D01*
X105500000Y-139410714D01*
X105464285Y-139446428D01*
X105428571Y-139517857D01*
X84142857Y-139803571D02*
X84250000Y-139839285D01*
X84428571Y-139839285D01*
X84500000Y-139803571D01*
X84535714Y-139767857D01*
X84571428Y-139696428D01*
X84571428Y-139625000D01*
X84535714Y-139553571D01*
X84500000Y-139517857D01*
X84428571Y-139482142D01*
X84285714Y-139446428D01*
X84214285Y-139410714D01*
X84178571Y-139375000D01*
X84142857Y-139303571D01*
X84142857Y-139232142D01*
X84178571Y-139160714D01*
X84214285Y-139125000D01*
X84285714Y-139089285D01*
X84464285Y-139089285D01*
X84571428Y-139125000D01*
X84821428Y-139089285D02*
X85000000Y-139839285D01*
X85142857Y-139303571D01*
X85285714Y-139839285D01*
X85464285Y-139089285D01*
X85714285Y-139160714D02*
X85750000Y-139125000D01*
X85821428Y-139089285D01*
X86000000Y-139089285D01*
X86071428Y-139125000D01*
X86107142Y-139160714D01*
X86142857Y-139232142D01*
X86142857Y-139303571D01*
X86107142Y-139410714D01*
X85678571Y-139839285D01*
X86142857Y-139839285D01*
X86821428Y-139089285D02*
X86464285Y-139089285D01*
X86428571Y-139446428D01*
X86464285Y-139410714D01*
X86535714Y-139375000D01*
X86714285Y-139375000D01*
X86785714Y-139410714D01*
X86821428Y-139446428D01*
X86857142Y-139517857D01*
X86857142Y-139696428D01*
X86821428Y-139767857D01*
X86785714Y-139803571D01*
X86714285Y-139839285D01*
X86535714Y-139839285D01*
X86464285Y-139803571D01*
X86428571Y-139767857D01*
X331142857Y-120803571D02*
X331250000Y-120839285D01*
X331428571Y-120839285D01*
X331500000Y-120803571D01*
X331535714Y-120767857D01*
X331571428Y-120696428D01*
X331571428Y-120625000D01*
X331535714Y-120553571D01*
X331500000Y-120517857D01*
X331428571Y-120482142D01*
X331285714Y-120446428D01*
X331214285Y-120410714D01*
X331178571Y-120375000D01*
X331142857Y-120303571D01*
X331142857Y-120232142D01*
X331178571Y-120160714D01*
X331214285Y-120125000D01*
X331285714Y-120089285D01*
X331464285Y-120089285D01*
X331571428Y-120125000D01*
X331821428Y-120089285D02*
X332000000Y-120839285D01*
X332142857Y-120303571D01*
X332285714Y-120839285D01*
X332464285Y-120089285D01*
X332714285Y-120160714D02*
X332750000Y-120125000D01*
X332821428Y-120089285D01*
X333000000Y-120089285D01*
X333071428Y-120125000D01*
X333107142Y-120160714D01*
X333142857Y-120232142D01*
X333142857Y-120303571D01*
X333107142Y-120410714D01*
X332678571Y-120839285D01*
X333142857Y-120839285D01*
X333785714Y-120339285D02*
X333785714Y-120839285D01*
X333607142Y-120053571D02*
X333428571Y-120589285D01*
X333892857Y-120589285D01*
X312142857Y-120803571D02*
X312250000Y-120839285D01*
X312428571Y-120839285D01*
X312500000Y-120803571D01*
X312535714Y-120767857D01*
X312571428Y-120696428D01*
X312571428Y-120625000D01*
X312535714Y-120553571D01*
X312500000Y-120517857D01*
X312428571Y-120482142D01*
X312285714Y-120446428D01*
X312214285Y-120410714D01*
X312178571Y-120375000D01*
X312142857Y-120303571D01*
X312142857Y-120232142D01*
X312178571Y-120160714D01*
X312214285Y-120125000D01*
X312285714Y-120089285D01*
X312464285Y-120089285D01*
X312571428Y-120125000D01*
X312821428Y-120089285D02*
X313000000Y-120839285D01*
X313142857Y-120303571D01*
X313285714Y-120839285D01*
X313464285Y-120089285D01*
X313714285Y-120160714D02*
X313750000Y-120125000D01*
X313821428Y-120089285D01*
X314000000Y-120089285D01*
X314071428Y-120125000D01*
X314107142Y-120160714D01*
X314142857Y-120232142D01*
X314142857Y-120303571D01*
X314107142Y-120410714D01*
X313678571Y-120839285D01*
X314142857Y-120839285D01*
X314392857Y-120089285D02*
X314857142Y-120089285D01*
X314607142Y-120375000D01*
X314714285Y-120375000D01*
X314785714Y-120410714D01*
X314821428Y-120446428D01*
X314857142Y-120517857D01*
X314857142Y-120696428D01*
X314821428Y-120767857D01*
X314785714Y-120803571D01*
X314714285Y-120839285D01*
X314500000Y-120839285D01*
X314428571Y-120803571D01*
X314392857Y-120767857D01*
X293142857Y-120803571D02*
X293250000Y-120839285D01*
X293428571Y-120839285D01*
X293500000Y-120803571D01*
X293535714Y-120767857D01*
X293571428Y-120696428D01*
X293571428Y-120625000D01*
X293535714Y-120553571D01*
X293500000Y-120517857D01*
X293428571Y-120482142D01*
X293285714Y-120446428D01*
X293214285Y-120410714D01*
X293178571Y-120375000D01*
X293142857Y-120303571D01*
X293142857Y-120232142D01*
X293178571Y-120160714D01*
X293214285Y-120125000D01*
X293285714Y-120089285D01*
X293464285Y-120089285D01*
X293571428Y-120125000D01*
X293821428Y-120089285D02*
X294000000Y-120839285D01*
X294142857Y-120303571D01*
X294285714Y-120839285D01*
X294464285Y-120089285D01*
X294714285Y-120160714D02*
X294750000Y-120125000D01*
X294821428Y-120089285D01*
X295000000Y-120089285D01*
X295071428Y-120125000D01*
X295107142Y-120160714D01*
X295142857Y-120232142D01*
X295142857Y-120303571D01*
X295107142Y-120410714D01*
X294678571Y-120839285D01*
X295142857Y-120839285D01*
X295428571Y-120160714D02*
X295464285Y-120125000D01*
X295535714Y-120089285D01*
X295714285Y-120089285D01*
X295785714Y-120125000D01*
X295821428Y-120160714D01*
X295857142Y-120232142D01*
X295857142Y-120303571D01*
X295821428Y-120410714D01*
X295392857Y-120839285D01*
X295857142Y-120839285D01*
X274142857Y-120803571D02*
X274250000Y-120839285D01*
X274428571Y-120839285D01*
X274500000Y-120803571D01*
X274535714Y-120767857D01*
X274571428Y-120696428D01*
X274571428Y-120625000D01*
X274535714Y-120553571D01*
X274500000Y-120517857D01*
X274428571Y-120482142D01*
X274285714Y-120446428D01*
X274214285Y-120410714D01*
X274178571Y-120375000D01*
X274142857Y-120303571D01*
X274142857Y-120232142D01*
X274178571Y-120160714D01*
X274214285Y-120125000D01*
X274285714Y-120089285D01*
X274464285Y-120089285D01*
X274571428Y-120125000D01*
X274821428Y-120089285D02*
X275000000Y-120839285D01*
X275142857Y-120303571D01*
X275285714Y-120839285D01*
X275464285Y-120089285D01*
X275714285Y-120160714D02*
X275750000Y-120125000D01*
X275821428Y-120089285D01*
X276000000Y-120089285D01*
X276071428Y-120125000D01*
X276107142Y-120160714D01*
X276142857Y-120232142D01*
X276142857Y-120303571D01*
X276107142Y-120410714D01*
X275678571Y-120839285D01*
X276142857Y-120839285D01*
X276857142Y-120839285D02*
X276428571Y-120839285D01*
X276642857Y-120839285D02*
X276642857Y-120089285D01*
X276571428Y-120196428D01*
X276500000Y-120267857D01*
X276428571Y-120303571D01*
X255142857Y-120803571D02*
X255250000Y-120839285D01*
X255428571Y-120839285D01*
X255500000Y-120803571D01*
X255535714Y-120767857D01*
X255571428Y-120696428D01*
X255571428Y-120625000D01*
X255535714Y-120553571D01*
X255500000Y-120517857D01*
X255428571Y-120482142D01*
X255285714Y-120446428D01*
X255214285Y-120410714D01*
X255178571Y-120375000D01*
X255142857Y-120303571D01*
X255142857Y-120232142D01*
X255178571Y-120160714D01*
X255214285Y-120125000D01*
X255285714Y-120089285D01*
X255464285Y-120089285D01*
X255571428Y-120125000D01*
X255821428Y-120089285D02*
X256000000Y-120839285D01*
X256142857Y-120303571D01*
X256285714Y-120839285D01*
X256464285Y-120089285D01*
X256714285Y-120160714D02*
X256750000Y-120125000D01*
X256821428Y-120089285D01*
X257000000Y-120089285D01*
X257071428Y-120125000D01*
X257107142Y-120160714D01*
X257142857Y-120232142D01*
X257142857Y-120303571D01*
X257107142Y-120410714D01*
X256678571Y-120839285D01*
X257142857Y-120839285D01*
X257607142Y-120089285D02*
X257678571Y-120089285D01*
X257750000Y-120125000D01*
X257785714Y-120160714D01*
X257821428Y-120232142D01*
X257857142Y-120375000D01*
X257857142Y-120553571D01*
X257821428Y-120696428D01*
X257785714Y-120767857D01*
X257750000Y-120803571D01*
X257678571Y-120839285D01*
X257607142Y-120839285D01*
X257535714Y-120803571D01*
X257500000Y-120767857D01*
X257464285Y-120696428D01*
X257428571Y-120553571D01*
X257428571Y-120375000D01*
X257464285Y-120232142D01*
X257500000Y-120160714D01*
X257535714Y-120125000D01*
X257607142Y-120089285D01*
X236142857Y-120803571D02*
X236250000Y-120839285D01*
X236428571Y-120839285D01*
X236500000Y-120803571D01*
X236535714Y-120767857D01*
X236571428Y-120696428D01*
X236571428Y-120625000D01*
X236535714Y-120553571D01*
X236500000Y-120517857D01*
X236428571Y-120482142D01*
X236285714Y-120446428D01*
X236214285Y-120410714D01*
X236178571Y-120375000D01*
X236142857Y-120303571D01*
X236142857Y-120232142D01*
X236178571Y-120160714D01*
X236214285Y-120125000D01*
X236285714Y-120089285D01*
X236464285Y-120089285D01*
X236571428Y-120125000D01*
X236821428Y-120089285D02*
X237000000Y-120839285D01*
X237142857Y-120303571D01*
X237285714Y-120839285D01*
X237464285Y-120089285D01*
X238142857Y-120839285D02*
X237714285Y-120839285D01*
X237928571Y-120839285D02*
X237928571Y-120089285D01*
X237857142Y-120196428D01*
X237785714Y-120267857D01*
X237714285Y-120303571D01*
X238500000Y-120839285D02*
X238642857Y-120839285D01*
X238714285Y-120803571D01*
X238750000Y-120767857D01*
X238821428Y-120660714D01*
X238857142Y-120517857D01*
X238857142Y-120232142D01*
X238821428Y-120160714D01*
X238785714Y-120125000D01*
X238714285Y-120089285D01*
X238571428Y-120089285D01*
X238500000Y-120125000D01*
X238464285Y-120160714D01*
X238428571Y-120232142D01*
X238428571Y-120410714D01*
X238464285Y-120482142D01*
X238500000Y-120517857D01*
X238571428Y-120553571D01*
X238714285Y-120553571D01*
X238785714Y-120517857D01*
X238821428Y-120482142D01*
X238857142Y-120410714D01*
X179142857Y-120803571D02*
X179250000Y-120839285D01*
X179428571Y-120839285D01*
X179500000Y-120803571D01*
X179535714Y-120767857D01*
X179571428Y-120696428D01*
X179571428Y-120625000D01*
X179535714Y-120553571D01*
X179500000Y-120517857D01*
X179428571Y-120482142D01*
X179285714Y-120446428D01*
X179214285Y-120410714D01*
X179178571Y-120375000D01*
X179142857Y-120303571D01*
X179142857Y-120232142D01*
X179178571Y-120160714D01*
X179214285Y-120125000D01*
X179285714Y-120089285D01*
X179464285Y-120089285D01*
X179571428Y-120125000D01*
X179821428Y-120089285D02*
X180000000Y-120839285D01*
X180142857Y-120303571D01*
X180285714Y-120839285D01*
X180464285Y-120089285D01*
X181142857Y-120839285D02*
X180714285Y-120839285D01*
X180928571Y-120839285D02*
X180928571Y-120089285D01*
X180857142Y-120196428D01*
X180785714Y-120267857D01*
X180714285Y-120303571D01*
X181571428Y-120410714D02*
X181500000Y-120375000D01*
X181464285Y-120339285D01*
X181428571Y-120267857D01*
X181428571Y-120232142D01*
X181464285Y-120160714D01*
X181500000Y-120125000D01*
X181571428Y-120089285D01*
X181714285Y-120089285D01*
X181785714Y-120125000D01*
X181821428Y-120160714D01*
X181857142Y-120232142D01*
X181857142Y-120267857D01*
X181821428Y-120339285D01*
X181785714Y-120375000D01*
X181714285Y-120410714D01*
X181571428Y-120410714D01*
X181500000Y-120446428D01*
X181464285Y-120482142D01*
X181428571Y-120553571D01*
X181428571Y-120696428D01*
X181464285Y-120767857D01*
X181500000Y-120803571D01*
X181571428Y-120839285D01*
X181714285Y-120839285D01*
X181785714Y-120803571D01*
X181821428Y-120767857D01*
X181857142Y-120696428D01*
X181857142Y-120553571D01*
X181821428Y-120482142D01*
X181785714Y-120446428D01*
X181714285Y-120410714D01*
X160142857Y-120803571D02*
X160250000Y-120839285D01*
X160428571Y-120839285D01*
X160500000Y-120803571D01*
X160535714Y-120767857D01*
X160571428Y-120696428D01*
X160571428Y-120625000D01*
X160535714Y-120553571D01*
X160500000Y-120517857D01*
X160428571Y-120482142D01*
X160285714Y-120446428D01*
X160214285Y-120410714D01*
X160178571Y-120375000D01*
X160142857Y-120303571D01*
X160142857Y-120232142D01*
X160178571Y-120160714D01*
X160214285Y-120125000D01*
X160285714Y-120089285D01*
X160464285Y-120089285D01*
X160571428Y-120125000D01*
X160821428Y-120089285D02*
X161000000Y-120839285D01*
X161142857Y-120303571D01*
X161285714Y-120839285D01*
X161464285Y-120089285D01*
X162142857Y-120839285D02*
X161714285Y-120839285D01*
X161928571Y-120839285D02*
X161928571Y-120089285D01*
X161857142Y-120196428D01*
X161785714Y-120267857D01*
X161714285Y-120303571D01*
X162392857Y-120089285D02*
X162892857Y-120089285D01*
X162571428Y-120839285D01*
X141142857Y-120803571D02*
X141250000Y-120839285D01*
X141428571Y-120839285D01*
X141500000Y-120803571D01*
X141535714Y-120767857D01*
X141571428Y-120696428D01*
X141571428Y-120625000D01*
X141535714Y-120553571D01*
X141500000Y-120517857D01*
X141428571Y-120482142D01*
X141285714Y-120446428D01*
X141214285Y-120410714D01*
X141178571Y-120375000D01*
X141142857Y-120303571D01*
X141142857Y-120232142D01*
X141178571Y-120160714D01*
X141214285Y-120125000D01*
X141285714Y-120089285D01*
X141464285Y-120089285D01*
X141571428Y-120125000D01*
X141821428Y-120089285D02*
X142000000Y-120839285D01*
X142142857Y-120303571D01*
X142285714Y-120839285D01*
X142464285Y-120089285D01*
X143142857Y-120839285D02*
X142714285Y-120839285D01*
X142928571Y-120839285D02*
X142928571Y-120089285D01*
X142857142Y-120196428D01*
X142785714Y-120267857D01*
X142714285Y-120303571D01*
X143785714Y-120089285D02*
X143642857Y-120089285D01*
X143571428Y-120125000D01*
X143535714Y-120160714D01*
X143464285Y-120267857D01*
X143428571Y-120410714D01*
X143428571Y-120696428D01*
X143464285Y-120767857D01*
X143500000Y-120803571D01*
X143571428Y-120839285D01*
X143714285Y-120839285D01*
X143785714Y-120803571D01*
X143821428Y-120767857D01*
X143857142Y-120696428D01*
X143857142Y-120517857D01*
X143821428Y-120446428D01*
X143785714Y-120410714D01*
X143714285Y-120375000D01*
X143571428Y-120375000D01*
X143500000Y-120410714D01*
X143464285Y-120446428D01*
X143428571Y-120517857D01*
X122142857Y-120803571D02*
X122250000Y-120839285D01*
X122428571Y-120839285D01*
X122500000Y-120803571D01*
X122535714Y-120767857D01*
X122571428Y-120696428D01*
X122571428Y-120625000D01*
X122535714Y-120553571D01*
X122500000Y-120517857D01*
X122428571Y-120482142D01*
X122285714Y-120446428D01*
X122214285Y-120410714D01*
X122178571Y-120375000D01*
X122142857Y-120303571D01*
X122142857Y-120232142D01*
X122178571Y-120160714D01*
X122214285Y-120125000D01*
X122285714Y-120089285D01*
X122464285Y-120089285D01*
X122571428Y-120125000D01*
X122821428Y-120089285D02*
X123000000Y-120839285D01*
X123142857Y-120303571D01*
X123285714Y-120839285D01*
X123464285Y-120089285D01*
X124142857Y-120839285D02*
X123714285Y-120839285D01*
X123928571Y-120839285D02*
X123928571Y-120089285D01*
X123857142Y-120196428D01*
X123785714Y-120267857D01*
X123714285Y-120303571D01*
X124821428Y-120089285D02*
X124464285Y-120089285D01*
X124428571Y-120446428D01*
X124464285Y-120410714D01*
X124535714Y-120375000D01*
X124714285Y-120375000D01*
X124785714Y-120410714D01*
X124821428Y-120446428D01*
X124857142Y-120517857D01*
X124857142Y-120696428D01*
X124821428Y-120767857D01*
X124785714Y-120803571D01*
X124714285Y-120839285D01*
X124535714Y-120839285D01*
X124464285Y-120803571D01*
X124428571Y-120767857D01*
X103142857Y-120803571D02*
X103250000Y-120839285D01*
X103428571Y-120839285D01*
X103500000Y-120803571D01*
X103535714Y-120767857D01*
X103571428Y-120696428D01*
X103571428Y-120625000D01*
X103535714Y-120553571D01*
X103500000Y-120517857D01*
X103428571Y-120482142D01*
X103285714Y-120446428D01*
X103214285Y-120410714D01*
X103178571Y-120375000D01*
X103142857Y-120303571D01*
X103142857Y-120232142D01*
X103178571Y-120160714D01*
X103214285Y-120125000D01*
X103285714Y-120089285D01*
X103464285Y-120089285D01*
X103571428Y-120125000D01*
X103821428Y-120089285D02*
X104000000Y-120839285D01*
X104142857Y-120303571D01*
X104285714Y-120839285D01*
X104464285Y-120089285D01*
X105142857Y-120839285D02*
X104714285Y-120839285D01*
X104928571Y-120839285D02*
X104928571Y-120089285D01*
X104857142Y-120196428D01*
X104785714Y-120267857D01*
X104714285Y-120303571D01*
X105785714Y-120339285D02*
X105785714Y-120839285D01*
X105607142Y-120053571D02*
X105428571Y-120589285D01*
X105892857Y-120589285D01*
X84142857Y-120803571D02*
X84250000Y-120839285D01*
X84428571Y-120839285D01*
X84500000Y-120803571D01*
X84535714Y-120767857D01*
X84571428Y-120696428D01*
X84571428Y-120625000D01*
X84535714Y-120553571D01*
X84500000Y-120517857D01*
X84428571Y-120482142D01*
X84285714Y-120446428D01*
X84214285Y-120410714D01*
X84178571Y-120375000D01*
X84142857Y-120303571D01*
X84142857Y-120232142D01*
X84178571Y-120160714D01*
X84214285Y-120125000D01*
X84285714Y-120089285D01*
X84464285Y-120089285D01*
X84571428Y-120125000D01*
X84821428Y-120089285D02*
X85000000Y-120839285D01*
X85142857Y-120303571D01*
X85285714Y-120839285D01*
X85464285Y-120089285D01*
X86142857Y-120839285D02*
X85714285Y-120839285D01*
X85928571Y-120839285D02*
X85928571Y-120089285D01*
X85857142Y-120196428D01*
X85785714Y-120267857D01*
X85714285Y-120303571D01*
X86392857Y-120089285D02*
X86857142Y-120089285D01*
X86607142Y-120375000D01*
X86714285Y-120375000D01*
X86785714Y-120410714D01*
X86821428Y-120446428D01*
X86857142Y-120517857D01*
X86857142Y-120696428D01*
X86821428Y-120767857D01*
X86785714Y-120803571D01*
X86714285Y-120839285D01*
X86500000Y-120839285D01*
X86428571Y-120803571D01*
X86392857Y-120767857D01*
X331142857Y-101803571D02*
X331250000Y-101839285D01*
X331428571Y-101839285D01*
X331500000Y-101803571D01*
X331535714Y-101767857D01*
X331571428Y-101696428D01*
X331571428Y-101625000D01*
X331535714Y-101553571D01*
X331500000Y-101517857D01*
X331428571Y-101482142D01*
X331285714Y-101446428D01*
X331214285Y-101410714D01*
X331178571Y-101375000D01*
X331142857Y-101303571D01*
X331142857Y-101232142D01*
X331178571Y-101160714D01*
X331214285Y-101125000D01*
X331285714Y-101089285D01*
X331464285Y-101089285D01*
X331571428Y-101125000D01*
X331821428Y-101089285D02*
X332000000Y-101839285D01*
X332142857Y-101303571D01*
X332285714Y-101839285D01*
X332464285Y-101089285D01*
X333142857Y-101839285D02*
X332714285Y-101839285D01*
X332928571Y-101839285D02*
X332928571Y-101089285D01*
X332857142Y-101196428D01*
X332785714Y-101267857D01*
X332714285Y-101303571D01*
X333428571Y-101160714D02*
X333464285Y-101125000D01*
X333535714Y-101089285D01*
X333714285Y-101089285D01*
X333785714Y-101125000D01*
X333821428Y-101160714D01*
X333857142Y-101232142D01*
X333857142Y-101303571D01*
X333821428Y-101410714D01*
X333392857Y-101839285D01*
X333857142Y-101839285D01*
X312142857Y-101803571D02*
X312250000Y-101839285D01*
X312428571Y-101839285D01*
X312500000Y-101803571D01*
X312535714Y-101767857D01*
X312571428Y-101696428D01*
X312571428Y-101625000D01*
X312535714Y-101553571D01*
X312500000Y-101517857D01*
X312428571Y-101482142D01*
X312285714Y-101446428D01*
X312214285Y-101410714D01*
X312178571Y-101375000D01*
X312142857Y-101303571D01*
X312142857Y-101232142D01*
X312178571Y-101160714D01*
X312214285Y-101125000D01*
X312285714Y-101089285D01*
X312464285Y-101089285D01*
X312571428Y-101125000D01*
X312821428Y-101089285D02*
X313000000Y-101839285D01*
X313142857Y-101303571D01*
X313285714Y-101839285D01*
X313464285Y-101089285D01*
X314142857Y-101839285D02*
X313714285Y-101839285D01*
X313928571Y-101839285D02*
X313928571Y-101089285D01*
X313857142Y-101196428D01*
X313785714Y-101267857D01*
X313714285Y-101303571D01*
X314857142Y-101839285D02*
X314428571Y-101839285D01*
X314642857Y-101839285D02*
X314642857Y-101089285D01*
X314571428Y-101196428D01*
X314500000Y-101267857D01*
X314428571Y-101303571D01*
X293142857Y-101803571D02*
X293250000Y-101839285D01*
X293428571Y-101839285D01*
X293500000Y-101803571D01*
X293535714Y-101767857D01*
X293571428Y-101696428D01*
X293571428Y-101625000D01*
X293535714Y-101553571D01*
X293500000Y-101517857D01*
X293428571Y-101482142D01*
X293285714Y-101446428D01*
X293214285Y-101410714D01*
X293178571Y-101375000D01*
X293142857Y-101303571D01*
X293142857Y-101232142D01*
X293178571Y-101160714D01*
X293214285Y-101125000D01*
X293285714Y-101089285D01*
X293464285Y-101089285D01*
X293571428Y-101125000D01*
X293821428Y-101089285D02*
X294000000Y-101839285D01*
X294142857Y-101303571D01*
X294285714Y-101839285D01*
X294464285Y-101089285D01*
X295142857Y-101839285D02*
X294714285Y-101839285D01*
X294928571Y-101839285D02*
X294928571Y-101089285D01*
X294857142Y-101196428D01*
X294785714Y-101267857D01*
X294714285Y-101303571D01*
X295607142Y-101089285D02*
X295678571Y-101089285D01*
X295750000Y-101125000D01*
X295785714Y-101160714D01*
X295821428Y-101232142D01*
X295857142Y-101375000D01*
X295857142Y-101553571D01*
X295821428Y-101696428D01*
X295785714Y-101767857D01*
X295750000Y-101803571D01*
X295678571Y-101839285D01*
X295607142Y-101839285D01*
X295535714Y-101803571D01*
X295500000Y-101767857D01*
X295464285Y-101696428D01*
X295428571Y-101553571D01*
X295428571Y-101375000D01*
X295464285Y-101232142D01*
X295500000Y-101160714D01*
X295535714Y-101125000D01*
X295607142Y-101089285D01*
X274500000Y-101803571D02*
X274607142Y-101839285D01*
X274785714Y-101839285D01*
X274857142Y-101803571D01*
X274892857Y-101767857D01*
X274928571Y-101696428D01*
X274928571Y-101625000D01*
X274892857Y-101553571D01*
X274857142Y-101517857D01*
X274785714Y-101482142D01*
X274642857Y-101446428D01*
X274571428Y-101410714D01*
X274535714Y-101375000D01*
X274500000Y-101303571D01*
X274500000Y-101232142D01*
X274535714Y-101160714D01*
X274571428Y-101125000D01*
X274642857Y-101089285D01*
X274821428Y-101089285D01*
X274928571Y-101125000D01*
X275178571Y-101089285D02*
X275357142Y-101839285D01*
X275500000Y-101303571D01*
X275642857Y-101839285D01*
X275821428Y-101089285D01*
X276142857Y-101839285D02*
X276285714Y-101839285D01*
X276357142Y-101803571D01*
X276392857Y-101767857D01*
X276464285Y-101660714D01*
X276500000Y-101517857D01*
X276500000Y-101232142D01*
X276464285Y-101160714D01*
X276428571Y-101125000D01*
X276357142Y-101089285D01*
X276214285Y-101089285D01*
X276142857Y-101125000D01*
X276107142Y-101160714D01*
X276071428Y-101232142D01*
X276071428Y-101410714D01*
X276107142Y-101482142D01*
X276142857Y-101517857D01*
X276214285Y-101553571D01*
X276357142Y-101553571D01*
X276428571Y-101517857D01*
X276464285Y-101482142D01*
X276500000Y-101410714D01*
X255500000Y-101803571D02*
X255607142Y-101839285D01*
X255785714Y-101839285D01*
X255857142Y-101803571D01*
X255892857Y-101767857D01*
X255928571Y-101696428D01*
X255928571Y-101625000D01*
X255892857Y-101553571D01*
X255857142Y-101517857D01*
X255785714Y-101482142D01*
X255642857Y-101446428D01*
X255571428Y-101410714D01*
X255535714Y-101375000D01*
X255500000Y-101303571D01*
X255500000Y-101232142D01*
X255535714Y-101160714D01*
X255571428Y-101125000D01*
X255642857Y-101089285D01*
X255821428Y-101089285D01*
X255928571Y-101125000D01*
X256178571Y-101089285D02*
X256357142Y-101839285D01*
X256500000Y-101303571D01*
X256642857Y-101839285D01*
X256821428Y-101089285D01*
X257214285Y-101410714D02*
X257142857Y-101375000D01*
X257107142Y-101339285D01*
X257071428Y-101267857D01*
X257071428Y-101232142D01*
X257107142Y-101160714D01*
X257142857Y-101125000D01*
X257214285Y-101089285D01*
X257357142Y-101089285D01*
X257428571Y-101125000D01*
X257464285Y-101160714D01*
X257500000Y-101232142D01*
X257500000Y-101267857D01*
X257464285Y-101339285D01*
X257428571Y-101375000D01*
X257357142Y-101410714D01*
X257214285Y-101410714D01*
X257142857Y-101446428D01*
X257107142Y-101482142D01*
X257071428Y-101553571D01*
X257071428Y-101696428D01*
X257107142Y-101767857D01*
X257142857Y-101803571D01*
X257214285Y-101839285D01*
X257357142Y-101839285D01*
X257428571Y-101803571D01*
X257464285Y-101767857D01*
X257500000Y-101696428D01*
X257500000Y-101553571D01*
X257464285Y-101482142D01*
X257428571Y-101446428D01*
X257357142Y-101410714D01*
X236500000Y-101803571D02*
X236607142Y-101839285D01*
X236785714Y-101839285D01*
X236857142Y-101803571D01*
X236892857Y-101767857D01*
X236928571Y-101696428D01*
X236928571Y-101625000D01*
X236892857Y-101553571D01*
X236857142Y-101517857D01*
X236785714Y-101482142D01*
X236642857Y-101446428D01*
X236571428Y-101410714D01*
X236535714Y-101375000D01*
X236500000Y-101303571D01*
X236500000Y-101232142D01*
X236535714Y-101160714D01*
X236571428Y-101125000D01*
X236642857Y-101089285D01*
X236821428Y-101089285D01*
X236928571Y-101125000D01*
X237178571Y-101089285D02*
X237357142Y-101839285D01*
X237500000Y-101303571D01*
X237642857Y-101839285D01*
X237821428Y-101089285D01*
X238035714Y-101089285D02*
X238535714Y-101089285D01*
X238214285Y-101839285D01*
X179500000Y-101803571D02*
X179607142Y-101839285D01*
X179785714Y-101839285D01*
X179857142Y-101803571D01*
X179892857Y-101767857D01*
X179928571Y-101696428D01*
X179928571Y-101625000D01*
X179892857Y-101553571D01*
X179857142Y-101517857D01*
X179785714Y-101482142D01*
X179642857Y-101446428D01*
X179571428Y-101410714D01*
X179535714Y-101375000D01*
X179500000Y-101303571D01*
X179500000Y-101232142D01*
X179535714Y-101160714D01*
X179571428Y-101125000D01*
X179642857Y-101089285D01*
X179821428Y-101089285D01*
X179928571Y-101125000D01*
X180178571Y-101089285D02*
X180357142Y-101839285D01*
X180500000Y-101303571D01*
X180642857Y-101839285D01*
X180821428Y-101089285D01*
X181428571Y-101089285D02*
X181285714Y-101089285D01*
X181214285Y-101125000D01*
X181178571Y-101160714D01*
X181107142Y-101267857D01*
X181071428Y-101410714D01*
X181071428Y-101696428D01*
X181107142Y-101767857D01*
X181142857Y-101803571D01*
X181214285Y-101839285D01*
X181357142Y-101839285D01*
X181428571Y-101803571D01*
X181464285Y-101767857D01*
X181500000Y-101696428D01*
X181500000Y-101517857D01*
X181464285Y-101446428D01*
X181428571Y-101410714D01*
X181357142Y-101375000D01*
X181214285Y-101375000D01*
X181142857Y-101410714D01*
X181107142Y-101446428D01*
X181071428Y-101517857D01*
X160500000Y-101803571D02*
X160607142Y-101839285D01*
X160785714Y-101839285D01*
X160857142Y-101803571D01*
X160892857Y-101767857D01*
X160928571Y-101696428D01*
X160928571Y-101625000D01*
X160892857Y-101553571D01*
X160857142Y-101517857D01*
X160785714Y-101482142D01*
X160642857Y-101446428D01*
X160571428Y-101410714D01*
X160535714Y-101375000D01*
X160500000Y-101303571D01*
X160500000Y-101232142D01*
X160535714Y-101160714D01*
X160571428Y-101125000D01*
X160642857Y-101089285D01*
X160821428Y-101089285D01*
X160928571Y-101125000D01*
X161178571Y-101089285D02*
X161357142Y-101839285D01*
X161500000Y-101303571D01*
X161642857Y-101839285D01*
X161821428Y-101089285D01*
X162464285Y-101089285D02*
X162107142Y-101089285D01*
X162071428Y-101446428D01*
X162107142Y-101410714D01*
X162178571Y-101375000D01*
X162357142Y-101375000D01*
X162428571Y-101410714D01*
X162464285Y-101446428D01*
X162500000Y-101517857D01*
X162500000Y-101696428D01*
X162464285Y-101767857D01*
X162428571Y-101803571D01*
X162357142Y-101839285D01*
X162178571Y-101839285D01*
X162107142Y-101803571D01*
X162071428Y-101767857D01*
X141500000Y-101803571D02*
X141607142Y-101839285D01*
X141785714Y-101839285D01*
X141857142Y-101803571D01*
X141892857Y-101767857D01*
X141928571Y-101696428D01*
X141928571Y-101625000D01*
X141892857Y-101553571D01*
X141857142Y-101517857D01*
X141785714Y-101482142D01*
X141642857Y-101446428D01*
X141571428Y-101410714D01*
X141535714Y-101375000D01*
X141500000Y-101303571D01*
X141500000Y-101232142D01*
X141535714Y-101160714D01*
X141571428Y-101125000D01*
X141642857Y-101089285D01*
X141821428Y-101089285D01*
X141928571Y-101125000D01*
X142178571Y-101089285D02*
X142357142Y-101839285D01*
X142500000Y-101303571D01*
X142642857Y-101839285D01*
X142821428Y-101089285D01*
X143428571Y-101339285D02*
X143428571Y-101839285D01*
X143250000Y-101053571D02*
X143071428Y-101589285D01*
X143535714Y-101589285D01*
X122500000Y-101803571D02*
X122607142Y-101839285D01*
X122785714Y-101839285D01*
X122857142Y-101803571D01*
X122892857Y-101767857D01*
X122928571Y-101696428D01*
X122928571Y-101625000D01*
X122892857Y-101553571D01*
X122857142Y-101517857D01*
X122785714Y-101482142D01*
X122642857Y-101446428D01*
X122571428Y-101410714D01*
X122535714Y-101375000D01*
X122500000Y-101303571D01*
X122500000Y-101232142D01*
X122535714Y-101160714D01*
X122571428Y-101125000D01*
X122642857Y-101089285D01*
X122821428Y-101089285D01*
X122928571Y-101125000D01*
X123178571Y-101089285D02*
X123357142Y-101839285D01*
X123500000Y-101303571D01*
X123642857Y-101839285D01*
X123821428Y-101089285D01*
X124035714Y-101089285D02*
X124500000Y-101089285D01*
X124250000Y-101375000D01*
X124357142Y-101375000D01*
X124428571Y-101410714D01*
X124464285Y-101446428D01*
X124500000Y-101517857D01*
X124500000Y-101696428D01*
X124464285Y-101767857D01*
X124428571Y-101803571D01*
X124357142Y-101839285D01*
X124142857Y-101839285D01*
X124071428Y-101803571D01*
X124035714Y-101767857D01*
X103500000Y-101803571D02*
X103607142Y-101839285D01*
X103785714Y-101839285D01*
X103857142Y-101803571D01*
X103892857Y-101767857D01*
X103928571Y-101696428D01*
X103928571Y-101625000D01*
X103892857Y-101553571D01*
X103857142Y-101517857D01*
X103785714Y-101482142D01*
X103642857Y-101446428D01*
X103571428Y-101410714D01*
X103535714Y-101375000D01*
X103500000Y-101303571D01*
X103500000Y-101232142D01*
X103535714Y-101160714D01*
X103571428Y-101125000D01*
X103642857Y-101089285D01*
X103821428Y-101089285D01*
X103928571Y-101125000D01*
X104178571Y-101089285D02*
X104357142Y-101839285D01*
X104500000Y-101303571D01*
X104642857Y-101839285D01*
X104821428Y-101089285D01*
X105071428Y-101160714D02*
X105107142Y-101125000D01*
X105178571Y-101089285D01*
X105357142Y-101089285D01*
X105428571Y-101125000D01*
X105464285Y-101160714D01*
X105500000Y-101232142D01*
X105500000Y-101303571D01*
X105464285Y-101410714D01*
X105035714Y-101839285D01*
X105500000Y-101839285D01*
X84500000Y-101803571D02*
X84607142Y-101839285D01*
X84785714Y-101839285D01*
X84857142Y-101803571D01*
X84892857Y-101767857D01*
X84928571Y-101696428D01*
X84928571Y-101625000D01*
X84892857Y-101553571D01*
X84857142Y-101517857D01*
X84785714Y-101482142D01*
X84642857Y-101446428D01*
X84571428Y-101410714D01*
X84535714Y-101375000D01*
X84500000Y-101303571D01*
X84500000Y-101232142D01*
X84535714Y-101160714D01*
X84571428Y-101125000D01*
X84642857Y-101089285D01*
X84821428Y-101089285D01*
X84928571Y-101125000D01*
X85178571Y-101089285D02*
X85357142Y-101839285D01*
X85500000Y-101303571D01*
X85642857Y-101839285D01*
X85821428Y-101089285D01*
X86500000Y-101839285D02*
X86071428Y-101839285D01*
X86285714Y-101839285D02*
X86285714Y-101089285D01*
X86214285Y-101196428D01*
X86142857Y-101267857D01*
X86071428Y-101303571D01*
X208428571Y-106239285D02*
X208428571Y-106846428D01*
X208464285Y-106917857D01*
X208500000Y-106953571D01*
X208571428Y-106989285D01*
X208714285Y-106989285D01*
X208785714Y-106953571D01*
X208821428Y-106917857D01*
X208857142Y-106846428D01*
X208857142Y-106239285D01*
X209607142Y-106989285D02*
X209178571Y-106989285D01*
X209392857Y-106989285D02*
X209392857Y-106239285D01*
X209321428Y-106346428D01*
X209250000Y-106417857D01*
X209178571Y-106453571D01*
X203326071Y-124376428D02*
X203433214Y-124412142D01*
X203468928Y-124447857D01*
X203504642Y-124519285D01*
X203504642Y-124626428D01*
X203468928Y-124697857D01*
X203433214Y-124733571D01*
X203361785Y-124769285D01*
X203076071Y-124769285D01*
X203076071Y-124019285D01*
X203326071Y-124019285D01*
X203397500Y-124055000D01*
X203433214Y-124090714D01*
X203468928Y-124162142D01*
X203468928Y-124233571D01*
X203433214Y-124305000D01*
X203397500Y-124340714D01*
X203326071Y-124376428D01*
X203076071Y-124376428D01*
X203790357Y-124090714D02*
X203826071Y-124055000D01*
X203897500Y-124019285D01*
X204076071Y-124019285D01*
X204147500Y-124055000D01*
X204183214Y-124090714D01*
X204218928Y-124162142D01*
X204218928Y-124233571D01*
X204183214Y-124340714D01*
X203754642Y-124769285D01*
X204218928Y-124769285D01*
X203326071Y-116756428D02*
X203076071Y-116756428D01*
X203076071Y-117149285D02*
X203076071Y-116399285D01*
X203433214Y-116399285D01*
X203647500Y-116399285D02*
X204147500Y-116399285D01*
X203826071Y-117149285D01*
X203326071Y-114216428D02*
X203076071Y-114216428D01*
X203076071Y-114609285D02*
X203076071Y-113859285D01*
X203433214Y-113859285D01*
X204040357Y-113859285D02*
X203897500Y-113859285D01*
X203826071Y-113895000D01*
X203790357Y-113930714D01*
X203718928Y-114037857D01*
X203683214Y-114180714D01*
X203683214Y-114466428D01*
X203718928Y-114537857D01*
X203754642Y-114573571D01*
X203826071Y-114609285D01*
X203968928Y-114609285D01*
X204040357Y-114573571D01*
X204076071Y-114537857D01*
X204111785Y-114466428D01*
X204111785Y-114287857D01*
X204076071Y-114216428D01*
X204040357Y-114180714D01*
X203968928Y-114145000D01*
X203826071Y-114145000D01*
X203754642Y-114180714D01*
X203718928Y-114216428D01*
X203683214Y-114287857D01*
X203326071Y-111676428D02*
X203076071Y-111676428D01*
X203076071Y-112069285D02*
X203076071Y-111319285D01*
X203433214Y-111319285D01*
X204076071Y-111319285D02*
X203718928Y-111319285D01*
X203683214Y-111676428D01*
X203718928Y-111640714D01*
X203790357Y-111605000D01*
X203968928Y-111605000D01*
X204040357Y-111640714D01*
X204076071Y-111676428D01*
X204111785Y-111747857D01*
X204111785Y-111926428D01*
X204076071Y-111997857D01*
X204040357Y-112033571D01*
X203968928Y-112069285D01*
X203790357Y-112069285D01*
X203718928Y-112033571D01*
X203683214Y-111997857D01*
X203504642Y-99369285D02*
X203254642Y-99012142D01*
X203076071Y-99369285D02*
X203076071Y-98619285D01*
X203361785Y-98619285D01*
X203433214Y-98655000D01*
X203468928Y-98690714D01*
X203504642Y-98762142D01*
X203504642Y-98869285D01*
X203468928Y-98940714D01*
X203433214Y-98976428D01*
X203361785Y-99012142D01*
X203076071Y-99012142D01*
X203790357Y-99155000D02*
X204147500Y-99155000D01*
X203718928Y-99369285D02*
X203968928Y-98619285D01*
X204218928Y-99369285D01*
X204397500Y-98619285D02*
X204576071Y-99369285D01*
X204718928Y-98833571D01*
X204861785Y-99369285D01*
X205040357Y-98619285D01*
X203468928Y-101195000D02*
X203397500Y-101159285D01*
X203290357Y-101159285D01*
X203183214Y-101195000D01*
X203111785Y-101266428D01*
X203076071Y-101337857D01*
X203040357Y-101480714D01*
X203040357Y-101587857D01*
X203076071Y-101730714D01*
X203111785Y-101802142D01*
X203183214Y-101873571D01*
X203290357Y-101909285D01*
X203361785Y-101909285D01*
X203468928Y-101873571D01*
X203504642Y-101837857D01*
X203504642Y-101587857D01*
X203361785Y-101587857D01*
X203826071Y-101909285D02*
X203826071Y-101159285D01*
X204254642Y-101909285D01*
X204254642Y-101159285D01*
X204611785Y-101909285D02*
X204611785Y-101159285D01*
X204790357Y-101159285D01*
X204897500Y-101195000D01*
X204968928Y-101266428D01*
X205004642Y-101337857D01*
X205040357Y-101480714D01*
X205040357Y-101587857D01*
X205004642Y-101730714D01*
X204968928Y-101802142D01*
X204897500Y-101873571D01*
X204790357Y-101909285D01*
X204611785Y-101909285D01*
X202968928Y-106239285D02*
X203218928Y-106989285D01*
X203468928Y-106239285D01*
X204147500Y-106917857D02*
X204111785Y-106953571D01*
X204004642Y-106989285D01*
X203933214Y-106989285D01*
X203826071Y-106953571D01*
X203754642Y-106882142D01*
X203718928Y-106810714D01*
X203683214Y-106667857D01*
X203683214Y-106560714D01*
X203718928Y-106417857D01*
X203754642Y-106346428D01*
X203826071Y-106275000D01*
X203933214Y-106239285D01*
X204004642Y-106239285D01*
X204111785Y-106275000D01*
X204147500Y-106310714D01*
X204897500Y-106917857D02*
X204861785Y-106953571D01*
X204754642Y-106989285D01*
X204683214Y-106989285D01*
X204576071Y-106953571D01*
X204504642Y-106882142D01*
X204468928Y-106810714D01*
X204433214Y-106667857D01*
X204433214Y-106560714D01*
X204468928Y-106417857D01*
X204504642Y-106346428D01*
X204576071Y-106275000D01*
X204683214Y-106239285D01*
X204754642Y-106239285D01*
X204861785Y-106275000D01*
X204897500Y-106310714D01*
X203326071Y-109136428D02*
X203076071Y-109136428D01*
X203076071Y-109529285D02*
X203076071Y-108779285D01*
X203433214Y-108779285D01*
X204040357Y-109029285D02*
X204040357Y-109529285D01*
X203861785Y-108743571D02*
X203683214Y-109279285D01*
X204147500Y-109279285D01*
X203326071Y-119296428D02*
X203433214Y-119332142D01*
X203468928Y-119367857D01*
X203504642Y-119439285D01*
X203504642Y-119546428D01*
X203468928Y-119617857D01*
X203433214Y-119653571D01*
X203361785Y-119689285D01*
X203076071Y-119689285D01*
X203076071Y-118939285D01*
X203326071Y-118939285D01*
X203397500Y-118975000D01*
X203433214Y-119010714D01*
X203468928Y-119082142D01*
X203468928Y-119153571D01*
X203433214Y-119225000D01*
X203397500Y-119260714D01*
X203326071Y-119296428D01*
X203076071Y-119296428D01*
X204218928Y-119689285D02*
X203790357Y-119689285D01*
X204004642Y-119689285D02*
X204004642Y-118939285D01*
X203933214Y-119046428D01*
X203861785Y-119117857D01*
X203790357Y-119153571D01*
X203326071Y-121836428D02*
X203433214Y-121872142D01*
X203468928Y-121907857D01*
X203504642Y-121979285D01*
X203504642Y-122086428D01*
X203468928Y-122157857D01*
X203433214Y-122193571D01*
X203361785Y-122229285D01*
X203076071Y-122229285D01*
X203076071Y-121479285D01*
X203326071Y-121479285D01*
X203397500Y-121515000D01*
X203433214Y-121550714D01*
X203468928Y-121622142D01*
X203468928Y-121693571D01*
X203433214Y-121765000D01*
X203397500Y-121800714D01*
X203326071Y-121836428D01*
X203076071Y-121836428D01*
X203754642Y-121479285D02*
X204218928Y-121479285D01*
X203968928Y-121765000D01*
X204076071Y-121765000D01*
X204147500Y-121800714D01*
X204183214Y-121836428D01*
X204218928Y-121907857D01*
X204218928Y-122086428D01*
X204183214Y-122157857D01*
X204147500Y-122193571D01*
X204076071Y-122229285D01*
X203861785Y-122229285D01*
X203790357Y-122193571D01*
X203754642Y-122157857D01*
X203326071Y-126916428D02*
X203433214Y-126952142D01*
X203468928Y-126987857D01*
X203504642Y-127059285D01*
X203504642Y-127166428D01*
X203468928Y-127237857D01*
X203433214Y-127273571D01*
X203361785Y-127309285D01*
X203076071Y-127309285D01*
X203076071Y-126559285D01*
X203326071Y-126559285D01*
X203397500Y-126595000D01*
X203433214Y-126630714D01*
X203468928Y-126702142D01*
X203468928Y-126773571D01*
X203433214Y-126845000D01*
X203397500Y-126880714D01*
X203326071Y-126916428D01*
X203076071Y-126916428D01*
X204147500Y-126559285D02*
X204004642Y-126559285D01*
X203933214Y-126595000D01*
X203897500Y-126630714D01*
X203826071Y-126737857D01*
X203790357Y-126880714D01*
X203790357Y-127166428D01*
X203826071Y-127237857D01*
X203861785Y-127273571D01*
X203933214Y-127309285D01*
X204076071Y-127309285D01*
X204147500Y-127273571D01*
X204183214Y-127237857D01*
X204218928Y-127166428D01*
X204218928Y-126987857D01*
X204183214Y-126916428D01*
X204147500Y-126880714D01*
X204076071Y-126845000D01*
X203933214Y-126845000D01*
X203861785Y-126880714D01*
X203826071Y-126916428D01*
X203790357Y-126987857D01*
X214066785Y-126916428D02*
X214173928Y-126952142D01*
X214209642Y-126987857D01*
X214245357Y-127059285D01*
X214245357Y-127166428D01*
X214209642Y-127237857D01*
X214173928Y-127273571D01*
X214102500Y-127309285D01*
X213816785Y-127309285D01*
X213816785Y-126559285D01*
X214066785Y-126559285D01*
X214138214Y-126595000D01*
X214173928Y-126630714D01*
X214209642Y-126702142D01*
X214209642Y-126773571D01*
X214173928Y-126845000D01*
X214138214Y-126880714D01*
X214066785Y-126916428D01*
X213816785Y-126916428D01*
X214923928Y-126559285D02*
X214566785Y-126559285D01*
X214531071Y-126916428D01*
X214566785Y-126880714D01*
X214638214Y-126845000D01*
X214816785Y-126845000D01*
X214888214Y-126880714D01*
X214923928Y-126916428D01*
X214959642Y-126987857D01*
X214959642Y-127166428D01*
X214923928Y-127237857D01*
X214888214Y-127273571D01*
X214816785Y-127309285D01*
X214638214Y-127309285D01*
X214566785Y-127273571D01*
X214531071Y-127237857D01*
X214066785Y-124376428D02*
X214173928Y-124412142D01*
X214209642Y-124447857D01*
X214245357Y-124519285D01*
X214245357Y-124626428D01*
X214209642Y-124697857D01*
X214173928Y-124733571D01*
X214102500Y-124769285D01*
X213816785Y-124769285D01*
X213816785Y-124019285D01*
X214066785Y-124019285D01*
X214138214Y-124055000D01*
X214173928Y-124090714D01*
X214209642Y-124162142D01*
X214209642Y-124233571D01*
X214173928Y-124305000D01*
X214138214Y-124340714D01*
X214066785Y-124376428D01*
X213816785Y-124376428D01*
X214888214Y-124269285D02*
X214888214Y-124769285D01*
X214709642Y-123983571D02*
X214531071Y-124519285D01*
X214995357Y-124519285D01*
X213888214Y-121836428D02*
X214138214Y-121836428D01*
X214245357Y-122229285D02*
X213888214Y-122229285D01*
X213888214Y-121479285D01*
X214245357Y-121479285D01*
X214888214Y-121479285D02*
X214745357Y-121479285D01*
X214673928Y-121515000D01*
X214638214Y-121550714D01*
X214566785Y-121657857D01*
X214531071Y-121800714D01*
X214531071Y-122086428D01*
X214566785Y-122157857D01*
X214602500Y-122193571D01*
X214673928Y-122229285D01*
X214816785Y-122229285D01*
X214888214Y-122193571D01*
X214923928Y-122157857D01*
X214959642Y-122086428D01*
X214959642Y-121907857D01*
X214923928Y-121836428D01*
X214888214Y-121800714D01*
X214816785Y-121765000D01*
X214673928Y-121765000D01*
X214602500Y-121800714D01*
X214566785Y-121836428D01*
X214531071Y-121907857D01*
X213816785Y-119689285D02*
X213816785Y-118939285D01*
X213995357Y-118939285D01*
X214102500Y-118975000D01*
X214173928Y-119046428D01*
X214209642Y-119117857D01*
X214245357Y-119260714D01*
X214245357Y-119367857D01*
X214209642Y-119510714D01*
X214173928Y-119582142D01*
X214102500Y-119653571D01*
X213995357Y-119689285D01*
X213816785Y-119689285D01*
X214495357Y-118939285D02*
X214995357Y-118939285D01*
X214673928Y-119689285D01*
X214245357Y-117077857D02*
X214209642Y-117113571D01*
X214102500Y-117149285D01*
X214031071Y-117149285D01*
X213923928Y-117113571D01*
X213852500Y-117042142D01*
X213816785Y-116970714D01*
X213781071Y-116827857D01*
X213781071Y-116720714D01*
X213816785Y-116577857D01*
X213852500Y-116506428D01*
X213923928Y-116435000D01*
X214031071Y-116399285D01*
X214102500Y-116399285D01*
X214209642Y-116435000D01*
X214245357Y-116470714D01*
X214888214Y-116399285D02*
X214745357Y-116399285D01*
X214673928Y-116435000D01*
X214638214Y-116470714D01*
X214566785Y-116577857D01*
X214531071Y-116720714D01*
X214531071Y-117006428D01*
X214566785Y-117077857D01*
X214602500Y-117113571D01*
X214673928Y-117149285D01*
X214816785Y-117149285D01*
X214888214Y-117113571D01*
X214923928Y-117077857D01*
X214959642Y-117006428D01*
X214959642Y-116827857D01*
X214923928Y-116756428D01*
X214888214Y-116720714D01*
X214816785Y-116685000D01*
X214673928Y-116685000D01*
X214602500Y-116720714D01*
X214566785Y-116756428D01*
X214531071Y-116827857D01*
X213816785Y-114609285D02*
X213816785Y-113859285D01*
X213995357Y-113859285D01*
X214102500Y-113895000D01*
X214173928Y-113966428D01*
X214209642Y-114037857D01*
X214245357Y-114180714D01*
X214245357Y-114287857D01*
X214209642Y-114430714D01*
X214173928Y-114502142D01*
X214102500Y-114573571D01*
X213995357Y-114609285D01*
X213816785Y-114609285D01*
X214888214Y-114109285D02*
X214888214Y-114609285D01*
X214709642Y-113823571D02*
X214531071Y-114359285D01*
X214995357Y-114359285D01*
X213388214Y-103735000D02*
X213316785Y-103699285D01*
X213209642Y-103699285D01*
X213102500Y-103735000D01*
X213031071Y-103806428D01*
X212995357Y-103877857D01*
X212959642Y-104020714D01*
X212959642Y-104127857D01*
X212995357Y-104270714D01*
X213031071Y-104342142D01*
X213102500Y-104413571D01*
X213209642Y-104449285D01*
X213281071Y-104449285D01*
X213388214Y-104413571D01*
X213423928Y-104377857D01*
X213423928Y-104127857D01*
X213281071Y-104127857D01*
X213745357Y-104449285D02*
X213745357Y-103699285D01*
X214173928Y-104449285D01*
X214173928Y-103699285D01*
X214531071Y-104449285D02*
X214531071Y-103699285D01*
X214709642Y-103699285D01*
X214816785Y-103735000D01*
X214888214Y-103806428D01*
X214923928Y-103877857D01*
X214959642Y-104020714D01*
X214959642Y-104127857D01*
X214923928Y-104270714D01*
X214888214Y-104342142D01*
X214816785Y-104413571D01*
X214709642Y-104449285D01*
X214531071Y-104449285D01*
X213388214Y-106275000D02*
X213316785Y-106239285D01*
X213209642Y-106239285D01*
X213102500Y-106275000D01*
X213031071Y-106346428D01*
X212995357Y-106417857D01*
X212959642Y-106560714D01*
X212959642Y-106667857D01*
X212995357Y-106810714D01*
X213031071Y-106882142D01*
X213102500Y-106953571D01*
X213209642Y-106989285D01*
X213281071Y-106989285D01*
X213388214Y-106953571D01*
X213423928Y-106917857D01*
X213423928Y-106667857D01*
X213281071Y-106667857D01*
X213745357Y-106989285D02*
X213745357Y-106239285D01*
X214173928Y-106989285D01*
X214173928Y-106239285D01*
X214531071Y-106989285D02*
X214531071Y-106239285D01*
X214709642Y-106239285D01*
X214816785Y-106275000D01*
X214888214Y-106346428D01*
X214923928Y-106417857D01*
X214959642Y-106560714D01*
X214959642Y-106667857D01*
X214923928Y-106810714D01*
X214888214Y-106882142D01*
X214816785Y-106953571D01*
X214709642Y-106989285D01*
X214531071Y-106989285D01*
X213816785Y-109529285D02*
X213816785Y-108779285D01*
X213995357Y-108779285D01*
X214102500Y-108815000D01*
X214173928Y-108886428D01*
X214209642Y-108957857D01*
X214245357Y-109100714D01*
X214245357Y-109207857D01*
X214209642Y-109350714D01*
X214173928Y-109422142D01*
X214102500Y-109493571D01*
X213995357Y-109529285D01*
X213816785Y-109529285D01*
X214959642Y-109529285D02*
X214531071Y-109529285D01*
X214745357Y-109529285D02*
X214745357Y-108779285D01*
X214673928Y-108886428D01*
X214602500Y-108957857D01*
X214531071Y-108993571D01*
X213816785Y-112069285D02*
X213816785Y-111319285D01*
X213995357Y-111319285D01*
X214102500Y-111355000D01*
X214173928Y-111426428D01*
X214209642Y-111497857D01*
X214245357Y-111640714D01*
X214245357Y-111747857D01*
X214209642Y-111890714D01*
X214173928Y-111962142D01*
X214102500Y-112033571D01*
X213995357Y-112069285D01*
X213816785Y-112069285D01*
X214709642Y-111319285D02*
X214781071Y-111319285D01*
X214852500Y-111355000D01*
X214888214Y-111390714D01*
X214923928Y-111462142D01*
X214959642Y-111605000D01*
X214959642Y-111783571D01*
X214923928Y-111926428D01*
X214888214Y-111997857D01*
X214852500Y-112033571D01*
X214781071Y-112069285D01*
X214709642Y-112069285D01*
X214638214Y-112033571D01*
X214602500Y-111997857D01*
X214566785Y-111926428D01*
X214531071Y-111783571D01*
X214531071Y-111605000D01*
X214566785Y-111462142D01*
X214602500Y-111390714D01*
X214638214Y-111355000D01*
X214709642Y-111319285D01*
X213816785Y-101909285D02*
X213816785Y-101159285D01*
X213995357Y-101159285D01*
X214102500Y-101195000D01*
X214173928Y-101266428D01*
X214209642Y-101337857D01*
X214245357Y-101480714D01*
X214245357Y-101587857D01*
X214209642Y-101730714D01*
X214173928Y-101802142D01*
X214102500Y-101873571D01*
X213995357Y-101909285D01*
X213816785Y-101909285D01*
X214531071Y-101230714D02*
X214566785Y-101195000D01*
X214638214Y-101159285D01*
X214816785Y-101159285D01*
X214888214Y-101195000D01*
X214923928Y-101230714D01*
X214959642Y-101302142D01*
X214959642Y-101373571D01*
X214923928Y-101480714D01*
X214495357Y-101909285D01*
X214959642Y-101909285D01*
X210923928Y-98619285D02*
X211352500Y-98619285D01*
X211138214Y-99369285D02*
X211138214Y-98619285D01*
X211531071Y-98619285D02*
X212031071Y-99369285D01*
X212031071Y-98619285D02*
X211531071Y-99369285D01*
X212459642Y-98619285D02*
X212531071Y-98619285D01*
X212602500Y-98655000D01*
X212638214Y-98690714D01*
X212673928Y-98762142D01*
X212709642Y-98905000D01*
X212709642Y-99083571D01*
X212673928Y-99226428D01*
X212638214Y-99297857D01*
X212602500Y-99333571D01*
X212531071Y-99369285D01*
X212459642Y-99369285D01*
X212388214Y-99333571D01*
X212352500Y-99297857D01*
X212316785Y-99226428D01*
X212281071Y-99083571D01*
X212281071Y-98905000D01*
X212316785Y-98762142D01*
X212352500Y-98690714D01*
X212388214Y-98655000D01*
X212459642Y-98619285D01*
X213566785Y-98583571D02*
X212923928Y-99547857D01*
X213816785Y-99369285D02*
X213816785Y-98619285D01*
X213995357Y-98619285D01*
X214102500Y-98655000D01*
X214173928Y-98726428D01*
X214209642Y-98797857D01*
X214245357Y-98940714D01*
X214245357Y-99047857D01*
X214209642Y-99190714D01*
X214173928Y-99262142D01*
X214102500Y-99333571D01*
X213995357Y-99369285D01*
X213816785Y-99369285D01*
X214495357Y-98619285D02*
X214959642Y-98619285D01*
X214709642Y-98905000D01*
X214816785Y-98905000D01*
X214888214Y-98940714D01*
X214923928Y-98976428D01*
X214959642Y-99047857D01*
X214959642Y-99226428D01*
X214923928Y-99297857D01*
X214888214Y-99333571D01*
X214816785Y-99369285D01*
X214602500Y-99369285D01*
X214531071Y-99333571D01*
X214495357Y-99297857D01*
X203504642Y-104449285D02*
X203254642Y-104092142D01*
X203076071Y-104449285D02*
X203076071Y-103699285D01*
X203361785Y-103699285D01*
X203433214Y-103735000D01*
X203468928Y-103770714D01*
X203504642Y-103842142D01*
X203504642Y-103949285D01*
X203468928Y-104020714D01*
X203433214Y-104056428D01*
X203361785Y-104092142D01*
X203076071Y-104092142D01*
X203790357Y-104413571D02*
X203897500Y-104449285D01*
X204076071Y-104449285D01*
X204147500Y-104413571D01*
X204183214Y-104377857D01*
X204218928Y-104306428D01*
X204218928Y-104235000D01*
X204183214Y-104163571D01*
X204147500Y-104127857D01*
X204076071Y-104092142D01*
X203933214Y-104056428D01*
X203861785Y-104020714D01*
X203826071Y-103985000D01*
X203790357Y-103913571D01*
X203790357Y-103842142D01*
X203826071Y-103770714D01*
X203861785Y-103735000D01*
X203933214Y-103699285D01*
X204111785Y-103699285D01*
X204218928Y-103735000D01*
X204433214Y-103699285D02*
X204861785Y-103699285D01*
X204647500Y-104449285D02*
X204647500Y-103699285D01*
%LPC*%
D12*
X197250000Y-117250000D03*
X192750000Y-117250000D03*
X197250000Y-110750000D03*
X192750000Y-110750000D03*
D13*
X327420000Y-161500000D03*
X337580000Y-161500000D03*
D14*
X328690000Y-158960000D03*
D15*
X332500000Y-161500000D03*
D14*
X335040000Y-156420000D03*
D13*
X308420000Y-161500000D03*
X318580000Y-161500000D03*
D14*
X309690000Y-158960000D03*
D15*
X313500000Y-161500000D03*
D14*
X316040000Y-156420000D03*
D13*
X289420000Y-161500000D03*
X299580000Y-161500000D03*
D14*
X290690000Y-158960000D03*
D15*
X294500000Y-161500000D03*
D14*
X297040000Y-156420000D03*
D13*
X270420000Y-161500000D03*
X280580000Y-161500000D03*
D14*
X271690000Y-158960000D03*
D15*
X275500000Y-161500000D03*
D14*
X278040000Y-156420000D03*
D13*
X251420000Y-161500000D03*
X261580000Y-161500000D03*
D14*
X252690000Y-158960000D03*
D15*
X256500000Y-161500000D03*
D14*
X259040000Y-156420000D03*
D13*
X232420000Y-161500000D03*
X242580000Y-161500000D03*
D14*
X233690000Y-158960000D03*
D15*
X237500000Y-161500000D03*
D14*
X240040000Y-156420000D03*
D13*
X213420000Y-161500000D03*
X223580000Y-161500000D03*
D14*
X214690000Y-158960000D03*
D15*
X218500000Y-161500000D03*
D14*
X221040000Y-156420000D03*
D13*
X194420000Y-161500000D03*
X204580000Y-161500000D03*
D14*
X195690000Y-158960000D03*
D15*
X199500000Y-161500000D03*
D14*
X202040000Y-156420000D03*
D13*
X175420000Y-161500000D03*
X185580000Y-161500000D03*
D14*
X176690000Y-158960000D03*
D15*
X180500000Y-161500000D03*
D14*
X183040000Y-156420000D03*
D13*
X156420000Y-161500000D03*
X166580000Y-161500000D03*
D14*
X157690000Y-158960000D03*
D15*
X161500000Y-161500000D03*
D14*
X164040000Y-156420000D03*
D13*
X137420000Y-161500000D03*
X147580000Y-161500000D03*
D14*
X138690000Y-158960000D03*
D15*
X142500000Y-161500000D03*
D14*
X145040000Y-156420000D03*
D13*
X118420000Y-161500000D03*
X128580000Y-161500000D03*
D14*
X119690000Y-158960000D03*
D15*
X123500000Y-161500000D03*
D14*
X126040000Y-156420000D03*
D13*
X99420000Y-161500000D03*
X109580000Y-161500000D03*
D14*
X100690000Y-158960000D03*
D15*
X104500000Y-161500000D03*
D14*
X107040000Y-156420000D03*
D13*
X80420000Y-161500000D03*
X90580000Y-161500000D03*
D14*
X81690000Y-158960000D03*
D15*
X85500000Y-161500000D03*
D14*
X88040000Y-156420000D03*
D13*
X327420000Y-142500000D03*
X337580000Y-142500000D03*
D14*
X328690000Y-139960000D03*
D15*
X332500000Y-142500000D03*
D14*
X335040000Y-137420000D03*
D13*
X308420000Y-142500000D03*
X318580000Y-142500000D03*
D14*
X309690000Y-139960000D03*
D15*
X313500000Y-142500000D03*
D14*
X316040000Y-137420000D03*
D13*
X289420000Y-142500000D03*
X299580000Y-142500000D03*
D14*
X290690000Y-139960000D03*
D15*
X294500000Y-142500000D03*
D14*
X297040000Y-137420000D03*
D13*
X270420000Y-142500000D03*
X280580000Y-142500000D03*
D14*
X271690000Y-139960000D03*
D15*
X275500000Y-142500000D03*
D14*
X278040000Y-137420000D03*
D13*
X251420000Y-142500000D03*
X261580000Y-142500000D03*
D14*
X252690000Y-139960000D03*
D15*
X256500000Y-142500000D03*
D14*
X259040000Y-137420000D03*
D13*
X232420000Y-142500000D03*
X242580000Y-142500000D03*
D14*
X233690000Y-139960000D03*
D15*
X237500000Y-142500000D03*
D14*
X240040000Y-137420000D03*
D13*
X213420000Y-142500000D03*
X223580000Y-142500000D03*
D14*
X214690000Y-139960000D03*
D15*
X218500000Y-142500000D03*
D14*
X221040000Y-137420000D03*
D13*
X194420000Y-142500000D03*
X204580000Y-142500000D03*
D14*
X195690000Y-139960000D03*
D15*
X199500000Y-142500000D03*
D14*
X202040000Y-137420000D03*
D13*
X175420000Y-142500000D03*
X185580000Y-142500000D03*
D14*
X176690000Y-139960000D03*
D15*
X180500000Y-142500000D03*
D14*
X183040000Y-137420000D03*
D13*
X156420000Y-142500000D03*
X166580000Y-142500000D03*
D14*
X157690000Y-139960000D03*
D15*
X161500000Y-142500000D03*
D14*
X164040000Y-137420000D03*
D13*
X137420000Y-142500000D03*
X147580000Y-142500000D03*
D14*
X138690000Y-139960000D03*
D15*
X142500000Y-142500000D03*
D14*
X145040000Y-137420000D03*
D13*
X118420000Y-142500000D03*
X128580000Y-142500000D03*
D14*
X119690000Y-139960000D03*
D15*
X123500000Y-142500000D03*
D14*
X126040000Y-137420000D03*
D13*
X99420000Y-142500000D03*
X109580000Y-142500000D03*
D14*
X100690000Y-139960000D03*
D15*
X104500000Y-142500000D03*
D14*
X107040000Y-137420000D03*
D13*
X80420000Y-142500000D03*
X90580000Y-142500000D03*
D14*
X81690000Y-139960000D03*
D15*
X85500000Y-142500000D03*
D14*
X88040000Y-137420000D03*
D13*
X327420000Y-123500000D03*
X337580000Y-123500000D03*
D14*
X328690000Y-120960000D03*
D15*
X332500000Y-123500000D03*
D14*
X335040000Y-118420000D03*
D13*
X308420000Y-123500000D03*
X318580000Y-123500000D03*
D14*
X309690000Y-120960000D03*
D15*
X313500000Y-123500000D03*
D14*
X316040000Y-118420000D03*
D13*
X289420000Y-123500000D03*
X299580000Y-123500000D03*
D14*
X290690000Y-120960000D03*
D15*
X294500000Y-123500000D03*
D14*
X297040000Y-118420000D03*
D13*
X270420000Y-123500000D03*
X280580000Y-123500000D03*
D14*
X271690000Y-120960000D03*
D15*
X275500000Y-123500000D03*
D14*
X278040000Y-118420000D03*
D13*
X251420000Y-123500000D03*
X261580000Y-123500000D03*
D14*
X252690000Y-120960000D03*
D15*
X256500000Y-123500000D03*
D14*
X259040000Y-118420000D03*
D13*
X232420000Y-123500000D03*
X242580000Y-123500000D03*
D14*
X233690000Y-120960000D03*
D15*
X237500000Y-123500000D03*
D14*
X240040000Y-118420000D03*
D13*
X175420000Y-123500000D03*
X185580000Y-123500000D03*
D14*
X176690000Y-120960000D03*
D15*
X180500000Y-123500000D03*
D14*
X183040000Y-118420000D03*
D13*
X156420000Y-123500000D03*
X166580000Y-123500000D03*
D14*
X157690000Y-120960000D03*
D15*
X161500000Y-123500000D03*
D14*
X164040000Y-118420000D03*
D13*
X137420000Y-123500000D03*
X147580000Y-123500000D03*
D14*
X138690000Y-120960000D03*
D15*
X142500000Y-123500000D03*
D14*
X145040000Y-118420000D03*
D13*
X118420000Y-123500000D03*
X128580000Y-123500000D03*
D14*
X119690000Y-120960000D03*
D15*
X123500000Y-123500000D03*
D14*
X126040000Y-118420000D03*
D13*
X99420000Y-123500000D03*
X109580000Y-123500000D03*
D14*
X100690000Y-120960000D03*
D15*
X104500000Y-123500000D03*
D14*
X107040000Y-118420000D03*
D13*
X80420000Y-123500000D03*
X90580000Y-123500000D03*
D14*
X81690000Y-120960000D03*
D15*
X85500000Y-123500000D03*
D14*
X88040000Y-118420000D03*
D13*
X327420000Y-104500000D03*
X337580000Y-104500000D03*
D14*
X328690000Y-101960000D03*
D15*
X332500000Y-104500000D03*
D14*
X335040000Y-99420000D03*
D13*
X308420000Y-104500000D03*
X318580000Y-104500000D03*
D14*
X309690000Y-101960000D03*
D15*
X313500000Y-104500000D03*
D14*
X316040000Y-99420000D03*
D13*
X289420000Y-104500000D03*
X299580000Y-104500000D03*
D14*
X290690000Y-101960000D03*
D15*
X294500000Y-104500000D03*
D14*
X297040000Y-99420000D03*
D13*
X270420000Y-104500000D03*
X280580000Y-104500000D03*
D14*
X271690000Y-101960000D03*
D15*
X275500000Y-104500000D03*
D14*
X278040000Y-99420000D03*
D13*
X251420000Y-104500000D03*
X261580000Y-104500000D03*
D14*
X252690000Y-101960000D03*
D15*
X256500000Y-104500000D03*
D14*
X259040000Y-99420000D03*
D13*
X232420000Y-104500000D03*
X242580000Y-104500000D03*
D14*
X233690000Y-101960000D03*
D15*
X237500000Y-104500000D03*
D14*
X240040000Y-99420000D03*
D13*
X175420000Y-104500000D03*
X185580000Y-104500000D03*
D14*
X176690000Y-101960000D03*
D15*
X180500000Y-104500000D03*
D14*
X183040000Y-99420000D03*
D13*
X156420000Y-104500000D03*
X166580000Y-104500000D03*
D14*
X157690000Y-101960000D03*
D15*
X161500000Y-104500000D03*
D14*
X164040000Y-99420000D03*
D13*
X137420000Y-104500000D03*
X147580000Y-104500000D03*
D14*
X138690000Y-101960000D03*
D15*
X142500000Y-104500000D03*
D14*
X145040000Y-99420000D03*
D13*
X118420000Y-104500000D03*
X128580000Y-104500000D03*
D14*
X119690000Y-101960000D03*
D15*
X123500000Y-104500000D03*
D14*
X126040000Y-99420000D03*
D13*
X99420000Y-104500000D03*
X109580000Y-104500000D03*
D14*
X100690000Y-101960000D03*
D15*
X104500000Y-104500000D03*
D14*
X107040000Y-99420000D03*
D13*
X80420000Y-104500000D03*
X90580000Y-104500000D03*
D14*
X81690000Y-101960000D03*
D15*
X85500000Y-104500000D03*
D14*
X88040000Y-99420000D03*
D16*
X224166726Y-126833274D03*
X223000000Y-126350000D03*
X221833274Y-126833274D03*
X221350000Y-128000000D03*
X221833274Y-129166726D03*
X223000000Y-129650000D03*
X224166726Y-129166726D03*
X224650000Y-128000000D03*
D17*
X223000000Y-128000000D03*
D16*
X196166726Y-126833274D03*
X195000000Y-126350000D03*
X193833274Y-126833274D03*
X193350000Y-128000000D03*
X193833274Y-129166726D03*
X195000000Y-129650000D03*
X196166726Y-129166726D03*
X196650000Y-128000000D03*
D17*
X195000000Y-128000000D03*
D16*
X224166726Y-98833274D03*
X223000000Y-98350000D03*
X221833274Y-98833274D03*
X221350000Y-100000000D03*
X221833274Y-101166726D03*
X223000000Y-101650000D03*
X224166726Y-101166726D03*
X224650000Y-100000000D03*
D17*
X223000000Y-100000000D03*
D16*
X196166726Y-98833274D03*
X195000000Y-98350000D03*
X193833274Y-98833274D03*
X193350000Y-100000000D03*
X193833274Y-101166726D03*
X195000000Y-101650000D03*
X196166726Y-101166726D03*
X196650000Y-100000000D03*
D17*
X195000000Y-100000000D03*
D16*
X324166726Y-112833274D03*
X323000000Y-112350000D03*
X321833274Y-112833274D03*
X321350000Y-114000000D03*
X321833274Y-115166726D03*
X323000000Y-115650000D03*
X324166726Y-115166726D03*
X324650000Y-114000000D03*
D17*
X323000000Y-114000000D03*
D16*
X96166726Y-112833274D03*
X95000000Y-112350000D03*
X93833274Y-112833274D03*
X93350000Y-114000000D03*
X93833274Y-115166726D03*
X95000000Y-115650000D03*
X96166726Y-115166726D03*
X96650000Y-114000000D03*
D17*
X95000000Y-114000000D03*
D16*
X324166726Y-150833274D03*
X323000000Y-150350000D03*
X321833274Y-150833274D03*
X321350000Y-152000000D03*
X321833274Y-153166726D03*
X323000000Y-153650000D03*
X324166726Y-153166726D03*
X324650000Y-152000000D03*
D17*
X323000000Y-152000000D03*
D16*
X96166726Y-150833274D03*
X95000000Y-150350000D03*
X93833274Y-150833274D03*
X93350000Y-152000000D03*
X93833274Y-153166726D03*
X95000000Y-153650000D03*
X96166726Y-153166726D03*
X96650000Y-152000000D03*
D17*
X95000000Y-152000000D03*
D12*
X216620000Y-99030000D03*
X216620000Y-101570000D03*
X216620000Y-104110000D03*
X216620000Y-106650000D03*
X216620000Y-109190000D03*
X216620000Y-111730000D03*
X216620000Y-114270000D03*
X216620000Y-116810000D03*
X216620000Y-119350000D03*
X216620000Y-121890000D03*
X216620000Y-124430000D03*
X201380000Y-126970000D03*
X201380000Y-124430000D03*
X201380000Y-121890000D03*
X201380000Y-119350000D03*
X201380000Y-116810000D03*
X201380000Y-114270000D03*
X201380000Y-111730000D03*
X201380000Y-109190000D03*
X201380000Y-106650000D03*
X201380000Y-104110000D03*
X201380000Y-101570000D03*
X216620000Y-126970000D03*
X201380000Y-99030000D03*
M02*
