G04 #@! TF.GenerationSoftware,KiCad,Pcbnew,(5.1.4)-1*
G04 #@! TF.CreationDate,2021-09-19T22:16:23-04:00*
G04 #@! TF.ProjectId,horizon-choc-top-plate,686f7269-7a6f-46e2-9d63-686f632d746f,rev?*
G04 #@! TF.SameCoordinates,Original*
G04 #@! TF.FileFunction,Soldermask,Bot*
G04 #@! TF.FilePolarity,Negative*
%FSLAX46Y46*%
G04 Gerber Fmt 4.6, Leading zero omitted, Abs format (unit mm)*
G04 Created by KiCad (PCBNEW (5.1.4)-1) date 2021-09-19 22:16:23*
%MOMM*%
%LPD*%
G04 APERTURE LIST*
%ADD10C,0.100000*%
G04 APERTURE END LIST*
D10*
G36*
X188775880Y-122259776D02*
G01*
X189156593Y-122335504D01*
X189566249Y-122505189D01*
X189934929Y-122751534D01*
X190248466Y-123065071D01*
X190494811Y-123433751D01*
X190664496Y-123843407D01*
X190751000Y-124278296D01*
X190751000Y-124721704D01*
X190664496Y-125156593D01*
X190494811Y-125566249D01*
X190248466Y-125934929D01*
X189934929Y-126248466D01*
X189566249Y-126494811D01*
X189156593Y-126664496D01*
X188775880Y-126740224D01*
X188721705Y-126751000D01*
X188278295Y-126751000D01*
X188224120Y-126740224D01*
X187843407Y-126664496D01*
X187433751Y-126494811D01*
X187065071Y-126248466D01*
X186751534Y-125934929D01*
X186505189Y-125566249D01*
X186335504Y-125156593D01*
X186249000Y-124721704D01*
X186249000Y-124278296D01*
X186335504Y-123843407D01*
X186505189Y-123433751D01*
X186751534Y-123065071D01*
X187065071Y-122751534D01*
X187433751Y-122505189D01*
X187843407Y-122335504D01*
X188224120Y-122259776D01*
X188278295Y-122249000D01*
X188721705Y-122249000D01*
X188775880Y-122259776D01*
X188775880Y-122259776D01*
G37*
G36*
X215775880Y-122259776D02*
G01*
X216156593Y-122335504D01*
X216566249Y-122505189D01*
X216934929Y-122751534D01*
X217248466Y-123065071D01*
X217494811Y-123433751D01*
X217664496Y-123843407D01*
X217751000Y-124278296D01*
X217751000Y-124721704D01*
X217664496Y-125156593D01*
X217494811Y-125566249D01*
X217248466Y-125934929D01*
X216934929Y-126248466D01*
X216566249Y-126494811D01*
X216156593Y-126664496D01*
X215775880Y-126740224D01*
X215721705Y-126751000D01*
X215278295Y-126751000D01*
X215224120Y-126740224D01*
X214843407Y-126664496D01*
X214433751Y-126494811D01*
X214065071Y-126248466D01*
X213751534Y-125934929D01*
X213505189Y-125566249D01*
X213335504Y-125156593D01*
X213249000Y-124721704D01*
X213249000Y-124278296D01*
X213335504Y-123843407D01*
X213505189Y-123433751D01*
X213751534Y-123065071D01*
X214065071Y-122751534D01*
X214433751Y-122505189D01*
X214843407Y-122335504D01*
X215224120Y-122259776D01*
X215278295Y-122249000D01*
X215721705Y-122249000D01*
X215775880Y-122259776D01*
X215775880Y-122259776D01*
G37*
G36*
X188775880Y-97259776D02*
G01*
X189156593Y-97335504D01*
X189566249Y-97505189D01*
X189934929Y-97751534D01*
X190248466Y-98065071D01*
X190494811Y-98433751D01*
X190664496Y-98843407D01*
X190751000Y-99278296D01*
X190751000Y-99721704D01*
X190664496Y-100156593D01*
X190494811Y-100566249D01*
X190248466Y-100934929D01*
X189934929Y-101248466D01*
X189566249Y-101494811D01*
X189156593Y-101664496D01*
X188775880Y-101740224D01*
X188721705Y-101751000D01*
X188278295Y-101751000D01*
X188224120Y-101740224D01*
X187843407Y-101664496D01*
X187433751Y-101494811D01*
X187065071Y-101248466D01*
X186751534Y-100934929D01*
X186505189Y-100566249D01*
X186335504Y-100156593D01*
X186249000Y-99721704D01*
X186249000Y-99278296D01*
X186335504Y-98843407D01*
X186505189Y-98433751D01*
X186751534Y-98065071D01*
X187065071Y-97751534D01*
X187433751Y-97505189D01*
X187843407Y-97335504D01*
X188224120Y-97259776D01*
X188278295Y-97249000D01*
X188721705Y-97249000D01*
X188775880Y-97259776D01*
X188775880Y-97259776D01*
G37*
G36*
X215775880Y-97259776D02*
G01*
X216156593Y-97335504D01*
X216566249Y-97505189D01*
X216934929Y-97751534D01*
X217248466Y-98065071D01*
X217494811Y-98433751D01*
X217664496Y-98843407D01*
X217751000Y-99278296D01*
X217751000Y-99721704D01*
X217664496Y-100156593D01*
X217494811Y-100566249D01*
X217248466Y-100934929D01*
X216934929Y-101248466D01*
X216566249Y-101494811D01*
X216156593Y-101664496D01*
X215775880Y-101740224D01*
X215721705Y-101751000D01*
X215278295Y-101751000D01*
X215224120Y-101740224D01*
X214843407Y-101664496D01*
X214433751Y-101494811D01*
X214065071Y-101248466D01*
X213751534Y-100934929D01*
X213505189Y-100566249D01*
X213335504Y-100156593D01*
X213249000Y-99721704D01*
X213249000Y-99278296D01*
X213335504Y-98843407D01*
X213505189Y-98433751D01*
X213751534Y-98065071D01*
X214065071Y-97751534D01*
X214433751Y-97505189D01*
X214843407Y-97335504D01*
X215224120Y-97259776D01*
X215278295Y-97249000D01*
X215721705Y-97249000D01*
X215775880Y-97259776D01*
X215775880Y-97259776D01*
G37*
M02*
