G04 #@! TF.GenerationSoftware,KiCad,Pcbnew,(5.1.4)-1*
G04 #@! TF.CreationDate,2021-09-24T23:07:36-04:00*
G04 #@! TF.ProjectId,horizon-choc-top-plate,686f7269-7a6f-46e2-9d63-686f632d746f,rev?*
G04 #@! TF.SameCoordinates,Original*
G04 #@! TF.FileFunction,Legend,Top*
G04 #@! TF.FilePolarity,Positive*
%FSLAX46Y46*%
G04 Gerber Fmt 4.6, Leading zero omitted, Abs format (unit mm)*
G04 Created by KiCad (PCBNEW (5.1.4)-1) date 2021-09-24 23:07:36*
%MOMM*%
%LPD*%
G04 APERTURE LIST*
%ADD10C,0.010000*%
%ADD11C,0.150000*%
%ADD12C,0.802000*%
%ADD13C,4.502000*%
G04 APERTURE END LIST*
D10*
G36*
X204811161Y-107712205D02*
G01*
X205459892Y-108360934D01*
X205459892Y-111314201D01*
X204900748Y-111873344D01*
X204341604Y-112432486D01*
X203731319Y-112432486D01*
X203731319Y-115280722D01*
X203947220Y-115496620D01*
X204163122Y-115712519D01*
X204379020Y-115496617D01*
X204594919Y-115280715D01*
X204594919Y-114378679D01*
X204810817Y-114162777D01*
X204831160Y-114142440D01*
X204850995Y-114122623D01*
X204870235Y-114103411D01*
X204888793Y-114084893D01*
X204906579Y-114067156D01*
X204923508Y-114050287D01*
X204939490Y-114034374D01*
X204954438Y-114019503D01*
X204968264Y-114005761D01*
X204980881Y-113993237D01*
X204992200Y-113982017D01*
X205002134Y-113972189D01*
X205010594Y-113963840D01*
X205017494Y-113957056D01*
X205022745Y-113951926D01*
X205026260Y-113948537D01*
X205027950Y-113946975D01*
X205028092Y-113946875D01*
X205029178Y-113947832D01*
X205032118Y-113950645D01*
X205036821Y-113955226D01*
X205043201Y-113961488D01*
X205051169Y-113969343D01*
X205060638Y-113978705D01*
X205071520Y-113989485D01*
X205083726Y-114001596D01*
X205097169Y-114014952D01*
X205111761Y-114029464D01*
X205127413Y-114045045D01*
X205144038Y-114061608D01*
X205161548Y-114079065D01*
X205179855Y-114097329D01*
X205198872Y-114116313D01*
X205218509Y-114135929D01*
X205238679Y-114156090D01*
X205244680Y-114162091D01*
X205459892Y-114377306D01*
X205459892Y-115639066D01*
X204162430Y-116936524D01*
X203513702Y-116287791D01*
X202864973Y-115639058D01*
X202864973Y-112432486D01*
X201136400Y-112432486D01*
X201136400Y-115639058D01*
X200488015Y-116287448D01*
X200452607Y-116322855D01*
X200417679Y-116357781D01*
X200383281Y-116392174D01*
X200349463Y-116425985D01*
X200316276Y-116459163D01*
X200283771Y-116491659D01*
X200251997Y-116523420D01*
X200221005Y-116554399D01*
X200190845Y-116584543D01*
X200161569Y-116613803D01*
X200133225Y-116642128D01*
X200105864Y-116669469D01*
X200079538Y-116695774D01*
X200054295Y-116720994D01*
X200030187Y-116745078D01*
X200007264Y-116767976D01*
X199985575Y-116789637D01*
X199965173Y-116810012D01*
X199946106Y-116829050D01*
X199928426Y-116846700D01*
X199912182Y-116862913D01*
X199897425Y-116877638D01*
X199884205Y-116890825D01*
X199872573Y-116902423D01*
X199862580Y-116912383D01*
X199854274Y-116920653D01*
X199847707Y-116927184D01*
X199842930Y-116931925D01*
X199839992Y-116934826D01*
X199838943Y-116935837D01*
X199838942Y-116935838D01*
X199837942Y-116934875D01*
X199835050Y-116932021D01*
X199830318Y-116927325D01*
X199823796Y-116920839D01*
X199815533Y-116912612D01*
X199805581Y-116902694D01*
X199793990Y-116891136D01*
X199780810Y-116877989D01*
X199766091Y-116863302D01*
X199749884Y-116847126D01*
X199732239Y-116829511D01*
X199713206Y-116810508D01*
X199692836Y-116790166D01*
X199671180Y-116768536D01*
X199648287Y-116745669D01*
X199624208Y-116721614D01*
X199598993Y-116696422D01*
X199572693Y-116670144D01*
X199545358Y-116642829D01*
X199517038Y-116614527D01*
X199487784Y-116585291D01*
X199457646Y-116555168D01*
X199426674Y-116524210D01*
X199394919Y-116492468D01*
X199362431Y-116459990D01*
X199329261Y-116426829D01*
X199295459Y-116393033D01*
X199261074Y-116358654D01*
X199226158Y-116323741D01*
X199189867Y-116287450D01*
X198541481Y-115639063D01*
X198541481Y-113044143D01*
X199406454Y-113044143D01*
X199406454Y-115280715D01*
X199622352Y-115496617D01*
X199838251Y-115712519D01*
X200054152Y-115496620D01*
X200270054Y-115280722D01*
X200270054Y-112432486D01*
X200018116Y-112432486D01*
X199712285Y-112738315D01*
X199406454Y-113044143D01*
X198541481Y-113044143D01*
X198541481Y-112685798D01*
X199100625Y-112126656D01*
X199659769Y-111567513D01*
X200270054Y-111567513D01*
X200270054Y-108719278D01*
X200054152Y-108503379D01*
X199838251Y-108287481D01*
X199622352Y-108503382D01*
X199406454Y-108719284D01*
X199406454Y-109621321D01*
X199190555Y-109837222D01*
X199170213Y-109857559D01*
X199150378Y-109877377D01*
X199131137Y-109896588D01*
X199112580Y-109915106D01*
X199094793Y-109932843D01*
X199077865Y-109949712D01*
X199061883Y-109965626D01*
X199046935Y-109980497D01*
X199033108Y-109994238D01*
X199020492Y-110006762D01*
X199009173Y-110017982D01*
X198999239Y-110027810D01*
X198990778Y-110036160D01*
X198983878Y-110042943D01*
X198978627Y-110048073D01*
X198975113Y-110051463D01*
X198973422Y-110053025D01*
X198973281Y-110053124D01*
X198972194Y-110052167D01*
X198969255Y-110049354D01*
X198964551Y-110044773D01*
X198958171Y-110038512D01*
X198950203Y-110030656D01*
X198940734Y-110021295D01*
X198929853Y-110010515D01*
X198917646Y-109998403D01*
X198904203Y-109985048D01*
X198889612Y-109970536D01*
X198873959Y-109954955D01*
X198857334Y-109938392D01*
X198839824Y-109920934D01*
X198821517Y-109902670D01*
X198802501Y-109883686D01*
X198782864Y-109864070D01*
X198762694Y-109843909D01*
X198756693Y-109837909D01*
X198541481Y-109622694D01*
X198541481Y-108360934D01*
X199190211Y-107712205D01*
X199838942Y-107063475D01*
X201136400Y-108360941D01*
X201136400Y-111567513D01*
X202864973Y-111567513D01*
X202864973Y-108719284D01*
X203731319Y-108719284D01*
X203731319Y-111567513D01*
X203983257Y-111567513D01*
X204289088Y-111261685D01*
X204594919Y-110955856D01*
X204594919Y-108719278D01*
X204379017Y-108503379D01*
X204163115Y-108287481D01*
X203947217Y-108503382D01*
X203731319Y-108719284D01*
X202864973Y-108719284D01*
X202864973Y-108360941D01*
X203513702Y-107712208D01*
X204162430Y-107063475D01*
X204811161Y-107712205D01*
X204811161Y-107712205D01*
G37*
X204811161Y-107712205D02*
X205459892Y-108360934D01*
X205459892Y-111314201D01*
X204900748Y-111873344D01*
X204341604Y-112432486D01*
X203731319Y-112432486D01*
X203731319Y-115280722D01*
X203947220Y-115496620D01*
X204163122Y-115712519D01*
X204379020Y-115496617D01*
X204594919Y-115280715D01*
X204594919Y-114378679D01*
X204810817Y-114162777D01*
X204831160Y-114142440D01*
X204850995Y-114122623D01*
X204870235Y-114103411D01*
X204888793Y-114084893D01*
X204906579Y-114067156D01*
X204923508Y-114050287D01*
X204939490Y-114034374D01*
X204954438Y-114019503D01*
X204968264Y-114005761D01*
X204980881Y-113993237D01*
X204992200Y-113982017D01*
X205002134Y-113972189D01*
X205010594Y-113963840D01*
X205017494Y-113957056D01*
X205022745Y-113951926D01*
X205026260Y-113948537D01*
X205027950Y-113946975D01*
X205028092Y-113946875D01*
X205029178Y-113947832D01*
X205032118Y-113950645D01*
X205036821Y-113955226D01*
X205043201Y-113961488D01*
X205051169Y-113969343D01*
X205060638Y-113978705D01*
X205071520Y-113989485D01*
X205083726Y-114001596D01*
X205097169Y-114014952D01*
X205111761Y-114029464D01*
X205127413Y-114045045D01*
X205144038Y-114061608D01*
X205161548Y-114079065D01*
X205179855Y-114097329D01*
X205198872Y-114116313D01*
X205218509Y-114135929D01*
X205238679Y-114156090D01*
X205244680Y-114162091D01*
X205459892Y-114377306D01*
X205459892Y-115639066D01*
X204162430Y-116936524D01*
X203513702Y-116287791D01*
X202864973Y-115639058D01*
X202864973Y-112432486D01*
X201136400Y-112432486D01*
X201136400Y-115639058D01*
X200488015Y-116287448D01*
X200452607Y-116322855D01*
X200417679Y-116357781D01*
X200383281Y-116392174D01*
X200349463Y-116425985D01*
X200316276Y-116459163D01*
X200283771Y-116491659D01*
X200251997Y-116523420D01*
X200221005Y-116554399D01*
X200190845Y-116584543D01*
X200161569Y-116613803D01*
X200133225Y-116642128D01*
X200105864Y-116669469D01*
X200079538Y-116695774D01*
X200054295Y-116720994D01*
X200030187Y-116745078D01*
X200007264Y-116767976D01*
X199985575Y-116789637D01*
X199965173Y-116810012D01*
X199946106Y-116829050D01*
X199928426Y-116846700D01*
X199912182Y-116862913D01*
X199897425Y-116877638D01*
X199884205Y-116890825D01*
X199872573Y-116902423D01*
X199862580Y-116912383D01*
X199854274Y-116920653D01*
X199847707Y-116927184D01*
X199842930Y-116931925D01*
X199839992Y-116934826D01*
X199838943Y-116935837D01*
X199838942Y-116935838D01*
X199837942Y-116934875D01*
X199835050Y-116932021D01*
X199830318Y-116927325D01*
X199823796Y-116920839D01*
X199815533Y-116912612D01*
X199805581Y-116902694D01*
X199793990Y-116891136D01*
X199780810Y-116877989D01*
X199766091Y-116863302D01*
X199749884Y-116847126D01*
X199732239Y-116829511D01*
X199713206Y-116810508D01*
X199692836Y-116790166D01*
X199671180Y-116768536D01*
X199648287Y-116745669D01*
X199624208Y-116721614D01*
X199598993Y-116696422D01*
X199572693Y-116670144D01*
X199545358Y-116642829D01*
X199517038Y-116614527D01*
X199487784Y-116585291D01*
X199457646Y-116555168D01*
X199426674Y-116524210D01*
X199394919Y-116492468D01*
X199362431Y-116459990D01*
X199329261Y-116426829D01*
X199295459Y-116393033D01*
X199261074Y-116358654D01*
X199226158Y-116323741D01*
X199189867Y-116287450D01*
X198541481Y-115639063D01*
X198541481Y-113044143D01*
X199406454Y-113044143D01*
X199406454Y-115280715D01*
X199622352Y-115496617D01*
X199838251Y-115712519D01*
X200054152Y-115496620D01*
X200270054Y-115280722D01*
X200270054Y-112432486D01*
X200018116Y-112432486D01*
X199712285Y-112738315D01*
X199406454Y-113044143D01*
X198541481Y-113044143D01*
X198541481Y-112685798D01*
X199100625Y-112126656D01*
X199659769Y-111567513D01*
X200270054Y-111567513D01*
X200270054Y-108719278D01*
X200054152Y-108503379D01*
X199838251Y-108287481D01*
X199622352Y-108503382D01*
X199406454Y-108719284D01*
X199406454Y-109621321D01*
X199190555Y-109837222D01*
X199170213Y-109857559D01*
X199150378Y-109877377D01*
X199131137Y-109896588D01*
X199112580Y-109915106D01*
X199094793Y-109932843D01*
X199077865Y-109949712D01*
X199061883Y-109965626D01*
X199046935Y-109980497D01*
X199033108Y-109994238D01*
X199020492Y-110006762D01*
X199009173Y-110017982D01*
X198999239Y-110027810D01*
X198990778Y-110036160D01*
X198983878Y-110042943D01*
X198978627Y-110048073D01*
X198975113Y-110051463D01*
X198973422Y-110053025D01*
X198973281Y-110053124D01*
X198972194Y-110052167D01*
X198969255Y-110049354D01*
X198964551Y-110044773D01*
X198958171Y-110038512D01*
X198950203Y-110030656D01*
X198940734Y-110021295D01*
X198929853Y-110010515D01*
X198917646Y-109998403D01*
X198904203Y-109985048D01*
X198889612Y-109970536D01*
X198873959Y-109954955D01*
X198857334Y-109938392D01*
X198839824Y-109920934D01*
X198821517Y-109902670D01*
X198802501Y-109883686D01*
X198782864Y-109864070D01*
X198762694Y-109843909D01*
X198756693Y-109837909D01*
X198541481Y-109622694D01*
X198541481Y-108360934D01*
X199190211Y-107712205D01*
X199838942Y-107063475D01*
X201136400Y-108360941D01*
X201136400Y-111567513D01*
X202864973Y-111567513D01*
X202864973Y-108719284D01*
X203731319Y-108719284D01*
X203731319Y-111567513D01*
X203983257Y-111567513D01*
X204289088Y-111261685D01*
X204594919Y-110955856D01*
X204594919Y-108719278D01*
X204379017Y-108503379D01*
X204163115Y-108287481D01*
X203947217Y-108503382D01*
X203731319Y-108719284D01*
X202864973Y-108719284D01*
X202864973Y-108360941D01*
X203513702Y-107712208D01*
X204162430Y-107063475D01*
X204811161Y-107712205D01*
D11*
%LPC*%
D12*
X216666726Y-123333274D03*
X215500000Y-122850000D03*
X214333274Y-123333274D03*
X213850000Y-124500000D03*
X214333274Y-125666726D03*
X215500000Y-126150000D03*
X216666726Y-125666726D03*
X217150000Y-124500000D03*
D13*
X215500000Y-124500000D03*
D12*
X189666726Y-123333274D03*
X188500000Y-122850000D03*
X187333274Y-123333274D03*
X186850000Y-124500000D03*
X187333274Y-125666726D03*
X188500000Y-126150000D03*
X189666726Y-125666726D03*
X190150000Y-124500000D03*
D13*
X188500000Y-124500000D03*
D12*
X216666726Y-98333274D03*
X215500000Y-97850000D03*
X214333274Y-98333274D03*
X213850000Y-99500000D03*
X214333274Y-100666726D03*
X215500000Y-101150000D03*
X216666726Y-100666726D03*
X217150000Y-99500000D03*
D13*
X215500000Y-99500000D03*
D12*
X189666726Y-98333274D03*
X188500000Y-97850000D03*
X187333274Y-98333274D03*
X186850000Y-99500000D03*
X187333274Y-100666726D03*
X188500000Y-101150000D03*
X189666726Y-100666726D03*
X190150000Y-99500000D03*
D13*
X188500000Y-99500000D03*
M02*
