M48
; DRILL file {KiCad (5.1.4)-1} date 9/24/2021 11:07:37 PM
; FORMAT={-:-/ absolute / metric / decimal}
; #@! TF.CreationDate,2021-09-24T23:07:37-04:00
; #@! TF.GenerationSoftware,Kicad,Pcbnew,(5.1.4)-1
; #@! TF.FileFunction,Plated,1,2,PTH
FMAT,2
METRIC
T1C0.400
T2C2.200
%
G90
G05
T1
X186.85Y-124.5
X187.333Y-123.333
X187.333Y-125.667
X188.5Y-122.85
X188.5Y-126.15
X189.667Y-123.333
X189.667Y-125.667
X190.15Y-124.5
X186.85Y-99.5
X187.333Y-98.333
X187.333Y-100.667
X188.5Y-97.85
X188.5Y-101.15
X189.667Y-98.333
X189.667Y-100.667
X190.15Y-99.5
X213.85Y-99.5
X214.333Y-98.333
X214.333Y-100.667
X215.5Y-97.85
X215.5Y-101.15
X216.667Y-98.333
X216.667Y-100.667
X217.15Y-99.5
X213.85Y-124.5
X214.333Y-123.333
X214.333Y-125.667
X215.5Y-122.85
X215.5Y-126.15
X216.667Y-123.333
X216.667Y-125.667
X217.15Y-124.5
T2
X188.5Y-124.5
X188.5Y-99.5
X215.5Y-99.5
X215.5Y-124.5
T0
M30
