G04 #@! TF.GenerationSoftware,KiCad,Pcbnew,(5.1.4)-1*
G04 #@! TF.CreationDate,2021-07-31T15:59:11-04:00*
G04 #@! TF.ProjectId,horizon,686f7269-7a6f-46e2-9e6b-696361645f70,rev?*
G04 #@! TF.SameCoordinates,Original*
G04 #@! TF.FileFunction,Legend,Top*
G04 #@! TF.FilePolarity,Positive*
%FSLAX46Y46*%
G04 Gerber Fmt 4.6, Leading zero omitted, Abs format (unit mm)*
G04 Created by KiCad (PCBNEW (5.1.4)-1) date 2021-07-31 15:59:11*
%MOMM*%
%LPD*%
G04 APERTURE LIST*
%ADD10C,0.150000*%
%ADD11C,1.854600*%
%ADD12R,1.854600X1.854600*%
%ADD13O,1.802000X1.802000*%
%ADD14R,1.802000X1.802000*%
%ADD15C,0.802000*%
%ADD16C,4.502000*%
%ADD17C,1.902000*%
%ADD18C,1.803800*%
%ADD19C,2.400600*%
%ADD20C,4.089800*%
G04 APERTURE END LIST*
D10*
X204380952Y-93952380D02*
X204380952Y-94666666D01*
X204333333Y-94809523D01*
X204238095Y-94904761D01*
X204095238Y-94952380D01*
X204000000Y-94952380D01*
X205333333Y-94952380D02*
X204857142Y-94952380D01*
X204857142Y-93952380D01*
X206238095Y-94857142D02*
X206190476Y-94904761D01*
X206047619Y-94952380D01*
X205952380Y-94952380D01*
X205809523Y-94904761D01*
X205714285Y-94809523D01*
X205666666Y-94714285D01*
X205619047Y-94523809D01*
X205619047Y-94380952D01*
X205666666Y-94190476D01*
X205714285Y-94095238D01*
X205809523Y-94000000D01*
X205952380Y-93952380D01*
X206047619Y-93952380D01*
X206190476Y-94000000D01*
X206238095Y-94047619D01*
X206952380Y-93952380D02*
X206952380Y-94666666D01*
X206904761Y-94809523D01*
X206809523Y-94904761D01*
X206666666Y-94952380D01*
X206571428Y-94952380D01*
X207904761Y-94952380D02*
X207428571Y-94952380D01*
X207428571Y-93952380D01*
X208809523Y-94857142D02*
X208761904Y-94904761D01*
X208619047Y-94952380D01*
X208523809Y-94952380D01*
X208380952Y-94904761D01*
X208285714Y-94809523D01*
X208238095Y-94714285D01*
X208190476Y-94523809D01*
X208190476Y-94380952D01*
X208238095Y-94190476D01*
X208285714Y-94095238D01*
X208380952Y-94000000D01*
X208523809Y-93952380D01*
X208619047Y-93952380D01*
X208761904Y-94000000D01*
X208809523Y-94047619D01*
X209523809Y-93952380D02*
X209523809Y-94666666D01*
X209476190Y-94809523D01*
X209380952Y-94904761D01*
X209238095Y-94952380D01*
X209142857Y-94952380D01*
X210476190Y-94952380D02*
X210000000Y-94952380D01*
X210000000Y-93952380D01*
X211380952Y-94857142D02*
X211333333Y-94904761D01*
X211190476Y-94952380D01*
X211095238Y-94952380D01*
X210952380Y-94904761D01*
X210857142Y-94809523D01*
X210809523Y-94714285D01*
X210761904Y-94523809D01*
X210761904Y-94380952D01*
X210809523Y-94190476D01*
X210857142Y-94095238D01*
X210952380Y-94000000D01*
X211095238Y-93952380D01*
X211190476Y-93952380D01*
X211333333Y-94000000D01*
X211380952Y-94047619D01*
X212095238Y-93952380D02*
X212095238Y-94666666D01*
X212047619Y-94809523D01*
X211952380Y-94904761D01*
X211809523Y-94952380D01*
X211714285Y-94952380D01*
X213047619Y-94952380D02*
X212571428Y-94952380D01*
X212571428Y-93952380D01*
X213952380Y-94857142D02*
X213904761Y-94904761D01*
X213761904Y-94952380D01*
X213666666Y-94952380D01*
X213523809Y-94904761D01*
X213428571Y-94809523D01*
X213380952Y-94714285D01*
X213333333Y-94523809D01*
X213333333Y-94380952D01*
X213380952Y-94190476D01*
X213428571Y-94095238D01*
X213523809Y-94000000D01*
X213666666Y-93952380D01*
X213761904Y-93952380D01*
X213904761Y-94000000D01*
X213952380Y-94047619D01*
X208238095Y-109052380D02*
X208238095Y-109861904D01*
X208285714Y-109957142D01*
X208333333Y-110004761D01*
X208428571Y-110052380D01*
X208619047Y-110052380D01*
X208714285Y-110004761D01*
X208761904Y-109957142D01*
X208809523Y-109861904D01*
X208809523Y-109052380D01*
X209809523Y-110052380D02*
X209238095Y-110052380D01*
X209523809Y-110052380D02*
X209523809Y-109052380D01*
X209428571Y-109195238D01*
X209333333Y-109290476D01*
X209238095Y-109338095D01*
X203782904Y-102471904D02*
X203516238Y-102090952D01*
X203325761Y-102471904D02*
X203325761Y-101671904D01*
X203630523Y-101671904D01*
X203706714Y-101710000D01*
X203744809Y-101748095D01*
X203782904Y-101824285D01*
X203782904Y-101938571D01*
X203744809Y-102014761D01*
X203706714Y-102052857D01*
X203630523Y-102090952D01*
X203325761Y-102090952D01*
X204087666Y-102433809D02*
X204201952Y-102471904D01*
X204392428Y-102471904D01*
X204468619Y-102433809D01*
X204506714Y-102395714D01*
X204544809Y-102319523D01*
X204544809Y-102243333D01*
X204506714Y-102167142D01*
X204468619Y-102129047D01*
X204392428Y-102090952D01*
X204240047Y-102052857D01*
X204163857Y-102014761D01*
X204125761Y-101976666D01*
X204087666Y-101900476D01*
X204087666Y-101824285D01*
X204125761Y-101748095D01*
X204163857Y-101710000D01*
X204240047Y-101671904D01*
X204430523Y-101671904D01*
X204544809Y-101710000D01*
X204773380Y-101671904D02*
X205230523Y-101671904D01*
X205001952Y-102471904D02*
X205001952Y-101671904D01*
X210477651Y-96591904D02*
X210934794Y-96591904D01*
X210706223Y-97391904D02*
X210706223Y-96591904D01*
X211125270Y-96591904D02*
X211658604Y-97391904D01*
X211658604Y-96591904D02*
X211125270Y-97391904D01*
X212115747Y-96591904D02*
X212191937Y-96591904D01*
X212268128Y-96630000D01*
X212306223Y-96668095D01*
X212344318Y-96744285D01*
X212382413Y-96896666D01*
X212382413Y-97087142D01*
X212344318Y-97239523D01*
X212306223Y-97315714D01*
X212268128Y-97353809D01*
X212191937Y-97391904D01*
X212115747Y-97391904D01*
X212039556Y-97353809D01*
X212001461Y-97315714D01*
X211963366Y-97239523D01*
X211925270Y-97087142D01*
X211925270Y-96896666D01*
X211963366Y-96744285D01*
X212001461Y-96668095D01*
X212039556Y-96630000D01*
X212115747Y-96591904D01*
X213296699Y-96553809D02*
X212610985Y-97582380D01*
X213563366Y-97391904D02*
X213563366Y-96591904D01*
X213753842Y-96591904D01*
X213868128Y-96630000D01*
X213944318Y-96706190D01*
X213982413Y-96782380D01*
X214020508Y-96934761D01*
X214020508Y-97049047D01*
X213982413Y-97201428D01*
X213944318Y-97277619D01*
X213868128Y-97353809D01*
X213753842Y-97391904D01*
X213563366Y-97391904D01*
X214287175Y-96591904D02*
X214782413Y-96591904D01*
X214515747Y-96896666D01*
X214630032Y-96896666D01*
X214706223Y-96934761D01*
X214744318Y-96972857D01*
X214782413Y-97049047D01*
X214782413Y-97239523D01*
X214744318Y-97315714D01*
X214706223Y-97353809D01*
X214630032Y-97391904D01*
X214401461Y-97391904D01*
X214325270Y-97353809D01*
X214287175Y-97315714D01*
X213649523Y-99931904D02*
X213649523Y-99131904D01*
X213840000Y-99131904D01*
X213954285Y-99170000D01*
X214030476Y-99246190D01*
X214068571Y-99322380D01*
X214106666Y-99474761D01*
X214106666Y-99589047D01*
X214068571Y-99741428D01*
X214030476Y-99817619D01*
X213954285Y-99893809D01*
X213840000Y-99931904D01*
X213649523Y-99931904D01*
X214411428Y-99208095D02*
X214449523Y-99170000D01*
X214525714Y-99131904D01*
X214716190Y-99131904D01*
X214792380Y-99170000D01*
X214830476Y-99208095D01*
X214868571Y-99284285D01*
X214868571Y-99360476D01*
X214830476Y-99474761D01*
X214373333Y-99931904D01*
X214868571Y-99931904D01*
X213688523Y-110091904D02*
X213688523Y-109291904D01*
X213879000Y-109291904D01*
X213993285Y-109330000D01*
X214069476Y-109406190D01*
X214107571Y-109482380D01*
X214145666Y-109634761D01*
X214145666Y-109749047D01*
X214107571Y-109901428D01*
X214069476Y-109977619D01*
X213993285Y-110053809D01*
X213879000Y-110091904D01*
X213688523Y-110091904D01*
X214640904Y-109291904D02*
X214717095Y-109291904D01*
X214793285Y-109330000D01*
X214831380Y-109368095D01*
X214869476Y-109444285D01*
X214907571Y-109596666D01*
X214907571Y-109787142D01*
X214869476Y-109939523D01*
X214831380Y-110015714D01*
X214793285Y-110053809D01*
X214717095Y-110091904D01*
X214640904Y-110091904D01*
X214564714Y-110053809D01*
X214526619Y-110015714D01*
X214488523Y-109939523D01*
X214450428Y-109787142D01*
X214450428Y-109596666D01*
X214488523Y-109444285D01*
X214526619Y-109368095D01*
X214564714Y-109330000D01*
X214640904Y-109291904D01*
X213688523Y-107551904D02*
X213688523Y-106751904D01*
X213879000Y-106751904D01*
X213993285Y-106790000D01*
X214069476Y-106866190D01*
X214107571Y-106942380D01*
X214145666Y-107094761D01*
X214145666Y-107209047D01*
X214107571Y-107361428D01*
X214069476Y-107437619D01*
X213993285Y-107513809D01*
X213879000Y-107551904D01*
X213688523Y-107551904D01*
X214907571Y-107551904D02*
X214450428Y-107551904D01*
X214679000Y-107551904D02*
X214679000Y-106751904D01*
X214602809Y-106866190D01*
X214526619Y-106942380D01*
X214450428Y-106980476D01*
X213169476Y-104250000D02*
X213093285Y-104211904D01*
X212979000Y-104211904D01*
X212864714Y-104250000D01*
X212788523Y-104326190D01*
X212750428Y-104402380D01*
X212712333Y-104554761D01*
X212712333Y-104669047D01*
X212750428Y-104821428D01*
X212788523Y-104897619D01*
X212864714Y-104973809D01*
X212979000Y-105011904D01*
X213055190Y-105011904D01*
X213169476Y-104973809D01*
X213207571Y-104935714D01*
X213207571Y-104669047D01*
X213055190Y-104669047D01*
X213550428Y-105011904D02*
X213550428Y-104211904D01*
X214007571Y-105011904D01*
X214007571Y-104211904D01*
X214388523Y-105011904D02*
X214388523Y-104211904D01*
X214579000Y-104211904D01*
X214693285Y-104250000D01*
X214769476Y-104326190D01*
X214807571Y-104402380D01*
X214845666Y-104554761D01*
X214845666Y-104669047D01*
X214807571Y-104821428D01*
X214769476Y-104897619D01*
X214693285Y-104973809D01*
X214579000Y-105011904D01*
X214388523Y-105011904D01*
X213169476Y-101710000D02*
X213093285Y-101671904D01*
X212979000Y-101671904D01*
X212864714Y-101710000D01*
X212788523Y-101786190D01*
X212750428Y-101862380D01*
X212712333Y-102014761D01*
X212712333Y-102129047D01*
X212750428Y-102281428D01*
X212788523Y-102357619D01*
X212864714Y-102433809D01*
X212979000Y-102471904D01*
X213055190Y-102471904D01*
X213169476Y-102433809D01*
X213207571Y-102395714D01*
X213207571Y-102129047D01*
X213055190Y-102129047D01*
X213550428Y-102471904D02*
X213550428Y-101671904D01*
X214007571Y-102471904D01*
X214007571Y-101671904D01*
X214388523Y-102471904D02*
X214388523Y-101671904D01*
X214579000Y-101671904D01*
X214693285Y-101710000D01*
X214769476Y-101786190D01*
X214807571Y-101862380D01*
X214845666Y-102014761D01*
X214845666Y-102129047D01*
X214807571Y-102281428D01*
X214769476Y-102357619D01*
X214693285Y-102433809D01*
X214579000Y-102471904D01*
X214388523Y-102471904D01*
X213688523Y-112631904D02*
X213688523Y-111831904D01*
X213879000Y-111831904D01*
X213993285Y-111870000D01*
X214069476Y-111946190D01*
X214107571Y-112022380D01*
X214145666Y-112174761D01*
X214145666Y-112289047D01*
X214107571Y-112441428D01*
X214069476Y-112517619D01*
X213993285Y-112593809D01*
X213879000Y-112631904D01*
X213688523Y-112631904D01*
X214831380Y-112098571D02*
X214831380Y-112631904D01*
X214640904Y-111793809D02*
X214450428Y-112365238D01*
X214945666Y-112365238D01*
X214145666Y-115095714D02*
X214107571Y-115133809D01*
X213993285Y-115171904D01*
X213917095Y-115171904D01*
X213802809Y-115133809D01*
X213726619Y-115057619D01*
X213688523Y-114981428D01*
X213650428Y-114829047D01*
X213650428Y-114714761D01*
X213688523Y-114562380D01*
X213726619Y-114486190D01*
X213802809Y-114410000D01*
X213917095Y-114371904D01*
X213993285Y-114371904D01*
X214107571Y-114410000D01*
X214145666Y-114448095D01*
X214831380Y-114371904D02*
X214679000Y-114371904D01*
X214602809Y-114410000D01*
X214564714Y-114448095D01*
X214488523Y-114562380D01*
X214450428Y-114714761D01*
X214450428Y-115019523D01*
X214488523Y-115095714D01*
X214526619Y-115133809D01*
X214602809Y-115171904D01*
X214755190Y-115171904D01*
X214831380Y-115133809D01*
X214869476Y-115095714D01*
X214907571Y-115019523D01*
X214907571Y-114829047D01*
X214869476Y-114752857D01*
X214831380Y-114714761D01*
X214755190Y-114676666D01*
X214602809Y-114676666D01*
X214526619Y-114714761D01*
X214488523Y-114752857D01*
X214450428Y-114829047D01*
X213688523Y-117711904D02*
X213688523Y-116911904D01*
X213879000Y-116911904D01*
X213993285Y-116950000D01*
X214069476Y-117026190D01*
X214107571Y-117102380D01*
X214145666Y-117254761D01*
X214145666Y-117369047D01*
X214107571Y-117521428D01*
X214069476Y-117597619D01*
X213993285Y-117673809D01*
X213879000Y-117711904D01*
X213688523Y-117711904D01*
X214412333Y-116911904D02*
X214945666Y-116911904D01*
X214602809Y-117711904D01*
X213726619Y-119832857D02*
X213993285Y-119832857D01*
X214107571Y-120251904D02*
X213726619Y-120251904D01*
X213726619Y-119451904D01*
X214107571Y-119451904D01*
X214793285Y-119451904D02*
X214640904Y-119451904D01*
X214564714Y-119490000D01*
X214526619Y-119528095D01*
X214450428Y-119642380D01*
X214412333Y-119794761D01*
X214412333Y-120099523D01*
X214450428Y-120175714D01*
X214488523Y-120213809D01*
X214564714Y-120251904D01*
X214717095Y-120251904D01*
X214793285Y-120213809D01*
X214831380Y-120175714D01*
X214869476Y-120099523D01*
X214869476Y-119909047D01*
X214831380Y-119832857D01*
X214793285Y-119794761D01*
X214717095Y-119756666D01*
X214564714Y-119756666D01*
X214488523Y-119794761D01*
X214450428Y-119832857D01*
X214412333Y-119909047D01*
X213916190Y-122372857D02*
X214030476Y-122410952D01*
X214068571Y-122449047D01*
X214106666Y-122525238D01*
X214106666Y-122639523D01*
X214068571Y-122715714D01*
X214030476Y-122753809D01*
X213954285Y-122791904D01*
X213649523Y-122791904D01*
X213649523Y-121991904D01*
X213916190Y-121991904D01*
X213992380Y-122030000D01*
X214030476Y-122068095D01*
X214068571Y-122144285D01*
X214068571Y-122220476D01*
X214030476Y-122296666D01*
X213992380Y-122334761D01*
X213916190Y-122372857D01*
X213649523Y-122372857D01*
X214792380Y-122258571D02*
X214792380Y-122791904D01*
X214601904Y-121953809D02*
X214411428Y-122525238D01*
X214906666Y-122525238D01*
X213916190Y-124912857D02*
X214030476Y-124950952D01*
X214068571Y-124989047D01*
X214106666Y-125065238D01*
X214106666Y-125179523D01*
X214068571Y-125255714D01*
X214030476Y-125293809D01*
X213954285Y-125331904D01*
X213649523Y-125331904D01*
X213649523Y-124531904D01*
X213916190Y-124531904D01*
X213992380Y-124570000D01*
X214030476Y-124608095D01*
X214068571Y-124684285D01*
X214068571Y-124760476D01*
X214030476Y-124836666D01*
X213992380Y-124874761D01*
X213916190Y-124912857D01*
X213649523Y-124912857D01*
X214830476Y-124531904D02*
X214449523Y-124531904D01*
X214411428Y-124912857D01*
X214449523Y-124874761D01*
X214525714Y-124836666D01*
X214716190Y-124836666D01*
X214792380Y-124874761D01*
X214830476Y-124912857D01*
X214868571Y-124989047D01*
X214868571Y-125179523D01*
X214830476Y-125255714D01*
X214792380Y-125293809D01*
X214716190Y-125331904D01*
X214525714Y-125331904D01*
X214449523Y-125293809D01*
X214411428Y-125255714D01*
X203397190Y-124912857D02*
X203511476Y-124950952D01*
X203549571Y-124989047D01*
X203587666Y-125065238D01*
X203587666Y-125179523D01*
X203549571Y-125255714D01*
X203511476Y-125293809D01*
X203435285Y-125331904D01*
X203130523Y-125331904D01*
X203130523Y-124531904D01*
X203397190Y-124531904D01*
X203473380Y-124570000D01*
X203511476Y-124608095D01*
X203549571Y-124684285D01*
X203549571Y-124760476D01*
X203511476Y-124836666D01*
X203473380Y-124874761D01*
X203397190Y-124912857D01*
X203130523Y-124912857D01*
X204273380Y-124531904D02*
X204121000Y-124531904D01*
X204044809Y-124570000D01*
X204006714Y-124608095D01*
X203930523Y-124722380D01*
X203892428Y-124874761D01*
X203892428Y-125179523D01*
X203930523Y-125255714D01*
X203968619Y-125293809D01*
X204044809Y-125331904D01*
X204197190Y-125331904D01*
X204273380Y-125293809D01*
X204311476Y-125255714D01*
X204349571Y-125179523D01*
X204349571Y-124989047D01*
X204311476Y-124912857D01*
X204273380Y-124874761D01*
X204197190Y-124836666D01*
X204044809Y-124836666D01*
X203968619Y-124874761D01*
X203930523Y-124912857D01*
X203892428Y-124989047D01*
X203397190Y-119832857D02*
X203511476Y-119870952D01*
X203549571Y-119909047D01*
X203587666Y-119985238D01*
X203587666Y-120099523D01*
X203549571Y-120175714D01*
X203511476Y-120213809D01*
X203435285Y-120251904D01*
X203130523Y-120251904D01*
X203130523Y-119451904D01*
X203397190Y-119451904D01*
X203473380Y-119490000D01*
X203511476Y-119528095D01*
X203549571Y-119604285D01*
X203549571Y-119680476D01*
X203511476Y-119756666D01*
X203473380Y-119794761D01*
X203397190Y-119832857D01*
X203130523Y-119832857D01*
X203854333Y-119451904D02*
X204349571Y-119451904D01*
X204082904Y-119756666D01*
X204197190Y-119756666D01*
X204273380Y-119794761D01*
X204311476Y-119832857D01*
X204349571Y-119909047D01*
X204349571Y-120099523D01*
X204311476Y-120175714D01*
X204273380Y-120213809D01*
X204197190Y-120251904D01*
X203968619Y-120251904D01*
X203892428Y-120213809D01*
X203854333Y-120175714D01*
X203397190Y-117292857D02*
X203511476Y-117330952D01*
X203549571Y-117369047D01*
X203587666Y-117445238D01*
X203587666Y-117559523D01*
X203549571Y-117635714D01*
X203511476Y-117673809D01*
X203435285Y-117711904D01*
X203130523Y-117711904D01*
X203130523Y-116911904D01*
X203397190Y-116911904D01*
X203473380Y-116950000D01*
X203511476Y-116988095D01*
X203549571Y-117064285D01*
X203549571Y-117140476D01*
X203511476Y-117216666D01*
X203473380Y-117254761D01*
X203397190Y-117292857D01*
X203130523Y-117292857D01*
X204349571Y-117711904D02*
X203892428Y-117711904D01*
X204121000Y-117711904D02*
X204121000Y-116911904D01*
X204044809Y-117026190D01*
X203968619Y-117102380D01*
X203892428Y-117140476D01*
X203454333Y-107132857D02*
X203187666Y-107132857D01*
X203187666Y-107551904D02*
X203187666Y-106751904D01*
X203568619Y-106751904D01*
X204216238Y-107018571D02*
X204216238Y-107551904D01*
X204025761Y-106713809D02*
X203835285Y-107285238D01*
X204330523Y-107285238D01*
X203154333Y-104211904D02*
X203421000Y-105011904D01*
X203687666Y-104211904D01*
X204411476Y-104935714D02*
X204373380Y-104973809D01*
X204259095Y-105011904D01*
X204182904Y-105011904D01*
X204068619Y-104973809D01*
X203992428Y-104897619D01*
X203954333Y-104821428D01*
X203916238Y-104669047D01*
X203916238Y-104554761D01*
X203954333Y-104402380D01*
X203992428Y-104326190D01*
X204068619Y-104250000D01*
X204182904Y-104211904D01*
X204259095Y-104211904D01*
X204373380Y-104250000D01*
X204411476Y-104288095D01*
X205211476Y-104935714D02*
X205173380Y-104973809D01*
X205059095Y-105011904D01*
X204982904Y-105011904D01*
X204868619Y-104973809D01*
X204792428Y-104897619D01*
X204754333Y-104821428D01*
X204716238Y-104669047D01*
X204716238Y-104554761D01*
X204754333Y-104402380D01*
X204792428Y-104326190D01*
X204868619Y-104250000D01*
X204982904Y-104211904D01*
X205059095Y-104211904D01*
X205173380Y-104250000D01*
X205211476Y-104288095D01*
X203611476Y-99170000D02*
X203535285Y-99131904D01*
X203421000Y-99131904D01*
X203306714Y-99170000D01*
X203230523Y-99246190D01*
X203192428Y-99322380D01*
X203154333Y-99474761D01*
X203154333Y-99589047D01*
X203192428Y-99741428D01*
X203230523Y-99817619D01*
X203306714Y-99893809D01*
X203421000Y-99931904D01*
X203497190Y-99931904D01*
X203611476Y-99893809D01*
X203649571Y-99855714D01*
X203649571Y-99589047D01*
X203497190Y-99589047D01*
X203992428Y-99931904D02*
X203992428Y-99131904D01*
X204449571Y-99931904D01*
X204449571Y-99131904D01*
X204830523Y-99931904D02*
X204830523Y-99131904D01*
X205021000Y-99131904D01*
X205135285Y-99170000D01*
X205211476Y-99246190D01*
X205249571Y-99322380D01*
X205287666Y-99474761D01*
X205287666Y-99589047D01*
X205249571Y-99741428D01*
X205211476Y-99817619D01*
X205135285Y-99893809D01*
X205021000Y-99931904D01*
X204830523Y-99931904D01*
X203668619Y-97391904D02*
X203401952Y-97010952D01*
X203211476Y-97391904D02*
X203211476Y-96591904D01*
X203516238Y-96591904D01*
X203592428Y-96630000D01*
X203630523Y-96668095D01*
X203668619Y-96744285D01*
X203668619Y-96858571D01*
X203630523Y-96934761D01*
X203592428Y-96972857D01*
X203516238Y-97010952D01*
X203211476Y-97010952D01*
X203973380Y-97163333D02*
X204354333Y-97163333D01*
X203897190Y-97391904D02*
X204163857Y-96591904D01*
X204430523Y-97391904D01*
X204621000Y-96591904D02*
X204811476Y-97391904D01*
X204963857Y-96820476D01*
X205116238Y-97391904D01*
X205306714Y-96591904D01*
X203454333Y-109672857D02*
X203187666Y-109672857D01*
X203187666Y-110091904D02*
X203187666Y-109291904D01*
X203568619Y-109291904D01*
X204254333Y-109291904D02*
X203873380Y-109291904D01*
X203835285Y-109672857D01*
X203873380Y-109634761D01*
X203949571Y-109596666D01*
X204140047Y-109596666D01*
X204216238Y-109634761D01*
X204254333Y-109672857D01*
X204292428Y-109749047D01*
X204292428Y-109939523D01*
X204254333Y-110015714D01*
X204216238Y-110053809D01*
X204140047Y-110091904D01*
X203949571Y-110091904D01*
X203873380Y-110053809D01*
X203835285Y-110015714D01*
X203454333Y-112212857D02*
X203187666Y-112212857D01*
X203187666Y-112631904D02*
X203187666Y-111831904D01*
X203568619Y-111831904D01*
X204216238Y-111831904D02*
X204063857Y-111831904D01*
X203987666Y-111870000D01*
X203949571Y-111908095D01*
X203873380Y-112022380D01*
X203835285Y-112174761D01*
X203835285Y-112479523D01*
X203873380Y-112555714D01*
X203911476Y-112593809D01*
X203987666Y-112631904D01*
X204140047Y-112631904D01*
X204216238Y-112593809D01*
X204254333Y-112555714D01*
X204292428Y-112479523D01*
X204292428Y-112289047D01*
X204254333Y-112212857D01*
X204216238Y-112174761D01*
X204140047Y-112136666D01*
X203987666Y-112136666D01*
X203911476Y-112174761D01*
X203873380Y-112212857D01*
X203835285Y-112289047D01*
X203454333Y-114752857D02*
X203187666Y-114752857D01*
X203187666Y-115171904D02*
X203187666Y-114371904D01*
X203568619Y-114371904D01*
X203797190Y-114371904D02*
X204330523Y-114371904D01*
X203987666Y-115171904D01*
X203397190Y-122372857D02*
X203511476Y-122410952D01*
X203549571Y-122449047D01*
X203587666Y-122525238D01*
X203587666Y-122639523D01*
X203549571Y-122715714D01*
X203511476Y-122753809D01*
X203435285Y-122791904D01*
X203130523Y-122791904D01*
X203130523Y-121991904D01*
X203397190Y-121991904D01*
X203473380Y-122030000D01*
X203511476Y-122068095D01*
X203549571Y-122144285D01*
X203549571Y-122220476D01*
X203511476Y-122296666D01*
X203473380Y-122334761D01*
X203397190Y-122372857D01*
X203130523Y-122372857D01*
X203892428Y-122068095D02*
X203930523Y-122030000D01*
X204006714Y-121991904D01*
X204197190Y-121991904D01*
X204273380Y-122030000D01*
X204311476Y-122068095D01*
X204349571Y-122144285D01*
X204349571Y-122220476D01*
X204311476Y-122334761D01*
X203854333Y-122791904D01*
X204349571Y-122791904D01*
X208666666Y-126852380D02*
X208666666Y-127566666D01*
X208619047Y-127709523D01*
X208523809Y-127804761D01*
X208380952Y-127852380D01*
X208285714Y-127852380D01*
X209666666Y-127852380D02*
X209095238Y-127852380D01*
X209380952Y-127852380D02*
X209380952Y-126852380D01*
X209285714Y-126995238D01*
X209190476Y-127090476D01*
X209095238Y-127138095D01*
X207190476Y-140452380D02*
X207761904Y-140452380D01*
X207476190Y-141452380D02*
X207476190Y-140452380D01*
X208047619Y-141404761D02*
X208190476Y-141452380D01*
X208428571Y-141452380D01*
X208523809Y-141404761D01*
X208571428Y-141357142D01*
X208619047Y-141261904D01*
X208619047Y-141166666D01*
X208571428Y-141071428D01*
X208523809Y-141023809D01*
X208428571Y-140976190D01*
X208238095Y-140928571D01*
X208142857Y-140880952D01*
X208095238Y-140833333D01*
X208047619Y-140738095D01*
X208047619Y-140642857D01*
X208095238Y-140547619D01*
X208142857Y-140500000D01*
X208238095Y-140452380D01*
X208476190Y-140452380D01*
X208619047Y-140500000D01*
X208952380Y-140452380D02*
X209190476Y-141452380D01*
X209380952Y-140738095D01*
X209571428Y-141452380D01*
X209809523Y-140452380D01*
X210714285Y-141452380D02*
X210142857Y-141452380D01*
X210428571Y-141452380D02*
X210428571Y-140452380D01*
X210333333Y-140595238D01*
X210238095Y-140690476D01*
X210142857Y-140738095D01*
X179166666Y-101856761D02*
X179309523Y-101904380D01*
X179547619Y-101904380D01*
X179642857Y-101856761D01*
X179690476Y-101809142D01*
X179738095Y-101713904D01*
X179738095Y-101618666D01*
X179690476Y-101523428D01*
X179642857Y-101475809D01*
X179547619Y-101428190D01*
X179357142Y-101380571D01*
X179261904Y-101332952D01*
X179214285Y-101285333D01*
X179166666Y-101190095D01*
X179166666Y-101094857D01*
X179214285Y-100999619D01*
X179261904Y-100952000D01*
X179357142Y-100904380D01*
X179595238Y-100904380D01*
X179738095Y-100952000D01*
X180071428Y-100904380D02*
X180309523Y-101904380D01*
X180500000Y-101190095D01*
X180690476Y-101904380D01*
X180928571Y-100904380D01*
X181738095Y-100904380D02*
X181547619Y-100904380D01*
X181452380Y-100952000D01*
X181404761Y-100999619D01*
X181309523Y-101142476D01*
X181261904Y-101332952D01*
X181261904Y-101713904D01*
X181309523Y-101809142D01*
X181357142Y-101856761D01*
X181452380Y-101904380D01*
X181642857Y-101904380D01*
X181738095Y-101856761D01*
X181785714Y-101809142D01*
X181833333Y-101713904D01*
X181833333Y-101475809D01*
X181785714Y-101380571D01*
X181738095Y-101332952D01*
X181642857Y-101285333D01*
X181452380Y-101285333D01*
X181357142Y-101332952D01*
X181309523Y-101380571D01*
X181261904Y-101475809D01*
X254690476Y-168856761D02*
X254833333Y-168904380D01*
X255071428Y-168904380D01*
X255166666Y-168856761D01*
X255214285Y-168809142D01*
X255261904Y-168713904D01*
X255261904Y-168618666D01*
X255214285Y-168523428D01*
X255166666Y-168475809D01*
X255071428Y-168428190D01*
X254880952Y-168380571D01*
X254785714Y-168332952D01*
X254738095Y-168285333D01*
X254690476Y-168190095D01*
X254690476Y-168094857D01*
X254738095Y-167999619D01*
X254785714Y-167952000D01*
X254880952Y-167904380D01*
X255119047Y-167904380D01*
X255261904Y-167952000D01*
X255595238Y-167904380D02*
X255833333Y-168904380D01*
X256023809Y-168190095D01*
X256214285Y-168904380D01*
X256452380Y-167904380D01*
X257261904Y-168237714D02*
X257261904Y-168904380D01*
X257023809Y-167856761D02*
X256785714Y-168571047D01*
X257404761Y-168571047D01*
X257738095Y-167999619D02*
X257785714Y-167952000D01*
X257880952Y-167904380D01*
X258119047Y-167904380D01*
X258214285Y-167952000D01*
X258261904Y-167999619D01*
X258309523Y-168094857D01*
X258309523Y-168190095D01*
X258261904Y-168332952D01*
X257690476Y-168904380D01*
X258309523Y-168904380D01*
X235690476Y-168856761D02*
X235833333Y-168904380D01*
X236071428Y-168904380D01*
X236166666Y-168856761D01*
X236214285Y-168809142D01*
X236261904Y-168713904D01*
X236261904Y-168618666D01*
X236214285Y-168523428D01*
X236166666Y-168475809D01*
X236071428Y-168428190D01*
X235880952Y-168380571D01*
X235785714Y-168332952D01*
X235738095Y-168285333D01*
X235690476Y-168190095D01*
X235690476Y-168094857D01*
X235738095Y-167999619D01*
X235785714Y-167952000D01*
X235880952Y-167904380D01*
X236119047Y-167904380D01*
X236261904Y-167952000D01*
X236595238Y-167904380D02*
X236833333Y-168904380D01*
X237023809Y-168190095D01*
X237214285Y-168904380D01*
X237452380Y-167904380D01*
X238261904Y-168237714D02*
X238261904Y-168904380D01*
X238023809Y-167856761D02*
X237785714Y-168571047D01*
X238404761Y-168571047D01*
X239309523Y-168904380D02*
X238738095Y-168904380D01*
X239023809Y-168904380D02*
X239023809Y-167904380D01*
X238928571Y-168047238D01*
X238833333Y-168142476D01*
X238738095Y-168190095D01*
X216690476Y-168856761D02*
X216833333Y-168904380D01*
X217071428Y-168904380D01*
X217166666Y-168856761D01*
X217214285Y-168809142D01*
X217261904Y-168713904D01*
X217261904Y-168618666D01*
X217214285Y-168523428D01*
X217166666Y-168475809D01*
X217071428Y-168428190D01*
X216880952Y-168380571D01*
X216785714Y-168332952D01*
X216738095Y-168285333D01*
X216690476Y-168190095D01*
X216690476Y-168094857D01*
X216738095Y-167999619D01*
X216785714Y-167952000D01*
X216880952Y-167904380D01*
X217119047Y-167904380D01*
X217261904Y-167952000D01*
X217595238Y-167904380D02*
X217833333Y-168904380D01*
X218023809Y-168190095D01*
X218214285Y-168904380D01*
X218452380Y-167904380D01*
X219261904Y-168237714D02*
X219261904Y-168904380D01*
X219023809Y-167856761D02*
X218785714Y-168571047D01*
X219404761Y-168571047D01*
X219976190Y-167904380D02*
X220071428Y-167904380D01*
X220166666Y-167952000D01*
X220214285Y-167999619D01*
X220261904Y-168094857D01*
X220309523Y-168285333D01*
X220309523Y-168523428D01*
X220261904Y-168713904D01*
X220214285Y-168809142D01*
X220166666Y-168856761D01*
X220071428Y-168904380D01*
X219976190Y-168904380D01*
X219880952Y-168856761D01*
X219833333Y-168809142D01*
X219785714Y-168713904D01*
X219738095Y-168523428D01*
X219738095Y-168285333D01*
X219785714Y-168094857D01*
X219833333Y-167999619D01*
X219880952Y-167952000D01*
X219976190Y-167904380D01*
X197690476Y-168856761D02*
X197833333Y-168904380D01*
X198071428Y-168904380D01*
X198166666Y-168856761D01*
X198214285Y-168809142D01*
X198261904Y-168713904D01*
X198261904Y-168618666D01*
X198214285Y-168523428D01*
X198166666Y-168475809D01*
X198071428Y-168428190D01*
X197880952Y-168380571D01*
X197785714Y-168332952D01*
X197738095Y-168285333D01*
X197690476Y-168190095D01*
X197690476Y-168094857D01*
X197738095Y-167999619D01*
X197785714Y-167952000D01*
X197880952Y-167904380D01*
X198119047Y-167904380D01*
X198261904Y-167952000D01*
X198595238Y-167904380D02*
X198833333Y-168904380D01*
X199023809Y-168190095D01*
X199214285Y-168904380D01*
X199452380Y-167904380D01*
X199738095Y-167904380D02*
X200357142Y-167904380D01*
X200023809Y-168285333D01*
X200166666Y-168285333D01*
X200261904Y-168332952D01*
X200309523Y-168380571D01*
X200357142Y-168475809D01*
X200357142Y-168713904D01*
X200309523Y-168809142D01*
X200261904Y-168856761D01*
X200166666Y-168904380D01*
X199880952Y-168904380D01*
X199785714Y-168856761D01*
X199738095Y-168809142D01*
X200833333Y-168904380D02*
X201023809Y-168904380D01*
X201119047Y-168856761D01*
X201166666Y-168809142D01*
X201261904Y-168666285D01*
X201309523Y-168475809D01*
X201309523Y-168094857D01*
X201261904Y-167999619D01*
X201214285Y-167952000D01*
X201119047Y-167904380D01*
X200928571Y-167904380D01*
X200833333Y-167952000D01*
X200785714Y-167999619D01*
X200738095Y-168094857D01*
X200738095Y-168332952D01*
X200785714Y-168428190D01*
X200833333Y-168475809D01*
X200928571Y-168523428D01*
X201119047Y-168523428D01*
X201214285Y-168475809D01*
X201261904Y-168428190D01*
X201309523Y-168332952D01*
X178690476Y-168856761D02*
X178833333Y-168904380D01*
X179071428Y-168904380D01*
X179166666Y-168856761D01*
X179214285Y-168809142D01*
X179261904Y-168713904D01*
X179261904Y-168618666D01*
X179214285Y-168523428D01*
X179166666Y-168475809D01*
X179071428Y-168428190D01*
X178880952Y-168380571D01*
X178785714Y-168332952D01*
X178738095Y-168285333D01*
X178690476Y-168190095D01*
X178690476Y-168094857D01*
X178738095Y-167999619D01*
X178785714Y-167952000D01*
X178880952Y-167904380D01*
X179119047Y-167904380D01*
X179261904Y-167952000D01*
X179595238Y-167904380D02*
X179833333Y-168904380D01*
X180023809Y-168190095D01*
X180214285Y-168904380D01*
X180452380Y-167904380D01*
X180738095Y-167904380D02*
X181357142Y-167904380D01*
X181023809Y-168285333D01*
X181166666Y-168285333D01*
X181261904Y-168332952D01*
X181309523Y-168380571D01*
X181357142Y-168475809D01*
X181357142Y-168713904D01*
X181309523Y-168809142D01*
X181261904Y-168856761D01*
X181166666Y-168904380D01*
X180880952Y-168904380D01*
X180785714Y-168856761D01*
X180738095Y-168809142D01*
X181928571Y-168332952D02*
X181833333Y-168285333D01*
X181785714Y-168237714D01*
X181738095Y-168142476D01*
X181738095Y-168094857D01*
X181785714Y-167999619D01*
X181833333Y-167952000D01*
X181928571Y-167904380D01*
X182119047Y-167904380D01*
X182214285Y-167952000D01*
X182261904Y-167999619D01*
X182309523Y-168094857D01*
X182309523Y-168142476D01*
X182261904Y-168237714D01*
X182214285Y-168285333D01*
X182119047Y-168332952D01*
X181928571Y-168332952D01*
X181833333Y-168380571D01*
X181785714Y-168428190D01*
X181738095Y-168523428D01*
X181738095Y-168713904D01*
X181785714Y-168809142D01*
X181833333Y-168856761D01*
X181928571Y-168904380D01*
X182119047Y-168904380D01*
X182214285Y-168856761D01*
X182261904Y-168809142D01*
X182309523Y-168713904D01*
X182309523Y-168523428D01*
X182261904Y-168428190D01*
X182214285Y-168380571D01*
X182119047Y-168332952D01*
X159690476Y-168856761D02*
X159833333Y-168904380D01*
X160071428Y-168904380D01*
X160166666Y-168856761D01*
X160214285Y-168809142D01*
X160261904Y-168713904D01*
X160261904Y-168618666D01*
X160214285Y-168523428D01*
X160166666Y-168475809D01*
X160071428Y-168428190D01*
X159880952Y-168380571D01*
X159785714Y-168332952D01*
X159738095Y-168285333D01*
X159690476Y-168190095D01*
X159690476Y-168094857D01*
X159738095Y-167999619D01*
X159785714Y-167952000D01*
X159880952Y-167904380D01*
X160119047Y-167904380D01*
X160261904Y-167952000D01*
X160595238Y-167904380D02*
X160833333Y-168904380D01*
X161023809Y-168190095D01*
X161214285Y-168904380D01*
X161452380Y-167904380D01*
X161738095Y-167904380D02*
X162357142Y-167904380D01*
X162023809Y-168285333D01*
X162166666Y-168285333D01*
X162261904Y-168332952D01*
X162309523Y-168380571D01*
X162357142Y-168475809D01*
X162357142Y-168713904D01*
X162309523Y-168809142D01*
X162261904Y-168856761D01*
X162166666Y-168904380D01*
X161880952Y-168904380D01*
X161785714Y-168856761D01*
X161738095Y-168809142D01*
X162690476Y-167904380D02*
X163357142Y-167904380D01*
X162928571Y-168904380D01*
X330690476Y-139856761D02*
X330833333Y-139904380D01*
X331071428Y-139904380D01*
X331166666Y-139856761D01*
X331214285Y-139809142D01*
X331261904Y-139713904D01*
X331261904Y-139618666D01*
X331214285Y-139523428D01*
X331166666Y-139475809D01*
X331071428Y-139428190D01*
X330880952Y-139380571D01*
X330785714Y-139332952D01*
X330738095Y-139285333D01*
X330690476Y-139190095D01*
X330690476Y-139094857D01*
X330738095Y-138999619D01*
X330785714Y-138952000D01*
X330880952Y-138904380D01*
X331119047Y-138904380D01*
X331261904Y-138952000D01*
X331595238Y-138904380D02*
X331833333Y-139904380D01*
X332023809Y-139190095D01*
X332214285Y-139904380D01*
X332452380Y-138904380D01*
X332738095Y-138904380D02*
X333357142Y-138904380D01*
X333023809Y-139285333D01*
X333166666Y-139285333D01*
X333261904Y-139332952D01*
X333309523Y-139380571D01*
X333357142Y-139475809D01*
X333357142Y-139713904D01*
X333309523Y-139809142D01*
X333261904Y-139856761D01*
X333166666Y-139904380D01*
X332880952Y-139904380D01*
X332785714Y-139856761D01*
X332738095Y-139809142D01*
X334214285Y-138904380D02*
X334023809Y-138904380D01*
X333928571Y-138952000D01*
X333880952Y-138999619D01*
X333785714Y-139142476D01*
X333738095Y-139332952D01*
X333738095Y-139713904D01*
X333785714Y-139809142D01*
X333833333Y-139856761D01*
X333928571Y-139904380D01*
X334119047Y-139904380D01*
X334214285Y-139856761D01*
X334261904Y-139809142D01*
X334309523Y-139713904D01*
X334309523Y-139475809D01*
X334261904Y-139380571D01*
X334214285Y-139332952D01*
X334119047Y-139285333D01*
X333928571Y-139285333D01*
X333833333Y-139332952D01*
X333785714Y-139380571D01*
X333738095Y-139475809D01*
X311690476Y-139856761D02*
X311833333Y-139904380D01*
X312071428Y-139904380D01*
X312166666Y-139856761D01*
X312214285Y-139809142D01*
X312261904Y-139713904D01*
X312261904Y-139618666D01*
X312214285Y-139523428D01*
X312166666Y-139475809D01*
X312071428Y-139428190D01*
X311880952Y-139380571D01*
X311785714Y-139332952D01*
X311738095Y-139285333D01*
X311690476Y-139190095D01*
X311690476Y-139094857D01*
X311738095Y-138999619D01*
X311785714Y-138952000D01*
X311880952Y-138904380D01*
X312119047Y-138904380D01*
X312261904Y-138952000D01*
X312595238Y-138904380D02*
X312833333Y-139904380D01*
X313023809Y-139190095D01*
X313214285Y-139904380D01*
X313452380Y-138904380D01*
X313738095Y-138904380D02*
X314357142Y-138904380D01*
X314023809Y-139285333D01*
X314166666Y-139285333D01*
X314261904Y-139332952D01*
X314309523Y-139380571D01*
X314357142Y-139475809D01*
X314357142Y-139713904D01*
X314309523Y-139809142D01*
X314261904Y-139856761D01*
X314166666Y-139904380D01*
X313880952Y-139904380D01*
X313785714Y-139856761D01*
X313738095Y-139809142D01*
X315261904Y-138904380D02*
X314785714Y-138904380D01*
X314738095Y-139380571D01*
X314785714Y-139332952D01*
X314880952Y-139285333D01*
X315119047Y-139285333D01*
X315214285Y-139332952D01*
X315261904Y-139380571D01*
X315309523Y-139475809D01*
X315309523Y-139713904D01*
X315261904Y-139809142D01*
X315214285Y-139856761D01*
X315119047Y-139904380D01*
X314880952Y-139904380D01*
X314785714Y-139856761D01*
X314738095Y-139809142D01*
X292690476Y-139856761D02*
X292833333Y-139904380D01*
X293071428Y-139904380D01*
X293166666Y-139856761D01*
X293214285Y-139809142D01*
X293261904Y-139713904D01*
X293261904Y-139618666D01*
X293214285Y-139523428D01*
X293166666Y-139475809D01*
X293071428Y-139428190D01*
X292880952Y-139380571D01*
X292785714Y-139332952D01*
X292738095Y-139285333D01*
X292690476Y-139190095D01*
X292690476Y-139094857D01*
X292738095Y-138999619D01*
X292785714Y-138952000D01*
X292880952Y-138904380D01*
X293119047Y-138904380D01*
X293261904Y-138952000D01*
X293595238Y-138904380D02*
X293833333Y-139904380D01*
X294023809Y-139190095D01*
X294214285Y-139904380D01*
X294452380Y-138904380D01*
X294738095Y-138904380D02*
X295357142Y-138904380D01*
X295023809Y-139285333D01*
X295166666Y-139285333D01*
X295261904Y-139332952D01*
X295309523Y-139380571D01*
X295357142Y-139475809D01*
X295357142Y-139713904D01*
X295309523Y-139809142D01*
X295261904Y-139856761D01*
X295166666Y-139904380D01*
X294880952Y-139904380D01*
X294785714Y-139856761D01*
X294738095Y-139809142D01*
X296214285Y-139237714D02*
X296214285Y-139904380D01*
X295976190Y-138856761D02*
X295738095Y-139571047D01*
X296357142Y-139571047D01*
X273690476Y-139856761D02*
X273833333Y-139904380D01*
X274071428Y-139904380D01*
X274166666Y-139856761D01*
X274214285Y-139809142D01*
X274261904Y-139713904D01*
X274261904Y-139618666D01*
X274214285Y-139523428D01*
X274166666Y-139475809D01*
X274071428Y-139428190D01*
X273880952Y-139380571D01*
X273785714Y-139332952D01*
X273738095Y-139285333D01*
X273690476Y-139190095D01*
X273690476Y-139094857D01*
X273738095Y-138999619D01*
X273785714Y-138952000D01*
X273880952Y-138904380D01*
X274119047Y-138904380D01*
X274261904Y-138952000D01*
X274595238Y-138904380D02*
X274833333Y-139904380D01*
X275023809Y-139190095D01*
X275214285Y-139904380D01*
X275452380Y-138904380D01*
X275738095Y-138904380D02*
X276357142Y-138904380D01*
X276023809Y-139285333D01*
X276166666Y-139285333D01*
X276261904Y-139332952D01*
X276309523Y-139380571D01*
X276357142Y-139475809D01*
X276357142Y-139713904D01*
X276309523Y-139809142D01*
X276261904Y-139856761D01*
X276166666Y-139904380D01*
X275880952Y-139904380D01*
X275785714Y-139856761D01*
X275738095Y-139809142D01*
X276690476Y-138904380D02*
X277309523Y-138904380D01*
X276976190Y-139285333D01*
X277119047Y-139285333D01*
X277214285Y-139332952D01*
X277261904Y-139380571D01*
X277309523Y-139475809D01*
X277309523Y-139713904D01*
X277261904Y-139809142D01*
X277214285Y-139856761D01*
X277119047Y-139904380D01*
X276833333Y-139904380D01*
X276738095Y-139856761D01*
X276690476Y-139809142D01*
X254690476Y-139856761D02*
X254833333Y-139904380D01*
X255071428Y-139904380D01*
X255166666Y-139856761D01*
X255214285Y-139809142D01*
X255261904Y-139713904D01*
X255261904Y-139618666D01*
X255214285Y-139523428D01*
X255166666Y-139475809D01*
X255071428Y-139428190D01*
X254880952Y-139380571D01*
X254785714Y-139332952D01*
X254738095Y-139285333D01*
X254690476Y-139190095D01*
X254690476Y-139094857D01*
X254738095Y-138999619D01*
X254785714Y-138952000D01*
X254880952Y-138904380D01*
X255119047Y-138904380D01*
X255261904Y-138952000D01*
X255595238Y-138904380D02*
X255833333Y-139904380D01*
X256023809Y-139190095D01*
X256214285Y-139904380D01*
X256452380Y-138904380D01*
X256738095Y-138904380D02*
X257357142Y-138904380D01*
X257023809Y-139285333D01*
X257166666Y-139285333D01*
X257261904Y-139332952D01*
X257309523Y-139380571D01*
X257357142Y-139475809D01*
X257357142Y-139713904D01*
X257309523Y-139809142D01*
X257261904Y-139856761D01*
X257166666Y-139904380D01*
X256880952Y-139904380D01*
X256785714Y-139856761D01*
X256738095Y-139809142D01*
X257738095Y-138999619D02*
X257785714Y-138952000D01*
X257880952Y-138904380D01*
X258119047Y-138904380D01*
X258214285Y-138952000D01*
X258261904Y-138999619D01*
X258309523Y-139094857D01*
X258309523Y-139190095D01*
X258261904Y-139332952D01*
X257690476Y-139904380D01*
X258309523Y-139904380D01*
X235690476Y-139856761D02*
X235833333Y-139904380D01*
X236071428Y-139904380D01*
X236166666Y-139856761D01*
X236214285Y-139809142D01*
X236261904Y-139713904D01*
X236261904Y-139618666D01*
X236214285Y-139523428D01*
X236166666Y-139475809D01*
X236071428Y-139428190D01*
X235880952Y-139380571D01*
X235785714Y-139332952D01*
X235738095Y-139285333D01*
X235690476Y-139190095D01*
X235690476Y-139094857D01*
X235738095Y-138999619D01*
X235785714Y-138952000D01*
X235880952Y-138904380D01*
X236119047Y-138904380D01*
X236261904Y-138952000D01*
X236595238Y-138904380D02*
X236833333Y-139904380D01*
X237023809Y-139190095D01*
X237214285Y-139904380D01*
X237452380Y-138904380D01*
X237738095Y-138904380D02*
X238357142Y-138904380D01*
X238023809Y-139285333D01*
X238166666Y-139285333D01*
X238261904Y-139332952D01*
X238309523Y-139380571D01*
X238357142Y-139475809D01*
X238357142Y-139713904D01*
X238309523Y-139809142D01*
X238261904Y-139856761D01*
X238166666Y-139904380D01*
X237880952Y-139904380D01*
X237785714Y-139856761D01*
X237738095Y-139809142D01*
X239309523Y-139904380D02*
X238738095Y-139904380D01*
X239023809Y-139904380D02*
X239023809Y-138904380D01*
X238928571Y-139047238D01*
X238833333Y-139142476D01*
X238738095Y-139190095D01*
X330690476Y-120856761D02*
X330833333Y-120904380D01*
X331071428Y-120904380D01*
X331166666Y-120856761D01*
X331214285Y-120809142D01*
X331261904Y-120713904D01*
X331261904Y-120618666D01*
X331214285Y-120523428D01*
X331166666Y-120475809D01*
X331071428Y-120428190D01*
X330880952Y-120380571D01*
X330785714Y-120332952D01*
X330738095Y-120285333D01*
X330690476Y-120190095D01*
X330690476Y-120094857D01*
X330738095Y-119999619D01*
X330785714Y-119952000D01*
X330880952Y-119904380D01*
X331119047Y-119904380D01*
X331261904Y-119952000D01*
X331595238Y-119904380D02*
X331833333Y-120904380D01*
X332023809Y-120190095D01*
X332214285Y-120904380D01*
X332452380Y-119904380D01*
X332738095Y-119904380D02*
X333357142Y-119904380D01*
X333023809Y-120285333D01*
X333166666Y-120285333D01*
X333261904Y-120332952D01*
X333309523Y-120380571D01*
X333357142Y-120475809D01*
X333357142Y-120713904D01*
X333309523Y-120809142D01*
X333261904Y-120856761D01*
X333166666Y-120904380D01*
X332880952Y-120904380D01*
X332785714Y-120856761D01*
X332738095Y-120809142D01*
X333976190Y-119904380D02*
X334071428Y-119904380D01*
X334166666Y-119952000D01*
X334214285Y-119999619D01*
X334261904Y-120094857D01*
X334309523Y-120285333D01*
X334309523Y-120523428D01*
X334261904Y-120713904D01*
X334214285Y-120809142D01*
X334166666Y-120856761D01*
X334071428Y-120904380D01*
X333976190Y-120904380D01*
X333880952Y-120856761D01*
X333833333Y-120809142D01*
X333785714Y-120713904D01*
X333738095Y-120523428D01*
X333738095Y-120285333D01*
X333785714Y-120094857D01*
X333833333Y-119999619D01*
X333880952Y-119952000D01*
X333976190Y-119904380D01*
X311690476Y-120856761D02*
X311833333Y-120904380D01*
X312071428Y-120904380D01*
X312166666Y-120856761D01*
X312214285Y-120809142D01*
X312261904Y-120713904D01*
X312261904Y-120618666D01*
X312214285Y-120523428D01*
X312166666Y-120475809D01*
X312071428Y-120428190D01*
X311880952Y-120380571D01*
X311785714Y-120332952D01*
X311738095Y-120285333D01*
X311690476Y-120190095D01*
X311690476Y-120094857D01*
X311738095Y-119999619D01*
X311785714Y-119952000D01*
X311880952Y-119904380D01*
X312119047Y-119904380D01*
X312261904Y-119952000D01*
X312595238Y-119904380D02*
X312833333Y-120904380D01*
X313023809Y-120190095D01*
X313214285Y-120904380D01*
X313452380Y-119904380D01*
X313785714Y-119999619D02*
X313833333Y-119952000D01*
X313928571Y-119904380D01*
X314166666Y-119904380D01*
X314261904Y-119952000D01*
X314309523Y-119999619D01*
X314357142Y-120094857D01*
X314357142Y-120190095D01*
X314309523Y-120332952D01*
X313738095Y-120904380D01*
X314357142Y-120904380D01*
X314833333Y-120904380D02*
X315023809Y-120904380D01*
X315119047Y-120856761D01*
X315166666Y-120809142D01*
X315261904Y-120666285D01*
X315309523Y-120475809D01*
X315309523Y-120094857D01*
X315261904Y-119999619D01*
X315214285Y-119952000D01*
X315119047Y-119904380D01*
X314928571Y-119904380D01*
X314833333Y-119952000D01*
X314785714Y-119999619D01*
X314738095Y-120094857D01*
X314738095Y-120332952D01*
X314785714Y-120428190D01*
X314833333Y-120475809D01*
X314928571Y-120523428D01*
X315119047Y-120523428D01*
X315214285Y-120475809D01*
X315261904Y-120428190D01*
X315309523Y-120332952D01*
X292690476Y-120856761D02*
X292833333Y-120904380D01*
X293071428Y-120904380D01*
X293166666Y-120856761D01*
X293214285Y-120809142D01*
X293261904Y-120713904D01*
X293261904Y-120618666D01*
X293214285Y-120523428D01*
X293166666Y-120475809D01*
X293071428Y-120428190D01*
X292880952Y-120380571D01*
X292785714Y-120332952D01*
X292738095Y-120285333D01*
X292690476Y-120190095D01*
X292690476Y-120094857D01*
X292738095Y-119999619D01*
X292785714Y-119952000D01*
X292880952Y-119904380D01*
X293119047Y-119904380D01*
X293261904Y-119952000D01*
X293595238Y-119904380D02*
X293833333Y-120904380D01*
X294023809Y-120190095D01*
X294214285Y-120904380D01*
X294452380Y-119904380D01*
X294785714Y-119999619D02*
X294833333Y-119952000D01*
X294928571Y-119904380D01*
X295166666Y-119904380D01*
X295261904Y-119952000D01*
X295309523Y-119999619D01*
X295357142Y-120094857D01*
X295357142Y-120190095D01*
X295309523Y-120332952D01*
X294738095Y-120904380D01*
X295357142Y-120904380D01*
X295928571Y-120332952D02*
X295833333Y-120285333D01*
X295785714Y-120237714D01*
X295738095Y-120142476D01*
X295738095Y-120094857D01*
X295785714Y-119999619D01*
X295833333Y-119952000D01*
X295928571Y-119904380D01*
X296119047Y-119904380D01*
X296214285Y-119952000D01*
X296261904Y-119999619D01*
X296309523Y-120094857D01*
X296309523Y-120142476D01*
X296261904Y-120237714D01*
X296214285Y-120285333D01*
X296119047Y-120332952D01*
X295928571Y-120332952D01*
X295833333Y-120380571D01*
X295785714Y-120428190D01*
X295738095Y-120523428D01*
X295738095Y-120713904D01*
X295785714Y-120809142D01*
X295833333Y-120856761D01*
X295928571Y-120904380D01*
X296119047Y-120904380D01*
X296214285Y-120856761D01*
X296261904Y-120809142D01*
X296309523Y-120713904D01*
X296309523Y-120523428D01*
X296261904Y-120428190D01*
X296214285Y-120380571D01*
X296119047Y-120332952D01*
X273690476Y-120856761D02*
X273833333Y-120904380D01*
X274071428Y-120904380D01*
X274166666Y-120856761D01*
X274214285Y-120809142D01*
X274261904Y-120713904D01*
X274261904Y-120618666D01*
X274214285Y-120523428D01*
X274166666Y-120475809D01*
X274071428Y-120428190D01*
X273880952Y-120380571D01*
X273785714Y-120332952D01*
X273738095Y-120285333D01*
X273690476Y-120190095D01*
X273690476Y-120094857D01*
X273738095Y-119999619D01*
X273785714Y-119952000D01*
X273880952Y-119904380D01*
X274119047Y-119904380D01*
X274261904Y-119952000D01*
X274595238Y-119904380D02*
X274833333Y-120904380D01*
X275023809Y-120190095D01*
X275214285Y-120904380D01*
X275452380Y-119904380D01*
X275785714Y-119999619D02*
X275833333Y-119952000D01*
X275928571Y-119904380D01*
X276166666Y-119904380D01*
X276261904Y-119952000D01*
X276309523Y-119999619D01*
X276357142Y-120094857D01*
X276357142Y-120190095D01*
X276309523Y-120332952D01*
X275738095Y-120904380D01*
X276357142Y-120904380D01*
X276690476Y-119904380D02*
X277357142Y-119904380D01*
X276928571Y-120904380D01*
X254690476Y-120856761D02*
X254833333Y-120904380D01*
X255071428Y-120904380D01*
X255166666Y-120856761D01*
X255214285Y-120809142D01*
X255261904Y-120713904D01*
X255261904Y-120618666D01*
X255214285Y-120523428D01*
X255166666Y-120475809D01*
X255071428Y-120428190D01*
X254880952Y-120380571D01*
X254785714Y-120332952D01*
X254738095Y-120285333D01*
X254690476Y-120190095D01*
X254690476Y-120094857D01*
X254738095Y-119999619D01*
X254785714Y-119952000D01*
X254880952Y-119904380D01*
X255119047Y-119904380D01*
X255261904Y-119952000D01*
X255595238Y-119904380D02*
X255833333Y-120904380D01*
X256023809Y-120190095D01*
X256214285Y-120904380D01*
X256452380Y-119904380D01*
X256785714Y-119999619D02*
X256833333Y-119952000D01*
X256928571Y-119904380D01*
X257166666Y-119904380D01*
X257261904Y-119952000D01*
X257309523Y-119999619D01*
X257357142Y-120094857D01*
X257357142Y-120190095D01*
X257309523Y-120332952D01*
X256738095Y-120904380D01*
X257357142Y-120904380D01*
X258214285Y-119904380D02*
X258023809Y-119904380D01*
X257928571Y-119952000D01*
X257880952Y-119999619D01*
X257785714Y-120142476D01*
X257738095Y-120332952D01*
X257738095Y-120713904D01*
X257785714Y-120809142D01*
X257833333Y-120856761D01*
X257928571Y-120904380D01*
X258119047Y-120904380D01*
X258214285Y-120856761D01*
X258261904Y-120809142D01*
X258309523Y-120713904D01*
X258309523Y-120475809D01*
X258261904Y-120380571D01*
X258214285Y-120332952D01*
X258119047Y-120285333D01*
X257928571Y-120285333D01*
X257833333Y-120332952D01*
X257785714Y-120380571D01*
X257738095Y-120475809D01*
X235690476Y-120856761D02*
X235833333Y-120904380D01*
X236071428Y-120904380D01*
X236166666Y-120856761D01*
X236214285Y-120809142D01*
X236261904Y-120713904D01*
X236261904Y-120618666D01*
X236214285Y-120523428D01*
X236166666Y-120475809D01*
X236071428Y-120428190D01*
X235880952Y-120380571D01*
X235785714Y-120332952D01*
X235738095Y-120285333D01*
X235690476Y-120190095D01*
X235690476Y-120094857D01*
X235738095Y-119999619D01*
X235785714Y-119952000D01*
X235880952Y-119904380D01*
X236119047Y-119904380D01*
X236261904Y-119952000D01*
X236595238Y-119904380D02*
X236833333Y-120904380D01*
X237023809Y-120190095D01*
X237214285Y-120904380D01*
X237452380Y-119904380D01*
X237785714Y-119999619D02*
X237833333Y-119952000D01*
X237928571Y-119904380D01*
X238166666Y-119904380D01*
X238261904Y-119952000D01*
X238309523Y-119999619D01*
X238357142Y-120094857D01*
X238357142Y-120190095D01*
X238309523Y-120332952D01*
X237738095Y-120904380D01*
X238357142Y-120904380D01*
X239261904Y-119904380D02*
X238785714Y-119904380D01*
X238738095Y-120380571D01*
X238785714Y-120332952D01*
X238880952Y-120285333D01*
X239119047Y-120285333D01*
X239214285Y-120332952D01*
X239261904Y-120380571D01*
X239309523Y-120475809D01*
X239309523Y-120713904D01*
X239261904Y-120809142D01*
X239214285Y-120856761D01*
X239119047Y-120904380D01*
X238880952Y-120904380D01*
X238785714Y-120856761D01*
X238738095Y-120809142D01*
X330690476Y-101856761D02*
X330833333Y-101904380D01*
X331071428Y-101904380D01*
X331166666Y-101856761D01*
X331214285Y-101809142D01*
X331261904Y-101713904D01*
X331261904Y-101618666D01*
X331214285Y-101523428D01*
X331166666Y-101475809D01*
X331071428Y-101428190D01*
X330880952Y-101380571D01*
X330785714Y-101332952D01*
X330738095Y-101285333D01*
X330690476Y-101190095D01*
X330690476Y-101094857D01*
X330738095Y-100999619D01*
X330785714Y-100952000D01*
X330880952Y-100904380D01*
X331119047Y-100904380D01*
X331261904Y-100952000D01*
X331595238Y-100904380D02*
X331833333Y-101904380D01*
X332023809Y-101190095D01*
X332214285Y-101904380D01*
X332452380Y-100904380D01*
X332785714Y-100999619D02*
X332833333Y-100952000D01*
X332928571Y-100904380D01*
X333166666Y-100904380D01*
X333261904Y-100952000D01*
X333309523Y-100999619D01*
X333357142Y-101094857D01*
X333357142Y-101190095D01*
X333309523Y-101332952D01*
X332738095Y-101904380D01*
X333357142Y-101904380D01*
X334214285Y-101237714D02*
X334214285Y-101904380D01*
X333976190Y-100856761D02*
X333738095Y-101571047D01*
X334357142Y-101571047D01*
X311690476Y-101856761D02*
X311833333Y-101904380D01*
X312071428Y-101904380D01*
X312166666Y-101856761D01*
X312214285Y-101809142D01*
X312261904Y-101713904D01*
X312261904Y-101618666D01*
X312214285Y-101523428D01*
X312166666Y-101475809D01*
X312071428Y-101428190D01*
X311880952Y-101380571D01*
X311785714Y-101332952D01*
X311738095Y-101285333D01*
X311690476Y-101190095D01*
X311690476Y-101094857D01*
X311738095Y-100999619D01*
X311785714Y-100952000D01*
X311880952Y-100904380D01*
X312119047Y-100904380D01*
X312261904Y-100952000D01*
X312595238Y-100904380D02*
X312833333Y-101904380D01*
X313023809Y-101190095D01*
X313214285Y-101904380D01*
X313452380Y-100904380D01*
X313785714Y-100999619D02*
X313833333Y-100952000D01*
X313928571Y-100904380D01*
X314166666Y-100904380D01*
X314261904Y-100952000D01*
X314309523Y-100999619D01*
X314357142Y-101094857D01*
X314357142Y-101190095D01*
X314309523Y-101332952D01*
X313738095Y-101904380D01*
X314357142Y-101904380D01*
X314690476Y-100904380D02*
X315309523Y-100904380D01*
X314976190Y-101285333D01*
X315119047Y-101285333D01*
X315214285Y-101332952D01*
X315261904Y-101380571D01*
X315309523Y-101475809D01*
X315309523Y-101713904D01*
X315261904Y-101809142D01*
X315214285Y-101856761D01*
X315119047Y-101904380D01*
X314833333Y-101904380D01*
X314738095Y-101856761D01*
X314690476Y-101809142D01*
X292690476Y-101856761D02*
X292833333Y-101904380D01*
X293071428Y-101904380D01*
X293166666Y-101856761D01*
X293214285Y-101809142D01*
X293261904Y-101713904D01*
X293261904Y-101618666D01*
X293214285Y-101523428D01*
X293166666Y-101475809D01*
X293071428Y-101428190D01*
X292880952Y-101380571D01*
X292785714Y-101332952D01*
X292738095Y-101285333D01*
X292690476Y-101190095D01*
X292690476Y-101094857D01*
X292738095Y-100999619D01*
X292785714Y-100952000D01*
X292880952Y-100904380D01*
X293119047Y-100904380D01*
X293261904Y-100952000D01*
X293595238Y-100904380D02*
X293833333Y-101904380D01*
X294023809Y-101190095D01*
X294214285Y-101904380D01*
X294452380Y-100904380D01*
X294785714Y-100999619D02*
X294833333Y-100952000D01*
X294928571Y-100904380D01*
X295166666Y-100904380D01*
X295261904Y-100952000D01*
X295309523Y-100999619D01*
X295357142Y-101094857D01*
X295357142Y-101190095D01*
X295309523Y-101332952D01*
X294738095Y-101904380D01*
X295357142Y-101904380D01*
X295738095Y-100999619D02*
X295785714Y-100952000D01*
X295880952Y-100904380D01*
X296119047Y-100904380D01*
X296214285Y-100952000D01*
X296261904Y-100999619D01*
X296309523Y-101094857D01*
X296309523Y-101190095D01*
X296261904Y-101332952D01*
X295690476Y-101904380D01*
X296309523Y-101904380D01*
X273690476Y-101856761D02*
X273833333Y-101904380D01*
X274071428Y-101904380D01*
X274166666Y-101856761D01*
X274214285Y-101809142D01*
X274261904Y-101713904D01*
X274261904Y-101618666D01*
X274214285Y-101523428D01*
X274166666Y-101475809D01*
X274071428Y-101428190D01*
X273880952Y-101380571D01*
X273785714Y-101332952D01*
X273738095Y-101285333D01*
X273690476Y-101190095D01*
X273690476Y-101094857D01*
X273738095Y-100999619D01*
X273785714Y-100952000D01*
X273880952Y-100904380D01*
X274119047Y-100904380D01*
X274261904Y-100952000D01*
X274595238Y-100904380D02*
X274833333Y-101904380D01*
X275023809Y-101190095D01*
X275214285Y-101904380D01*
X275452380Y-100904380D01*
X275785714Y-100999619D02*
X275833333Y-100952000D01*
X275928571Y-100904380D01*
X276166666Y-100904380D01*
X276261904Y-100952000D01*
X276309523Y-100999619D01*
X276357142Y-101094857D01*
X276357142Y-101190095D01*
X276309523Y-101332952D01*
X275738095Y-101904380D01*
X276357142Y-101904380D01*
X277309523Y-101904380D02*
X276738095Y-101904380D01*
X277023809Y-101904380D02*
X277023809Y-100904380D01*
X276928571Y-101047238D01*
X276833333Y-101142476D01*
X276738095Y-101190095D01*
X254690476Y-101856761D02*
X254833333Y-101904380D01*
X255071428Y-101904380D01*
X255166666Y-101856761D01*
X255214285Y-101809142D01*
X255261904Y-101713904D01*
X255261904Y-101618666D01*
X255214285Y-101523428D01*
X255166666Y-101475809D01*
X255071428Y-101428190D01*
X254880952Y-101380571D01*
X254785714Y-101332952D01*
X254738095Y-101285333D01*
X254690476Y-101190095D01*
X254690476Y-101094857D01*
X254738095Y-100999619D01*
X254785714Y-100952000D01*
X254880952Y-100904380D01*
X255119047Y-100904380D01*
X255261904Y-100952000D01*
X255595238Y-100904380D02*
X255833333Y-101904380D01*
X256023809Y-101190095D01*
X256214285Y-101904380D01*
X256452380Y-100904380D01*
X256785714Y-100999619D02*
X256833333Y-100952000D01*
X256928571Y-100904380D01*
X257166666Y-100904380D01*
X257261904Y-100952000D01*
X257309523Y-100999619D01*
X257357142Y-101094857D01*
X257357142Y-101190095D01*
X257309523Y-101332952D01*
X256738095Y-101904380D01*
X257357142Y-101904380D01*
X257976190Y-100904380D02*
X258071428Y-100904380D01*
X258166666Y-100952000D01*
X258214285Y-100999619D01*
X258261904Y-101094857D01*
X258309523Y-101285333D01*
X258309523Y-101523428D01*
X258261904Y-101713904D01*
X258214285Y-101809142D01*
X258166666Y-101856761D01*
X258071428Y-101904380D01*
X257976190Y-101904380D01*
X257880952Y-101856761D01*
X257833333Y-101809142D01*
X257785714Y-101713904D01*
X257738095Y-101523428D01*
X257738095Y-101285333D01*
X257785714Y-101094857D01*
X257833333Y-100999619D01*
X257880952Y-100952000D01*
X257976190Y-100904380D01*
X235690476Y-101856761D02*
X235833333Y-101904380D01*
X236071428Y-101904380D01*
X236166666Y-101856761D01*
X236214285Y-101809142D01*
X236261904Y-101713904D01*
X236261904Y-101618666D01*
X236214285Y-101523428D01*
X236166666Y-101475809D01*
X236071428Y-101428190D01*
X235880952Y-101380571D01*
X235785714Y-101332952D01*
X235738095Y-101285333D01*
X235690476Y-101190095D01*
X235690476Y-101094857D01*
X235738095Y-100999619D01*
X235785714Y-100952000D01*
X235880952Y-100904380D01*
X236119047Y-100904380D01*
X236261904Y-100952000D01*
X236595238Y-100904380D02*
X236833333Y-101904380D01*
X237023809Y-101190095D01*
X237214285Y-101904380D01*
X237452380Y-100904380D01*
X238357142Y-101904380D02*
X237785714Y-101904380D01*
X238071428Y-101904380D02*
X238071428Y-100904380D01*
X237976190Y-101047238D01*
X237880952Y-101142476D01*
X237785714Y-101190095D01*
X238833333Y-101904380D02*
X239023809Y-101904380D01*
X239119047Y-101856761D01*
X239166666Y-101809142D01*
X239261904Y-101666285D01*
X239309523Y-101475809D01*
X239309523Y-101094857D01*
X239261904Y-100999619D01*
X239214285Y-100952000D01*
X239119047Y-100904380D01*
X238928571Y-100904380D01*
X238833333Y-100952000D01*
X238785714Y-100999619D01*
X238738095Y-101094857D01*
X238738095Y-101332952D01*
X238785714Y-101428190D01*
X238833333Y-101475809D01*
X238928571Y-101523428D01*
X239119047Y-101523428D01*
X239214285Y-101475809D01*
X239261904Y-101428190D01*
X239309523Y-101332952D01*
X178690476Y-139856761D02*
X178833333Y-139904380D01*
X179071428Y-139904380D01*
X179166666Y-139856761D01*
X179214285Y-139809142D01*
X179261904Y-139713904D01*
X179261904Y-139618666D01*
X179214285Y-139523428D01*
X179166666Y-139475809D01*
X179071428Y-139428190D01*
X178880952Y-139380571D01*
X178785714Y-139332952D01*
X178738095Y-139285333D01*
X178690476Y-139190095D01*
X178690476Y-139094857D01*
X178738095Y-138999619D01*
X178785714Y-138952000D01*
X178880952Y-138904380D01*
X179119047Y-138904380D01*
X179261904Y-138952000D01*
X179595238Y-138904380D02*
X179833333Y-139904380D01*
X180023809Y-139190095D01*
X180214285Y-139904380D01*
X180452380Y-138904380D01*
X181357142Y-139904380D02*
X180785714Y-139904380D01*
X181071428Y-139904380D02*
X181071428Y-138904380D01*
X180976190Y-139047238D01*
X180880952Y-139142476D01*
X180785714Y-139190095D01*
X181928571Y-139332952D02*
X181833333Y-139285333D01*
X181785714Y-139237714D01*
X181738095Y-139142476D01*
X181738095Y-139094857D01*
X181785714Y-138999619D01*
X181833333Y-138952000D01*
X181928571Y-138904380D01*
X182119047Y-138904380D01*
X182214285Y-138952000D01*
X182261904Y-138999619D01*
X182309523Y-139094857D01*
X182309523Y-139142476D01*
X182261904Y-139237714D01*
X182214285Y-139285333D01*
X182119047Y-139332952D01*
X181928571Y-139332952D01*
X181833333Y-139380571D01*
X181785714Y-139428190D01*
X181738095Y-139523428D01*
X181738095Y-139713904D01*
X181785714Y-139809142D01*
X181833333Y-139856761D01*
X181928571Y-139904380D01*
X182119047Y-139904380D01*
X182214285Y-139856761D01*
X182261904Y-139809142D01*
X182309523Y-139713904D01*
X182309523Y-139523428D01*
X182261904Y-139428190D01*
X182214285Y-139380571D01*
X182119047Y-139332952D01*
X159690476Y-139856761D02*
X159833333Y-139904380D01*
X160071428Y-139904380D01*
X160166666Y-139856761D01*
X160214285Y-139809142D01*
X160261904Y-139713904D01*
X160261904Y-139618666D01*
X160214285Y-139523428D01*
X160166666Y-139475809D01*
X160071428Y-139428190D01*
X159880952Y-139380571D01*
X159785714Y-139332952D01*
X159738095Y-139285333D01*
X159690476Y-139190095D01*
X159690476Y-139094857D01*
X159738095Y-138999619D01*
X159785714Y-138952000D01*
X159880952Y-138904380D01*
X160119047Y-138904380D01*
X160261904Y-138952000D01*
X160595238Y-138904380D02*
X160833333Y-139904380D01*
X161023809Y-139190095D01*
X161214285Y-139904380D01*
X161452380Y-138904380D01*
X162357142Y-139904380D02*
X161785714Y-139904380D01*
X162071428Y-139904380D02*
X162071428Y-138904380D01*
X161976190Y-139047238D01*
X161880952Y-139142476D01*
X161785714Y-139190095D01*
X162690476Y-138904380D02*
X163357142Y-138904380D01*
X162928571Y-139904380D01*
X140690476Y-139856761D02*
X140833333Y-139904380D01*
X141071428Y-139904380D01*
X141166666Y-139856761D01*
X141214285Y-139809142D01*
X141261904Y-139713904D01*
X141261904Y-139618666D01*
X141214285Y-139523428D01*
X141166666Y-139475809D01*
X141071428Y-139428190D01*
X140880952Y-139380571D01*
X140785714Y-139332952D01*
X140738095Y-139285333D01*
X140690476Y-139190095D01*
X140690476Y-139094857D01*
X140738095Y-138999619D01*
X140785714Y-138952000D01*
X140880952Y-138904380D01*
X141119047Y-138904380D01*
X141261904Y-138952000D01*
X141595238Y-138904380D02*
X141833333Y-139904380D01*
X142023809Y-139190095D01*
X142214285Y-139904380D01*
X142452380Y-138904380D01*
X143357142Y-139904380D02*
X142785714Y-139904380D01*
X143071428Y-139904380D02*
X143071428Y-138904380D01*
X142976190Y-139047238D01*
X142880952Y-139142476D01*
X142785714Y-139190095D01*
X144214285Y-138904380D02*
X144023809Y-138904380D01*
X143928571Y-138952000D01*
X143880952Y-138999619D01*
X143785714Y-139142476D01*
X143738095Y-139332952D01*
X143738095Y-139713904D01*
X143785714Y-139809142D01*
X143833333Y-139856761D01*
X143928571Y-139904380D01*
X144119047Y-139904380D01*
X144214285Y-139856761D01*
X144261904Y-139809142D01*
X144309523Y-139713904D01*
X144309523Y-139475809D01*
X144261904Y-139380571D01*
X144214285Y-139332952D01*
X144119047Y-139285333D01*
X143928571Y-139285333D01*
X143833333Y-139332952D01*
X143785714Y-139380571D01*
X143738095Y-139475809D01*
X121690476Y-139856761D02*
X121833333Y-139904380D01*
X122071428Y-139904380D01*
X122166666Y-139856761D01*
X122214285Y-139809142D01*
X122261904Y-139713904D01*
X122261904Y-139618666D01*
X122214285Y-139523428D01*
X122166666Y-139475809D01*
X122071428Y-139428190D01*
X121880952Y-139380571D01*
X121785714Y-139332952D01*
X121738095Y-139285333D01*
X121690476Y-139190095D01*
X121690476Y-139094857D01*
X121738095Y-138999619D01*
X121785714Y-138952000D01*
X121880952Y-138904380D01*
X122119047Y-138904380D01*
X122261904Y-138952000D01*
X122595238Y-138904380D02*
X122833333Y-139904380D01*
X123023809Y-139190095D01*
X123214285Y-139904380D01*
X123452380Y-138904380D01*
X124357142Y-139904380D02*
X123785714Y-139904380D01*
X124071428Y-139904380D02*
X124071428Y-138904380D01*
X123976190Y-139047238D01*
X123880952Y-139142476D01*
X123785714Y-139190095D01*
X125261904Y-138904380D02*
X124785714Y-138904380D01*
X124738095Y-139380571D01*
X124785714Y-139332952D01*
X124880952Y-139285333D01*
X125119047Y-139285333D01*
X125214285Y-139332952D01*
X125261904Y-139380571D01*
X125309523Y-139475809D01*
X125309523Y-139713904D01*
X125261904Y-139809142D01*
X125214285Y-139856761D01*
X125119047Y-139904380D01*
X124880952Y-139904380D01*
X124785714Y-139856761D01*
X124738095Y-139809142D01*
X102690476Y-139856761D02*
X102833333Y-139904380D01*
X103071428Y-139904380D01*
X103166666Y-139856761D01*
X103214285Y-139809142D01*
X103261904Y-139713904D01*
X103261904Y-139618666D01*
X103214285Y-139523428D01*
X103166666Y-139475809D01*
X103071428Y-139428190D01*
X102880952Y-139380571D01*
X102785714Y-139332952D01*
X102738095Y-139285333D01*
X102690476Y-139190095D01*
X102690476Y-139094857D01*
X102738095Y-138999619D01*
X102785714Y-138952000D01*
X102880952Y-138904380D01*
X103119047Y-138904380D01*
X103261904Y-138952000D01*
X103595238Y-138904380D02*
X103833333Y-139904380D01*
X104023809Y-139190095D01*
X104214285Y-139904380D01*
X104452380Y-138904380D01*
X105357142Y-139904380D02*
X104785714Y-139904380D01*
X105071428Y-139904380D02*
X105071428Y-138904380D01*
X104976190Y-139047238D01*
X104880952Y-139142476D01*
X104785714Y-139190095D01*
X106214285Y-139237714D02*
X106214285Y-139904380D01*
X105976190Y-138856761D02*
X105738095Y-139571047D01*
X106357142Y-139571047D01*
X83690476Y-139856761D02*
X83833333Y-139904380D01*
X84071428Y-139904380D01*
X84166666Y-139856761D01*
X84214285Y-139809142D01*
X84261904Y-139713904D01*
X84261904Y-139618666D01*
X84214285Y-139523428D01*
X84166666Y-139475809D01*
X84071428Y-139428190D01*
X83880952Y-139380571D01*
X83785714Y-139332952D01*
X83738095Y-139285333D01*
X83690476Y-139190095D01*
X83690476Y-139094857D01*
X83738095Y-138999619D01*
X83785714Y-138952000D01*
X83880952Y-138904380D01*
X84119047Y-138904380D01*
X84261904Y-138952000D01*
X84595238Y-138904380D02*
X84833333Y-139904380D01*
X85023809Y-139190095D01*
X85214285Y-139904380D01*
X85452380Y-138904380D01*
X86357142Y-139904380D02*
X85785714Y-139904380D01*
X86071428Y-139904380D02*
X86071428Y-138904380D01*
X85976190Y-139047238D01*
X85880952Y-139142476D01*
X85785714Y-139190095D01*
X86690476Y-138904380D02*
X87309523Y-138904380D01*
X86976190Y-139285333D01*
X87119047Y-139285333D01*
X87214285Y-139332952D01*
X87261904Y-139380571D01*
X87309523Y-139475809D01*
X87309523Y-139713904D01*
X87261904Y-139809142D01*
X87214285Y-139856761D01*
X87119047Y-139904380D01*
X86833333Y-139904380D01*
X86738095Y-139856761D01*
X86690476Y-139809142D01*
X178690476Y-120856761D02*
X178833333Y-120904380D01*
X179071428Y-120904380D01*
X179166666Y-120856761D01*
X179214285Y-120809142D01*
X179261904Y-120713904D01*
X179261904Y-120618666D01*
X179214285Y-120523428D01*
X179166666Y-120475809D01*
X179071428Y-120428190D01*
X178880952Y-120380571D01*
X178785714Y-120332952D01*
X178738095Y-120285333D01*
X178690476Y-120190095D01*
X178690476Y-120094857D01*
X178738095Y-119999619D01*
X178785714Y-119952000D01*
X178880952Y-119904380D01*
X179119047Y-119904380D01*
X179261904Y-119952000D01*
X179595238Y-119904380D02*
X179833333Y-120904380D01*
X180023809Y-120190095D01*
X180214285Y-120904380D01*
X180452380Y-119904380D01*
X181357142Y-120904380D02*
X180785714Y-120904380D01*
X181071428Y-120904380D02*
X181071428Y-119904380D01*
X180976190Y-120047238D01*
X180880952Y-120142476D01*
X180785714Y-120190095D01*
X181738095Y-119999619D02*
X181785714Y-119952000D01*
X181880952Y-119904380D01*
X182119047Y-119904380D01*
X182214285Y-119952000D01*
X182261904Y-119999619D01*
X182309523Y-120094857D01*
X182309523Y-120190095D01*
X182261904Y-120332952D01*
X181690476Y-120904380D01*
X182309523Y-120904380D01*
X159690476Y-120856761D02*
X159833333Y-120904380D01*
X160071428Y-120904380D01*
X160166666Y-120856761D01*
X160214285Y-120809142D01*
X160261904Y-120713904D01*
X160261904Y-120618666D01*
X160214285Y-120523428D01*
X160166666Y-120475809D01*
X160071428Y-120428190D01*
X159880952Y-120380571D01*
X159785714Y-120332952D01*
X159738095Y-120285333D01*
X159690476Y-120190095D01*
X159690476Y-120094857D01*
X159738095Y-119999619D01*
X159785714Y-119952000D01*
X159880952Y-119904380D01*
X160119047Y-119904380D01*
X160261904Y-119952000D01*
X160595238Y-119904380D02*
X160833333Y-120904380D01*
X161023809Y-120190095D01*
X161214285Y-120904380D01*
X161452380Y-119904380D01*
X162357142Y-120904380D02*
X161785714Y-120904380D01*
X162071428Y-120904380D02*
X162071428Y-119904380D01*
X161976190Y-120047238D01*
X161880952Y-120142476D01*
X161785714Y-120190095D01*
X163309523Y-120904380D02*
X162738095Y-120904380D01*
X163023809Y-120904380D02*
X163023809Y-119904380D01*
X162928571Y-120047238D01*
X162833333Y-120142476D01*
X162738095Y-120190095D01*
X140690476Y-120856761D02*
X140833333Y-120904380D01*
X141071428Y-120904380D01*
X141166666Y-120856761D01*
X141214285Y-120809142D01*
X141261904Y-120713904D01*
X141261904Y-120618666D01*
X141214285Y-120523428D01*
X141166666Y-120475809D01*
X141071428Y-120428190D01*
X140880952Y-120380571D01*
X140785714Y-120332952D01*
X140738095Y-120285333D01*
X140690476Y-120190095D01*
X140690476Y-120094857D01*
X140738095Y-119999619D01*
X140785714Y-119952000D01*
X140880952Y-119904380D01*
X141119047Y-119904380D01*
X141261904Y-119952000D01*
X141595238Y-119904380D02*
X141833333Y-120904380D01*
X142023809Y-120190095D01*
X142214285Y-120904380D01*
X142452380Y-119904380D01*
X143357142Y-120904380D02*
X142785714Y-120904380D01*
X143071428Y-120904380D02*
X143071428Y-119904380D01*
X142976190Y-120047238D01*
X142880952Y-120142476D01*
X142785714Y-120190095D01*
X143976190Y-119904380D02*
X144071428Y-119904380D01*
X144166666Y-119952000D01*
X144214285Y-119999619D01*
X144261904Y-120094857D01*
X144309523Y-120285333D01*
X144309523Y-120523428D01*
X144261904Y-120713904D01*
X144214285Y-120809142D01*
X144166666Y-120856761D01*
X144071428Y-120904380D01*
X143976190Y-120904380D01*
X143880952Y-120856761D01*
X143833333Y-120809142D01*
X143785714Y-120713904D01*
X143738095Y-120523428D01*
X143738095Y-120285333D01*
X143785714Y-120094857D01*
X143833333Y-119999619D01*
X143880952Y-119952000D01*
X143976190Y-119904380D01*
X122166666Y-120856761D02*
X122309523Y-120904380D01*
X122547619Y-120904380D01*
X122642857Y-120856761D01*
X122690476Y-120809142D01*
X122738095Y-120713904D01*
X122738095Y-120618666D01*
X122690476Y-120523428D01*
X122642857Y-120475809D01*
X122547619Y-120428190D01*
X122357142Y-120380571D01*
X122261904Y-120332952D01*
X122214285Y-120285333D01*
X122166666Y-120190095D01*
X122166666Y-120094857D01*
X122214285Y-119999619D01*
X122261904Y-119952000D01*
X122357142Y-119904380D01*
X122595238Y-119904380D01*
X122738095Y-119952000D01*
X123071428Y-119904380D02*
X123309523Y-120904380D01*
X123500000Y-120190095D01*
X123690476Y-120904380D01*
X123928571Y-119904380D01*
X124357142Y-120904380D02*
X124547619Y-120904380D01*
X124642857Y-120856761D01*
X124690476Y-120809142D01*
X124785714Y-120666285D01*
X124833333Y-120475809D01*
X124833333Y-120094857D01*
X124785714Y-119999619D01*
X124738095Y-119952000D01*
X124642857Y-119904380D01*
X124452380Y-119904380D01*
X124357142Y-119952000D01*
X124309523Y-119999619D01*
X124261904Y-120094857D01*
X124261904Y-120332952D01*
X124309523Y-120428190D01*
X124357142Y-120475809D01*
X124452380Y-120523428D01*
X124642857Y-120523428D01*
X124738095Y-120475809D01*
X124785714Y-120428190D01*
X124833333Y-120332952D01*
X103166666Y-120856761D02*
X103309523Y-120904380D01*
X103547619Y-120904380D01*
X103642857Y-120856761D01*
X103690476Y-120809142D01*
X103738095Y-120713904D01*
X103738095Y-120618666D01*
X103690476Y-120523428D01*
X103642857Y-120475809D01*
X103547619Y-120428190D01*
X103357142Y-120380571D01*
X103261904Y-120332952D01*
X103214285Y-120285333D01*
X103166666Y-120190095D01*
X103166666Y-120094857D01*
X103214285Y-119999619D01*
X103261904Y-119952000D01*
X103357142Y-119904380D01*
X103595238Y-119904380D01*
X103738095Y-119952000D01*
X104071428Y-119904380D02*
X104309523Y-120904380D01*
X104500000Y-120190095D01*
X104690476Y-120904380D01*
X104928571Y-119904380D01*
X105452380Y-120332952D02*
X105357142Y-120285333D01*
X105309523Y-120237714D01*
X105261904Y-120142476D01*
X105261904Y-120094857D01*
X105309523Y-119999619D01*
X105357142Y-119952000D01*
X105452380Y-119904380D01*
X105642857Y-119904380D01*
X105738095Y-119952000D01*
X105785714Y-119999619D01*
X105833333Y-120094857D01*
X105833333Y-120142476D01*
X105785714Y-120237714D01*
X105738095Y-120285333D01*
X105642857Y-120332952D01*
X105452380Y-120332952D01*
X105357142Y-120380571D01*
X105309523Y-120428190D01*
X105261904Y-120523428D01*
X105261904Y-120713904D01*
X105309523Y-120809142D01*
X105357142Y-120856761D01*
X105452380Y-120904380D01*
X105642857Y-120904380D01*
X105738095Y-120856761D01*
X105785714Y-120809142D01*
X105833333Y-120713904D01*
X105833333Y-120523428D01*
X105785714Y-120428190D01*
X105738095Y-120380571D01*
X105642857Y-120332952D01*
X84166666Y-120856761D02*
X84309523Y-120904380D01*
X84547619Y-120904380D01*
X84642857Y-120856761D01*
X84690476Y-120809142D01*
X84738095Y-120713904D01*
X84738095Y-120618666D01*
X84690476Y-120523428D01*
X84642857Y-120475809D01*
X84547619Y-120428190D01*
X84357142Y-120380571D01*
X84261904Y-120332952D01*
X84214285Y-120285333D01*
X84166666Y-120190095D01*
X84166666Y-120094857D01*
X84214285Y-119999619D01*
X84261904Y-119952000D01*
X84357142Y-119904380D01*
X84595238Y-119904380D01*
X84738095Y-119952000D01*
X85071428Y-119904380D02*
X85309523Y-120904380D01*
X85500000Y-120190095D01*
X85690476Y-120904380D01*
X85928571Y-119904380D01*
X86214285Y-119904380D02*
X86880952Y-119904380D01*
X86452380Y-120904380D01*
X160166666Y-101856761D02*
X160309523Y-101904380D01*
X160547619Y-101904380D01*
X160642857Y-101856761D01*
X160690476Y-101809142D01*
X160738095Y-101713904D01*
X160738095Y-101618666D01*
X160690476Y-101523428D01*
X160642857Y-101475809D01*
X160547619Y-101428190D01*
X160357142Y-101380571D01*
X160261904Y-101332952D01*
X160214285Y-101285333D01*
X160166666Y-101190095D01*
X160166666Y-101094857D01*
X160214285Y-100999619D01*
X160261904Y-100952000D01*
X160357142Y-100904380D01*
X160595238Y-100904380D01*
X160738095Y-100952000D01*
X161071428Y-100904380D02*
X161309523Y-101904380D01*
X161500000Y-101190095D01*
X161690476Y-101904380D01*
X161928571Y-100904380D01*
X162785714Y-100904380D02*
X162309523Y-100904380D01*
X162261904Y-101380571D01*
X162309523Y-101332952D01*
X162404761Y-101285333D01*
X162642857Y-101285333D01*
X162738095Y-101332952D01*
X162785714Y-101380571D01*
X162833333Y-101475809D01*
X162833333Y-101713904D01*
X162785714Y-101809142D01*
X162738095Y-101856761D01*
X162642857Y-101904380D01*
X162404761Y-101904380D01*
X162309523Y-101856761D01*
X162261904Y-101809142D01*
X141166666Y-101856761D02*
X141309523Y-101904380D01*
X141547619Y-101904380D01*
X141642857Y-101856761D01*
X141690476Y-101809142D01*
X141738095Y-101713904D01*
X141738095Y-101618666D01*
X141690476Y-101523428D01*
X141642857Y-101475809D01*
X141547619Y-101428190D01*
X141357142Y-101380571D01*
X141261904Y-101332952D01*
X141214285Y-101285333D01*
X141166666Y-101190095D01*
X141166666Y-101094857D01*
X141214285Y-100999619D01*
X141261904Y-100952000D01*
X141357142Y-100904380D01*
X141595238Y-100904380D01*
X141738095Y-100952000D01*
X142071428Y-100904380D02*
X142309523Y-101904380D01*
X142500000Y-101190095D01*
X142690476Y-101904380D01*
X142928571Y-100904380D01*
X143738095Y-101237714D02*
X143738095Y-101904380D01*
X143500000Y-100856761D02*
X143261904Y-101571047D01*
X143880952Y-101571047D01*
X122166666Y-101856761D02*
X122309523Y-101904380D01*
X122547619Y-101904380D01*
X122642857Y-101856761D01*
X122690476Y-101809142D01*
X122738095Y-101713904D01*
X122738095Y-101618666D01*
X122690476Y-101523428D01*
X122642857Y-101475809D01*
X122547619Y-101428190D01*
X122357142Y-101380571D01*
X122261904Y-101332952D01*
X122214285Y-101285333D01*
X122166666Y-101190095D01*
X122166666Y-101094857D01*
X122214285Y-100999619D01*
X122261904Y-100952000D01*
X122357142Y-100904380D01*
X122595238Y-100904380D01*
X122738095Y-100952000D01*
X123071428Y-100904380D02*
X123309523Y-101904380D01*
X123500000Y-101190095D01*
X123690476Y-101904380D01*
X123928571Y-100904380D01*
X124214285Y-100904380D02*
X124833333Y-100904380D01*
X124500000Y-101285333D01*
X124642857Y-101285333D01*
X124738095Y-101332952D01*
X124785714Y-101380571D01*
X124833333Y-101475809D01*
X124833333Y-101713904D01*
X124785714Y-101809142D01*
X124738095Y-101856761D01*
X124642857Y-101904380D01*
X124357142Y-101904380D01*
X124261904Y-101856761D01*
X124214285Y-101809142D01*
X103166666Y-101856761D02*
X103309523Y-101904380D01*
X103547619Y-101904380D01*
X103642857Y-101856761D01*
X103690476Y-101809142D01*
X103738095Y-101713904D01*
X103738095Y-101618666D01*
X103690476Y-101523428D01*
X103642857Y-101475809D01*
X103547619Y-101428190D01*
X103357142Y-101380571D01*
X103261904Y-101332952D01*
X103214285Y-101285333D01*
X103166666Y-101190095D01*
X103166666Y-101094857D01*
X103214285Y-100999619D01*
X103261904Y-100952000D01*
X103357142Y-100904380D01*
X103595238Y-100904380D01*
X103738095Y-100952000D01*
X104071428Y-100904380D02*
X104309523Y-101904380D01*
X104500000Y-101190095D01*
X104690476Y-101904380D01*
X104928571Y-100904380D01*
X105261904Y-100999619D02*
X105309523Y-100952000D01*
X105404761Y-100904380D01*
X105642857Y-100904380D01*
X105738095Y-100952000D01*
X105785714Y-100999619D01*
X105833333Y-101094857D01*
X105833333Y-101190095D01*
X105785714Y-101332952D01*
X105214285Y-101904380D01*
X105833333Y-101904380D01*
X84166666Y-101856761D02*
X84309523Y-101904380D01*
X84547619Y-101904380D01*
X84642857Y-101856761D01*
X84690476Y-101809142D01*
X84738095Y-101713904D01*
X84738095Y-101618666D01*
X84690476Y-101523428D01*
X84642857Y-101475809D01*
X84547619Y-101428190D01*
X84357142Y-101380571D01*
X84261904Y-101332952D01*
X84214285Y-101285333D01*
X84166666Y-101190095D01*
X84166666Y-101094857D01*
X84214285Y-100999619D01*
X84261904Y-100952000D01*
X84357142Y-100904380D01*
X84595238Y-100904380D01*
X84738095Y-100952000D01*
X85071428Y-100904380D02*
X85309523Y-101904380D01*
X85500000Y-101190095D01*
X85690476Y-101904380D01*
X85928571Y-100904380D01*
X86833333Y-101904380D02*
X86261904Y-101904380D01*
X86547619Y-101904380D02*
X86547619Y-100904380D01*
X86452380Y-101047238D01*
X86357142Y-101142476D01*
X86261904Y-101190095D01*
%LPC*%
D11*
X201380000Y-97030000D03*
X216620000Y-124970000D03*
X201380000Y-99570000D03*
X201380000Y-102110000D03*
X201380000Y-104650000D03*
X201380000Y-107190000D03*
X201380000Y-109730000D03*
X201380000Y-112270000D03*
X201380000Y-114810000D03*
X201380000Y-117350000D03*
X201380000Y-119890000D03*
X201380000Y-122430000D03*
X201380000Y-124970000D03*
X216620000Y-122430000D03*
X216620000Y-119890000D03*
X216620000Y-117350000D03*
X216620000Y-114810000D03*
X216620000Y-112270000D03*
X216620000Y-109730000D03*
X216620000Y-107190000D03*
X216620000Y-104650000D03*
X216620000Y-102110000D03*
X216620000Y-99570000D03*
D12*
X216620000Y-97030000D03*
D13*
X205190000Y-129000000D03*
X207730000Y-129000000D03*
X210270000Y-129000000D03*
D14*
X212810000Y-129000000D03*
D15*
X210166726Y-160833274D03*
X209000000Y-160350000D03*
X207833274Y-160833274D03*
X207350000Y-162000000D03*
X207833274Y-163166726D03*
X209000000Y-163650000D03*
X210166726Y-163166726D03*
X210650000Y-162000000D03*
D16*
X209000000Y-162000000D03*
D15*
X248166726Y-160833274D03*
X247000000Y-160350000D03*
X245833274Y-160833274D03*
X245350000Y-162000000D03*
X245833274Y-163166726D03*
X247000000Y-163650000D03*
X248166726Y-163166726D03*
X248650000Y-162000000D03*
D16*
X247000000Y-162000000D03*
D15*
X172166726Y-112833274D03*
X171000000Y-112350000D03*
X169833274Y-112833274D03*
X169350000Y-114000000D03*
X169833274Y-115166726D03*
X171000000Y-115650000D03*
X172166726Y-115166726D03*
X172650000Y-114000000D03*
D16*
X171000000Y-114000000D03*
D15*
X172166726Y-160833274D03*
X171000000Y-160350000D03*
X169833274Y-160833274D03*
X169350000Y-162000000D03*
X169833274Y-163166726D03*
X171000000Y-163650000D03*
X172166726Y-163166726D03*
X172650000Y-162000000D03*
D16*
X171000000Y-162000000D03*
D15*
X286166726Y-131833274D03*
X285000000Y-131350000D03*
X283833274Y-131833274D03*
X283350000Y-133000000D03*
X283833274Y-134166726D03*
X285000000Y-134650000D03*
X286166726Y-134166726D03*
X286650000Y-133000000D03*
D16*
X285000000Y-133000000D03*
D15*
X324166726Y-160833274D03*
X323000000Y-160350000D03*
X321833274Y-160833274D03*
X321350000Y-162000000D03*
X321833274Y-163166726D03*
X323000000Y-163650000D03*
X324166726Y-163166726D03*
X324650000Y-162000000D03*
D16*
X323000000Y-162000000D03*
D17*
X212250000Y-138750000D03*
X212250000Y-143250000D03*
X205750000Y-138750000D03*
X205750000Y-143250000D03*
D15*
X223166726Y-131833274D03*
X222000000Y-131350000D03*
X220833274Y-131833274D03*
X220350000Y-133000000D03*
X220833274Y-134166726D03*
X222000000Y-134650000D03*
X223166726Y-134166726D03*
X223650000Y-133000000D03*
D16*
X222000000Y-133000000D03*
D15*
X223166726Y-96333274D03*
X222000000Y-95850000D03*
X220833274Y-96333274D03*
X220350000Y-97500000D03*
X220833274Y-98666726D03*
X222000000Y-99150000D03*
X223166726Y-98666726D03*
X223650000Y-97500000D03*
D16*
X222000000Y-97500000D03*
D15*
X197166726Y-131833274D03*
X196000000Y-131350000D03*
X194833274Y-131833274D03*
X194350000Y-133000000D03*
X194833274Y-134166726D03*
X196000000Y-134650000D03*
X197166726Y-134166726D03*
X197650000Y-133000000D03*
D16*
X196000000Y-133000000D03*
D15*
X197166726Y-96333274D03*
X196000000Y-95850000D03*
X194833274Y-96333274D03*
X194350000Y-97500000D03*
X194833274Y-98666726D03*
X196000000Y-99150000D03*
X197166726Y-98666726D03*
X197650000Y-97500000D03*
D16*
X196000000Y-97500000D03*
D15*
X96166726Y-160833274D03*
X95000000Y-160350000D03*
X93833274Y-160833274D03*
X93350000Y-162000000D03*
X93833274Y-163166726D03*
X95000000Y-163650000D03*
X96166726Y-163166726D03*
X96650000Y-162000000D03*
D16*
X95000000Y-162000000D03*
D18*
X175420000Y-104500000D03*
X185580000Y-104500000D03*
D19*
X176690000Y-101960000D03*
D20*
X180500000Y-104500000D03*
D19*
X183040000Y-99420000D03*
D18*
X251420000Y-171500000D03*
X261580000Y-171500000D03*
D19*
X252690000Y-168960000D03*
D20*
X256500000Y-171500000D03*
D19*
X259040000Y-166420000D03*
D18*
X232420000Y-171500000D03*
X242580000Y-171500000D03*
D19*
X233690000Y-168960000D03*
D20*
X237500000Y-171500000D03*
D19*
X240040000Y-166420000D03*
D18*
X213420000Y-171500000D03*
X223580000Y-171500000D03*
D19*
X214690000Y-168960000D03*
D20*
X218500000Y-171500000D03*
D19*
X221040000Y-166420000D03*
D18*
X194420000Y-171500000D03*
X204580000Y-171500000D03*
D19*
X195690000Y-168960000D03*
D20*
X199500000Y-171500000D03*
D19*
X202040000Y-166420000D03*
D18*
X175420000Y-171500000D03*
X185580000Y-171500000D03*
D19*
X176690000Y-168960000D03*
D20*
X180500000Y-171500000D03*
D19*
X183040000Y-166420000D03*
D18*
X156420000Y-171500000D03*
X166580000Y-171500000D03*
D19*
X157690000Y-168960000D03*
D20*
X161500000Y-171500000D03*
D19*
X164040000Y-166420000D03*
D18*
X327420000Y-142500000D03*
X337580000Y-142500000D03*
D19*
X328690000Y-139960000D03*
D20*
X332500000Y-142500000D03*
D19*
X335040000Y-137420000D03*
D18*
X308420000Y-142500000D03*
X318580000Y-142500000D03*
D19*
X309690000Y-139960000D03*
D20*
X313500000Y-142500000D03*
D19*
X316040000Y-137420000D03*
D18*
X289420000Y-142500000D03*
X299580000Y-142500000D03*
D19*
X290690000Y-139960000D03*
D20*
X294500000Y-142500000D03*
D19*
X297040000Y-137420000D03*
D18*
X270420000Y-142500000D03*
X280580000Y-142500000D03*
D19*
X271690000Y-139960000D03*
D20*
X275500000Y-142500000D03*
D19*
X278040000Y-137420000D03*
D18*
X251420000Y-142500000D03*
X261580000Y-142500000D03*
D19*
X252690000Y-139960000D03*
D20*
X256500000Y-142500000D03*
D19*
X259040000Y-137420000D03*
D18*
X232420000Y-142500000D03*
X242580000Y-142500000D03*
D19*
X233690000Y-139960000D03*
D20*
X237500000Y-142500000D03*
D19*
X240040000Y-137420000D03*
D18*
X327420000Y-123500000D03*
X337580000Y-123500000D03*
D19*
X328690000Y-120960000D03*
D20*
X332500000Y-123500000D03*
D19*
X335040000Y-118420000D03*
D18*
X308420000Y-123500000D03*
X318580000Y-123500000D03*
D19*
X309690000Y-120960000D03*
D20*
X313500000Y-123500000D03*
D19*
X316040000Y-118420000D03*
D18*
X289420000Y-123500000D03*
X299580000Y-123500000D03*
D19*
X290690000Y-120960000D03*
D20*
X294500000Y-123500000D03*
D19*
X297040000Y-118420000D03*
D18*
X270420000Y-123500000D03*
X280580000Y-123500000D03*
D19*
X271690000Y-120960000D03*
D20*
X275500000Y-123500000D03*
D19*
X278040000Y-118420000D03*
D18*
X251420000Y-123500000D03*
X261580000Y-123500000D03*
D19*
X252690000Y-120960000D03*
D20*
X256500000Y-123500000D03*
D19*
X259040000Y-118420000D03*
D18*
X232420000Y-123500000D03*
X242580000Y-123500000D03*
D19*
X233690000Y-120960000D03*
D20*
X237500000Y-123500000D03*
D19*
X240040000Y-118420000D03*
D18*
X327420000Y-104500000D03*
X337580000Y-104500000D03*
D19*
X328690000Y-101960000D03*
D20*
X332500000Y-104500000D03*
D19*
X335040000Y-99420000D03*
D18*
X308420000Y-104500000D03*
X318580000Y-104500000D03*
D19*
X309690000Y-101960000D03*
D20*
X313500000Y-104500000D03*
D19*
X316040000Y-99420000D03*
D18*
X289420000Y-104500000D03*
X299580000Y-104500000D03*
D19*
X290690000Y-101960000D03*
D20*
X294500000Y-104500000D03*
D19*
X297040000Y-99420000D03*
D18*
X270420000Y-104500000D03*
X280580000Y-104500000D03*
D19*
X271690000Y-101960000D03*
D20*
X275500000Y-104500000D03*
D19*
X278040000Y-99420000D03*
D18*
X251420000Y-104500000D03*
X261580000Y-104500000D03*
D19*
X252690000Y-101960000D03*
D20*
X256500000Y-104500000D03*
D19*
X259040000Y-99420000D03*
D18*
X232420000Y-104500000D03*
X242580000Y-104500000D03*
D19*
X233690000Y-101960000D03*
D20*
X237500000Y-104500000D03*
D19*
X240040000Y-99420000D03*
D18*
X175420000Y-142500000D03*
X185580000Y-142500000D03*
D19*
X176690000Y-139960000D03*
D20*
X180500000Y-142500000D03*
D19*
X183040000Y-137420000D03*
D18*
X156420000Y-142500000D03*
X166580000Y-142500000D03*
D19*
X157690000Y-139960000D03*
D20*
X161500000Y-142500000D03*
D19*
X164040000Y-137420000D03*
D18*
X137420000Y-142500000D03*
X147580000Y-142500000D03*
D19*
X138690000Y-139960000D03*
D20*
X142500000Y-142500000D03*
D19*
X145040000Y-137420000D03*
D18*
X118420000Y-142500000D03*
X128580000Y-142500000D03*
D19*
X119690000Y-139960000D03*
D20*
X123500000Y-142500000D03*
D19*
X126040000Y-137420000D03*
D18*
X99420000Y-142500000D03*
X109580000Y-142500000D03*
D19*
X100690000Y-139960000D03*
D20*
X104500000Y-142500000D03*
D19*
X107040000Y-137420000D03*
D18*
X80420000Y-142500000D03*
X90580000Y-142500000D03*
D19*
X81690000Y-139960000D03*
D20*
X85500000Y-142500000D03*
D19*
X88040000Y-137420000D03*
D18*
X175420000Y-123500000D03*
X185580000Y-123500000D03*
D19*
X176690000Y-120960000D03*
D20*
X180500000Y-123500000D03*
D19*
X183040000Y-118420000D03*
D18*
X156420000Y-123500000D03*
X166580000Y-123500000D03*
D19*
X157690000Y-120960000D03*
D20*
X161500000Y-123500000D03*
D19*
X164040000Y-118420000D03*
D18*
X137420000Y-123500000D03*
X147580000Y-123500000D03*
D19*
X138690000Y-120960000D03*
D20*
X142500000Y-123500000D03*
D19*
X145040000Y-118420000D03*
D18*
X118420000Y-123500000D03*
X128580000Y-123500000D03*
D19*
X119690000Y-120960000D03*
D20*
X123500000Y-123500000D03*
D19*
X126040000Y-118420000D03*
D18*
X99420000Y-123500000D03*
X109580000Y-123500000D03*
D19*
X100690000Y-120960000D03*
D20*
X104500000Y-123500000D03*
D19*
X107040000Y-118420000D03*
D18*
X80420000Y-123500000D03*
X90580000Y-123500000D03*
D19*
X81690000Y-120960000D03*
D20*
X85500000Y-123500000D03*
D19*
X88040000Y-118420000D03*
D18*
X156420000Y-104500000D03*
X166580000Y-104500000D03*
D19*
X157690000Y-101960000D03*
D20*
X161500000Y-104500000D03*
D19*
X164040000Y-99420000D03*
D18*
X137420000Y-104500000D03*
X147580000Y-104500000D03*
D19*
X138690000Y-101960000D03*
D20*
X142500000Y-104500000D03*
D19*
X145040000Y-99420000D03*
D18*
X118420000Y-104500000D03*
X128580000Y-104500000D03*
D19*
X119690000Y-101960000D03*
D20*
X123500000Y-104500000D03*
D19*
X126040000Y-99420000D03*
D18*
X99420000Y-104500000D03*
X109580000Y-104500000D03*
D19*
X100690000Y-101960000D03*
D20*
X104500000Y-104500000D03*
D19*
X107040000Y-99420000D03*
D18*
X80420000Y-104500000D03*
X90580000Y-104500000D03*
D19*
X81690000Y-101960000D03*
D20*
X85500000Y-104500000D03*
D19*
X88040000Y-99420000D03*
D15*
X324166726Y-112833274D03*
X323000000Y-112350000D03*
X321833274Y-112833274D03*
X321350000Y-114000000D03*
X321833274Y-115166726D03*
X323000000Y-115650000D03*
X324166726Y-115166726D03*
X324650000Y-114000000D03*
D16*
X323000000Y-114000000D03*
D15*
X248166726Y-112833274D03*
X247000000Y-112350000D03*
X245833274Y-112833274D03*
X245350000Y-114000000D03*
X245833274Y-115166726D03*
X247000000Y-115650000D03*
X248166726Y-115166726D03*
X248650000Y-114000000D03*
D16*
X247000000Y-114000000D03*
D15*
X134166726Y-131833274D03*
X133000000Y-131350000D03*
X131833274Y-131833274D03*
X131350000Y-133000000D03*
X131833274Y-134166726D03*
X133000000Y-134650000D03*
X134166726Y-134166726D03*
X134650000Y-133000000D03*
D16*
X133000000Y-133000000D03*
D15*
X96166726Y-112833274D03*
X95000000Y-112350000D03*
X93833274Y-112833274D03*
X93350000Y-114000000D03*
X93833274Y-115166726D03*
X95000000Y-115650000D03*
X96166726Y-115166726D03*
X96650000Y-114000000D03*
D16*
X95000000Y-114000000D03*
M02*
