M48
; DRILL file {KiCad (5.1.4)-1} date 7/31/2021 3:59:08 PM
; FORMAT={-:-/ absolute / inch / decimal}
; #@! TF.CreationDate,2021-07-31T15:59:08-04:00
; #@! TF.GenerationSoftware,Kicad,Pcbnew,(5.1.4)-1
; #@! TF.FileFunction,Plated,1,2,PTH
FMAT,2
INCH
T1C0.0157
T2C0.0394
T3C0.0430
T4C0.0590
T5C0.0866
%
G90
G05
T1
X6.6673Y-6.378
X6.6863Y-6.332
X6.6863Y-6.4239
X6.7323Y-6.313
X6.7323Y-6.4429
X6.7782Y-6.332
X6.7782Y-6.4239
X6.7972Y-6.378
X8.6752Y-3.8386
X8.6942Y-3.7926
X8.6942Y-3.8845
X8.7402Y-3.7736
X8.7402Y-3.9035
X8.7861Y-3.7926
X8.7861Y-3.8845
X8.8051Y-3.8386
X9.6594Y-6.378
X9.6785Y-6.332
X9.6785Y-6.4239
X9.7244Y-6.313
X9.7244Y-6.4429
X9.7703Y-6.332
X9.7703Y-6.4239
X9.7894Y-6.378
X12.6516Y-4.4882
X12.6706Y-4.4423
X12.6706Y-4.5341
X12.7165Y-4.4232
X12.7165Y-4.5531
X12.7625Y-4.4423
X12.7625Y-4.5341
X12.7815Y-4.4882
X7.6516Y-3.8386
X7.6706Y-3.7926
X7.6706Y-3.8845
X7.7165Y-3.7736
X7.7165Y-3.9035
X7.7625Y-3.7926
X7.7625Y-3.8845
X7.7815Y-3.8386
X7.6516Y-5.2362
X7.6706Y-5.1903
X7.6706Y-5.2822
X7.7165Y-5.1713
X7.7165Y-5.3012
X7.7625Y-5.1903
X7.7625Y-5.2822
X7.7815Y-5.2362
X6.6673Y-4.4882
X6.6863Y-4.4423
X6.6863Y-4.5341
X6.7323Y-4.4232
X6.7323Y-4.5531
X6.7782Y-4.4423
X6.7782Y-4.5341
X6.7972Y-4.4882
X12.6516Y-6.378
X12.6706Y-6.332
X12.6706Y-6.4239
X12.7165Y-6.313
X12.7165Y-6.4429
X12.7625Y-6.332
X12.7625Y-6.4239
X12.7815Y-6.378
X11.1555Y-5.2362
X11.1745Y-5.1903
X11.1745Y-5.2822
X11.2205Y-5.1713
X11.2205Y-5.3012
X11.2664Y-5.1903
X11.2664Y-5.2822
X11.2854Y-5.2362
X3.6752Y-4.4882
X3.6942Y-4.4423
X3.6942Y-4.5341
X3.7402Y-4.4232
X3.7402Y-4.5531
X3.7861Y-4.4423
X3.7861Y-4.5341
X3.8051Y-4.4882
X5.1713Y-5.2362
X5.1903Y-5.1903
X5.1903Y-5.2822
X5.2362Y-5.1713
X5.2362Y-5.3012
X5.2822Y-5.1903
X5.2822Y-5.2822
X5.3012Y-5.2362
X3.6752Y-6.378
X3.6942Y-6.332
X3.6942Y-6.4239
X3.7402Y-6.313
X3.7402Y-6.4429
X3.7861Y-6.332
X3.7861Y-6.4239
X3.8051Y-6.378
X8.1634Y-6.378
X8.1824Y-6.332
X8.1824Y-6.4239
X8.2283Y-6.313
X8.2283Y-6.4429
X8.2743Y-6.332
X8.2743Y-6.4239
X8.2933Y-6.378
X8.6752Y-5.2362
X8.6942Y-5.1903
X8.6942Y-5.2822
X8.7402Y-5.1713
X8.7402Y-5.3012
X8.7861Y-5.1903
X8.7861Y-5.2822
X8.8051Y-5.2362
X9.6594Y-4.4882
X9.6785Y-4.4423
X9.6785Y-4.5341
X9.7244Y-4.4232
X9.7244Y-4.5531
X9.7703Y-4.4423
X9.7703Y-4.5341
X9.7894Y-4.4882
T2
X8.1004Y-5.4626
X8.1004Y-5.6398
X8.3563Y-5.4626
X8.3563Y-5.6398
X8.0783Y-5.0787
X8.1783Y-5.0787
X8.2783Y-5.0787
X8.3783Y-5.0787
T3
X7.9283Y-3.8201
X7.9283Y-3.9201
X7.9283Y-4.0201
X7.9283Y-4.1201
X7.9283Y-4.2201
X7.9283Y-4.3201
X7.9283Y-4.4201
X7.9283Y-4.5201
X7.9283Y-4.6201
X7.9283Y-4.7201
X7.9283Y-4.8201
X7.9283Y-4.9201
X8.5283Y-3.8201
X8.5283Y-3.9201
X8.5283Y-4.0201
X8.5283Y-4.1201
X8.5283Y-4.2201
X8.5283Y-4.3201
X8.5283Y-4.4201
X8.5283Y-4.5201
X8.5283Y-4.6201
X8.5283Y-4.7201
X8.5283Y-4.8201
X8.5283Y-4.9201
T4
X9.9484Y-6.652
X10.1984Y-6.552
X6.9563Y-6.652
X7.2063Y-6.552
X8.4524Y-6.652
X8.7024Y-6.552
X12.1925Y-4.0142
X12.4425Y-3.9142
X3.2161Y-4.7622
X3.4661Y-4.6622
X11.4445Y-4.0142
X11.6945Y-3.9142
X4.7122Y-4.0142
X4.9622Y-3.9142
X12.9406Y-4.7622
X13.1906Y-4.6622
X10.6965Y-4.0142
X10.9465Y-3.9142
X9.2004Y-4.7622
X9.4504Y-4.6622
X6.2083Y-4.7622
X6.4583Y-4.6622
X3.2161Y-4.0142
X3.4661Y-3.9142
X9.2004Y-5.5102
X9.4504Y-5.4102
X9.2004Y-4.0142
X9.4504Y-3.9142
X3.9642Y-4.7622
X4.2142Y-4.6622
X9.2004Y-6.652
X9.4504Y-6.552
X11.4445Y-4.7622
X11.6945Y-4.6622
X10.6965Y-5.5102
X10.9465Y-5.4102
X6.2083Y-4.0142
X6.4583Y-3.9142
X9.9484Y-5.5102
X10.1984Y-5.4102
X4.7122Y-5.5102
X4.9622Y-5.4102
X12.1925Y-5.5102
X12.4425Y-5.4102
X9.9484Y-4.0142
X10.1984Y-3.9142
X7.7043Y-6.652
X7.9543Y-6.552
X6.2083Y-5.5102
X6.4583Y-5.4102
X12.9406Y-5.5102
X13.1906Y-5.4102
X5.4602Y-4.7622
X5.7102Y-4.6622
X6.9563Y-4.7622
X7.2063Y-4.6622
X6.9563Y-4.0142
X7.2063Y-3.9142
X12.9406Y-4.0142
X13.1906Y-3.9142
X3.9642Y-5.5102
X4.2142Y-5.4102
X10.6965Y-4.7622
X10.9465Y-4.6622
X5.4602Y-4.0142
X5.7102Y-3.9142
X9.9484Y-4.7622
X10.1984Y-4.6622
X4.7122Y-4.7622
X4.9622Y-4.6622
X11.4445Y-5.5102
X11.6945Y-5.4102
X3.2161Y-5.5102
X3.4661Y-5.4102
X6.2083Y-6.652
X6.4583Y-6.552
X6.9563Y-5.5102
X7.2063Y-5.4102
X3.9642Y-4.0142
X4.2142Y-3.9142
X12.1925Y-4.7622
X12.4425Y-4.6622
X5.4602Y-5.5102
X5.7102Y-5.4102
T5
X8.7402Y-3.8386
X9.7244Y-6.378
X12.7165Y-4.4882
X7.7165Y-3.8386
X7.7165Y-5.2362
X6.7323Y-4.4882
X12.7165Y-6.378
X11.2205Y-5.2362
X3.7402Y-4.4882
X5.2362Y-5.2362
X3.7402Y-6.378
X8.2283Y-6.378
X8.7402Y-5.2362
X9.7244Y-4.4882
X6.7323Y-6.378
T0
M30
