M48
; DRILL file {KiCad (5.1.4)-1} date 7/31/2021 3:59:08 PM
; FORMAT={-:-/ absolute / inch / decimal}
; #@! TF.CreationDate,2021-07-31T15:59:08-04:00
; #@! TF.GenerationSoftware,Kicad,Pcbnew,(5.1.4)-1
; #@! TF.FileFunction,NonPlated,1,2,NPTH
FMAT,2
INCH
T1C0.0670
T2C0.1570
%
G90
G05
T1
X6.9063Y-4.8622
X7.3063Y-4.8622
X6.9063Y-4.1142
X7.3063Y-4.1142
X12.8906Y-4.1142
X13.2906Y-4.1142
X3.9142Y-5.6102
X4.3142Y-5.6102
X10.6465Y-4.8622
X11.0465Y-4.8622
X5.4102Y-4.1142
X5.8102Y-4.1142
X9.8984Y-4.8622
X10.2984Y-4.8622
X4.6622Y-4.8622
X5.0622Y-4.8622
X11.3945Y-5.6102
X11.7945Y-5.6102
X3.1661Y-5.6102
X3.5661Y-5.6102
X6.1583Y-6.752
X6.5583Y-6.752
X6.9063Y-5.6102
X7.3063Y-5.6102
X3.9142Y-4.1142
X4.3142Y-4.1142
X12.1425Y-4.8622
X12.5425Y-4.8622
X5.4102Y-5.6102
X5.8102Y-5.6102
X9.8984Y-6.752
X10.2984Y-6.752
X6.9063Y-6.752
X7.3063Y-6.752
X8.4024Y-6.752
X8.8024Y-6.752
X12.1425Y-4.1142
X12.5425Y-4.1142
X3.1661Y-4.8622
X3.5661Y-4.8622
X11.3945Y-4.1142
X11.7945Y-4.1142
X4.6622Y-4.1142
X5.0622Y-4.1142
X12.8906Y-4.8622
X13.2906Y-4.8622
X10.6465Y-4.1142
X11.0465Y-4.1142
X9.1504Y-4.8622
X9.5504Y-4.8622
X6.1583Y-4.8622
X6.5583Y-4.8622
X3.1661Y-4.1142
X3.5661Y-4.1142
X9.1504Y-5.6102
X9.5504Y-5.6102
X9.1504Y-4.1142
X9.5504Y-4.1142
X3.9142Y-4.8622
X4.3142Y-4.8622
X9.1504Y-6.752
X9.5504Y-6.752
X11.3945Y-4.8622
X11.7945Y-4.8622
X10.6465Y-5.6102
X11.0465Y-5.6102
X6.1583Y-4.1142
X6.5583Y-4.1142
X9.8984Y-5.6102
X10.2984Y-5.6102
X4.6622Y-5.6102
X5.0622Y-5.6102
X12.1425Y-5.6102
X12.5425Y-5.6102
X9.8984Y-4.1142
X10.2984Y-4.1142
X7.6543Y-6.752
X8.0543Y-6.752
X6.1583Y-5.6102
X6.5583Y-5.6102
X12.8906Y-5.6102
X13.2906Y-5.6102
X5.4102Y-4.8622
X5.8102Y-4.8622
T2
X6.3583Y-4.1142
X10.0984Y-5.6102
X4.8622Y-5.6102
X12.3425Y-5.6102
X10.0984Y-4.1142
X7.8543Y-6.752
X6.3583Y-5.6102
X13.0906Y-5.6102
X5.6102Y-4.8622
X7.1063Y-4.8622
X7.1063Y-4.1142
X13.0906Y-4.1142
X4.1142Y-5.6102
X10.8465Y-4.8622
X5.6102Y-4.1142
X10.0984Y-4.8622
X4.8622Y-4.8622
X11.5945Y-5.6102
X3.3661Y-5.6102
X6.3583Y-6.752
X7.1063Y-5.6102
X4.1142Y-4.1142
X12.3425Y-4.8622
X5.6102Y-5.6102
X10.0984Y-6.752
X7.1063Y-6.752
X8.6024Y-6.752
X12.3425Y-4.1142
X3.3661Y-4.8622
X11.5945Y-4.1142
X4.8622Y-4.1142
X13.0906Y-4.8622
X10.8465Y-4.1142
X9.3504Y-4.8622
X6.3583Y-4.8622
X3.3661Y-4.1142
X9.3504Y-5.6102
X9.3504Y-4.1142
X4.1142Y-4.8622
X9.3504Y-6.752
X11.5945Y-4.8622
X10.8465Y-5.6102
T0
M30
