G04 #@! TF.GenerationSoftware,KiCad,Pcbnew,(5.1.4)-1*
G04 #@! TF.CreationDate,2021-09-19T22:16:22-04:00*
G04 #@! TF.ProjectId,horizon-choc,686f7269-7a6f-46e2-9d63-686f632e6b69,rev?*
G04 #@! TF.SameCoordinates,Original*
G04 #@! TF.FileFunction,Legend,Top*
G04 #@! TF.FilePolarity,Positive*
%FSLAX46Y46*%
G04 Gerber Fmt 4.6, Leading zero omitted, Abs format (unit mm)*
G04 Created by KiCad (PCBNEW (5.1.4)-1) date 2021-09-19 22:16:22*
%MOMM*%
%LPD*%
G04 APERTURE LIST*
%ADD10C,0.150000*%
%ADD11C,1.802000*%
%ADD12C,2.102000*%
%ADD13C,3.502000*%
%ADD14C,0.802000*%
%ADD15C,4.502000*%
%ADD16C,1.902000*%
G04 APERTURE END LIST*
D10*
X197380952Y-95952380D02*
X197380952Y-96666666D01*
X197333333Y-96809523D01*
X197238095Y-96904761D01*
X197095238Y-96952380D01*
X197000000Y-96952380D01*
X198333333Y-96952380D02*
X197857142Y-96952380D01*
X197857142Y-95952380D01*
X199238095Y-96857142D02*
X199190476Y-96904761D01*
X199047619Y-96952380D01*
X198952380Y-96952380D01*
X198809523Y-96904761D01*
X198714285Y-96809523D01*
X198666666Y-96714285D01*
X198619047Y-96523809D01*
X198619047Y-96380952D01*
X198666666Y-96190476D01*
X198714285Y-96095238D01*
X198809523Y-96000000D01*
X198952380Y-95952380D01*
X199047619Y-95952380D01*
X199190476Y-96000000D01*
X199238095Y-96047619D01*
X199952380Y-95952380D02*
X199952380Y-96666666D01*
X199904761Y-96809523D01*
X199809523Y-96904761D01*
X199666666Y-96952380D01*
X199571428Y-96952380D01*
X200904761Y-96952380D02*
X200428571Y-96952380D01*
X200428571Y-95952380D01*
X201809523Y-96857142D02*
X201761904Y-96904761D01*
X201619047Y-96952380D01*
X201523809Y-96952380D01*
X201380952Y-96904761D01*
X201285714Y-96809523D01*
X201238095Y-96714285D01*
X201190476Y-96523809D01*
X201190476Y-96380952D01*
X201238095Y-96190476D01*
X201285714Y-96095238D01*
X201380952Y-96000000D01*
X201523809Y-95952380D01*
X201619047Y-95952380D01*
X201761904Y-96000000D01*
X201809523Y-96047619D01*
X202523809Y-95952380D02*
X202523809Y-96666666D01*
X202476190Y-96809523D01*
X202380952Y-96904761D01*
X202238095Y-96952380D01*
X202142857Y-96952380D01*
X203476190Y-96952380D02*
X203000000Y-96952380D01*
X203000000Y-95952380D01*
X204380952Y-96857142D02*
X204333333Y-96904761D01*
X204190476Y-96952380D01*
X204095238Y-96952380D01*
X203952380Y-96904761D01*
X203857142Y-96809523D01*
X203809523Y-96714285D01*
X203761904Y-96523809D01*
X203761904Y-96380952D01*
X203809523Y-96190476D01*
X203857142Y-96095238D01*
X203952380Y-96000000D01*
X204095238Y-95952380D01*
X204190476Y-95952380D01*
X204333333Y-96000000D01*
X204380952Y-96047619D01*
X205095238Y-95952380D02*
X205095238Y-96666666D01*
X205047619Y-96809523D01*
X204952380Y-96904761D01*
X204809523Y-96952380D01*
X204714285Y-96952380D01*
X206047619Y-96952380D02*
X205571428Y-96952380D01*
X205571428Y-95952380D01*
X206952380Y-96857142D02*
X206904761Y-96904761D01*
X206761904Y-96952380D01*
X206666666Y-96952380D01*
X206523809Y-96904761D01*
X206428571Y-96809523D01*
X206380952Y-96714285D01*
X206333333Y-96523809D01*
X206333333Y-96380952D01*
X206380952Y-96190476D01*
X206428571Y-96095238D01*
X206523809Y-96000000D01*
X206666666Y-95952380D01*
X206761904Y-95952380D01*
X206904761Y-96000000D01*
X206952380Y-96047619D01*
X209642857Y-134803571D02*
X209750000Y-134839285D01*
X209928571Y-134839285D01*
X210000000Y-134803571D01*
X210035714Y-134767857D01*
X210071428Y-134696428D01*
X210071428Y-134625000D01*
X210035714Y-134553571D01*
X210000000Y-134517857D01*
X209928571Y-134482142D01*
X209785714Y-134446428D01*
X209714285Y-134410714D01*
X209678571Y-134375000D01*
X209642857Y-134303571D01*
X209642857Y-134232142D01*
X209678571Y-134160714D01*
X209714285Y-134125000D01*
X209785714Y-134089285D01*
X209964285Y-134089285D01*
X210071428Y-134125000D01*
X210321428Y-134089285D02*
X210500000Y-134839285D01*
X210642857Y-134303571D01*
X210785714Y-134839285D01*
X210964285Y-134089285D01*
X211178571Y-134089285D02*
X211642857Y-134089285D01*
X211392857Y-134375000D01*
X211500000Y-134375000D01*
X211571428Y-134410714D01*
X211607142Y-134446428D01*
X211642857Y-134517857D01*
X211642857Y-134696428D01*
X211607142Y-134767857D01*
X211571428Y-134803571D01*
X211500000Y-134839285D01*
X211285714Y-134839285D01*
X211214285Y-134803571D01*
X211178571Y-134767857D01*
X211928571Y-134160714D02*
X211964285Y-134125000D01*
X212035714Y-134089285D01*
X212214285Y-134089285D01*
X212285714Y-134125000D01*
X212321428Y-134160714D01*
X212357142Y-134232142D01*
X212357142Y-134303571D01*
X212321428Y-134410714D01*
X211892857Y-134839285D01*
X212357142Y-134839285D01*
X191642857Y-134803571D02*
X191750000Y-134839285D01*
X191928571Y-134839285D01*
X192000000Y-134803571D01*
X192035714Y-134767857D01*
X192071428Y-134696428D01*
X192071428Y-134625000D01*
X192035714Y-134553571D01*
X192000000Y-134517857D01*
X191928571Y-134482142D01*
X191785714Y-134446428D01*
X191714285Y-134410714D01*
X191678571Y-134375000D01*
X191642857Y-134303571D01*
X191642857Y-134232142D01*
X191678571Y-134160714D01*
X191714285Y-134125000D01*
X191785714Y-134089285D01*
X191964285Y-134089285D01*
X192071428Y-134125000D01*
X192321428Y-134089285D02*
X192500000Y-134839285D01*
X192642857Y-134303571D01*
X192785714Y-134839285D01*
X192964285Y-134089285D01*
X193178571Y-134089285D02*
X193642857Y-134089285D01*
X193392857Y-134375000D01*
X193500000Y-134375000D01*
X193571428Y-134410714D01*
X193607142Y-134446428D01*
X193642857Y-134517857D01*
X193642857Y-134696428D01*
X193607142Y-134767857D01*
X193571428Y-134803571D01*
X193500000Y-134839285D01*
X193285714Y-134839285D01*
X193214285Y-134803571D01*
X193178571Y-134767857D01*
X194357142Y-134839285D02*
X193928571Y-134839285D01*
X194142857Y-134839285D02*
X194142857Y-134089285D01*
X194071428Y-134196428D01*
X194000000Y-134267857D01*
X193928571Y-134303571D01*
X188446428Y-112982142D02*
X188482142Y-112875000D01*
X188517857Y-112839285D01*
X188589285Y-112803571D01*
X188696428Y-112803571D01*
X188767857Y-112839285D01*
X188803571Y-112875000D01*
X188839285Y-112946428D01*
X188839285Y-113232142D01*
X188089285Y-113232142D01*
X188089285Y-112982142D01*
X188125000Y-112910714D01*
X188160714Y-112875000D01*
X188232142Y-112839285D01*
X188303571Y-112839285D01*
X188375000Y-112875000D01*
X188410714Y-112910714D01*
X188446428Y-112982142D01*
X188446428Y-113232142D01*
X188089285Y-112589285D02*
X188089285Y-112160714D01*
X188839285Y-112375000D02*
X188089285Y-112375000D01*
X188839285Y-111910714D02*
X188089285Y-111910714D01*
X188839285Y-111482142D01*
X188089285Y-111482142D01*
X188839285Y-110732142D02*
X188839285Y-111160714D01*
X188839285Y-110946428D02*
X188089285Y-110946428D01*
X188196428Y-111017857D01*
X188267857Y-111089285D01*
X188303571Y-111160714D01*
X84000000Y-100803571D02*
X84107142Y-100839285D01*
X84285714Y-100839285D01*
X84357142Y-100803571D01*
X84392857Y-100767857D01*
X84428571Y-100696428D01*
X84428571Y-100625000D01*
X84392857Y-100553571D01*
X84357142Y-100517857D01*
X84285714Y-100482142D01*
X84142857Y-100446428D01*
X84071428Y-100410714D01*
X84035714Y-100375000D01*
X84000000Y-100303571D01*
X84000000Y-100232142D01*
X84035714Y-100160714D01*
X84071428Y-100125000D01*
X84142857Y-100089285D01*
X84321428Y-100089285D01*
X84428571Y-100125000D01*
X84678571Y-100089285D02*
X84857142Y-100839285D01*
X85000000Y-100303571D01*
X85142857Y-100839285D01*
X85321428Y-100089285D01*
X86000000Y-100839285D02*
X85571428Y-100839285D01*
X85785714Y-100839285D02*
X85785714Y-100089285D01*
X85714285Y-100196428D01*
X85642857Y-100267857D01*
X85571428Y-100303571D01*
X83642857Y-134803571D02*
X83750000Y-134839285D01*
X83928571Y-134839285D01*
X84000000Y-134803571D01*
X84035714Y-134767857D01*
X84071428Y-134696428D01*
X84071428Y-134625000D01*
X84035714Y-134553571D01*
X84000000Y-134517857D01*
X83928571Y-134482142D01*
X83785714Y-134446428D01*
X83714285Y-134410714D01*
X83678571Y-134375000D01*
X83642857Y-134303571D01*
X83642857Y-134232142D01*
X83678571Y-134160714D01*
X83714285Y-134125000D01*
X83785714Y-134089285D01*
X83964285Y-134089285D01*
X84071428Y-134125000D01*
X84321428Y-134089285D02*
X84500000Y-134839285D01*
X84642857Y-134303571D01*
X84785714Y-134839285D01*
X84964285Y-134089285D01*
X85214285Y-134160714D02*
X85250000Y-134125000D01*
X85321428Y-134089285D01*
X85500000Y-134089285D01*
X85571428Y-134125000D01*
X85607142Y-134160714D01*
X85642857Y-134232142D01*
X85642857Y-134303571D01*
X85607142Y-134410714D01*
X85178571Y-134839285D01*
X85642857Y-134839285D01*
X86321428Y-134089285D02*
X85964285Y-134089285D01*
X85928571Y-134446428D01*
X85964285Y-134410714D01*
X86035714Y-134375000D01*
X86214285Y-134375000D01*
X86285714Y-134410714D01*
X86321428Y-134446428D01*
X86357142Y-134517857D01*
X86357142Y-134696428D01*
X86321428Y-134767857D01*
X86285714Y-134803571D01*
X86214285Y-134839285D01*
X86035714Y-134839285D01*
X85964285Y-134803571D01*
X85928571Y-134767857D01*
X83642857Y-151803571D02*
X83750000Y-151839285D01*
X83928571Y-151839285D01*
X84000000Y-151803571D01*
X84035714Y-151767857D01*
X84071428Y-151696428D01*
X84071428Y-151625000D01*
X84035714Y-151553571D01*
X84000000Y-151517857D01*
X83928571Y-151482142D01*
X83785714Y-151446428D01*
X83714285Y-151410714D01*
X83678571Y-151375000D01*
X83642857Y-151303571D01*
X83642857Y-151232142D01*
X83678571Y-151160714D01*
X83714285Y-151125000D01*
X83785714Y-151089285D01*
X83964285Y-151089285D01*
X84071428Y-151125000D01*
X84321428Y-151089285D02*
X84500000Y-151839285D01*
X84642857Y-151303571D01*
X84785714Y-151839285D01*
X84964285Y-151089285D01*
X85178571Y-151089285D02*
X85642857Y-151089285D01*
X85392857Y-151375000D01*
X85500000Y-151375000D01*
X85571428Y-151410714D01*
X85607142Y-151446428D01*
X85642857Y-151517857D01*
X85642857Y-151696428D01*
X85607142Y-151767857D01*
X85571428Y-151803571D01*
X85500000Y-151839285D01*
X85285714Y-151839285D01*
X85214285Y-151803571D01*
X85178571Y-151767857D01*
X86000000Y-151839285D02*
X86142857Y-151839285D01*
X86214285Y-151803571D01*
X86250000Y-151767857D01*
X86321428Y-151660714D01*
X86357142Y-151517857D01*
X86357142Y-151232142D01*
X86321428Y-151160714D01*
X86285714Y-151125000D01*
X86214285Y-151089285D01*
X86071428Y-151089285D01*
X86000000Y-151125000D01*
X85964285Y-151160714D01*
X85928571Y-151232142D01*
X85928571Y-151410714D01*
X85964285Y-151482142D01*
X86000000Y-151517857D01*
X86071428Y-151553571D01*
X86214285Y-151553571D01*
X86285714Y-151517857D01*
X86321428Y-151482142D01*
X86357142Y-151410714D01*
X83642857Y-117803571D02*
X83750000Y-117839285D01*
X83928571Y-117839285D01*
X84000000Y-117803571D01*
X84035714Y-117767857D01*
X84071428Y-117696428D01*
X84071428Y-117625000D01*
X84035714Y-117553571D01*
X84000000Y-117517857D01*
X83928571Y-117482142D01*
X83785714Y-117446428D01*
X83714285Y-117410714D01*
X83678571Y-117375000D01*
X83642857Y-117303571D01*
X83642857Y-117232142D01*
X83678571Y-117160714D01*
X83714285Y-117125000D01*
X83785714Y-117089285D01*
X83964285Y-117089285D01*
X84071428Y-117125000D01*
X84321428Y-117089285D02*
X84500000Y-117839285D01*
X84642857Y-117303571D01*
X84785714Y-117839285D01*
X84964285Y-117089285D01*
X85642857Y-117839285D02*
X85214285Y-117839285D01*
X85428571Y-117839285D02*
X85428571Y-117089285D01*
X85357142Y-117196428D01*
X85285714Y-117267857D01*
X85214285Y-117303571D01*
X85892857Y-117089285D02*
X86357142Y-117089285D01*
X86107142Y-117375000D01*
X86214285Y-117375000D01*
X86285714Y-117410714D01*
X86321428Y-117446428D01*
X86357142Y-117517857D01*
X86357142Y-117696428D01*
X86321428Y-117767857D01*
X86285714Y-117803571D01*
X86214285Y-117839285D01*
X86000000Y-117839285D01*
X85928571Y-117803571D01*
X85892857Y-117767857D01*
X102000000Y-100803571D02*
X102107142Y-100839285D01*
X102285714Y-100839285D01*
X102357142Y-100803571D01*
X102392857Y-100767857D01*
X102428571Y-100696428D01*
X102428571Y-100625000D01*
X102392857Y-100553571D01*
X102357142Y-100517857D01*
X102285714Y-100482142D01*
X102142857Y-100446428D01*
X102071428Y-100410714D01*
X102035714Y-100375000D01*
X102000000Y-100303571D01*
X102000000Y-100232142D01*
X102035714Y-100160714D01*
X102071428Y-100125000D01*
X102142857Y-100089285D01*
X102321428Y-100089285D01*
X102428571Y-100125000D01*
X102678571Y-100089285D02*
X102857142Y-100839285D01*
X103000000Y-100303571D01*
X103142857Y-100839285D01*
X103321428Y-100089285D01*
X103571428Y-100160714D02*
X103607142Y-100125000D01*
X103678571Y-100089285D01*
X103857142Y-100089285D01*
X103928571Y-100125000D01*
X103964285Y-100160714D01*
X104000000Y-100232142D01*
X104000000Y-100303571D01*
X103964285Y-100410714D01*
X103535714Y-100839285D01*
X104000000Y-100839285D01*
X120000000Y-100803571D02*
X120107142Y-100839285D01*
X120285714Y-100839285D01*
X120357142Y-100803571D01*
X120392857Y-100767857D01*
X120428571Y-100696428D01*
X120428571Y-100625000D01*
X120392857Y-100553571D01*
X120357142Y-100517857D01*
X120285714Y-100482142D01*
X120142857Y-100446428D01*
X120071428Y-100410714D01*
X120035714Y-100375000D01*
X120000000Y-100303571D01*
X120000000Y-100232142D01*
X120035714Y-100160714D01*
X120071428Y-100125000D01*
X120142857Y-100089285D01*
X120321428Y-100089285D01*
X120428571Y-100125000D01*
X120678571Y-100089285D02*
X120857142Y-100839285D01*
X121000000Y-100303571D01*
X121142857Y-100839285D01*
X121321428Y-100089285D01*
X121535714Y-100089285D02*
X122000000Y-100089285D01*
X121750000Y-100375000D01*
X121857142Y-100375000D01*
X121928571Y-100410714D01*
X121964285Y-100446428D01*
X122000000Y-100517857D01*
X122000000Y-100696428D01*
X121964285Y-100767857D01*
X121928571Y-100803571D01*
X121857142Y-100839285D01*
X121642857Y-100839285D01*
X121571428Y-100803571D01*
X121535714Y-100767857D01*
X138000000Y-100803571D02*
X138107142Y-100839285D01*
X138285714Y-100839285D01*
X138357142Y-100803571D01*
X138392857Y-100767857D01*
X138428571Y-100696428D01*
X138428571Y-100625000D01*
X138392857Y-100553571D01*
X138357142Y-100517857D01*
X138285714Y-100482142D01*
X138142857Y-100446428D01*
X138071428Y-100410714D01*
X138035714Y-100375000D01*
X138000000Y-100303571D01*
X138000000Y-100232142D01*
X138035714Y-100160714D01*
X138071428Y-100125000D01*
X138142857Y-100089285D01*
X138321428Y-100089285D01*
X138428571Y-100125000D01*
X138678571Y-100089285D02*
X138857142Y-100839285D01*
X139000000Y-100303571D01*
X139142857Y-100839285D01*
X139321428Y-100089285D01*
X139928571Y-100339285D02*
X139928571Y-100839285D01*
X139750000Y-100053571D02*
X139571428Y-100589285D01*
X140035714Y-100589285D01*
X156000000Y-100803571D02*
X156107142Y-100839285D01*
X156285714Y-100839285D01*
X156357142Y-100803571D01*
X156392857Y-100767857D01*
X156428571Y-100696428D01*
X156428571Y-100625000D01*
X156392857Y-100553571D01*
X156357142Y-100517857D01*
X156285714Y-100482142D01*
X156142857Y-100446428D01*
X156071428Y-100410714D01*
X156035714Y-100375000D01*
X156000000Y-100303571D01*
X156000000Y-100232142D01*
X156035714Y-100160714D01*
X156071428Y-100125000D01*
X156142857Y-100089285D01*
X156321428Y-100089285D01*
X156428571Y-100125000D01*
X156678571Y-100089285D02*
X156857142Y-100839285D01*
X157000000Y-100303571D01*
X157142857Y-100839285D01*
X157321428Y-100089285D01*
X157964285Y-100089285D02*
X157607142Y-100089285D01*
X157571428Y-100446428D01*
X157607142Y-100410714D01*
X157678571Y-100375000D01*
X157857142Y-100375000D01*
X157928571Y-100410714D01*
X157964285Y-100446428D01*
X158000000Y-100517857D01*
X158000000Y-100696428D01*
X157964285Y-100767857D01*
X157928571Y-100803571D01*
X157857142Y-100839285D01*
X157678571Y-100839285D01*
X157607142Y-100803571D01*
X157571428Y-100767857D01*
X228000000Y-100803571D02*
X228107142Y-100839285D01*
X228285714Y-100839285D01*
X228357142Y-100803571D01*
X228392857Y-100767857D01*
X228428571Y-100696428D01*
X228428571Y-100625000D01*
X228392857Y-100553571D01*
X228357142Y-100517857D01*
X228285714Y-100482142D01*
X228142857Y-100446428D01*
X228071428Y-100410714D01*
X228035714Y-100375000D01*
X228000000Y-100303571D01*
X228000000Y-100232142D01*
X228035714Y-100160714D01*
X228071428Y-100125000D01*
X228142857Y-100089285D01*
X228321428Y-100089285D01*
X228428571Y-100125000D01*
X228678571Y-100089285D02*
X228857142Y-100839285D01*
X229000000Y-100303571D01*
X229142857Y-100839285D01*
X229321428Y-100089285D01*
X229535714Y-100089285D02*
X230035714Y-100089285D01*
X229714285Y-100839285D01*
X246000000Y-100803571D02*
X246107142Y-100839285D01*
X246285714Y-100839285D01*
X246357142Y-100803571D01*
X246392857Y-100767857D01*
X246428571Y-100696428D01*
X246428571Y-100625000D01*
X246392857Y-100553571D01*
X246357142Y-100517857D01*
X246285714Y-100482142D01*
X246142857Y-100446428D01*
X246071428Y-100410714D01*
X246035714Y-100375000D01*
X246000000Y-100303571D01*
X246000000Y-100232142D01*
X246035714Y-100160714D01*
X246071428Y-100125000D01*
X246142857Y-100089285D01*
X246321428Y-100089285D01*
X246428571Y-100125000D01*
X246678571Y-100089285D02*
X246857142Y-100839285D01*
X247000000Y-100303571D01*
X247142857Y-100839285D01*
X247321428Y-100089285D01*
X247714285Y-100410714D02*
X247642857Y-100375000D01*
X247607142Y-100339285D01*
X247571428Y-100267857D01*
X247571428Y-100232142D01*
X247607142Y-100160714D01*
X247642857Y-100125000D01*
X247714285Y-100089285D01*
X247857142Y-100089285D01*
X247928571Y-100125000D01*
X247964285Y-100160714D01*
X248000000Y-100232142D01*
X248000000Y-100267857D01*
X247964285Y-100339285D01*
X247928571Y-100375000D01*
X247857142Y-100410714D01*
X247714285Y-100410714D01*
X247642857Y-100446428D01*
X247607142Y-100482142D01*
X247571428Y-100553571D01*
X247571428Y-100696428D01*
X247607142Y-100767857D01*
X247642857Y-100803571D01*
X247714285Y-100839285D01*
X247857142Y-100839285D01*
X247928571Y-100803571D01*
X247964285Y-100767857D01*
X248000000Y-100696428D01*
X248000000Y-100553571D01*
X247964285Y-100482142D01*
X247928571Y-100446428D01*
X247857142Y-100410714D01*
X264000000Y-100803571D02*
X264107142Y-100839285D01*
X264285714Y-100839285D01*
X264357142Y-100803571D01*
X264392857Y-100767857D01*
X264428571Y-100696428D01*
X264428571Y-100625000D01*
X264392857Y-100553571D01*
X264357142Y-100517857D01*
X264285714Y-100482142D01*
X264142857Y-100446428D01*
X264071428Y-100410714D01*
X264035714Y-100375000D01*
X264000000Y-100303571D01*
X264000000Y-100232142D01*
X264035714Y-100160714D01*
X264071428Y-100125000D01*
X264142857Y-100089285D01*
X264321428Y-100089285D01*
X264428571Y-100125000D01*
X264678571Y-100089285D02*
X264857142Y-100839285D01*
X265000000Y-100303571D01*
X265142857Y-100839285D01*
X265321428Y-100089285D01*
X265642857Y-100839285D02*
X265785714Y-100839285D01*
X265857142Y-100803571D01*
X265892857Y-100767857D01*
X265964285Y-100660714D01*
X266000000Y-100517857D01*
X266000000Y-100232142D01*
X265964285Y-100160714D01*
X265928571Y-100125000D01*
X265857142Y-100089285D01*
X265714285Y-100089285D01*
X265642857Y-100125000D01*
X265607142Y-100160714D01*
X265571428Y-100232142D01*
X265571428Y-100410714D01*
X265607142Y-100482142D01*
X265642857Y-100517857D01*
X265714285Y-100553571D01*
X265857142Y-100553571D01*
X265928571Y-100517857D01*
X265964285Y-100482142D01*
X266000000Y-100410714D01*
X281642857Y-100803571D02*
X281750000Y-100839285D01*
X281928571Y-100839285D01*
X282000000Y-100803571D01*
X282035714Y-100767857D01*
X282071428Y-100696428D01*
X282071428Y-100625000D01*
X282035714Y-100553571D01*
X282000000Y-100517857D01*
X281928571Y-100482142D01*
X281785714Y-100446428D01*
X281714285Y-100410714D01*
X281678571Y-100375000D01*
X281642857Y-100303571D01*
X281642857Y-100232142D01*
X281678571Y-100160714D01*
X281714285Y-100125000D01*
X281785714Y-100089285D01*
X281964285Y-100089285D01*
X282071428Y-100125000D01*
X282321428Y-100089285D02*
X282500000Y-100839285D01*
X282642857Y-100303571D01*
X282785714Y-100839285D01*
X282964285Y-100089285D01*
X283642857Y-100839285D02*
X283214285Y-100839285D01*
X283428571Y-100839285D02*
X283428571Y-100089285D01*
X283357142Y-100196428D01*
X283285714Y-100267857D01*
X283214285Y-100303571D01*
X284107142Y-100089285D02*
X284178571Y-100089285D01*
X284250000Y-100125000D01*
X284285714Y-100160714D01*
X284321428Y-100232142D01*
X284357142Y-100375000D01*
X284357142Y-100553571D01*
X284321428Y-100696428D01*
X284285714Y-100767857D01*
X284250000Y-100803571D01*
X284178571Y-100839285D01*
X284107142Y-100839285D01*
X284035714Y-100803571D01*
X284000000Y-100767857D01*
X283964285Y-100696428D01*
X283928571Y-100553571D01*
X283928571Y-100375000D01*
X283964285Y-100232142D01*
X284000000Y-100160714D01*
X284035714Y-100125000D01*
X284107142Y-100089285D01*
X299642857Y-100803571D02*
X299750000Y-100839285D01*
X299928571Y-100839285D01*
X300000000Y-100803571D01*
X300035714Y-100767857D01*
X300071428Y-100696428D01*
X300071428Y-100625000D01*
X300035714Y-100553571D01*
X300000000Y-100517857D01*
X299928571Y-100482142D01*
X299785714Y-100446428D01*
X299714285Y-100410714D01*
X299678571Y-100375000D01*
X299642857Y-100303571D01*
X299642857Y-100232142D01*
X299678571Y-100160714D01*
X299714285Y-100125000D01*
X299785714Y-100089285D01*
X299964285Y-100089285D01*
X300071428Y-100125000D01*
X300321428Y-100089285D02*
X300500000Y-100839285D01*
X300642857Y-100303571D01*
X300785714Y-100839285D01*
X300964285Y-100089285D01*
X301642857Y-100839285D02*
X301214285Y-100839285D01*
X301428571Y-100839285D02*
X301428571Y-100089285D01*
X301357142Y-100196428D01*
X301285714Y-100267857D01*
X301214285Y-100303571D01*
X302357142Y-100839285D02*
X301928571Y-100839285D01*
X302142857Y-100839285D02*
X302142857Y-100089285D01*
X302071428Y-100196428D01*
X302000000Y-100267857D01*
X301928571Y-100303571D01*
X317642857Y-100803571D02*
X317750000Y-100839285D01*
X317928571Y-100839285D01*
X318000000Y-100803571D01*
X318035714Y-100767857D01*
X318071428Y-100696428D01*
X318071428Y-100625000D01*
X318035714Y-100553571D01*
X318000000Y-100517857D01*
X317928571Y-100482142D01*
X317785714Y-100446428D01*
X317714285Y-100410714D01*
X317678571Y-100375000D01*
X317642857Y-100303571D01*
X317642857Y-100232142D01*
X317678571Y-100160714D01*
X317714285Y-100125000D01*
X317785714Y-100089285D01*
X317964285Y-100089285D01*
X318071428Y-100125000D01*
X318321428Y-100089285D02*
X318500000Y-100839285D01*
X318642857Y-100303571D01*
X318785714Y-100839285D01*
X318964285Y-100089285D01*
X319642857Y-100839285D02*
X319214285Y-100839285D01*
X319428571Y-100839285D02*
X319428571Y-100089285D01*
X319357142Y-100196428D01*
X319285714Y-100267857D01*
X319214285Y-100303571D01*
X319928571Y-100160714D02*
X319964285Y-100125000D01*
X320035714Y-100089285D01*
X320214285Y-100089285D01*
X320285714Y-100125000D01*
X320321428Y-100160714D01*
X320357142Y-100232142D01*
X320357142Y-100303571D01*
X320321428Y-100410714D01*
X319892857Y-100839285D01*
X320357142Y-100839285D01*
X101642857Y-117803571D02*
X101750000Y-117839285D01*
X101928571Y-117839285D01*
X102000000Y-117803571D01*
X102035714Y-117767857D01*
X102071428Y-117696428D01*
X102071428Y-117625000D01*
X102035714Y-117553571D01*
X102000000Y-117517857D01*
X101928571Y-117482142D01*
X101785714Y-117446428D01*
X101714285Y-117410714D01*
X101678571Y-117375000D01*
X101642857Y-117303571D01*
X101642857Y-117232142D01*
X101678571Y-117160714D01*
X101714285Y-117125000D01*
X101785714Y-117089285D01*
X101964285Y-117089285D01*
X102071428Y-117125000D01*
X102321428Y-117089285D02*
X102500000Y-117839285D01*
X102642857Y-117303571D01*
X102785714Y-117839285D01*
X102964285Y-117089285D01*
X103642857Y-117839285D02*
X103214285Y-117839285D01*
X103428571Y-117839285D02*
X103428571Y-117089285D01*
X103357142Y-117196428D01*
X103285714Y-117267857D01*
X103214285Y-117303571D01*
X104285714Y-117339285D02*
X104285714Y-117839285D01*
X104107142Y-117053571D02*
X103928571Y-117589285D01*
X104392857Y-117589285D01*
X119642857Y-117803571D02*
X119750000Y-117839285D01*
X119928571Y-117839285D01*
X120000000Y-117803571D01*
X120035714Y-117767857D01*
X120071428Y-117696428D01*
X120071428Y-117625000D01*
X120035714Y-117553571D01*
X120000000Y-117517857D01*
X119928571Y-117482142D01*
X119785714Y-117446428D01*
X119714285Y-117410714D01*
X119678571Y-117375000D01*
X119642857Y-117303571D01*
X119642857Y-117232142D01*
X119678571Y-117160714D01*
X119714285Y-117125000D01*
X119785714Y-117089285D01*
X119964285Y-117089285D01*
X120071428Y-117125000D01*
X120321428Y-117089285D02*
X120500000Y-117839285D01*
X120642857Y-117303571D01*
X120785714Y-117839285D01*
X120964285Y-117089285D01*
X121642857Y-117839285D02*
X121214285Y-117839285D01*
X121428571Y-117839285D02*
X121428571Y-117089285D01*
X121357142Y-117196428D01*
X121285714Y-117267857D01*
X121214285Y-117303571D01*
X122321428Y-117089285D02*
X121964285Y-117089285D01*
X121928571Y-117446428D01*
X121964285Y-117410714D01*
X122035714Y-117375000D01*
X122214285Y-117375000D01*
X122285714Y-117410714D01*
X122321428Y-117446428D01*
X122357142Y-117517857D01*
X122357142Y-117696428D01*
X122321428Y-117767857D01*
X122285714Y-117803571D01*
X122214285Y-117839285D01*
X122035714Y-117839285D01*
X121964285Y-117803571D01*
X121928571Y-117767857D01*
X137642857Y-117803571D02*
X137750000Y-117839285D01*
X137928571Y-117839285D01*
X138000000Y-117803571D01*
X138035714Y-117767857D01*
X138071428Y-117696428D01*
X138071428Y-117625000D01*
X138035714Y-117553571D01*
X138000000Y-117517857D01*
X137928571Y-117482142D01*
X137785714Y-117446428D01*
X137714285Y-117410714D01*
X137678571Y-117375000D01*
X137642857Y-117303571D01*
X137642857Y-117232142D01*
X137678571Y-117160714D01*
X137714285Y-117125000D01*
X137785714Y-117089285D01*
X137964285Y-117089285D01*
X138071428Y-117125000D01*
X138321428Y-117089285D02*
X138500000Y-117839285D01*
X138642857Y-117303571D01*
X138785714Y-117839285D01*
X138964285Y-117089285D01*
X139642857Y-117839285D02*
X139214285Y-117839285D01*
X139428571Y-117839285D02*
X139428571Y-117089285D01*
X139357142Y-117196428D01*
X139285714Y-117267857D01*
X139214285Y-117303571D01*
X140285714Y-117089285D02*
X140142857Y-117089285D01*
X140071428Y-117125000D01*
X140035714Y-117160714D01*
X139964285Y-117267857D01*
X139928571Y-117410714D01*
X139928571Y-117696428D01*
X139964285Y-117767857D01*
X140000000Y-117803571D01*
X140071428Y-117839285D01*
X140214285Y-117839285D01*
X140285714Y-117803571D01*
X140321428Y-117767857D01*
X140357142Y-117696428D01*
X140357142Y-117517857D01*
X140321428Y-117446428D01*
X140285714Y-117410714D01*
X140214285Y-117375000D01*
X140071428Y-117375000D01*
X140000000Y-117410714D01*
X139964285Y-117446428D01*
X139928571Y-117517857D01*
X155642857Y-117803571D02*
X155750000Y-117839285D01*
X155928571Y-117839285D01*
X156000000Y-117803571D01*
X156035714Y-117767857D01*
X156071428Y-117696428D01*
X156071428Y-117625000D01*
X156035714Y-117553571D01*
X156000000Y-117517857D01*
X155928571Y-117482142D01*
X155785714Y-117446428D01*
X155714285Y-117410714D01*
X155678571Y-117375000D01*
X155642857Y-117303571D01*
X155642857Y-117232142D01*
X155678571Y-117160714D01*
X155714285Y-117125000D01*
X155785714Y-117089285D01*
X155964285Y-117089285D01*
X156071428Y-117125000D01*
X156321428Y-117089285D02*
X156500000Y-117839285D01*
X156642857Y-117303571D01*
X156785714Y-117839285D01*
X156964285Y-117089285D01*
X157642857Y-117839285D02*
X157214285Y-117839285D01*
X157428571Y-117839285D02*
X157428571Y-117089285D01*
X157357142Y-117196428D01*
X157285714Y-117267857D01*
X157214285Y-117303571D01*
X157892857Y-117089285D02*
X158392857Y-117089285D01*
X158071428Y-117839285D01*
X173642857Y-117803571D02*
X173750000Y-117839285D01*
X173928571Y-117839285D01*
X174000000Y-117803571D01*
X174035714Y-117767857D01*
X174071428Y-117696428D01*
X174071428Y-117625000D01*
X174035714Y-117553571D01*
X174000000Y-117517857D01*
X173928571Y-117482142D01*
X173785714Y-117446428D01*
X173714285Y-117410714D01*
X173678571Y-117375000D01*
X173642857Y-117303571D01*
X173642857Y-117232142D01*
X173678571Y-117160714D01*
X173714285Y-117125000D01*
X173785714Y-117089285D01*
X173964285Y-117089285D01*
X174071428Y-117125000D01*
X174321428Y-117089285D02*
X174500000Y-117839285D01*
X174642857Y-117303571D01*
X174785714Y-117839285D01*
X174964285Y-117089285D01*
X175642857Y-117839285D02*
X175214285Y-117839285D01*
X175428571Y-117839285D02*
X175428571Y-117089285D01*
X175357142Y-117196428D01*
X175285714Y-117267857D01*
X175214285Y-117303571D01*
X176071428Y-117410714D02*
X176000000Y-117375000D01*
X175964285Y-117339285D01*
X175928571Y-117267857D01*
X175928571Y-117232142D01*
X175964285Y-117160714D01*
X176000000Y-117125000D01*
X176071428Y-117089285D01*
X176214285Y-117089285D01*
X176285714Y-117125000D01*
X176321428Y-117160714D01*
X176357142Y-117232142D01*
X176357142Y-117267857D01*
X176321428Y-117339285D01*
X176285714Y-117375000D01*
X176214285Y-117410714D01*
X176071428Y-117410714D01*
X176000000Y-117446428D01*
X175964285Y-117482142D01*
X175928571Y-117553571D01*
X175928571Y-117696428D01*
X175964285Y-117767857D01*
X176000000Y-117803571D01*
X176071428Y-117839285D01*
X176214285Y-117839285D01*
X176285714Y-117803571D01*
X176321428Y-117767857D01*
X176357142Y-117696428D01*
X176357142Y-117553571D01*
X176321428Y-117482142D01*
X176285714Y-117446428D01*
X176214285Y-117410714D01*
X227642857Y-117803571D02*
X227750000Y-117839285D01*
X227928571Y-117839285D01*
X228000000Y-117803571D01*
X228035714Y-117767857D01*
X228071428Y-117696428D01*
X228071428Y-117625000D01*
X228035714Y-117553571D01*
X228000000Y-117517857D01*
X227928571Y-117482142D01*
X227785714Y-117446428D01*
X227714285Y-117410714D01*
X227678571Y-117375000D01*
X227642857Y-117303571D01*
X227642857Y-117232142D01*
X227678571Y-117160714D01*
X227714285Y-117125000D01*
X227785714Y-117089285D01*
X227964285Y-117089285D01*
X228071428Y-117125000D01*
X228321428Y-117089285D02*
X228500000Y-117839285D01*
X228642857Y-117303571D01*
X228785714Y-117839285D01*
X228964285Y-117089285D01*
X229642857Y-117839285D02*
X229214285Y-117839285D01*
X229428571Y-117839285D02*
X229428571Y-117089285D01*
X229357142Y-117196428D01*
X229285714Y-117267857D01*
X229214285Y-117303571D01*
X230000000Y-117839285D02*
X230142857Y-117839285D01*
X230214285Y-117803571D01*
X230250000Y-117767857D01*
X230321428Y-117660714D01*
X230357142Y-117517857D01*
X230357142Y-117232142D01*
X230321428Y-117160714D01*
X230285714Y-117125000D01*
X230214285Y-117089285D01*
X230071428Y-117089285D01*
X230000000Y-117125000D01*
X229964285Y-117160714D01*
X229928571Y-117232142D01*
X229928571Y-117410714D01*
X229964285Y-117482142D01*
X230000000Y-117517857D01*
X230071428Y-117553571D01*
X230214285Y-117553571D01*
X230285714Y-117517857D01*
X230321428Y-117482142D01*
X230357142Y-117410714D01*
X245642857Y-117803571D02*
X245750000Y-117839285D01*
X245928571Y-117839285D01*
X246000000Y-117803571D01*
X246035714Y-117767857D01*
X246071428Y-117696428D01*
X246071428Y-117625000D01*
X246035714Y-117553571D01*
X246000000Y-117517857D01*
X245928571Y-117482142D01*
X245785714Y-117446428D01*
X245714285Y-117410714D01*
X245678571Y-117375000D01*
X245642857Y-117303571D01*
X245642857Y-117232142D01*
X245678571Y-117160714D01*
X245714285Y-117125000D01*
X245785714Y-117089285D01*
X245964285Y-117089285D01*
X246071428Y-117125000D01*
X246321428Y-117089285D02*
X246500000Y-117839285D01*
X246642857Y-117303571D01*
X246785714Y-117839285D01*
X246964285Y-117089285D01*
X247214285Y-117160714D02*
X247250000Y-117125000D01*
X247321428Y-117089285D01*
X247500000Y-117089285D01*
X247571428Y-117125000D01*
X247607142Y-117160714D01*
X247642857Y-117232142D01*
X247642857Y-117303571D01*
X247607142Y-117410714D01*
X247178571Y-117839285D01*
X247642857Y-117839285D01*
X248107142Y-117089285D02*
X248178571Y-117089285D01*
X248250000Y-117125000D01*
X248285714Y-117160714D01*
X248321428Y-117232142D01*
X248357142Y-117375000D01*
X248357142Y-117553571D01*
X248321428Y-117696428D01*
X248285714Y-117767857D01*
X248250000Y-117803571D01*
X248178571Y-117839285D01*
X248107142Y-117839285D01*
X248035714Y-117803571D01*
X248000000Y-117767857D01*
X247964285Y-117696428D01*
X247928571Y-117553571D01*
X247928571Y-117375000D01*
X247964285Y-117232142D01*
X248000000Y-117160714D01*
X248035714Y-117125000D01*
X248107142Y-117089285D01*
X263642857Y-117803571D02*
X263750000Y-117839285D01*
X263928571Y-117839285D01*
X264000000Y-117803571D01*
X264035714Y-117767857D01*
X264071428Y-117696428D01*
X264071428Y-117625000D01*
X264035714Y-117553571D01*
X264000000Y-117517857D01*
X263928571Y-117482142D01*
X263785714Y-117446428D01*
X263714285Y-117410714D01*
X263678571Y-117375000D01*
X263642857Y-117303571D01*
X263642857Y-117232142D01*
X263678571Y-117160714D01*
X263714285Y-117125000D01*
X263785714Y-117089285D01*
X263964285Y-117089285D01*
X264071428Y-117125000D01*
X264321428Y-117089285D02*
X264500000Y-117839285D01*
X264642857Y-117303571D01*
X264785714Y-117839285D01*
X264964285Y-117089285D01*
X265214285Y-117160714D02*
X265250000Y-117125000D01*
X265321428Y-117089285D01*
X265500000Y-117089285D01*
X265571428Y-117125000D01*
X265607142Y-117160714D01*
X265642857Y-117232142D01*
X265642857Y-117303571D01*
X265607142Y-117410714D01*
X265178571Y-117839285D01*
X265642857Y-117839285D01*
X266357142Y-117839285D02*
X265928571Y-117839285D01*
X266142857Y-117839285D02*
X266142857Y-117089285D01*
X266071428Y-117196428D01*
X266000000Y-117267857D01*
X265928571Y-117303571D01*
X281642857Y-117803571D02*
X281750000Y-117839285D01*
X281928571Y-117839285D01*
X282000000Y-117803571D01*
X282035714Y-117767857D01*
X282071428Y-117696428D01*
X282071428Y-117625000D01*
X282035714Y-117553571D01*
X282000000Y-117517857D01*
X281928571Y-117482142D01*
X281785714Y-117446428D01*
X281714285Y-117410714D01*
X281678571Y-117375000D01*
X281642857Y-117303571D01*
X281642857Y-117232142D01*
X281678571Y-117160714D01*
X281714285Y-117125000D01*
X281785714Y-117089285D01*
X281964285Y-117089285D01*
X282071428Y-117125000D01*
X282321428Y-117089285D02*
X282500000Y-117839285D01*
X282642857Y-117303571D01*
X282785714Y-117839285D01*
X282964285Y-117089285D01*
X283214285Y-117160714D02*
X283250000Y-117125000D01*
X283321428Y-117089285D01*
X283500000Y-117089285D01*
X283571428Y-117125000D01*
X283607142Y-117160714D01*
X283642857Y-117232142D01*
X283642857Y-117303571D01*
X283607142Y-117410714D01*
X283178571Y-117839285D01*
X283642857Y-117839285D01*
X283928571Y-117160714D02*
X283964285Y-117125000D01*
X284035714Y-117089285D01*
X284214285Y-117089285D01*
X284285714Y-117125000D01*
X284321428Y-117160714D01*
X284357142Y-117232142D01*
X284357142Y-117303571D01*
X284321428Y-117410714D01*
X283892857Y-117839285D01*
X284357142Y-117839285D01*
X299642857Y-117803571D02*
X299750000Y-117839285D01*
X299928571Y-117839285D01*
X300000000Y-117803571D01*
X300035714Y-117767857D01*
X300071428Y-117696428D01*
X300071428Y-117625000D01*
X300035714Y-117553571D01*
X300000000Y-117517857D01*
X299928571Y-117482142D01*
X299785714Y-117446428D01*
X299714285Y-117410714D01*
X299678571Y-117375000D01*
X299642857Y-117303571D01*
X299642857Y-117232142D01*
X299678571Y-117160714D01*
X299714285Y-117125000D01*
X299785714Y-117089285D01*
X299964285Y-117089285D01*
X300071428Y-117125000D01*
X300321428Y-117089285D02*
X300500000Y-117839285D01*
X300642857Y-117303571D01*
X300785714Y-117839285D01*
X300964285Y-117089285D01*
X301214285Y-117160714D02*
X301250000Y-117125000D01*
X301321428Y-117089285D01*
X301500000Y-117089285D01*
X301571428Y-117125000D01*
X301607142Y-117160714D01*
X301642857Y-117232142D01*
X301642857Y-117303571D01*
X301607142Y-117410714D01*
X301178571Y-117839285D01*
X301642857Y-117839285D01*
X301892857Y-117089285D02*
X302357142Y-117089285D01*
X302107142Y-117375000D01*
X302214285Y-117375000D01*
X302285714Y-117410714D01*
X302321428Y-117446428D01*
X302357142Y-117517857D01*
X302357142Y-117696428D01*
X302321428Y-117767857D01*
X302285714Y-117803571D01*
X302214285Y-117839285D01*
X302000000Y-117839285D01*
X301928571Y-117803571D01*
X301892857Y-117767857D01*
X317642857Y-117803571D02*
X317750000Y-117839285D01*
X317928571Y-117839285D01*
X318000000Y-117803571D01*
X318035714Y-117767857D01*
X318071428Y-117696428D01*
X318071428Y-117625000D01*
X318035714Y-117553571D01*
X318000000Y-117517857D01*
X317928571Y-117482142D01*
X317785714Y-117446428D01*
X317714285Y-117410714D01*
X317678571Y-117375000D01*
X317642857Y-117303571D01*
X317642857Y-117232142D01*
X317678571Y-117160714D01*
X317714285Y-117125000D01*
X317785714Y-117089285D01*
X317964285Y-117089285D01*
X318071428Y-117125000D01*
X318321428Y-117089285D02*
X318500000Y-117839285D01*
X318642857Y-117303571D01*
X318785714Y-117839285D01*
X318964285Y-117089285D01*
X319214285Y-117160714D02*
X319250000Y-117125000D01*
X319321428Y-117089285D01*
X319500000Y-117089285D01*
X319571428Y-117125000D01*
X319607142Y-117160714D01*
X319642857Y-117232142D01*
X319642857Y-117303571D01*
X319607142Y-117410714D01*
X319178571Y-117839285D01*
X319642857Y-117839285D01*
X320285714Y-117339285D02*
X320285714Y-117839285D01*
X320107142Y-117053571D02*
X319928571Y-117589285D01*
X320392857Y-117589285D01*
X101642857Y-134803571D02*
X101750000Y-134839285D01*
X101928571Y-134839285D01*
X102000000Y-134803571D01*
X102035714Y-134767857D01*
X102071428Y-134696428D01*
X102071428Y-134625000D01*
X102035714Y-134553571D01*
X102000000Y-134517857D01*
X101928571Y-134482142D01*
X101785714Y-134446428D01*
X101714285Y-134410714D01*
X101678571Y-134375000D01*
X101642857Y-134303571D01*
X101642857Y-134232142D01*
X101678571Y-134160714D01*
X101714285Y-134125000D01*
X101785714Y-134089285D01*
X101964285Y-134089285D01*
X102071428Y-134125000D01*
X102321428Y-134089285D02*
X102500000Y-134839285D01*
X102642857Y-134303571D01*
X102785714Y-134839285D01*
X102964285Y-134089285D01*
X103214285Y-134160714D02*
X103250000Y-134125000D01*
X103321428Y-134089285D01*
X103500000Y-134089285D01*
X103571428Y-134125000D01*
X103607142Y-134160714D01*
X103642857Y-134232142D01*
X103642857Y-134303571D01*
X103607142Y-134410714D01*
X103178571Y-134839285D01*
X103642857Y-134839285D01*
X104285714Y-134089285D02*
X104142857Y-134089285D01*
X104071428Y-134125000D01*
X104035714Y-134160714D01*
X103964285Y-134267857D01*
X103928571Y-134410714D01*
X103928571Y-134696428D01*
X103964285Y-134767857D01*
X104000000Y-134803571D01*
X104071428Y-134839285D01*
X104214285Y-134839285D01*
X104285714Y-134803571D01*
X104321428Y-134767857D01*
X104357142Y-134696428D01*
X104357142Y-134517857D01*
X104321428Y-134446428D01*
X104285714Y-134410714D01*
X104214285Y-134375000D01*
X104071428Y-134375000D01*
X104000000Y-134410714D01*
X103964285Y-134446428D01*
X103928571Y-134517857D01*
X119642857Y-134803571D02*
X119750000Y-134839285D01*
X119928571Y-134839285D01*
X120000000Y-134803571D01*
X120035714Y-134767857D01*
X120071428Y-134696428D01*
X120071428Y-134625000D01*
X120035714Y-134553571D01*
X120000000Y-134517857D01*
X119928571Y-134482142D01*
X119785714Y-134446428D01*
X119714285Y-134410714D01*
X119678571Y-134375000D01*
X119642857Y-134303571D01*
X119642857Y-134232142D01*
X119678571Y-134160714D01*
X119714285Y-134125000D01*
X119785714Y-134089285D01*
X119964285Y-134089285D01*
X120071428Y-134125000D01*
X120321428Y-134089285D02*
X120500000Y-134839285D01*
X120642857Y-134303571D01*
X120785714Y-134839285D01*
X120964285Y-134089285D01*
X121214285Y-134160714D02*
X121250000Y-134125000D01*
X121321428Y-134089285D01*
X121500000Y-134089285D01*
X121571428Y-134125000D01*
X121607142Y-134160714D01*
X121642857Y-134232142D01*
X121642857Y-134303571D01*
X121607142Y-134410714D01*
X121178571Y-134839285D01*
X121642857Y-134839285D01*
X121892857Y-134089285D02*
X122392857Y-134089285D01*
X122071428Y-134839285D01*
X137642857Y-134803571D02*
X137750000Y-134839285D01*
X137928571Y-134839285D01*
X138000000Y-134803571D01*
X138035714Y-134767857D01*
X138071428Y-134696428D01*
X138071428Y-134625000D01*
X138035714Y-134553571D01*
X138000000Y-134517857D01*
X137928571Y-134482142D01*
X137785714Y-134446428D01*
X137714285Y-134410714D01*
X137678571Y-134375000D01*
X137642857Y-134303571D01*
X137642857Y-134232142D01*
X137678571Y-134160714D01*
X137714285Y-134125000D01*
X137785714Y-134089285D01*
X137964285Y-134089285D01*
X138071428Y-134125000D01*
X138321428Y-134089285D02*
X138500000Y-134839285D01*
X138642857Y-134303571D01*
X138785714Y-134839285D01*
X138964285Y-134089285D01*
X139214285Y-134160714D02*
X139250000Y-134125000D01*
X139321428Y-134089285D01*
X139500000Y-134089285D01*
X139571428Y-134125000D01*
X139607142Y-134160714D01*
X139642857Y-134232142D01*
X139642857Y-134303571D01*
X139607142Y-134410714D01*
X139178571Y-134839285D01*
X139642857Y-134839285D01*
X140071428Y-134410714D02*
X140000000Y-134375000D01*
X139964285Y-134339285D01*
X139928571Y-134267857D01*
X139928571Y-134232142D01*
X139964285Y-134160714D01*
X140000000Y-134125000D01*
X140071428Y-134089285D01*
X140214285Y-134089285D01*
X140285714Y-134125000D01*
X140321428Y-134160714D01*
X140357142Y-134232142D01*
X140357142Y-134267857D01*
X140321428Y-134339285D01*
X140285714Y-134375000D01*
X140214285Y-134410714D01*
X140071428Y-134410714D01*
X140000000Y-134446428D01*
X139964285Y-134482142D01*
X139928571Y-134553571D01*
X139928571Y-134696428D01*
X139964285Y-134767857D01*
X140000000Y-134803571D01*
X140071428Y-134839285D01*
X140214285Y-134839285D01*
X140285714Y-134803571D01*
X140321428Y-134767857D01*
X140357142Y-134696428D01*
X140357142Y-134553571D01*
X140321428Y-134482142D01*
X140285714Y-134446428D01*
X140214285Y-134410714D01*
X155642857Y-134803571D02*
X155750000Y-134839285D01*
X155928571Y-134839285D01*
X156000000Y-134803571D01*
X156035714Y-134767857D01*
X156071428Y-134696428D01*
X156071428Y-134625000D01*
X156035714Y-134553571D01*
X156000000Y-134517857D01*
X155928571Y-134482142D01*
X155785714Y-134446428D01*
X155714285Y-134410714D01*
X155678571Y-134375000D01*
X155642857Y-134303571D01*
X155642857Y-134232142D01*
X155678571Y-134160714D01*
X155714285Y-134125000D01*
X155785714Y-134089285D01*
X155964285Y-134089285D01*
X156071428Y-134125000D01*
X156321428Y-134089285D02*
X156500000Y-134839285D01*
X156642857Y-134303571D01*
X156785714Y-134839285D01*
X156964285Y-134089285D01*
X157214285Y-134160714D02*
X157250000Y-134125000D01*
X157321428Y-134089285D01*
X157500000Y-134089285D01*
X157571428Y-134125000D01*
X157607142Y-134160714D01*
X157642857Y-134232142D01*
X157642857Y-134303571D01*
X157607142Y-134410714D01*
X157178571Y-134839285D01*
X157642857Y-134839285D01*
X158000000Y-134839285D02*
X158142857Y-134839285D01*
X158214285Y-134803571D01*
X158250000Y-134767857D01*
X158321428Y-134660714D01*
X158357142Y-134517857D01*
X158357142Y-134232142D01*
X158321428Y-134160714D01*
X158285714Y-134125000D01*
X158214285Y-134089285D01*
X158071428Y-134089285D01*
X158000000Y-134125000D01*
X157964285Y-134160714D01*
X157928571Y-134232142D01*
X157928571Y-134410714D01*
X157964285Y-134482142D01*
X158000000Y-134517857D01*
X158071428Y-134553571D01*
X158214285Y-134553571D01*
X158285714Y-134517857D01*
X158321428Y-134482142D01*
X158357142Y-134410714D01*
X173642857Y-134803571D02*
X173750000Y-134839285D01*
X173928571Y-134839285D01*
X174000000Y-134803571D01*
X174035714Y-134767857D01*
X174071428Y-134696428D01*
X174071428Y-134625000D01*
X174035714Y-134553571D01*
X174000000Y-134517857D01*
X173928571Y-134482142D01*
X173785714Y-134446428D01*
X173714285Y-134410714D01*
X173678571Y-134375000D01*
X173642857Y-134303571D01*
X173642857Y-134232142D01*
X173678571Y-134160714D01*
X173714285Y-134125000D01*
X173785714Y-134089285D01*
X173964285Y-134089285D01*
X174071428Y-134125000D01*
X174321428Y-134089285D02*
X174500000Y-134839285D01*
X174642857Y-134303571D01*
X174785714Y-134839285D01*
X174964285Y-134089285D01*
X175178571Y-134089285D02*
X175642857Y-134089285D01*
X175392857Y-134375000D01*
X175500000Y-134375000D01*
X175571428Y-134410714D01*
X175607142Y-134446428D01*
X175642857Y-134517857D01*
X175642857Y-134696428D01*
X175607142Y-134767857D01*
X175571428Y-134803571D01*
X175500000Y-134839285D01*
X175285714Y-134839285D01*
X175214285Y-134803571D01*
X175178571Y-134767857D01*
X176107142Y-134089285D02*
X176178571Y-134089285D01*
X176250000Y-134125000D01*
X176285714Y-134160714D01*
X176321428Y-134232142D01*
X176357142Y-134375000D01*
X176357142Y-134553571D01*
X176321428Y-134696428D01*
X176285714Y-134767857D01*
X176250000Y-134803571D01*
X176178571Y-134839285D01*
X176107142Y-134839285D01*
X176035714Y-134803571D01*
X176000000Y-134767857D01*
X175964285Y-134696428D01*
X175928571Y-134553571D01*
X175928571Y-134375000D01*
X175964285Y-134232142D01*
X176000000Y-134160714D01*
X176035714Y-134125000D01*
X176107142Y-134089285D01*
X227642857Y-134803571D02*
X227750000Y-134839285D01*
X227928571Y-134839285D01*
X228000000Y-134803571D01*
X228035714Y-134767857D01*
X228071428Y-134696428D01*
X228071428Y-134625000D01*
X228035714Y-134553571D01*
X228000000Y-134517857D01*
X227928571Y-134482142D01*
X227785714Y-134446428D01*
X227714285Y-134410714D01*
X227678571Y-134375000D01*
X227642857Y-134303571D01*
X227642857Y-134232142D01*
X227678571Y-134160714D01*
X227714285Y-134125000D01*
X227785714Y-134089285D01*
X227964285Y-134089285D01*
X228071428Y-134125000D01*
X228321428Y-134089285D02*
X228500000Y-134839285D01*
X228642857Y-134303571D01*
X228785714Y-134839285D01*
X228964285Y-134089285D01*
X229178571Y-134089285D02*
X229642857Y-134089285D01*
X229392857Y-134375000D01*
X229500000Y-134375000D01*
X229571428Y-134410714D01*
X229607142Y-134446428D01*
X229642857Y-134517857D01*
X229642857Y-134696428D01*
X229607142Y-134767857D01*
X229571428Y-134803571D01*
X229500000Y-134839285D01*
X229285714Y-134839285D01*
X229214285Y-134803571D01*
X229178571Y-134767857D01*
X229892857Y-134089285D02*
X230357142Y-134089285D01*
X230107142Y-134375000D01*
X230214285Y-134375000D01*
X230285714Y-134410714D01*
X230321428Y-134446428D01*
X230357142Y-134517857D01*
X230357142Y-134696428D01*
X230321428Y-134767857D01*
X230285714Y-134803571D01*
X230214285Y-134839285D01*
X230000000Y-134839285D01*
X229928571Y-134803571D01*
X229892857Y-134767857D01*
X245642857Y-134803571D02*
X245750000Y-134839285D01*
X245928571Y-134839285D01*
X246000000Y-134803571D01*
X246035714Y-134767857D01*
X246071428Y-134696428D01*
X246071428Y-134625000D01*
X246035714Y-134553571D01*
X246000000Y-134517857D01*
X245928571Y-134482142D01*
X245785714Y-134446428D01*
X245714285Y-134410714D01*
X245678571Y-134375000D01*
X245642857Y-134303571D01*
X245642857Y-134232142D01*
X245678571Y-134160714D01*
X245714285Y-134125000D01*
X245785714Y-134089285D01*
X245964285Y-134089285D01*
X246071428Y-134125000D01*
X246321428Y-134089285D02*
X246500000Y-134839285D01*
X246642857Y-134303571D01*
X246785714Y-134839285D01*
X246964285Y-134089285D01*
X247178571Y-134089285D02*
X247642857Y-134089285D01*
X247392857Y-134375000D01*
X247500000Y-134375000D01*
X247571428Y-134410714D01*
X247607142Y-134446428D01*
X247642857Y-134517857D01*
X247642857Y-134696428D01*
X247607142Y-134767857D01*
X247571428Y-134803571D01*
X247500000Y-134839285D01*
X247285714Y-134839285D01*
X247214285Y-134803571D01*
X247178571Y-134767857D01*
X248285714Y-134339285D02*
X248285714Y-134839285D01*
X248107142Y-134053571D02*
X247928571Y-134589285D01*
X248392857Y-134589285D01*
X263642857Y-134803571D02*
X263750000Y-134839285D01*
X263928571Y-134839285D01*
X264000000Y-134803571D01*
X264035714Y-134767857D01*
X264071428Y-134696428D01*
X264071428Y-134625000D01*
X264035714Y-134553571D01*
X264000000Y-134517857D01*
X263928571Y-134482142D01*
X263785714Y-134446428D01*
X263714285Y-134410714D01*
X263678571Y-134375000D01*
X263642857Y-134303571D01*
X263642857Y-134232142D01*
X263678571Y-134160714D01*
X263714285Y-134125000D01*
X263785714Y-134089285D01*
X263964285Y-134089285D01*
X264071428Y-134125000D01*
X264321428Y-134089285D02*
X264500000Y-134839285D01*
X264642857Y-134303571D01*
X264785714Y-134839285D01*
X264964285Y-134089285D01*
X265178571Y-134089285D02*
X265642857Y-134089285D01*
X265392857Y-134375000D01*
X265500000Y-134375000D01*
X265571428Y-134410714D01*
X265607142Y-134446428D01*
X265642857Y-134517857D01*
X265642857Y-134696428D01*
X265607142Y-134767857D01*
X265571428Y-134803571D01*
X265500000Y-134839285D01*
X265285714Y-134839285D01*
X265214285Y-134803571D01*
X265178571Y-134767857D01*
X266321428Y-134089285D02*
X265964285Y-134089285D01*
X265928571Y-134446428D01*
X265964285Y-134410714D01*
X266035714Y-134375000D01*
X266214285Y-134375000D01*
X266285714Y-134410714D01*
X266321428Y-134446428D01*
X266357142Y-134517857D01*
X266357142Y-134696428D01*
X266321428Y-134767857D01*
X266285714Y-134803571D01*
X266214285Y-134839285D01*
X266035714Y-134839285D01*
X265964285Y-134803571D01*
X265928571Y-134767857D01*
X281642857Y-134803571D02*
X281750000Y-134839285D01*
X281928571Y-134839285D01*
X282000000Y-134803571D01*
X282035714Y-134767857D01*
X282071428Y-134696428D01*
X282071428Y-134625000D01*
X282035714Y-134553571D01*
X282000000Y-134517857D01*
X281928571Y-134482142D01*
X281785714Y-134446428D01*
X281714285Y-134410714D01*
X281678571Y-134375000D01*
X281642857Y-134303571D01*
X281642857Y-134232142D01*
X281678571Y-134160714D01*
X281714285Y-134125000D01*
X281785714Y-134089285D01*
X281964285Y-134089285D01*
X282071428Y-134125000D01*
X282321428Y-134089285D02*
X282500000Y-134839285D01*
X282642857Y-134303571D01*
X282785714Y-134839285D01*
X282964285Y-134089285D01*
X283178571Y-134089285D02*
X283642857Y-134089285D01*
X283392857Y-134375000D01*
X283500000Y-134375000D01*
X283571428Y-134410714D01*
X283607142Y-134446428D01*
X283642857Y-134517857D01*
X283642857Y-134696428D01*
X283607142Y-134767857D01*
X283571428Y-134803571D01*
X283500000Y-134839285D01*
X283285714Y-134839285D01*
X283214285Y-134803571D01*
X283178571Y-134767857D01*
X284285714Y-134089285D02*
X284142857Y-134089285D01*
X284071428Y-134125000D01*
X284035714Y-134160714D01*
X283964285Y-134267857D01*
X283928571Y-134410714D01*
X283928571Y-134696428D01*
X283964285Y-134767857D01*
X284000000Y-134803571D01*
X284071428Y-134839285D01*
X284214285Y-134839285D01*
X284285714Y-134803571D01*
X284321428Y-134767857D01*
X284357142Y-134696428D01*
X284357142Y-134517857D01*
X284321428Y-134446428D01*
X284285714Y-134410714D01*
X284214285Y-134375000D01*
X284071428Y-134375000D01*
X284000000Y-134410714D01*
X283964285Y-134446428D01*
X283928571Y-134517857D01*
X299642857Y-134803571D02*
X299750000Y-134839285D01*
X299928571Y-134839285D01*
X300000000Y-134803571D01*
X300035714Y-134767857D01*
X300071428Y-134696428D01*
X300071428Y-134625000D01*
X300035714Y-134553571D01*
X300000000Y-134517857D01*
X299928571Y-134482142D01*
X299785714Y-134446428D01*
X299714285Y-134410714D01*
X299678571Y-134375000D01*
X299642857Y-134303571D01*
X299642857Y-134232142D01*
X299678571Y-134160714D01*
X299714285Y-134125000D01*
X299785714Y-134089285D01*
X299964285Y-134089285D01*
X300071428Y-134125000D01*
X300321428Y-134089285D02*
X300500000Y-134839285D01*
X300642857Y-134303571D01*
X300785714Y-134839285D01*
X300964285Y-134089285D01*
X301178571Y-134089285D02*
X301642857Y-134089285D01*
X301392857Y-134375000D01*
X301500000Y-134375000D01*
X301571428Y-134410714D01*
X301607142Y-134446428D01*
X301642857Y-134517857D01*
X301642857Y-134696428D01*
X301607142Y-134767857D01*
X301571428Y-134803571D01*
X301500000Y-134839285D01*
X301285714Y-134839285D01*
X301214285Y-134803571D01*
X301178571Y-134767857D01*
X301892857Y-134089285D02*
X302392857Y-134089285D01*
X302071428Y-134839285D01*
X317642857Y-134803571D02*
X317750000Y-134839285D01*
X317928571Y-134839285D01*
X318000000Y-134803571D01*
X318035714Y-134767857D01*
X318071428Y-134696428D01*
X318071428Y-134625000D01*
X318035714Y-134553571D01*
X318000000Y-134517857D01*
X317928571Y-134482142D01*
X317785714Y-134446428D01*
X317714285Y-134410714D01*
X317678571Y-134375000D01*
X317642857Y-134303571D01*
X317642857Y-134232142D01*
X317678571Y-134160714D01*
X317714285Y-134125000D01*
X317785714Y-134089285D01*
X317964285Y-134089285D01*
X318071428Y-134125000D01*
X318321428Y-134089285D02*
X318500000Y-134839285D01*
X318642857Y-134303571D01*
X318785714Y-134839285D01*
X318964285Y-134089285D01*
X319178571Y-134089285D02*
X319642857Y-134089285D01*
X319392857Y-134375000D01*
X319500000Y-134375000D01*
X319571428Y-134410714D01*
X319607142Y-134446428D01*
X319642857Y-134517857D01*
X319642857Y-134696428D01*
X319607142Y-134767857D01*
X319571428Y-134803571D01*
X319500000Y-134839285D01*
X319285714Y-134839285D01*
X319214285Y-134803571D01*
X319178571Y-134767857D01*
X320071428Y-134410714D02*
X320000000Y-134375000D01*
X319964285Y-134339285D01*
X319928571Y-134267857D01*
X319928571Y-134232142D01*
X319964285Y-134160714D01*
X320000000Y-134125000D01*
X320071428Y-134089285D01*
X320214285Y-134089285D01*
X320285714Y-134125000D01*
X320321428Y-134160714D01*
X320357142Y-134232142D01*
X320357142Y-134267857D01*
X320321428Y-134339285D01*
X320285714Y-134375000D01*
X320214285Y-134410714D01*
X320071428Y-134410714D01*
X320000000Y-134446428D01*
X319964285Y-134482142D01*
X319928571Y-134553571D01*
X319928571Y-134696428D01*
X319964285Y-134767857D01*
X320000000Y-134803571D01*
X320071428Y-134839285D01*
X320214285Y-134839285D01*
X320285714Y-134803571D01*
X320321428Y-134767857D01*
X320357142Y-134696428D01*
X320357142Y-134553571D01*
X320321428Y-134482142D01*
X320285714Y-134446428D01*
X320214285Y-134410714D01*
X101642857Y-151803571D02*
X101750000Y-151839285D01*
X101928571Y-151839285D01*
X102000000Y-151803571D01*
X102035714Y-151767857D01*
X102071428Y-151696428D01*
X102071428Y-151625000D01*
X102035714Y-151553571D01*
X102000000Y-151517857D01*
X101928571Y-151482142D01*
X101785714Y-151446428D01*
X101714285Y-151410714D01*
X101678571Y-151375000D01*
X101642857Y-151303571D01*
X101642857Y-151232142D01*
X101678571Y-151160714D01*
X101714285Y-151125000D01*
X101785714Y-151089285D01*
X101964285Y-151089285D01*
X102071428Y-151125000D01*
X102321428Y-151089285D02*
X102500000Y-151839285D01*
X102642857Y-151303571D01*
X102785714Y-151839285D01*
X102964285Y-151089285D01*
X103571428Y-151339285D02*
X103571428Y-151839285D01*
X103392857Y-151053571D02*
X103214285Y-151589285D01*
X103678571Y-151589285D01*
X104107142Y-151089285D02*
X104178571Y-151089285D01*
X104250000Y-151125000D01*
X104285714Y-151160714D01*
X104321428Y-151232142D01*
X104357142Y-151375000D01*
X104357142Y-151553571D01*
X104321428Y-151696428D01*
X104285714Y-151767857D01*
X104250000Y-151803571D01*
X104178571Y-151839285D01*
X104107142Y-151839285D01*
X104035714Y-151803571D01*
X104000000Y-151767857D01*
X103964285Y-151696428D01*
X103928571Y-151553571D01*
X103928571Y-151375000D01*
X103964285Y-151232142D01*
X104000000Y-151160714D01*
X104035714Y-151125000D01*
X104107142Y-151089285D01*
X119642857Y-151803571D02*
X119750000Y-151839285D01*
X119928571Y-151839285D01*
X120000000Y-151803571D01*
X120035714Y-151767857D01*
X120071428Y-151696428D01*
X120071428Y-151625000D01*
X120035714Y-151553571D01*
X120000000Y-151517857D01*
X119928571Y-151482142D01*
X119785714Y-151446428D01*
X119714285Y-151410714D01*
X119678571Y-151375000D01*
X119642857Y-151303571D01*
X119642857Y-151232142D01*
X119678571Y-151160714D01*
X119714285Y-151125000D01*
X119785714Y-151089285D01*
X119964285Y-151089285D01*
X120071428Y-151125000D01*
X120321428Y-151089285D02*
X120500000Y-151839285D01*
X120642857Y-151303571D01*
X120785714Y-151839285D01*
X120964285Y-151089285D01*
X121571428Y-151339285D02*
X121571428Y-151839285D01*
X121392857Y-151053571D02*
X121214285Y-151589285D01*
X121678571Y-151589285D01*
X122357142Y-151839285D02*
X121928571Y-151839285D01*
X122142857Y-151839285D02*
X122142857Y-151089285D01*
X122071428Y-151196428D01*
X122000000Y-151267857D01*
X121928571Y-151303571D01*
X137642857Y-151803571D02*
X137750000Y-151839285D01*
X137928571Y-151839285D01*
X138000000Y-151803571D01*
X138035714Y-151767857D01*
X138071428Y-151696428D01*
X138071428Y-151625000D01*
X138035714Y-151553571D01*
X138000000Y-151517857D01*
X137928571Y-151482142D01*
X137785714Y-151446428D01*
X137714285Y-151410714D01*
X137678571Y-151375000D01*
X137642857Y-151303571D01*
X137642857Y-151232142D01*
X137678571Y-151160714D01*
X137714285Y-151125000D01*
X137785714Y-151089285D01*
X137964285Y-151089285D01*
X138071428Y-151125000D01*
X138321428Y-151089285D02*
X138500000Y-151839285D01*
X138642857Y-151303571D01*
X138785714Y-151839285D01*
X138964285Y-151089285D01*
X139571428Y-151339285D02*
X139571428Y-151839285D01*
X139392857Y-151053571D02*
X139214285Y-151589285D01*
X139678571Y-151589285D01*
X139928571Y-151160714D02*
X139964285Y-151125000D01*
X140035714Y-151089285D01*
X140214285Y-151089285D01*
X140285714Y-151125000D01*
X140321428Y-151160714D01*
X140357142Y-151232142D01*
X140357142Y-151303571D01*
X140321428Y-151410714D01*
X139892857Y-151839285D01*
X140357142Y-151839285D01*
X155642857Y-151803571D02*
X155750000Y-151839285D01*
X155928571Y-151839285D01*
X156000000Y-151803571D01*
X156035714Y-151767857D01*
X156071428Y-151696428D01*
X156071428Y-151625000D01*
X156035714Y-151553571D01*
X156000000Y-151517857D01*
X155928571Y-151482142D01*
X155785714Y-151446428D01*
X155714285Y-151410714D01*
X155678571Y-151375000D01*
X155642857Y-151303571D01*
X155642857Y-151232142D01*
X155678571Y-151160714D01*
X155714285Y-151125000D01*
X155785714Y-151089285D01*
X155964285Y-151089285D01*
X156071428Y-151125000D01*
X156321428Y-151089285D02*
X156500000Y-151839285D01*
X156642857Y-151303571D01*
X156785714Y-151839285D01*
X156964285Y-151089285D01*
X157571428Y-151339285D02*
X157571428Y-151839285D01*
X157392857Y-151053571D02*
X157214285Y-151589285D01*
X157678571Y-151589285D01*
X157892857Y-151089285D02*
X158357142Y-151089285D01*
X158107142Y-151375000D01*
X158214285Y-151375000D01*
X158285714Y-151410714D01*
X158321428Y-151446428D01*
X158357142Y-151517857D01*
X158357142Y-151696428D01*
X158321428Y-151767857D01*
X158285714Y-151803571D01*
X158214285Y-151839285D01*
X158000000Y-151839285D01*
X157928571Y-151803571D01*
X157892857Y-151767857D01*
X173642857Y-151803571D02*
X173750000Y-151839285D01*
X173928571Y-151839285D01*
X174000000Y-151803571D01*
X174035714Y-151767857D01*
X174071428Y-151696428D01*
X174071428Y-151625000D01*
X174035714Y-151553571D01*
X174000000Y-151517857D01*
X173928571Y-151482142D01*
X173785714Y-151446428D01*
X173714285Y-151410714D01*
X173678571Y-151375000D01*
X173642857Y-151303571D01*
X173642857Y-151232142D01*
X173678571Y-151160714D01*
X173714285Y-151125000D01*
X173785714Y-151089285D01*
X173964285Y-151089285D01*
X174071428Y-151125000D01*
X174321428Y-151089285D02*
X174500000Y-151839285D01*
X174642857Y-151303571D01*
X174785714Y-151839285D01*
X174964285Y-151089285D01*
X175571428Y-151339285D02*
X175571428Y-151839285D01*
X175392857Y-151053571D02*
X175214285Y-151589285D01*
X175678571Y-151589285D01*
X176285714Y-151339285D02*
X176285714Y-151839285D01*
X176107142Y-151053571D02*
X175928571Y-151589285D01*
X176392857Y-151589285D01*
X191642857Y-151803571D02*
X191750000Y-151839285D01*
X191928571Y-151839285D01*
X192000000Y-151803571D01*
X192035714Y-151767857D01*
X192071428Y-151696428D01*
X192071428Y-151625000D01*
X192035714Y-151553571D01*
X192000000Y-151517857D01*
X191928571Y-151482142D01*
X191785714Y-151446428D01*
X191714285Y-151410714D01*
X191678571Y-151375000D01*
X191642857Y-151303571D01*
X191642857Y-151232142D01*
X191678571Y-151160714D01*
X191714285Y-151125000D01*
X191785714Y-151089285D01*
X191964285Y-151089285D01*
X192071428Y-151125000D01*
X192321428Y-151089285D02*
X192500000Y-151839285D01*
X192642857Y-151303571D01*
X192785714Y-151839285D01*
X192964285Y-151089285D01*
X193571428Y-151339285D02*
X193571428Y-151839285D01*
X193392857Y-151053571D02*
X193214285Y-151589285D01*
X193678571Y-151589285D01*
X194321428Y-151089285D02*
X193964285Y-151089285D01*
X193928571Y-151446428D01*
X193964285Y-151410714D01*
X194035714Y-151375000D01*
X194214285Y-151375000D01*
X194285714Y-151410714D01*
X194321428Y-151446428D01*
X194357142Y-151517857D01*
X194357142Y-151696428D01*
X194321428Y-151767857D01*
X194285714Y-151803571D01*
X194214285Y-151839285D01*
X194035714Y-151839285D01*
X193964285Y-151803571D01*
X193928571Y-151767857D01*
X209642857Y-151803571D02*
X209750000Y-151839285D01*
X209928571Y-151839285D01*
X210000000Y-151803571D01*
X210035714Y-151767857D01*
X210071428Y-151696428D01*
X210071428Y-151625000D01*
X210035714Y-151553571D01*
X210000000Y-151517857D01*
X209928571Y-151482142D01*
X209785714Y-151446428D01*
X209714285Y-151410714D01*
X209678571Y-151375000D01*
X209642857Y-151303571D01*
X209642857Y-151232142D01*
X209678571Y-151160714D01*
X209714285Y-151125000D01*
X209785714Y-151089285D01*
X209964285Y-151089285D01*
X210071428Y-151125000D01*
X210321428Y-151089285D02*
X210500000Y-151839285D01*
X210642857Y-151303571D01*
X210785714Y-151839285D01*
X210964285Y-151089285D01*
X211571428Y-151339285D02*
X211571428Y-151839285D01*
X211392857Y-151053571D02*
X211214285Y-151589285D01*
X211678571Y-151589285D01*
X212285714Y-151089285D02*
X212142857Y-151089285D01*
X212071428Y-151125000D01*
X212035714Y-151160714D01*
X211964285Y-151267857D01*
X211928571Y-151410714D01*
X211928571Y-151696428D01*
X211964285Y-151767857D01*
X212000000Y-151803571D01*
X212071428Y-151839285D01*
X212214285Y-151839285D01*
X212285714Y-151803571D01*
X212321428Y-151767857D01*
X212357142Y-151696428D01*
X212357142Y-151517857D01*
X212321428Y-151446428D01*
X212285714Y-151410714D01*
X212214285Y-151375000D01*
X212071428Y-151375000D01*
X212000000Y-151410714D01*
X211964285Y-151446428D01*
X211928571Y-151517857D01*
X227642857Y-151803571D02*
X227750000Y-151839285D01*
X227928571Y-151839285D01*
X228000000Y-151803571D01*
X228035714Y-151767857D01*
X228071428Y-151696428D01*
X228071428Y-151625000D01*
X228035714Y-151553571D01*
X228000000Y-151517857D01*
X227928571Y-151482142D01*
X227785714Y-151446428D01*
X227714285Y-151410714D01*
X227678571Y-151375000D01*
X227642857Y-151303571D01*
X227642857Y-151232142D01*
X227678571Y-151160714D01*
X227714285Y-151125000D01*
X227785714Y-151089285D01*
X227964285Y-151089285D01*
X228071428Y-151125000D01*
X228321428Y-151089285D02*
X228500000Y-151839285D01*
X228642857Y-151303571D01*
X228785714Y-151839285D01*
X228964285Y-151089285D01*
X229571428Y-151339285D02*
X229571428Y-151839285D01*
X229392857Y-151053571D02*
X229214285Y-151589285D01*
X229678571Y-151589285D01*
X229892857Y-151089285D02*
X230392857Y-151089285D01*
X230071428Y-151839285D01*
X245642857Y-151803571D02*
X245750000Y-151839285D01*
X245928571Y-151839285D01*
X246000000Y-151803571D01*
X246035714Y-151767857D01*
X246071428Y-151696428D01*
X246071428Y-151625000D01*
X246035714Y-151553571D01*
X246000000Y-151517857D01*
X245928571Y-151482142D01*
X245785714Y-151446428D01*
X245714285Y-151410714D01*
X245678571Y-151375000D01*
X245642857Y-151303571D01*
X245642857Y-151232142D01*
X245678571Y-151160714D01*
X245714285Y-151125000D01*
X245785714Y-151089285D01*
X245964285Y-151089285D01*
X246071428Y-151125000D01*
X246321428Y-151089285D02*
X246500000Y-151839285D01*
X246642857Y-151303571D01*
X246785714Y-151839285D01*
X246964285Y-151089285D01*
X247571428Y-151339285D02*
X247571428Y-151839285D01*
X247392857Y-151053571D02*
X247214285Y-151589285D01*
X247678571Y-151589285D01*
X248071428Y-151410714D02*
X248000000Y-151375000D01*
X247964285Y-151339285D01*
X247928571Y-151267857D01*
X247928571Y-151232142D01*
X247964285Y-151160714D01*
X248000000Y-151125000D01*
X248071428Y-151089285D01*
X248214285Y-151089285D01*
X248285714Y-151125000D01*
X248321428Y-151160714D01*
X248357142Y-151232142D01*
X248357142Y-151267857D01*
X248321428Y-151339285D01*
X248285714Y-151375000D01*
X248214285Y-151410714D01*
X248071428Y-151410714D01*
X248000000Y-151446428D01*
X247964285Y-151482142D01*
X247928571Y-151553571D01*
X247928571Y-151696428D01*
X247964285Y-151767857D01*
X248000000Y-151803571D01*
X248071428Y-151839285D01*
X248214285Y-151839285D01*
X248285714Y-151803571D01*
X248321428Y-151767857D01*
X248357142Y-151696428D01*
X248357142Y-151553571D01*
X248321428Y-151482142D01*
X248285714Y-151446428D01*
X248214285Y-151410714D01*
X263642857Y-151803571D02*
X263750000Y-151839285D01*
X263928571Y-151839285D01*
X264000000Y-151803571D01*
X264035714Y-151767857D01*
X264071428Y-151696428D01*
X264071428Y-151625000D01*
X264035714Y-151553571D01*
X264000000Y-151517857D01*
X263928571Y-151482142D01*
X263785714Y-151446428D01*
X263714285Y-151410714D01*
X263678571Y-151375000D01*
X263642857Y-151303571D01*
X263642857Y-151232142D01*
X263678571Y-151160714D01*
X263714285Y-151125000D01*
X263785714Y-151089285D01*
X263964285Y-151089285D01*
X264071428Y-151125000D01*
X264321428Y-151089285D02*
X264500000Y-151839285D01*
X264642857Y-151303571D01*
X264785714Y-151839285D01*
X264964285Y-151089285D01*
X265571428Y-151339285D02*
X265571428Y-151839285D01*
X265392857Y-151053571D02*
X265214285Y-151589285D01*
X265678571Y-151589285D01*
X266000000Y-151839285D02*
X266142857Y-151839285D01*
X266214285Y-151803571D01*
X266250000Y-151767857D01*
X266321428Y-151660714D01*
X266357142Y-151517857D01*
X266357142Y-151232142D01*
X266321428Y-151160714D01*
X266285714Y-151125000D01*
X266214285Y-151089285D01*
X266071428Y-151089285D01*
X266000000Y-151125000D01*
X265964285Y-151160714D01*
X265928571Y-151232142D01*
X265928571Y-151410714D01*
X265964285Y-151482142D01*
X266000000Y-151517857D01*
X266071428Y-151553571D01*
X266214285Y-151553571D01*
X266285714Y-151517857D01*
X266321428Y-151482142D01*
X266357142Y-151410714D01*
X281642857Y-151803571D02*
X281750000Y-151839285D01*
X281928571Y-151839285D01*
X282000000Y-151803571D01*
X282035714Y-151767857D01*
X282071428Y-151696428D01*
X282071428Y-151625000D01*
X282035714Y-151553571D01*
X282000000Y-151517857D01*
X281928571Y-151482142D01*
X281785714Y-151446428D01*
X281714285Y-151410714D01*
X281678571Y-151375000D01*
X281642857Y-151303571D01*
X281642857Y-151232142D01*
X281678571Y-151160714D01*
X281714285Y-151125000D01*
X281785714Y-151089285D01*
X281964285Y-151089285D01*
X282071428Y-151125000D01*
X282321428Y-151089285D02*
X282500000Y-151839285D01*
X282642857Y-151303571D01*
X282785714Y-151839285D01*
X282964285Y-151089285D01*
X283607142Y-151089285D02*
X283250000Y-151089285D01*
X283214285Y-151446428D01*
X283250000Y-151410714D01*
X283321428Y-151375000D01*
X283500000Y-151375000D01*
X283571428Y-151410714D01*
X283607142Y-151446428D01*
X283642857Y-151517857D01*
X283642857Y-151696428D01*
X283607142Y-151767857D01*
X283571428Y-151803571D01*
X283500000Y-151839285D01*
X283321428Y-151839285D01*
X283250000Y-151803571D01*
X283214285Y-151767857D01*
X284107142Y-151089285D02*
X284178571Y-151089285D01*
X284250000Y-151125000D01*
X284285714Y-151160714D01*
X284321428Y-151232142D01*
X284357142Y-151375000D01*
X284357142Y-151553571D01*
X284321428Y-151696428D01*
X284285714Y-151767857D01*
X284250000Y-151803571D01*
X284178571Y-151839285D01*
X284107142Y-151839285D01*
X284035714Y-151803571D01*
X284000000Y-151767857D01*
X283964285Y-151696428D01*
X283928571Y-151553571D01*
X283928571Y-151375000D01*
X283964285Y-151232142D01*
X284000000Y-151160714D01*
X284035714Y-151125000D01*
X284107142Y-151089285D01*
X299642857Y-151803571D02*
X299750000Y-151839285D01*
X299928571Y-151839285D01*
X300000000Y-151803571D01*
X300035714Y-151767857D01*
X300071428Y-151696428D01*
X300071428Y-151625000D01*
X300035714Y-151553571D01*
X300000000Y-151517857D01*
X299928571Y-151482142D01*
X299785714Y-151446428D01*
X299714285Y-151410714D01*
X299678571Y-151375000D01*
X299642857Y-151303571D01*
X299642857Y-151232142D01*
X299678571Y-151160714D01*
X299714285Y-151125000D01*
X299785714Y-151089285D01*
X299964285Y-151089285D01*
X300071428Y-151125000D01*
X300321428Y-151089285D02*
X300500000Y-151839285D01*
X300642857Y-151303571D01*
X300785714Y-151839285D01*
X300964285Y-151089285D01*
X301607142Y-151089285D02*
X301250000Y-151089285D01*
X301214285Y-151446428D01*
X301250000Y-151410714D01*
X301321428Y-151375000D01*
X301500000Y-151375000D01*
X301571428Y-151410714D01*
X301607142Y-151446428D01*
X301642857Y-151517857D01*
X301642857Y-151696428D01*
X301607142Y-151767857D01*
X301571428Y-151803571D01*
X301500000Y-151839285D01*
X301321428Y-151839285D01*
X301250000Y-151803571D01*
X301214285Y-151767857D01*
X302357142Y-151839285D02*
X301928571Y-151839285D01*
X302142857Y-151839285D02*
X302142857Y-151089285D01*
X302071428Y-151196428D01*
X302000000Y-151267857D01*
X301928571Y-151303571D01*
X317642857Y-151803571D02*
X317750000Y-151839285D01*
X317928571Y-151839285D01*
X318000000Y-151803571D01*
X318035714Y-151767857D01*
X318071428Y-151696428D01*
X318071428Y-151625000D01*
X318035714Y-151553571D01*
X318000000Y-151517857D01*
X317928571Y-151482142D01*
X317785714Y-151446428D01*
X317714285Y-151410714D01*
X317678571Y-151375000D01*
X317642857Y-151303571D01*
X317642857Y-151232142D01*
X317678571Y-151160714D01*
X317714285Y-151125000D01*
X317785714Y-151089285D01*
X317964285Y-151089285D01*
X318071428Y-151125000D01*
X318321428Y-151089285D02*
X318500000Y-151839285D01*
X318642857Y-151303571D01*
X318785714Y-151839285D01*
X318964285Y-151089285D01*
X319607142Y-151089285D02*
X319250000Y-151089285D01*
X319214285Y-151446428D01*
X319250000Y-151410714D01*
X319321428Y-151375000D01*
X319500000Y-151375000D01*
X319571428Y-151410714D01*
X319607142Y-151446428D01*
X319642857Y-151517857D01*
X319642857Y-151696428D01*
X319607142Y-151767857D01*
X319571428Y-151803571D01*
X319500000Y-151839285D01*
X319321428Y-151839285D01*
X319250000Y-151803571D01*
X319214285Y-151767857D01*
X319928571Y-151160714D02*
X319964285Y-151125000D01*
X320035714Y-151089285D01*
X320214285Y-151089285D01*
X320285714Y-151125000D01*
X320321428Y-151160714D01*
X320357142Y-151232142D01*
X320357142Y-151303571D01*
X320321428Y-151410714D01*
X319892857Y-151839285D01*
X320357142Y-151839285D01*
X174000000Y-100803571D02*
X174107142Y-100839285D01*
X174285714Y-100839285D01*
X174357142Y-100803571D01*
X174392857Y-100767857D01*
X174428571Y-100696428D01*
X174428571Y-100625000D01*
X174392857Y-100553571D01*
X174357142Y-100517857D01*
X174285714Y-100482142D01*
X174142857Y-100446428D01*
X174071428Y-100410714D01*
X174035714Y-100375000D01*
X174000000Y-100303571D01*
X174000000Y-100232142D01*
X174035714Y-100160714D01*
X174071428Y-100125000D01*
X174142857Y-100089285D01*
X174321428Y-100089285D01*
X174428571Y-100125000D01*
X174678571Y-100089285D02*
X174857142Y-100839285D01*
X175000000Y-100303571D01*
X175142857Y-100839285D01*
X175321428Y-100089285D01*
X175928571Y-100089285D02*
X175785714Y-100089285D01*
X175714285Y-100125000D01*
X175678571Y-100160714D01*
X175607142Y-100267857D01*
X175571428Y-100410714D01*
X175571428Y-100696428D01*
X175607142Y-100767857D01*
X175642857Y-100803571D01*
X175714285Y-100839285D01*
X175857142Y-100839285D01*
X175928571Y-100803571D01*
X175964285Y-100767857D01*
X176000000Y-100696428D01*
X176000000Y-100517857D01*
X175964285Y-100446428D01*
X175928571Y-100410714D01*
X175857142Y-100375000D01*
X175714285Y-100375000D01*
X175642857Y-100410714D01*
X175607142Y-100446428D01*
X175571428Y-100517857D01*
X201428571Y-111089285D02*
X201428571Y-111696428D01*
X201464285Y-111767857D01*
X201500000Y-111803571D01*
X201571428Y-111839285D01*
X201714285Y-111839285D01*
X201785714Y-111803571D01*
X201821428Y-111767857D01*
X201857142Y-111696428D01*
X201857142Y-111089285D01*
X202607142Y-111839285D02*
X202178571Y-111839285D01*
X202392857Y-111839285D02*
X202392857Y-111089285D01*
X202321428Y-111196428D01*
X202250000Y-111267857D01*
X202178571Y-111303571D01*
X196326071Y-124376428D02*
X196433214Y-124412142D01*
X196468928Y-124447857D01*
X196504642Y-124519285D01*
X196504642Y-124626428D01*
X196468928Y-124697857D01*
X196433214Y-124733571D01*
X196361785Y-124769285D01*
X196076071Y-124769285D01*
X196076071Y-124019285D01*
X196326071Y-124019285D01*
X196397500Y-124055000D01*
X196433214Y-124090714D01*
X196468928Y-124162142D01*
X196468928Y-124233571D01*
X196433214Y-124305000D01*
X196397500Y-124340714D01*
X196326071Y-124376428D01*
X196076071Y-124376428D01*
X196790357Y-124090714D02*
X196826071Y-124055000D01*
X196897500Y-124019285D01*
X197076071Y-124019285D01*
X197147500Y-124055000D01*
X197183214Y-124090714D01*
X197218928Y-124162142D01*
X197218928Y-124233571D01*
X197183214Y-124340714D01*
X196754642Y-124769285D01*
X197218928Y-124769285D01*
X196326071Y-116756428D02*
X196076071Y-116756428D01*
X196076071Y-117149285D02*
X196076071Y-116399285D01*
X196433214Y-116399285D01*
X196647500Y-116399285D02*
X197147500Y-116399285D01*
X196826071Y-117149285D01*
X196326071Y-114216428D02*
X196076071Y-114216428D01*
X196076071Y-114609285D02*
X196076071Y-113859285D01*
X196433214Y-113859285D01*
X197040357Y-113859285D02*
X196897500Y-113859285D01*
X196826071Y-113895000D01*
X196790357Y-113930714D01*
X196718928Y-114037857D01*
X196683214Y-114180714D01*
X196683214Y-114466428D01*
X196718928Y-114537857D01*
X196754642Y-114573571D01*
X196826071Y-114609285D01*
X196968928Y-114609285D01*
X197040357Y-114573571D01*
X197076071Y-114537857D01*
X197111785Y-114466428D01*
X197111785Y-114287857D01*
X197076071Y-114216428D01*
X197040357Y-114180714D01*
X196968928Y-114145000D01*
X196826071Y-114145000D01*
X196754642Y-114180714D01*
X196718928Y-114216428D01*
X196683214Y-114287857D01*
X196326071Y-111676428D02*
X196076071Y-111676428D01*
X196076071Y-112069285D02*
X196076071Y-111319285D01*
X196433214Y-111319285D01*
X197076071Y-111319285D02*
X196718928Y-111319285D01*
X196683214Y-111676428D01*
X196718928Y-111640714D01*
X196790357Y-111605000D01*
X196968928Y-111605000D01*
X197040357Y-111640714D01*
X197076071Y-111676428D01*
X197111785Y-111747857D01*
X197111785Y-111926428D01*
X197076071Y-111997857D01*
X197040357Y-112033571D01*
X196968928Y-112069285D01*
X196790357Y-112069285D01*
X196718928Y-112033571D01*
X196683214Y-111997857D01*
X196504642Y-99369285D02*
X196254642Y-99012142D01*
X196076071Y-99369285D02*
X196076071Y-98619285D01*
X196361785Y-98619285D01*
X196433214Y-98655000D01*
X196468928Y-98690714D01*
X196504642Y-98762142D01*
X196504642Y-98869285D01*
X196468928Y-98940714D01*
X196433214Y-98976428D01*
X196361785Y-99012142D01*
X196076071Y-99012142D01*
X196790357Y-99155000D02*
X197147500Y-99155000D01*
X196718928Y-99369285D02*
X196968928Y-98619285D01*
X197218928Y-99369285D01*
X197397500Y-98619285D02*
X197576071Y-99369285D01*
X197718928Y-98833571D01*
X197861785Y-99369285D01*
X198040357Y-98619285D01*
X196468928Y-101195000D02*
X196397500Y-101159285D01*
X196290357Y-101159285D01*
X196183214Y-101195000D01*
X196111785Y-101266428D01*
X196076071Y-101337857D01*
X196040357Y-101480714D01*
X196040357Y-101587857D01*
X196076071Y-101730714D01*
X196111785Y-101802142D01*
X196183214Y-101873571D01*
X196290357Y-101909285D01*
X196361785Y-101909285D01*
X196468928Y-101873571D01*
X196504642Y-101837857D01*
X196504642Y-101587857D01*
X196361785Y-101587857D01*
X196826071Y-101909285D02*
X196826071Y-101159285D01*
X197254642Y-101909285D01*
X197254642Y-101159285D01*
X197611785Y-101909285D02*
X197611785Y-101159285D01*
X197790357Y-101159285D01*
X197897500Y-101195000D01*
X197968928Y-101266428D01*
X198004642Y-101337857D01*
X198040357Y-101480714D01*
X198040357Y-101587857D01*
X198004642Y-101730714D01*
X197968928Y-101802142D01*
X197897500Y-101873571D01*
X197790357Y-101909285D01*
X197611785Y-101909285D01*
X195968928Y-106239285D02*
X196218928Y-106989285D01*
X196468928Y-106239285D01*
X197147500Y-106917857D02*
X197111785Y-106953571D01*
X197004642Y-106989285D01*
X196933214Y-106989285D01*
X196826071Y-106953571D01*
X196754642Y-106882142D01*
X196718928Y-106810714D01*
X196683214Y-106667857D01*
X196683214Y-106560714D01*
X196718928Y-106417857D01*
X196754642Y-106346428D01*
X196826071Y-106275000D01*
X196933214Y-106239285D01*
X197004642Y-106239285D01*
X197111785Y-106275000D01*
X197147500Y-106310714D01*
X197897500Y-106917857D02*
X197861785Y-106953571D01*
X197754642Y-106989285D01*
X197683214Y-106989285D01*
X197576071Y-106953571D01*
X197504642Y-106882142D01*
X197468928Y-106810714D01*
X197433214Y-106667857D01*
X197433214Y-106560714D01*
X197468928Y-106417857D01*
X197504642Y-106346428D01*
X197576071Y-106275000D01*
X197683214Y-106239285D01*
X197754642Y-106239285D01*
X197861785Y-106275000D01*
X197897500Y-106310714D01*
X196326071Y-109136428D02*
X196076071Y-109136428D01*
X196076071Y-109529285D02*
X196076071Y-108779285D01*
X196433214Y-108779285D01*
X197040357Y-109029285D02*
X197040357Y-109529285D01*
X196861785Y-108743571D02*
X196683214Y-109279285D01*
X197147500Y-109279285D01*
X196326071Y-119296428D02*
X196433214Y-119332142D01*
X196468928Y-119367857D01*
X196504642Y-119439285D01*
X196504642Y-119546428D01*
X196468928Y-119617857D01*
X196433214Y-119653571D01*
X196361785Y-119689285D01*
X196076071Y-119689285D01*
X196076071Y-118939285D01*
X196326071Y-118939285D01*
X196397500Y-118975000D01*
X196433214Y-119010714D01*
X196468928Y-119082142D01*
X196468928Y-119153571D01*
X196433214Y-119225000D01*
X196397500Y-119260714D01*
X196326071Y-119296428D01*
X196076071Y-119296428D01*
X197218928Y-119689285D02*
X196790357Y-119689285D01*
X197004642Y-119689285D02*
X197004642Y-118939285D01*
X196933214Y-119046428D01*
X196861785Y-119117857D01*
X196790357Y-119153571D01*
X196326071Y-121836428D02*
X196433214Y-121872142D01*
X196468928Y-121907857D01*
X196504642Y-121979285D01*
X196504642Y-122086428D01*
X196468928Y-122157857D01*
X196433214Y-122193571D01*
X196361785Y-122229285D01*
X196076071Y-122229285D01*
X196076071Y-121479285D01*
X196326071Y-121479285D01*
X196397500Y-121515000D01*
X196433214Y-121550714D01*
X196468928Y-121622142D01*
X196468928Y-121693571D01*
X196433214Y-121765000D01*
X196397500Y-121800714D01*
X196326071Y-121836428D01*
X196076071Y-121836428D01*
X196754642Y-121479285D02*
X197218928Y-121479285D01*
X196968928Y-121765000D01*
X197076071Y-121765000D01*
X197147500Y-121800714D01*
X197183214Y-121836428D01*
X197218928Y-121907857D01*
X197218928Y-122086428D01*
X197183214Y-122157857D01*
X197147500Y-122193571D01*
X197076071Y-122229285D01*
X196861785Y-122229285D01*
X196790357Y-122193571D01*
X196754642Y-122157857D01*
X196326071Y-126916428D02*
X196433214Y-126952142D01*
X196468928Y-126987857D01*
X196504642Y-127059285D01*
X196504642Y-127166428D01*
X196468928Y-127237857D01*
X196433214Y-127273571D01*
X196361785Y-127309285D01*
X196076071Y-127309285D01*
X196076071Y-126559285D01*
X196326071Y-126559285D01*
X196397500Y-126595000D01*
X196433214Y-126630714D01*
X196468928Y-126702142D01*
X196468928Y-126773571D01*
X196433214Y-126845000D01*
X196397500Y-126880714D01*
X196326071Y-126916428D01*
X196076071Y-126916428D01*
X197147500Y-126559285D02*
X197004642Y-126559285D01*
X196933214Y-126595000D01*
X196897500Y-126630714D01*
X196826071Y-126737857D01*
X196790357Y-126880714D01*
X196790357Y-127166428D01*
X196826071Y-127237857D01*
X196861785Y-127273571D01*
X196933214Y-127309285D01*
X197076071Y-127309285D01*
X197147500Y-127273571D01*
X197183214Y-127237857D01*
X197218928Y-127166428D01*
X197218928Y-126987857D01*
X197183214Y-126916428D01*
X197147500Y-126880714D01*
X197076071Y-126845000D01*
X196933214Y-126845000D01*
X196861785Y-126880714D01*
X196826071Y-126916428D01*
X196790357Y-126987857D01*
X207066785Y-126916428D02*
X207173928Y-126952142D01*
X207209642Y-126987857D01*
X207245357Y-127059285D01*
X207245357Y-127166428D01*
X207209642Y-127237857D01*
X207173928Y-127273571D01*
X207102500Y-127309285D01*
X206816785Y-127309285D01*
X206816785Y-126559285D01*
X207066785Y-126559285D01*
X207138214Y-126595000D01*
X207173928Y-126630714D01*
X207209642Y-126702142D01*
X207209642Y-126773571D01*
X207173928Y-126845000D01*
X207138214Y-126880714D01*
X207066785Y-126916428D01*
X206816785Y-126916428D01*
X207923928Y-126559285D02*
X207566785Y-126559285D01*
X207531071Y-126916428D01*
X207566785Y-126880714D01*
X207638214Y-126845000D01*
X207816785Y-126845000D01*
X207888214Y-126880714D01*
X207923928Y-126916428D01*
X207959642Y-126987857D01*
X207959642Y-127166428D01*
X207923928Y-127237857D01*
X207888214Y-127273571D01*
X207816785Y-127309285D01*
X207638214Y-127309285D01*
X207566785Y-127273571D01*
X207531071Y-127237857D01*
X207066785Y-124376428D02*
X207173928Y-124412142D01*
X207209642Y-124447857D01*
X207245357Y-124519285D01*
X207245357Y-124626428D01*
X207209642Y-124697857D01*
X207173928Y-124733571D01*
X207102500Y-124769285D01*
X206816785Y-124769285D01*
X206816785Y-124019285D01*
X207066785Y-124019285D01*
X207138214Y-124055000D01*
X207173928Y-124090714D01*
X207209642Y-124162142D01*
X207209642Y-124233571D01*
X207173928Y-124305000D01*
X207138214Y-124340714D01*
X207066785Y-124376428D01*
X206816785Y-124376428D01*
X207888214Y-124269285D02*
X207888214Y-124769285D01*
X207709642Y-123983571D02*
X207531071Y-124519285D01*
X207995357Y-124519285D01*
X206888214Y-121836428D02*
X207138214Y-121836428D01*
X207245357Y-122229285D02*
X206888214Y-122229285D01*
X206888214Y-121479285D01*
X207245357Y-121479285D01*
X207888214Y-121479285D02*
X207745357Y-121479285D01*
X207673928Y-121515000D01*
X207638214Y-121550714D01*
X207566785Y-121657857D01*
X207531071Y-121800714D01*
X207531071Y-122086428D01*
X207566785Y-122157857D01*
X207602500Y-122193571D01*
X207673928Y-122229285D01*
X207816785Y-122229285D01*
X207888214Y-122193571D01*
X207923928Y-122157857D01*
X207959642Y-122086428D01*
X207959642Y-121907857D01*
X207923928Y-121836428D01*
X207888214Y-121800714D01*
X207816785Y-121765000D01*
X207673928Y-121765000D01*
X207602500Y-121800714D01*
X207566785Y-121836428D01*
X207531071Y-121907857D01*
X206816785Y-119689285D02*
X206816785Y-118939285D01*
X206995357Y-118939285D01*
X207102500Y-118975000D01*
X207173928Y-119046428D01*
X207209642Y-119117857D01*
X207245357Y-119260714D01*
X207245357Y-119367857D01*
X207209642Y-119510714D01*
X207173928Y-119582142D01*
X207102500Y-119653571D01*
X206995357Y-119689285D01*
X206816785Y-119689285D01*
X207495357Y-118939285D02*
X207995357Y-118939285D01*
X207673928Y-119689285D01*
X207245357Y-117077857D02*
X207209642Y-117113571D01*
X207102500Y-117149285D01*
X207031071Y-117149285D01*
X206923928Y-117113571D01*
X206852500Y-117042142D01*
X206816785Y-116970714D01*
X206781071Y-116827857D01*
X206781071Y-116720714D01*
X206816785Y-116577857D01*
X206852500Y-116506428D01*
X206923928Y-116435000D01*
X207031071Y-116399285D01*
X207102500Y-116399285D01*
X207209642Y-116435000D01*
X207245357Y-116470714D01*
X207888214Y-116399285D02*
X207745357Y-116399285D01*
X207673928Y-116435000D01*
X207638214Y-116470714D01*
X207566785Y-116577857D01*
X207531071Y-116720714D01*
X207531071Y-117006428D01*
X207566785Y-117077857D01*
X207602500Y-117113571D01*
X207673928Y-117149285D01*
X207816785Y-117149285D01*
X207888214Y-117113571D01*
X207923928Y-117077857D01*
X207959642Y-117006428D01*
X207959642Y-116827857D01*
X207923928Y-116756428D01*
X207888214Y-116720714D01*
X207816785Y-116685000D01*
X207673928Y-116685000D01*
X207602500Y-116720714D01*
X207566785Y-116756428D01*
X207531071Y-116827857D01*
X206816785Y-114609285D02*
X206816785Y-113859285D01*
X206995357Y-113859285D01*
X207102500Y-113895000D01*
X207173928Y-113966428D01*
X207209642Y-114037857D01*
X207245357Y-114180714D01*
X207245357Y-114287857D01*
X207209642Y-114430714D01*
X207173928Y-114502142D01*
X207102500Y-114573571D01*
X206995357Y-114609285D01*
X206816785Y-114609285D01*
X207888214Y-114109285D02*
X207888214Y-114609285D01*
X207709642Y-113823571D02*
X207531071Y-114359285D01*
X207995357Y-114359285D01*
X206388214Y-103735000D02*
X206316785Y-103699285D01*
X206209642Y-103699285D01*
X206102500Y-103735000D01*
X206031071Y-103806428D01*
X205995357Y-103877857D01*
X205959642Y-104020714D01*
X205959642Y-104127857D01*
X205995357Y-104270714D01*
X206031071Y-104342142D01*
X206102500Y-104413571D01*
X206209642Y-104449285D01*
X206281071Y-104449285D01*
X206388214Y-104413571D01*
X206423928Y-104377857D01*
X206423928Y-104127857D01*
X206281071Y-104127857D01*
X206745357Y-104449285D02*
X206745357Y-103699285D01*
X207173928Y-104449285D01*
X207173928Y-103699285D01*
X207531071Y-104449285D02*
X207531071Y-103699285D01*
X207709642Y-103699285D01*
X207816785Y-103735000D01*
X207888214Y-103806428D01*
X207923928Y-103877857D01*
X207959642Y-104020714D01*
X207959642Y-104127857D01*
X207923928Y-104270714D01*
X207888214Y-104342142D01*
X207816785Y-104413571D01*
X207709642Y-104449285D01*
X207531071Y-104449285D01*
X206388214Y-106275000D02*
X206316785Y-106239285D01*
X206209642Y-106239285D01*
X206102500Y-106275000D01*
X206031071Y-106346428D01*
X205995357Y-106417857D01*
X205959642Y-106560714D01*
X205959642Y-106667857D01*
X205995357Y-106810714D01*
X206031071Y-106882142D01*
X206102500Y-106953571D01*
X206209642Y-106989285D01*
X206281071Y-106989285D01*
X206388214Y-106953571D01*
X206423928Y-106917857D01*
X206423928Y-106667857D01*
X206281071Y-106667857D01*
X206745357Y-106989285D02*
X206745357Y-106239285D01*
X207173928Y-106989285D01*
X207173928Y-106239285D01*
X207531071Y-106989285D02*
X207531071Y-106239285D01*
X207709642Y-106239285D01*
X207816785Y-106275000D01*
X207888214Y-106346428D01*
X207923928Y-106417857D01*
X207959642Y-106560714D01*
X207959642Y-106667857D01*
X207923928Y-106810714D01*
X207888214Y-106882142D01*
X207816785Y-106953571D01*
X207709642Y-106989285D01*
X207531071Y-106989285D01*
X206816785Y-109529285D02*
X206816785Y-108779285D01*
X206995357Y-108779285D01*
X207102500Y-108815000D01*
X207173928Y-108886428D01*
X207209642Y-108957857D01*
X207245357Y-109100714D01*
X207245357Y-109207857D01*
X207209642Y-109350714D01*
X207173928Y-109422142D01*
X207102500Y-109493571D01*
X206995357Y-109529285D01*
X206816785Y-109529285D01*
X207959642Y-109529285D02*
X207531071Y-109529285D01*
X207745357Y-109529285D02*
X207745357Y-108779285D01*
X207673928Y-108886428D01*
X207602500Y-108957857D01*
X207531071Y-108993571D01*
X206816785Y-112069285D02*
X206816785Y-111319285D01*
X206995357Y-111319285D01*
X207102500Y-111355000D01*
X207173928Y-111426428D01*
X207209642Y-111497857D01*
X207245357Y-111640714D01*
X207245357Y-111747857D01*
X207209642Y-111890714D01*
X207173928Y-111962142D01*
X207102500Y-112033571D01*
X206995357Y-112069285D01*
X206816785Y-112069285D01*
X207709642Y-111319285D02*
X207781071Y-111319285D01*
X207852500Y-111355000D01*
X207888214Y-111390714D01*
X207923928Y-111462142D01*
X207959642Y-111605000D01*
X207959642Y-111783571D01*
X207923928Y-111926428D01*
X207888214Y-111997857D01*
X207852500Y-112033571D01*
X207781071Y-112069285D01*
X207709642Y-112069285D01*
X207638214Y-112033571D01*
X207602500Y-111997857D01*
X207566785Y-111926428D01*
X207531071Y-111783571D01*
X207531071Y-111605000D01*
X207566785Y-111462142D01*
X207602500Y-111390714D01*
X207638214Y-111355000D01*
X207709642Y-111319285D01*
X206816785Y-101909285D02*
X206816785Y-101159285D01*
X206995357Y-101159285D01*
X207102500Y-101195000D01*
X207173928Y-101266428D01*
X207209642Y-101337857D01*
X207245357Y-101480714D01*
X207245357Y-101587857D01*
X207209642Y-101730714D01*
X207173928Y-101802142D01*
X207102500Y-101873571D01*
X206995357Y-101909285D01*
X206816785Y-101909285D01*
X207531071Y-101230714D02*
X207566785Y-101195000D01*
X207638214Y-101159285D01*
X207816785Y-101159285D01*
X207888214Y-101195000D01*
X207923928Y-101230714D01*
X207959642Y-101302142D01*
X207959642Y-101373571D01*
X207923928Y-101480714D01*
X207495357Y-101909285D01*
X207959642Y-101909285D01*
X203923928Y-98619285D02*
X204352500Y-98619285D01*
X204138214Y-99369285D02*
X204138214Y-98619285D01*
X204531071Y-98619285D02*
X205031071Y-99369285D01*
X205031071Y-98619285D02*
X204531071Y-99369285D01*
X205459642Y-98619285D02*
X205531071Y-98619285D01*
X205602500Y-98655000D01*
X205638214Y-98690714D01*
X205673928Y-98762142D01*
X205709642Y-98905000D01*
X205709642Y-99083571D01*
X205673928Y-99226428D01*
X205638214Y-99297857D01*
X205602500Y-99333571D01*
X205531071Y-99369285D01*
X205459642Y-99369285D01*
X205388214Y-99333571D01*
X205352500Y-99297857D01*
X205316785Y-99226428D01*
X205281071Y-99083571D01*
X205281071Y-98905000D01*
X205316785Y-98762142D01*
X205352500Y-98690714D01*
X205388214Y-98655000D01*
X205459642Y-98619285D01*
X206566785Y-98583571D02*
X205923928Y-99547857D01*
X206816785Y-99369285D02*
X206816785Y-98619285D01*
X206995357Y-98619285D01*
X207102500Y-98655000D01*
X207173928Y-98726428D01*
X207209642Y-98797857D01*
X207245357Y-98940714D01*
X207245357Y-99047857D01*
X207209642Y-99190714D01*
X207173928Y-99262142D01*
X207102500Y-99333571D01*
X206995357Y-99369285D01*
X206816785Y-99369285D01*
X207495357Y-98619285D02*
X207959642Y-98619285D01*
X207709642Y-98905000D01*
X207816785Y-98905000D01*
X207888214Y-98940714D01*
X207923928Y-98976428D01*
X207959642Y-99047857D01*
X207959642Y-99226428D01*
X207923928Y-99297857D01*
X207888214Y-99333571D01*
X207816785Y-99369285D01*
X207602500Y-99369285D01*
X207531071Y-99333571D01*
X207495357Y-99297857D01*
X196504642Y-104449285D02*
X196254642Y-104092142D01*
X196076071Y-104449285D02*
X196076071Y-103699285D01*
X196361785Y-103699285D01*
X196433214Y-103735000D01*
X196468928Y-103770714D01*
X196504642Y-103842142D01*
X196504642Y-103949285D01*
X196468928Y-104020714D01*
X196433214Y-104056428D01*
X196361785Y-104092142D01*
X196076071Y-104092142D01*
X196790357Y-104413571D02*
X196897500Y-104449285D01*
X197076071Y-104449285D01*
X197147500Y-104413571D01*
X197183214Y-104377857D01*
X197218928Y-104306428D01*
X197218928Y-104235000D01*
X197183214Y-104163571D01*
X197147500Y-104127857D01*
X197076071Y-104092142D01*
X196933214Y-104056428D01*
X196861785Y-104020714D01*
X196826071Y-103985000D01*
X196790357Y-103913571D01*
X196790357Y-103842142D01*
X196826071Y-103770714D01*
X196861785Y-103735000D01*
X196933214Y-103699285D01*
X197111785Y-103699285D01*
X197218928Y-103735000D01*
X197433214Y-103699285D02*
X197861785Y-103699285D01*
X197647500Y-104449285D02*
X197647500Y-103699285D01*
%LPC*%
D11*
X216500000Y-137500000D03*
X205500000Y-137500000D03*
D12*
X211000000Y-131600000D03*
X216000000Y-133700000D03*
D13*
X211000000Y-137500000D03*
D11*
X198500000Y-137500000D03*
X187500000Y-137500000D03*
D12*
X193000000Y-131600000D03*
X198000000Y-133700000D03*
D13*
X193000000Y-137500000D03*
D14*
X216666726Y-123333274D03*
X215500000Y-122850000D03*
X214333274Y-123333274D03*
X213850000Y-124500000D03*
X214333274Y-125666726D03*
X215500000Y-126150000D03*
X216666726Y-125666726D03*
X217150000Y-124500000D03*
D15*
X215500000Y-124500000D03*
D14*
X189666726Y-123333274D03*
X188500000Y-122850000D03*
X187333274Y-123333274D03*
X186850000Y-124500000D03*
X187333274Y-125666726D03*
X188500000Y-126150000D03*
X189666726Y-125666726D03*
X190150000Y-124500000D03*
D15*
X188500000Y-124500000D03*
D14*
X216666726Y-98333274D03*
X215500000Y-97850000D03*
X214333274Y-98333274D03*
X213850000Y-99500000D03*
X214333274Y-100666726D03*
X215500000Y-101150000D03*
X216666726Y-100666726D03*
X217150000Y-99500000D03*
D15*
X215500000Y-99500000D03*
D14*
X189666726Y-98333274D03*
X188500000Y-97850000D03*
X187333274Y-98333274D03*
X186850000Y-99500000D03*
X187333274Y-100666726D03*
X188500000Y-101150000D03*
X189666726Y-100666726D03*
X190150000Y-99500000D03*
D15*
X188500000Y-99500000D03*
D14*
X95166726Y-110833274D03*
X94000000Y-110350000D03*
X92833274Y-110833274D03*
X92350000Y-112000000D03*
X92833274Y-113166726D03*
X94000000Y-113650000D03*
X95166726Y-113166726D03*
X95650000Y-112000000D03*
D15*
X94000000Y-112000000D03*
D16*
X190750000Y-115250000D03*
X186250000Y-115250000D03*
X190750000Y-108750000D03*
X186250000Y-108750000D03*
D14*
X311166726Y-144833274D03*
X310000000Y-144350000D03*
X308833274Y-144833274D03*
X308350000Y-146000000D03*
X308833274Y-147166726D03*
X310000000Y-147650000D03*
X311166726Y-147166726D03*
X311650000Y-146000000D03*
D15*
X310000000Y-146000000D03*
D14*
X311166726Y-110833274D03*
X310000000Y-110350000D03*
X308833274Y-110833274D03*
X308350000Y-112000000D03*
X308833274Y-113166726D03*
X310000000Y-113650000D03*
X311166726Y-113166726D03*
X311650000Y-112000000D03*
D15*
X310000000Y-112000000D03*
D14*
X95166726Y-144833274D03*
X94000000Y-144350000D03*
X92833274Y-144833274D03*
X92350000Y-146000000D03*
X92833274Y-147166726D03*
X94000000Y-147650000D03*
X95166726Y-147166726D03*
X95650000Y-146000000D03*
D15*
X94000000Y-146000000D03*
D11*
X90500000Y-103500000D03*
X79500000Y-103500000D03*
D12*
X85000000Y-97600000D03*
X90000000Y-99700000D03*
D13*
X85000000Y-103500000D03*
D11*
X90500000Y-137500000D03*
X79500000Y-137500000D03*
D12*
X85000000Y-131600000D03*
X90000000Y-133700000D03*
D13*
X85000000Y-137500000D03*
D11*
X90500000Y-154500000D03*
X79500000Y-154500000D03*
D12*
X85000000Y-148600000D03*
X90000000Y-150700000D03*
D13*
X85000000Y-154500000D03*
D11*
X90500000Y-120500000D03*
X79500000Y-120500000D03*
D12*
X85000000Y-114600000D03*
X90000000Y-116700000D03*
D13*
X85000000Y-120500000D03*
D11*
X108500000Y-103500000D03*
X97500000Y-103500000D03*
D12*
X103000000Y-97600000D03*
X108000000Y-99700000D03*
D13*
X103000000Y-103500000D03*
D11*
X126500000Y-103500000D03*
X115500000Y-103500000D03*
D12*
X121000000Y-97600000D03*
X126000000Y-99700000D03*
D13*
X121000000Y-103500000D03*
D11*
X144500000Y-103500000D03*
X133500000Y-103500000D03*
D12*
X139000000Y-97600000D03*
X144000000Y-99700000D03*
D13*
X139000000Y-103500000D03*
D11*
X162500000Y-103500000D03*
X151500000Y-103500000D03*
D12*
X157000000Y-97600000D03*
X162000000Y-99700000D03*
D13*
X157000000Y-103500000D03*
D11*
X234500000Y-103500000D03*
X223500000Y-103500000D03*
D12*
X229000000Y-97600000D03*
X234000000Y-99700000D03*
D13*
X229000000Y-103500000D03*
D11*
X252500000Y-103500000D03*
X241500000Y-103500000D03*
D12*
X247000000Y-97600000D03*
X252000000Y-99700000D03*
D13*
X247000000Y-103500000D03*
D11*
X270500000Y-103500000D03*
X259500000Y-103500000D03*
D12*
X265000000Y-97600000D03*
X270000000Y-99700000D03*
D13*
X265000000Y-103500000D03*
D11*
X288500000Y-103500000D03*
X277500000Y-103500000D03*
D12*
X283000000Y-97600000D03*
X288000000Y-99700000D03*
D13*
X283000000Y-103500000D03*
D11*
X306500000Y-103500000D03*
X295500000Y-103500000D03*
D12*
X301000000Y-97600000D03*
X306000000Y-99700000D03*
D13*
X301000000Y-103500000D03*
D11*
X324500000Y-103500000D03*
X313500000Y-103500000D03*
D12*
X319000000Y-97600000D03*
X324000000Y-99700000D03*
D13*
X319000000Y-103500000D03*
D11*
X108500000Y-120500000D03*
X97500000Y-120500000D03*
D12*
X103000000Y-114600000D03*
X108000000Y-116700000D03*
D13*
X103000000Y-120500000D03*
D11*
X126500000Y-120500000D03*
X115500000Y-120500000D03*
D12*
X121000000Y-114600000D03*
X126000000Y-116700000D03*
D13*
X121000000Y-120500000D03*
D11*
X144500000Y-120500000D03*
X133500000Y-120500000D03*
D12*
X139000000Y-114600000D03*
X144000000Y-116700000D03*
D13*
X139000000Y-120500000D03*
D11*
X162500000Y-120500000D03*
X151500000Y-120500000D03*
D12*
X157000000Y-114600000D03*
X162000000Y-116700000D03*
D13*
X157000000Y-120500000D03*
D11*
X180500000Y-120500000D03*
X169500000Y-120500000D03*
D12*
X175000000Y-114600000D03*
X180000000Y-116700000D03*
D13*
X175000000Y-120500000D03*
D11*
X234500000Y-120500000D03*
X223500000Y-120500000D03*
D12*
X229000000Y-114600000D03*
X234000000Y-116700000D03*
D13*
X229000000Y-120500000D03*
D11*
X252500000Y-120500000D03*
X241500000Y-120500000D03*
D12*
X247000000Y-114600000D03*
X252000000Y-116700000D03*
D13*
X247000000Y-120500000D03*
D11*
X270500000Y-120500000D03*
X259500000Y-120500000D03*
D12*
X265000000Y-114600000D03*
X270000000Y-116700000D03*
D13*
X265000000Y-120500000D03*
D11*
X288500000Y-120500000D03*
X277500000Y-120500000D03*
D12*
X283000000Y-114600000D03*
X288000000Y-116700000D03*
D13*
X283000000Y-120500000D03*
D11*
X306500000Y-120500000D03*
X295500000Y-120500000D03*
D12*
X301000000Y-114600000D03*
X306000000Y-116700000D03*
D13*
X301000000Y-120500000D03*
D11*
X324500000Y-120500000D03*
X313500000Y-120500000D03*
D12*
X319000000Y-114600000D03*
X324000000Y-116700000D03*
D13*
X319000000Y-120500000D03*
D11*
X108500000Y-137500000D03*
X97500000Y-137500000D03*
D12*
X103000000Y-131600000D03*
X108000000Y-133700000D03*
D13*
X103000000Y-137500000D03*
D11*
X126500000Y-137500000D03*
X115500000Y-137500000D03*
D12*
X121000000Y-131600000D03*
X126000000Y-133700000D03*
D13*
X121000000Y-137500000D03*
D11*
X144500000Y-137500000D03*
X133500000Y-137500000D03*
D12*
X139000000Y-131600000D03*
X144000000Y-133700000D03*
D13*
X139000000Y-137500000D03*
D11*
X162500000Y-137500000D03*
X151500000Y-137500000D03*
D12*
X157000000Y-131600000D03*
X162000000Y-133700000D03*
D13*
X157000000Y-137500000D03*
D11*
X180500000Y-137500000D03*
X169500000Y-137500000D03*
D12*
X175000000Y-131600000D03*
X180000000Y-133700000D03*
D13*
X175000000Y-137500000D03*
D11*
X234500000Y-137500000D03*
X223500000Y-137500000D03*
D12*
X229000000Y-131600000D03*
X234000000Y-133700000D03*
D13*
X229000000Y-137500000D03*
D11*
X252500000Y-137500000D03*
X241500000Y-137500000D03*
D12*
X247000000Y-131600000D03*
X252000000Y-133700000D03*
D13*
X247000000Y-137500000D03*
D11*
X270500000Y-137500000D03*
X259500000Y-137500000D03*
D12*
X265000000Y-131600000D03*
X270000000Y-133700000D03*
D13*
X265000000Y-137500000D03*
D11*
X288500000Y-137500000D03*
X277500000Y-137500000D03*
D12*
X283000000Y-131600000D03*
X288000000Y-133700000D03*
D13*
X283000000Y-137500000D03*
D11*
X306500000Y-137500000D03*
X295500000Y-137500000D03*
D12*
X301000000Y-131600000D03*
X306000000Y-133700000D03*
D13*
X301000000Y-137500000D03*
D11*
X324500000Y-137500000D03*
X313500000Y-137500000D03*
D12*
X319000000Y-131600000D03*
X324000000Y-133700000D03*
D13*
X319000000Y-137500000D03*
D11*
X108500000Y-154500000D03*
X97500000Y-154500000D03*
D12*
X103000000Y-148600000D03*
X108000000Y-150700000D03*
D13*
X103000000Y-154500000D03*
D11*
X126500000Y-154500000D03*
X115500000Y-154500000D03*
D12*
X121000000Y-148600000D03*
X126000000Y-150700000D03*
D13*
X121000000Y-154500000D03*
D11*
X144500000Y-154500000D03*
X133500000Y-154500000D03*
D12*
X139000000Y-148600000D03*
X144000000Y-150700000D03*
D13*
X139000000Y-154500000D03*
D11*
X162500000Y-154500000D03*
X151500000Y-154500000D03*
D12*
X157000000Y-148600000D03*
X162000000Y-150700000D03*
D13*
X157000000Y-154500000D03*
D11*
X180500000Y-154500000D03*
X169500000Y-154500000D03*
D12*
X175000000Y-148600000D03*
X180000000Y-150700000D03*
D13*
X175000000Y-154500000D03*
D11*
X198500000Y-154500000D03*
X187500000Y-154500000D03*
D12*
X193000000Y-148600000D03*
X198000000Y-150700000D03*
D13*
X193000000Y-154500000D03*
D11*
X216500000Y-154500000D03*
X205500000Y-154500000D03*
D12*
X211000000Y-148600000D03*
X216000000Y-150700000D03*
D13*
X211000000Y-154500000D03*
D11*
X234500000Y-154500000D03*
X223500000Y-154500000D03*
D12*
X229000000Y-148600000D03*
X234000000Y-150700000D03*
D13*
X229000000Y-154500000D03*
D11*
X252500000Y-154500000D03*
X241500000Y-154500000D03*
D12*
X247000000Y-148600000D03*
X252000000Y-150700000D03*
D13*
X247000000Y-154500000D03*
D11*
X270500000Y-154500000D03*
X259500000Y-154500000D03*
D12*
X265000000Y-148600000D03*
X270000000Y-150700000D03*
D13*
X265000000Y-154500000D03*
D11*
X288500000Y-154500000D03*
X277500000Y-154500000D03*
D12*
X283000000Y-148600000D03*
X288000000Y-150700000D03*
D13*
X283000000Y-154500000D03*
D11*
X306500000Y-154500000D03*
X295500000Y-154500000D03*
D12*
X301000000Y-148600000D03*
X306000000Y-150700000D03*
D13*
X301000000Y-154500000D03*
D11*
X324500000Y-154500000D03*
X313500000Y-154500000D03*
D12*
X319000000Y-148600000D03*
X324000000Y-150700000D03*
D13*
X319000000Y-154500000D03*
D11*
X180500000Y-103500000D03*
X169500000Y-103500000D03*
D12*
X175000000Y-97600000D03*
X180000000Y-99700000D03*
D13*
X175000000Y-103500000D03*
D16*
X209620000Y-99030000D03*
X209620000Y-101570000D03*
X209620000Y-104110000D03*
X209620000Y-106650000D03*
X209620000Y-109190000D03*
X209620000Y-111730000D03*
X209620000Y-114270000D03*
X209620000Y-116810000D03*
X209620000Y-119350000D03*
X209620000Y-121890000D03*
X209620000Y-124430000D03*
X194380000Y-126970000D03*
X194380000Y-124430000D03*
X194380000Y-121890000D03*
X194380000Y-119350000D03*
X194380000Y-116810000D03*
X194380000Y-114270000D03*
X194380000Y-111730000D03*
X194380000Y-109190000D03*
X194380000Y-106650000D03*
X194380000Y-104110000D03*
X194380000Y-101570000D03*
X209620000Y-126970000D03*
X194380000Y-99030000D03*
M02*
