M48
; DRILL file {KiCad (5.1.4)-1} date 9/24/2021 11:07:36 PM
; FORMAT={-:-/ absolute / metric / decimal}
; #@! TF.CreationDate,2021-09-24T23:07:36-04:00
; #@! TF.GenerationSoftware,Kicad,Pcbnew,(5.1.4)-1
; #@! TF.FileFunction,NonPlated,1,2,NPTH
FMAT,2
METRIC
T1C1.700
T2C3.400
%
G90
G05
T1
X277.5Y-120.5
X288.5Y-120.5
X223.5Y-120.5
X234.5Y-120.5
X241.5Y-103.5
X252.5Y-103.5
X187.5Y-137.5
X198.5Y-137.5
X277.5Y-137.5
X288.5Y-137.5
X151.5Y-120.5
X162.5Y-120.5
X133.5Y-154.5
X144.5Y-154.5
X277.5Y-154.5
X288.5Y-154.5
X313.5Y-137.5
X324.5Y-137.5
X241.5Y-120.5
X252.5Y-120.5
X169.5Y-103.5
X180.5Y-103.5
X97.5Y-137.5
X108.5Y-137.5
X115.5Y-120.5
X126.5Y-120.5
X313.5Y-154.5
X324.5Y-154.5
X313.5Y-103.5
X324.5Y-103.5
X259.5Y-103.5
X270.5Y-103.5
X133.5Y-120.5
X144.5Y-120.5
X295.5Y-120.5
X306.5Y-120.5
X169.5Y-137.5
X180.5Y-137.5
X223.5Y-137.5
X234.5Y-137.5
X115.5Y-103.5
X126.5Y-103.5
X259.5Y-154.5
X270.5Y-154.5
X223.5Y-103.5
X234.5Y-103.5
X79.5Y-103.5
X90.5Y-103.5
X133.5Y-137.5
X144.5Y-137.5
X169.5Y-154.5
X180.5Y-154.5
X205.5Y-137.5
X216.5Y-137.5
X313.5Y-120.5
X324.5Y-120.5
X79.5Y-137.5
X90.5Y-137.5
X151.5Y-154.5
X162.5Y-154.5
X97.5Y-154.5
X108.5Y-154.5
X97.5Y-103.5
X108.5Y-103.5
X187.5Y-154.5
X198.5Y-154.5
X151.5Y-103.5
X162.5Y-103.5
X259.5Y-137.5
X270.5Y-137.5
X97.5Y-120.5
X108.5Y-120.5
X295.5Y-103.5
X306.5Y-103.5
X115.5Y-137.5
X126.5Y-137.5
X79.5Y-120.5
X90.5Y-120.5
X169.5Y-120.5
X180.5Y-120.5
X259.5Y-120.5
X270.5Y-120.5
X205.5Y-154.5
X216.5Y-154.5
X241.5Y-137.5
X252.5Y-137.5
X79.5Y-154.5
X90.5Y-154.5
X241.5Y-154.5
X252.5Y-154.5
X295.5Y-137.5
X306.5Y-137.5
X223.5Y-154.5
X234.5Y-154.5
X295.5Y-154.5
X306.5Y-154.5
X115.5Y-154.5
X126.5Y-154.5
X277.5Y-103.5
X288.5Y-103.5
X133.5Y-103.5
X144.5Y-103.5
X151.5Y-137.5
X162.5Y-137.5
T2
X211.0Y-154.5
X247.0Y-137.5
X85.0Y-154.5
X247.0Y-154.5
X301.0Y-137.5
X229.0Y-154.5
X301.0Y-154.5
X121.0Y-154.5
X283.0Y-103.5
X139.0Y-103.5
X157.0Y-137.5
X283.0Y-120.5
X229.0Y-120.5
X247.0Y-103.5
X193.0Y-137.5
X283.0Y-137.5
X157.0Y-120.5
X139.0Y-154.5
X283.0Y-154.5
X319.0Y-137.5
X247.0Y-120.5
X175.0Y-103.5
X103.0Y-137.5
X121.0Y-120.5
X319.0Y-154.5
X319.0Y-103.5
X265.0Y-103.5
X139.0Y-120.5
X301.0Y-120.5
X175.0Y-137.5
X229.0Y-137.5
X121.0Y-103.5
X265.0Y-154.5
X229.0Y-103.5
X85.0Y-103.5
X139.0Y-137.5
X175.0Y-154.5
X211.0Y-137.5
X319.0Y-120.5
X85.0Y-137.5
X157.0Y-154.5
X103.0Y-154.5
X103.0Y-103.5
X193.0Y-154.5
X157.0Y-103.5
X265.0Y-137.5
X103.0Y-120.5
X301.0Y-103.5
X121.0Y-137.5
X85.0Y-120.5
X175.0Y-120.5
X265.0Y-120.5
T0
M30
