M48
; DRILL file {KiCad (5.1.4)-1} date 9/19/2021 10:16:23 PM
; FORMAT={-:-/ absolute / metric / decimal}
; #@! TF.CreationDate,2021-09-19T22:16:23-04:00
; #@! TF.GenerationSoftware,Kicad,Pcbnew,(5.1.4)-1
; #@! TF.FileFunction,Plated,1,2,PTH
FMAT,2
METRIC
T1C0.400
T2C1.000
T3C1.200
T4C2.200
%
G90
G05
T1
X200.05Y-160.15
X203.95Y-143.15
X213.85Y-124.5
X214.333Y-123.333
X214.333Y-125.667
X215.5Y-122.85
X215.5Y-126.15
X216.667Y-123.333
X216.667Y-125.667
X217.15Y-124.5
X92.35Y-146.0
X92.833Y-144.833
X92.833Y-147.167
X94.0Y-144.35
X94.0Y-147.65
X95.167Y-144.833
X95.167Y-147.167
X95.65Y-146.0
X186.85Y-124.5
X187.333Y-123.333
X187.333Y-125.667
X188.5Y-122.85
X188.5Y-126.15
X189.667Y-123.333
X189.667Y-125.667
X190.15Y-124.5
X186.85Y-99.5
X187.333Y-98.333
X187.333Y-100.667
X188.5Y-97.85
X188.5Y-101.15
X189.667Y-98.333
X189.667Y-100.667
X190.15Y-99.5
X213.85Y-99.5
X214.333Y-98.333
X214.333Y-100.667
X215.5Y-97.85
X215.5Y-101.15
X216.667Y-98.333
X216.667Y-100.667
X217.15Y-99.5
X308.35Y-112.0
X308.833Y-110.833
X308.833Y-113.167
X310.0Y-110.35
X310.0Y-113.65
X311.167Y-110.833
X311.167Y-113.167
X311.65Y-112.0
X308.35Y-146.0
X308.833Y-144.833
X308.833Y-147.167
X310.0Y-144.35
X310.0Y-147.65
X311.167Y-144.833
X311.167Y-147.167
X311.65Y-146.0
X92.35Y-112.0
X92.833Y-110.833
X92.833Y-113.167
X94.0Y-110.35
X94.0Y-113.65
X95.167Y-110.833
X95.167Y-113.167
X95.65Y-112.0
T2
X186.25Y-108.75
X186.25Y-115.25
X190.75Y-108.75
X190.75Y-115.25
X194.38Y-99.03
X194.38Y-101.57
X194.38Y-104.11
X194.38Y-106.65
X194.38Y-109.19
X194.38Y-111.73
X194.38Y-114.27
X194.38Y-116.81
X194.38Y-119.35
X194.38Y-121.89
X194.38Y-124.43
X194.38Y-126.97
X209.62Y-99.03
X209.62Y-101.57
X209.62Y-104.11
X209.62Y-106.65
X209.62Y-109.19
X209.62Y-111.73
X209.62Y-114.27
X209.62Y-116.81
X209.62Y-119.35
X209.62Y-121.89
X209.62Y-124.43
X209.62Y-126.97
T3
X283.0Y-97.6
X288.0Y-99.7
X265.0Y-131.6
X270.0Y-133.7
X85.0Y-114.6
X90.0Y-116.7
X157.0Y-131.6
X162.0Y-133.7
X247.0Y-114.6
X252.0Y-116.7
X175.0Y-114.6
X180.0Y-116.7
X103.0Y-114.6
X108.0Y-116.7
X229.0Y-131.6
X234.0Y-133.7
X229.0Y-114.6
X234.0Y-116.7
X121.0Y-131.6
X126.0Y-133.7
X301.0Y-148.6
X306.0Y-150.7
X103.0Y-131.6
X108.0Y-133.7
X265.0Y-97.6
X270.0Y-99.7
X301.0Y-131.6
X306.0Y-133.7
X121.0Y-97.6
X126.0Y-99.7
X283.0Y-148.6
X288.0Y-150.7
X319.0Y-131.6
X324.0Y-133.7
X85.0Y-148.6
X90.0Y-150.7
X121.0Y-114.6
X126.0Y-116.7
X265.0Y-114.6
X270.0Y-116.7
X301.0Y-114.6
X306.0Y-116.7
X283.0Y-131.6
X288.0Y-133.7
X139.0Y-97.6
X144.0Y-99.7
X121.0Y-148.6
X126.0Y-150.7
X103.0Y-97.6
X108.0Y-99.7
X139.0Y-148.6
X144.0Y-150.7
X211.0Y-131.6
X216.0Y-133.7
X319.0Y-114.6
X324.0Y-116.7
X157.0Y-148.6
X162.0Y-150.7
X229.0Y-148.6
X234.0Y-150.7
X139.0Y-114.6
X144.0Y-116.7
X247.0Y-148.6
X252.0Y-150.7
X175.0Y-97.6
X180.0Y-99.7
X319.0Y-148.6
X324.0Y-150.7
X157.0Y-97.6
X162.0Y-99.7
X319.0Y-97.6
X324.0Y-99.7
X157.0Y-114.6
X162.0Y-116.7
X283.0Y-114.6
X288.0Y-116.7
X175.0Y-148.6
X180.0Y-150.7
X247.0Y-97.6
X252.0Y-99.7
X175.0Y-131.6
X180.0Y-133.7
X229.0Y-97.6
X234.0Y-99.7
X247.0Y-131.6
X252.0Y-133.7
X103.0Y-148.6
X108.0Y-150.7
X211.0Y-148.6
X216.0Y-150.7
X85.0Y-131.6
X90.0Y-133.7
X193.0Y-148.6
X198.0Y-150.7
X193.0Y-131.6
X198.0Y-133.7
X265.0Y-148.6
X270.0Y-150.7
X85.0Y-97.6
X90.0Y-99.7
X301.0Y-97.6
X306.0Y-99.7
X139.0Y-131.6
X144.0Y-133.7
T4
X215.5Y-124.5
X94.0Y-146.0
X188.5Y-124.5
X188.5Y-99.5
X215.5Y-99.5
X310.0Y-112.0
X310.0Y-146.0
X94.0Y-112.0
T0
M30
