G04 #@! TF.GenerationSoftware,KiCad,Pcbnew,(5.1.4)-1*
G04 #@! TF.CreationDate,2021-09-19T23:12:05-04:00*
G04 #@! TF.ProjectId,horizon-mx-top-plate,686f7269-7a6f-46e2-9d6d-782d746f702d,rev?*
G04 #@! TF.SameCoordinates,Original*
G04 #@! TF.FileFunction,Legend,Top*
G04 #@! TF.FilePolarity,Positive*
%FSLAX46Y46*%
G04 Gerber Fmt 4.6, Leading zero omitted, Abs format (unit mm)*
G04 Created by KiCad (PCBNEW (5.1.4)-1) date 2021-09-19 23:12:05*
%MOMM*%
%LPD*%
G04 APERTURE LIST*
%ADD10C,0.150000*%
%ADD11C,0.802000*%
%ADD12C,4.502000*%
G04 APERTURE END LIST*
D10*
X204380952Y-96452380D02*
X204380952Y-97166666D01*
X204333333Y-97309523D01*
X204238095Y-97404761D01*
X204095238Y-97452380D01*
X204000000Y-97452380D01*
X205333333Y-97452380D02*
X204857142Y-97452380D01*
X204857142Y-96452380D01*
X206238095Y-97357142D02*
X206190476Y-97404761D01*
X206047619Y-97452380D01*
X205952380Y-97452380D01*
X205809523Y-97404761D01*
X205714285Y-97309523D01*
X205666666Y-97214285D01*
X205619047Y-97023809D01*
X205619047Y-96880952D01*
X205666666Y-96690476D01*
X205714285Y-96595238D01*
X205809523Y-96500000D01*
X205952380Y-96452380D01*
X206047619Y-96452380D01*
X206190476Y-96500000D01*
X206238095Y-96547619D01*
X206952380Y-96452380D02*
X206952380Y-97166666D01*
X206904761Y-97309523D01*
X206809523Y-97404761D01*
X206666666Y-97452380D01*
X206571428Y-97452380D01*
X207904761Y-97452380D02*
X207428571Y-97452380D01*
X207428571Y-96452380D01*
X208809523Y-97357142D02*
X208761904Y-97404761D01*
X208619047Y-97452380D01*
X208523809Y-97452380D01*
X208380952Y-97404761D01*
X208285714Y-97309523D01*
X208238095Y-97214285D01*
X208190476Y-97023809D01*
X208190476Y-96880952D01*
X208238095Y-96690476D01*
X208285714Y-96595238D01*
X208380952Y-96500000D01*
X208523809Y-96452380D01*
X208619047Y-96452380D01*
X208761904Y-96500000D01*
X208809523Y-96547619D01*
X209523809Y-96452380D02*
X209523809Y-97166666D01*
X209476190Y-97309523D01*
X209380952Y-97404761D01*
X209238095Y-97452380D01*
X209142857Y-97452380D01*
X210476190Y-97452380D02*
X210000000Y-97452380D01*
X210000000Y-96452380D01*
X211380952Y-97357142D02*
X211333333Y-97404761D01*
X211190476Y-97452380D01*
X211095238Y-97452380D01*
X210952380Y-97404761D01*
X210857142Y-97309523D01*
X210809523Y-97214285D01*
X210761904Y-97023809D01*
X210761904Y-96880952D01*
X210809523Y-96690476D01*
X210857142Y-96595238D01*
X210952380Y-96500000D01*
X211095238Y-96452380D01*
X211190476Y-96452380D01*
X211333333Y-96500000D01*
X211380952Y-96547619D01*
X212095238Y-96452380D02*
X212095238Y-97166666D01*
X212047619Y-97309523D01*
X211952380Y-97404761D01*
X211809523Y-97452380D01*
X211714285Y-97452380D01*
X213047619Y-97452380D02*
X212571428Y-97452380D01*
X212571428Y-96452380D01*
X213952380Y-97357142D02*
X213904761Y-97404761D01*
X213761904Y-97452380D01*
X213666666Y-97452380D01*
X213523809Y-97404761D01*
X213428571Y-97309523D01*
X213380952Y-97214285D01*
X213333333Y-97023809D01*
X213333333Y-96880952D01*
X213380952Y-96690476D01*
X213428571Y-96595238D01*
X213523809Y-96500000D01*
X213666666Y-96452380D01*
X213761904Y-96452380D01*
X213904761Y-96500000D01*
X213952380Y-96547619D01*
%LPC*%
D11*
X224166726Y-126833274D03*
X223000000Y-126350000D03*
X221833274Y-126833274D03*
X221350000Y-128000000D03*
X221833274Y-129166726D03*
X223000000Y-129650000D03*
X224166726Y-129166726D03*
X224650000Y-128000000D03*
D12*
X223000000Y-128000000D03*
D11*
X196166726Y-126833274D03*
X195000000Y-126350000D03*
X193833274Y-126833274D03*
X193350000Y-128000000D03*
X193833274Y-129166726D03*
X195000000Y-129650000D03*
X196166726Y-129166726D03*
X196650000Y-128000000D03*
D12*
X195000000Y-128000000D03*
D11*
X224166726Y-98833274D03*
X223000000Y-98350000D03*
X221833274Y-98833274D03*
X221350000Y-100000000D03*
X221833274Y-101166726D03*
X223000000Y-101650000D03*
X224166726Y-101166726D03*
X224650000Y-100000000D03*
D12*
X223000000Y-100000000D03*
D11*
X196166726Y-98833274D03*
X195000000Y-98350000D03*
X193833274Y-98833274D03*
X193350000Y-100000000D03*
X193833274Y-101166726D03*
X195000000Y-101650000D03*
X196166726Y-101166726D03*
X196650000Y-100000000D03*
D12*
X195000000Y-100000000D03*
M02*
