G04 #@! TF.GenerationSoftware,KiCad,Pcbnew,(5.1.4)-1*
G04 #@! TF.CreationDate,2021-09-20T21:29:11-04:00*
G04 #@! TF.ProjectId,horizon-mx-top-plate,686f7269-7a6f-46e2-9d6d-782d746f702d,rev?*
G04 #@! TF.SameCoordinates,Original*
G04 #@! TF.FileFunction,Soldermask,Top*
G04 #@! TF.FilePolarity,Negative*
%FSLAX46Y46*%
G04 Gerber Fmt 4.6, Leading zero omitted, Abs format (unit mm)*
G04 Created by KiCad (PCBNEW (5.1.4)-1) date 2021-09-20 21:29:11*
%MOMM*%
%LPD*%
G04 APERTURE LIST*
%ADD10C,0.100000*%
G04 APERTURE END LIST*
D10*
G36*
X195275880Y-125759776D02*
G01*
X195656593Y-125835504D01*
X196066249Y-126005189D01*
X196434929Y-126251534D01*
X196748466Y-126565071D01*
X196994811Y-126933751D01*
X197164496Y-127343407D01*
X197251000Y-127778296D01*
X197251000Y-128221704D01*
X197164496Y-128656593D01*
X196994811Y-129066249D01*
X196748466Y-129434929D01*
X196434929Y-129748466D01*
X196066249Y-129994811D01*
X195656593Y-130164496D01*
X195275880Y-130240224D01*
X195221705Y-130251000D01*
X194778295Y-130251000D01*
X194724120Y-130240224D01*
X194343407Y-130164496D01*
X193933751Y-129994811D01*
X193565071Y-129748466D01*
X193251534Y-129434929D01*
X193005189Y-129066249D01*
X192835504Y-128656593D01*
X192749000Y-128221704D01*
X192749000Y-127778296D01*
X192835504Y-127343407D01*
X193005189Y-126933751D01*
X193251534Y-126565071D01*
X193565071Y-126251534D01*
X193933751Y-126005189D01*
X194343407Y-125835504D01*
X194724120Y-125759776D01*
X194778295Y-125749000D01*
X195221705Y-125749000D01*
X195275880Y-125759776D01*
X195275880Y-125759776D01*
G37*
G36*
X223275880Y-125759776D02*
G01*
X223656593Y-125835504D01*
X224066249Y-126005189D01*
X224434929Y-126251534D01*
X224748466Y-126565071D01*
X224994811Y-126933751D01*
X225164496Y-127343407D01*
X225251000Y-127778296D01*
X225251000Y-128221704D01*
X225164496Y-128656593D01*
X224994811Y-129066249D01*
X224748466Y-129434929D01*
X224434929Y-129748466D01*
X224066249Y-129994811D01*
X223656593Y-130164496D01*
X223275880Y-130240224D01*
X223221705Y-130251000D01*
X222778295Y-130251000D01*
X222724120Y-130240224D01*
X222343407Y-130164496D01*
X221933751Y-129994811D01*
X221565071Y-129748466D01*
X221251534Y-129434929D01*
X221005189Y-129066249D01*
X220835504Y-128656593D01*
X220749000Y-128221704D01*
X220749000Y-127778296D01*
X220835504Y-127343407D01*
X221005189Y-126933751D01*
X221251534Y-126565071D01*
X221565071Y-126251534D01*
X221933751Y-126005189D01*
X222343407Y-125835504D01*
X222724120Y-125759776D01*
X222778295Y-125749000D01*
X223221705Y-125749000D01*
X223275880Y-125759776D01*
X223275880Y-125759776D01*
G37*
G36*
X195275880Y-97759776D02*
G01*
X195656593Y-97835504D01*
X196066249Y-98005189D01*
X196434929Y-98251534D01*
X196748466Y-98565071D01*
X196994811Y-98933751D01*
X197164496Y-99343407D01*
X197251000Y-99778296D01*
X197251000Y-100221704D01*
X197164496Y-100656593D01*
X196994811Y-101066249D01*
X196748466Y-101434929D01*
X196434929Y-101748466D01*
X196066249Y-101994811D01*
X195656593Y-102164496D01*
X195275880Y-102240224D01*
X195221705Y-102251000D01*
X194778295Y-102251000D01*
X194724120Y-102240224D01*
X194343407Y-102164496D01*
X193933751Y-101994811D01*
X193565071Y-101748466D01*
X193251534Y-101434929D01*
X193005189Y-101066249D01*
X192835504Y-100656593D01*
X192749000Y-100221704D01*
X192749000Y-99778296D01*
X192835504Y-99343407D01*
X193005189Y-98933751D01*
X193251534Y-98565071D01*
X193565071Y-98251534D01*
X193933751Y-98005189D01*
X194343407Y-97835504D01*
X194724120Y-97759776D01*
X194778295Y-97749000D01*
X195221705Y-97749000D01*
X195275880Y-97759776D01*
X195275880Y-97759776D01*
G37*
G36*
X223275880Y-97759776D02*
G01*
X223656593Y-97835504D01*
X224066249Y-98005189D01*
X224434929Y-98251534D01*
X224748466Y-98565071D01*
X224994811Y-98933751D01*
X225164496Y-99343407D01*
X225251000Y-99778296D01*
X225251000Y-100221704D01*
X225164496Y-100656593D01*
X224994811Y-101066249D01*
X224748466Y-101434929D01*
X224434929Y-101748466D01*
X224066249Y-101994811D01*
X223656593Y-102164496D01*
X223275880Y-102240224D01*
X223221705Y-102251000D01*
X222778295Y-102251000D01*
X222724120Y-102240224D01*
X222343407Y-102164496D01*
X221933751Y-101994811D01*
X221565071Y-101748466D01*
X221251534Y-101434929D01*
X221005189Y-101066249D01*
X220835504Y-100656593D01*
X220749000Y-100221704D01*
X220749000Y-99778296D01*
X220835504Y-99343407D01*
X221005189Y-98933751D01*
X221251534Y-98565071D01*
X221565071Y-98251534D01*
X221933751Y-98005189D01*
X222343407Y-97835504D01*
X222724120Y-97759776D01*
X222778295Y-97749000D01*
X223221705Y-97749000D01*
X223275880Y-97759776D01*
X223275880Y-97759776D01*
G37*
M02*
