M48
; DRILL file {KiCad (5.1.4)-1} date 9/19/2021 11:12:05 PM
; FORMAT={-:-/ absolute / metric / decimal}
; #@! TF.CreationDate,2021-09-19T23:12:05-04:00
; #@! TF.GenerationSoftware,Kicad,Pcbnew,(5.1.4)-1
; #@! TF.FileFunction,Plated,1,2,PTH
FMAT,2
METRIC
T1C0.400
T2C2.200
%
G90
G05
T1
X193.35Y-128.0
X193.833Y-126.833
X193.833Y-129.167
X195.0Y-126.35
X195.0Y-129.65
X196.167Y-126.833
X196.167Y-129.167
X196.65Y-128.0
X221.35Y-128.0
X221.833Y-126.833
X221.833Y-129.167
X223.0Y-126.35
X223.0Y-129.65
X224.167Y-126.833
X224.167Y-129.167
X224.65Y-128.0
X221.35Y-100.0
X221.833Y-98.833
X221.833Y-101.167
X223.0Y-98.35
X223.0Y-101.65
X224.167Y-98.833
X224.167Y-101.167
X224.65Y-100.0
X193.35Y-100.0
X193.833Y-98.833
X193.833Y-101.167
X195.0Y-98.35
X195.0Y-101.65
X196.167Y-98.833
X196.167Y-101.167
X196.65Y-100.0
T2
X195.0Y-128.0
X223.0Y-128.0
X223.0Y-100.0
X195.0Y-100.0
T0
M30
