M48
; DRILL file {KiCad (5.1.4)-1} date 9/25/2021 1:38:15 PM
; FORMAT={-:-/ absolute / metric / decimal}
; #@! TF.CreationDate,2021-09-25T13:38:15-04:00
; #@! TF.GenerationSoftware,Kicad,Pcbnew,(5.1.4)-1
; #@! TF.FileFunction,Plated,1,2,PTH
FMAT,2
METRIC
T1C0.400
T2C2.200
%
G90
G05
T1
X321.35Y-152.0
X321.833Y-150.833
X321.833Y-153.167
X323.0Y-150.35
X323.0Y-153.65
X324.167Y-150.833
X324.167Y-153.167
X324.65Y-152.0
X193.35Y-100.0
X193.833Y-98.833
X193.833Y-101.167
X195.0Y-98.35
X195.0Y-101.65
X196.167Y-98.833
X196.167Y-101.167
X196.65Y-100.0
X93.35Y-152.0
X93.833Y-150.833
X93.833Y-153.167
X95.0Y-150.35
X95.0Y-153.65
X96.167Y-150.833
X96.167Y-153.167
X96.65Y-152.0
X321.35Y-114.0
X321.833Y-112.833
X321.833Y-115.167
X323.0Y-112.35
X323.0Y-115.65
X324.167Y-112.833
X324.167Y-115.167
X324.65Y-114.0
X221.35Y-100.0
X221.833Y-98.833
X221.833Y-101.167
X223.0Y-98.35
X223.0Y-101.65
X224.167Y-98.833
X224.167Y-101.167
X224.65Y-100.0
X221.35Y-128.0
X221.833Y-126.833
X221.833Y-129.167
X223.0Y-126.35
X223.0Y-129.65
X224.167Y-126.833
X224.167Y-129.167
X224.65Y-128.0
X93.35Y-114.0
X93.833Y-112.833
X93.833Y-115.167
X95.0Y-112.35
X95.0Y-115.65
X96.167Y-112.833
X96.167Y-115.167
X96.65Y-114.0
X193.35Y-128.0
X193.833Y-126.833
X193.833Y-129.167
X195.0Y-126.35
X195.0Y-129.65
X196.167Y-126.833
X196.167Y-129.167
X196.65Y-128.0
T2
X323.0Y-152.0
X323.0Y-114.0
X223.0Y-100.0
X223.0Y-128.0
X95.0Y-114.0
X195.0Y-128.0
X195.0Y-100.0
X95.0Y-152.0
T0
M30
