G04 #@! TF.GenerationSoftware,KiCad,Pcbnew,(5.1.4)-1*
G04 #@! TF.CreationDate,2021-09-25T13:38:15-04:00*
G04 #@! TF.ProjectId,horizon-mx-bottom-plate,686f7269-7a6f-46e2-9d6d-782d626f7474,rev?*
G04 #@! TF.SameCoordinates,Original*
G04 #@! TF.FileFunction,Legend,Bot*
G04 #@! TF.FilePolarity,Positive*
%FSLAX46Y46*%
G04 Gerber Fmt 4.6, Leading zero omitted, Abs format (unit mm)*
G04 Created by KiCad (PCBNEW (5.1.4)-1) date 2021-09-25 13:38:15*
%MOMM*%
%LPD*%
G04 APERTURE LIST*
%ADD10C,0.150000*%
%ADD11C,0.010000*%
%ADD12C,0.802000*%
%ADD13C,4.502000*%
G04 APERTURE END LIST*
D10*
X220166666Y-96285714D02*
X220166666Y-97095238D01*
X220214285Y-97190476D01*
X220261904Y-97238095D01*
X220357142Y-97285714D01*
X220500000Y-97285714D01*
X220595238Y-97238095D01*
X220166666Y-96904761D02*
X220261904Y-96952380D01*
X220452380Y-96952380D01*
X220547619Y-96904761D01*
X220595238Y-96857142D01*
X220642857Y-96761904D01*
X220642857Y-96476190D01*
X220595238Y-96380952D01*
X220547619Y-96333333D01*
X220452380Y-96285714D01*
X220261904Y-96285714D01*
X220166666Y-96333333D01*
X219690476Y-96952380D02*
X219690476Y-96285714D01*
X219690476Y-95952380D02*
X219738095Y-96000000D01*
X219690476Y-96047619D01*
X219642857Y-96000000D01*
X219690476Y-95952380D01*
X219690476Y-96047619D01*
X219357142Y-96285714D02*
X218976190Y-96285714D01*
X219214285Y-95952380D02*
X219214285Y-96809523D01*
X219166666Y-96904761D01*
X219071428Y-96952380D01*
X218976190Y-96952380D01*
X218642857Y-96952380D02*
X218642857Y-95952380D01*
X218214285Y-96952380D02*
X218214285Y-96428571D01*
X218261904Y-96333333D01*
X218357142Y-96285714D01*
X218500000Y-96285714D01*
X218595238Y-96333333D01*
X218642857Y-96380952D01*
X217309523Y-96285714D02*
X217309523Y-96952380D01*
X217738095Y-96285714D02*
X217738095Y-96809523D01*
X217690476Y-96904761D01*
X217595238Y-96952380D01*
X217452380Y-96952380D01*
X217357142Y-96904761D01*
X217309523Y-96857142D01*
X216833333Y-96952380D02*
X216833333Y-95952380D01*
X216833333Y-96333333D02*
X216738095Y-96285714D01*
X216547619Y-96285714D01*
X216452380Y-96333333D01*
X216404761Y-96380952D01*
X216357142Y-96476190D01*
X216357142Y-96761904D01*
X216404761Y-96857142D01*
X216452380Y-96904761D01*
X216547619Y-96952380D01*
X216738095Y-96952380D01*
X216833333Y-96904761D01*
X215928571Y-96857142D02*
X215880952Y-96904761D01*
X215928571Y-96952380D01*
X215976190Y-96904761D01*
X215928571Y-96857142D01*
X215928571Y-96952380D01*
X215023809Y-96904761D02*
X215119047Y-96952380D01*
X215309523Y-96952380D01*
X215404761Y-96904761D01*
X215452380Y-96857142D01*
X215500000Y-96761904D01*
X215500000Y-96476190D01*
X215452380Y-96380952D01*
X215404761Y-96333333D01*
X215309523Y-96285714D01*
X215119047Y-96285714D01*
X215023809Y-96333333D01*
X214452380Y-96952380D02*
X214547619Y-96904761D01*
X214595238Y-96857142D01*
X214642857Y-96761904D01*
X214642857Y-96476190D01*
X214595238Y-96380952D01*
X214547619Y-96333333D01*
X214452380Y-96285714D01*
X214309523Y-96285714D01*
X214214285Y-96333333D01*
X214166666Y-96380952D01*
X214119047Y-96476190D01*
X214119047Y-96761904D01*
X214166666Y-96857142D01*
X214214285Y-96904761D01*
X214309523Y-96952380D01*
X214452380Y-96952380D01*
X213690476Y-96952380D02*
X213690476Y-96285714D01*
X213690476Y-96380952D02*
X213642857Y-96333333D01*
X213547619Y-96285714D01*
X213404761Y-96285714D01*
X213309523Y-96333333D01*
X213261904Y-96428571D01*
X213261904Y-96952380D01*
X213261904Y-96428571D02*
X213214285Y-96333333D01*
X213119047Y-96285714D01*
X212976190Y-96285714D01*
X212880952Y-96333333D01*
X212833333Y-96428571D01*
X212833333Y-96952380D01*
X211642857Y-95904761D02*
X212500000Y-97190476D01*
X211357142Y-96904761D02*
X211261904Y-96952380D01*
X211071428Y-96952380D01*
X210976190Y-96904761D01*
X210928571Y-96809523D01*
X210928571Y-96761904D01*
X210976190Y-96666666D01*
X211071428Y-96619047D01*
X211214285Y-96619047D01*
X211309523Y-96571428D01*
X211357142Y-96476190D01*
X211357142Y-96428571D01*
X211309523Y-96333333D01*
X211214285Y-96285714D01*
X211071428Y-96285714D01*
X210976190Y-96333333D01*
X210500000Y-96952380D02*
X210500000Y-95952380D01*
X210404761Y-96571428D02*
X210119047Y-96952380D01*
X210119047Y-96285714D02*
X210500000Y-96666666D01*
X209261904Y-96952380D02*
X209261904Y-96428571D01*
X209309523Y-96333333D01*
X209404761Y-96285714D01*
X209595238Y-96285714D01*
X209690476Y-96333333D01*
X209261904Y-96904761D02*
X209357142Y-96952380D01*
X209595238Y-96952380D01*
X209690476Y-96904761D01*
X209738095Y-96809523D01*
X209738095Y-96714285D01*
X209690476Y-96619047D01*
X209595238Y-96571428D01*
X209357142Y-96571428D01*
X209261904Y-96523809D01*
X208785714Y-96952380D02*
X208785714Y-96285714D01*
X208785714Y-96476190D02*
X208738095Y-96380952D01*
X208690476Y-96333333D01*
X208595238Y-96285714D01*
X208500000Y-96285714D01*
X208166666Y-96952380D02*
X208166666Y-96285714D01*
X208166666Y-96476190D02*
X208119047Y-96380952D01*
X208071428Y-96333333D01*
X207976190Y-96285714D01*
X207880952Y-96285714D01*
X207547619Y-96952380D02*
X207547619Y-96285714D01*
X207547619Y-96380952D02*
X207500000Y-96333333D01*
X207404761Y-96285714D01*
X207261904Y-96285714D01*
X207166666Y-96333333D01*
X207119047Y-96428571D01*
X207119047Y-96952380D01*
X207119047Y-96428571D02*
X207071428Y-96333333D01*
X206976190Y-96285714D01*
X206833333Y-96285714D01*
X206738095Y-96333333D01*
X206690476Y-96428571D01*
X206690476Y-96952380D01*
X205785714Y-96952380D02*
X205785714Y-96428571D01*
X205833333Y-96333333D01*
X205928571Y-96285714D01*
X206119047Y-96285714D01*
X206214285Y-96333333D01*
X205785714Y-96904761D02*
X205880952Y-96952380D01*
X206119047Y-96952380D01*
X206214285Y-96904761D01*
X206261904Y-96809523D01*
X206261904Y-96714285D01*
X206214285Y-96619047D01*
X206119047Y-96571428D01*
X205880952Y-96571428D01*
X205785714Y-96523809D01*
X205309523Y-96285714D02*
X205309523Y-96952380D01*
X205309523Y-96380952D02*
X205261904Y-96333333D01*
X205166666Y-96285714D01*
X205023809Y-96285714D01*
X204928571Y-96333333D01*
X204880952Y-96428571D01*
X204880952Y-96952380D01*
X204404761Y-96285714D02*
X204404761Y-96952380D01*
X204404761Y-96380952D02*
X204357142Y-96333333D01*
X204261904Y-96285714D01*
X204119047Y-96285714D01*
X204023809Y-96333333D01*
X203976190Y-96428571D01*
X203976190Y-96952380D01*
X202785714Y-95904761D02*
X203642857Y-97190476D01*
X202452380Y-96952380D02*
X202452380Y-95952380D01*
X202023809Y-96952380D02*
X202023809Y-96428571D01*
X202071428Y-96333333D01*
X202166666Y-96285714D01*
X202309523Y-96285714D01*
X202404761Y-96333333D01*
X202452380Y-96380952D01*
X201404761Y-96952380D02*
X201500000Y-96904761D01*
X201547619Y-96857142D01*
X201595238Y-96761904D01*
X201595238Y-96476190D01*
X201547619Y-96380952D01*
X201500000Y-96333333D01*
X201404761Y-96285714D01*
X201261904Y-96285714D01*
X201166666Y-96333333D01*
X201119047Y-96380952D01*
X201071428Y-96476190D01*
X201071428Y-96761904D01*
X201119047Y-96857142D01*
X201166666Y-96904761D01*
X201261904Y-96952380D01*
X201404761Y-96952380D01*
X200642857Y-96952380D02*
X200642857Y-96285714D01*
X200642857Y-96476190D02*
X200595238Y-96380952D01*
X200547619Y-96333333D01*
X200452380Y-96285714D01*
X200357142Y-96285714D01*
X200023809Y-96952380D02*
X200023809Y-96285714D01*
X200023809Y-95952380D02*
X200071428Y-96000000D01*
X200023809Y-96047619D01*
X199976190Y-96000000D01*
X200023809Y-95952380D01*
X200023809Y-96047619D01*
X199642857Y-96285714D02*
X199119047Y-96285714D01*
X199642857Y-96952380D01*
X199119047Y-96952380D01*
X198595238Y-96952380D02*
X198690476Y-96904761D01*
X198738095Y-96857142D01*
X198785714Y-96761904D01*
X198785714Y-96476190D01*
X198738095Y-96380952D01*
X198690476Y-96333333D01*
X198595238Y-96285714D01*
X198452380Y-96285714D01*
X198357142Y-96333333D01*
X198309523Y-96380952D01*
X198261904Y-96476190D01*
X198261904Y-96761904D01*
X198309523Y-96857142D01*
X198357142Y-96904761D01*
X198452380Y-96952380D01*
X198595238Y-96952380D01*
X197833333Y-96285714D02*
X197833333Y-96952380D01*
X197833333Y-96380952D02*
X197785714Y-96333333D01*
X197690476Y-96285714D01*
X197547619Y-96285714D01*
X197452380Y-96333333D01*
X197404761Y-96428571D01*
X197404761Y-96952380D01*
X212642857Y-117952380D02*
X212642857Y-117285714D01*
X212642857Y-117476190D02*
X212595238Y-117380952D01*
X212547619Y-117333333D01*
X212452380Y-117285714D01*
X212357142Y-117285714D01*
X211642857Y-117904761D02*
X211738095Y-117952380D01*
X211928571Y-117952380D01*
X212023809Y-117904761D01*
X212071428Y-117809523D01*
X212071428Y-117428571D01*
X212023809Y-117333333D01*
X211928571Y-117285714D01*
X211738095Y-117285714D01*
X211642857Y-117333333D01*
X211595238Y-117428571D01*
X211595238Y-117523809D01*
X212071428Y-117619047D01*
X211261904Y-117285714D02*
X211023809Y-117952380D01*
X210785714Y-117285714D01*
X210452380Y-117047619D02*
X210404761Y-117000000D01*
X210309523Y-116952380D01*
X210071428Y-116952380D01*
X209976190Y-117000000D01*
X209928571Y-117047619D01*
X209880952Y-117142857D01*
X209880952Y-117238095D01*
X209928571Y-117380952D01*
X210500000Y-117952380D01*
X209880952Y-117952380D01*
X208452380Y-118285714D02*
X208452380Y-116857142D01*
X206976190Y-117952380D02*
X206976190Y-116952380D01*
X206642857Y-117666666D01*
X206309523Y-116952380D01*
X206309523Y-117952380D01*
X205928571Y-116952380D02*
X205261904Y-117952380D01*
X205261904Y-116952380D02*
X205928571Y-117952380D01*
X213619047Y-130952380D02*
X213619047Y-131666666D01*
X213666666Y-131809523D01*
X213761904Y-131904761D01*
X213904761Y-131952380D01*
X214000000Y-131952380D01*
X212666666Y-131952380D02*
X213142857Y-131952380D01*
X213142857Y-130952380D01*
X211761904Y-131857142D02*
X211809523Y-131904761D01*
X211952380Y-131952380D01*
X212047619Y-131952380D01*
X212190476Y-131904761D01*
X212285714Y-131809523D01*
X212333333Y-131714285D01*
X212380952Y-131523809D01*
X212380952Y-131380952D01*
X212333333Y-131190476D01*
X212285714Y-131095238D01*
X212190476Y-131000000D01*
X212047619Y-130952380D01*
X211952380Y-130952380D01*
X211809523Y-131000000D01*
X211761904Y-131047619D01*
X211047619Y-130952380D02*
X211047619Y-131666666D01*
X211095238Y-131809523D01*
X211190476Y-131904761D01*
X211333333Y-131952380D01*
X211428571Y-131952380D01*
X210095238Y-131952380D02*
X210571428Y-131952380D01*
X210571428Y-130952380D01*
X209190476Y-131857142D02*
X209238095Y-131904761D01*
X209380952Y-131952380D01*
X209476190Y-131952380D01*
X209619047Y-131904761D01*
X209714285Y-131809523D01*
X209761904Y-131714285D01*
X209809523Y-131523809D01*
X209809523Y-131380952D01*
X209761904Y-131190476D01*
X209714285Y-131095238D01*
X209619047Y-131000000D01*
X209476190Y-130952380D01*
X209380952Y-130952380D01*
X209238095Y-131000000D01*
X209190476Y-131047619D01*
X208476190Y-130952380D02*
X208476190Y-131666666D01*
X208523809Y-131809523D01*
X208619047Y-131904761D01*
X208761904Y-131952380D01*
X208857142Y-131952380D01*
X207523809Y-131952380D02*
X208000000Y-131952380D01*
X208000000Y-130952380D01*
X206619047Y-131857142D02*
X206666666Y-131904761D01*
X206809523Y-131952380D01*
X206904761Y-131952380D01*
X207047619Y-131904761D01*
X207142857Y-131809523D01*
X207190476Y-131714285D01*
X207238095Y-131523809D01*
X207238095Y-131380952D01*
X207190476Y-131190476D01*
X207142857Y-131095238D01*
X207047619Y-131000000D01*
X206904761Y-130952380D01*
X206809523Y-130952380D01*
X206666666Y-131000000D01*
X206619047Y-131047619D01*
X205904761Y-130952380D02*
X205904761Y-131666666D01*
X205952380Y-131809523D01*
X206047619Y-131904761D01*
X206190476Y-131952380D01*
X206285714Y-131952380D01*
X204952380Y-131952380D02*
X205428571Y-131952380D01*
X205428571Y-130952380D01*
X204047619Y-131857142D02*
X204095238Y-131904761D01*
X204238095Y-131952380D01*
X204333333Y-131952380D01*
X204476190Y-131904761D01*
X204571428Y-131809523D01*
X204619047Y-131714285D01*
X204666666Y-131523809D01*
X204666666Y-131380952D01*
X204619047Y-131190476D01*
X204571428Y-131095238D01*
X204476190Y-131000000D01*
X204333333Y-130952380D01*
X204238095Y-130952380D01*
X204095238Y-131000000D01*
X204047619Y-131047619D01*
D11*
G36*
X214222169Y-111695895D02*
G01*
X213888794Y-112029269D01*
X213888794Y-113676389D01*
X213000500Y-113676389D01*
X213000500Y-113102422D01*
X212555294Y-113102422D01*
X212555294Y-113676389D01*
X210333500Y-113676389D01*
X210333500Y-113546215D01*
X210490309Y-113389405D01*
X210647118Y-113232594D01*
X210823503Y-113232595D01*
X210999887Y-113232595D01*
X211111195Y-113121295D01*
X211222502Y-113009996D01*
X211222501Y-113009994D01*
X210241071Y-113009994D01*
X210065036Y-113186028D01*
X209889000Y-113362063D01*
X209889000Y-113676389D01*
X206778206Y-113676389D01*
X206778206Y-113232595D01*
X206333000Y-113232595D01*
X206333000Y-113676389D01*
X204111206Y-113676389D01*
X204111206Y-112212712D01*
X204193579Y-112130515D01*
X204203118Y-112120997D01*
X204212714Y-112111424D01*
X204222290Y-112101872D01*
X204231764Y-112092423D01*
X204241059Y-112083154D01*
X204250096Y-112074144D01*
X204258793Y-112065473D01*
X204267074Y-112057220D01*
X204274857Y-112049463D01*
X204282065Y-112042282D01*
X204288617Y-112035756D01*
X204294435Y-112029963D01*
X204299439Y-112024983D01*
X204303550Y-112020894D01*
X204304705Y-112019745D01*
X204333458Y-111991174D01*
X204555706Y-112213418D01*
X204555706Y-113009993D01*
X204666831Y-113121117D01*
X204777956Y-113232240D01*
X204889081Y-113121117D01*
X205000206Y-113009993D01*
X205000206Y-112212715D01*
X205313824Y-111899095D01*
X205443998Y-111899094D01*
X205574172Y-111899094D01*
X205444000Y-112029272D01*
X205444000Y-112657213D01*
X206019380Y-113232595D01*
X206333000Y-113232595D01*
X206778206Y-113232595D01*
X206778206Y-113101716D01*
X207000102Y-112879816D01*
X207333301Y-113213015D01*
X207666500Y-113546213D01*
X207666500Y-112213418D01*
X207667205Y-112212713D01*
X206777500Y-112212713D01*
X206777500Y-112473768D01*
X206620691Y-112630579D01*
X206463882Y-112787389D01*
X206202826Y-112787389D01*
X205889206Y-112473771D01*
X205889206Y-112212715D01*
X206046015Y-112055905D01*
X206202824Y-111899094D01*
X206333352Y-111899095D01*
X206463879Y-111899095D01*
X206620690Y-112055904D01*
X206777500Y-112212713D01*
X207667205Y-112212713D01*
X207777625Y-112102294D01*
X207888750Y-111991171D01*
X207999875Y-112102295D01*
X208111000Y-112213418D01*
X208111000Y-112657215D01*
X208444346Y-112990560D01*
X208462545Y-113008758D01*
X208480497Y-113026707D01*
X208498177Y-113044382D01*
X208515559Y-113061757D01*
X208532617Y-113078806D01*
X208549324Y-113095503D01*
X208565656Y-113111823D01*
X208581586Y-113127739D01*
X208597088Y-113143226D01*
X208612137Y-113158258D01*
X208626706Y-113172809D01*
X208640770Y-113186854D01*
X208654304Y-113200365D01*
X208667280Y-113213319D01*
X208679673Y-113225689D01*
X208691458Y-113237448D01*
X208702608Y-113248572D01*
X208713097Y-113259034D01*
X208722901Y-113268809D01*
X208731992Y-113277871D01*
X208740345Y-113286193D01*
X208747934Y-113293751D01*
X208754733Y-113300518D01*
X208760717Y-113306469D01*
X208765859Y-113311577D01*
X208770134Y-113315818D01*
X208773516Y-113319164D01*
X208775978Y-113321591D01*
X208777496Y-113323072D01*
X208778042Y-113323582D01*
X208778044Y-113323582D01*
X208778561Y-113323066D01*
X208780045Y-113321585D01*
X208782462Y-113319169D01*
X208785783Y-113315851D01*
X208789974Y-113311662D01*
X208795005Y-113306634D01*
X208800842Y-113300799D01*
X208807456Y-113294188D01*
X208814813Y-113286834D01*
X208822882Y-113278767D01*
X208831632Y-113270020D01*
X208841030Y-113260625D01*
X208851046Y-113250612D01*
X208861646Y-113240015D01*
X208872799Y-113228864D01*
X208884475Y-113217192D01*
X208896640Y-113205029D01*
X208909263Y-113192409D01*
X208922312Y-113179362D01*
X208935756Y-113165921D01*
X208949563Y-113152117D01*
X208963701Y-113137981D01*
X208978138Y-113123547D01*
X208992843Y-113108844D01*
X209000149Y-113101540D01*
X209221902Y-112879821D01*
X209666396Y-113324317D01*
X209888648Y-113102066D01*
X210110899Y-112879816D01*
X210241071Y-113009994D01*
X211222501Y-113009994D01*
X211111201Y-112898692D01*
X210999899Y-112787389D01*
X210647121Y-112787389D01*
X210490310Y-112630580D01*
X210333500Y-112473771D01*
X210333500Y-112212599D01*
X210490437Y-112055847D01*
X210647374Y-111899094D01*
X211351959Y-111899094D01*
X211286877Y-111964191D01*
X211221794Y-112029287D01*
X211221794Y-112657213D01*
X211797174Y-113232595D01*
X212425117Y-113232595D01*
X212490206Y-113167508D01*
X212555294Y-113102422D01*
X213000500Y-113102422D01*
X213000500Y-112212713D01*
X212555294Y-112212713D01*
X212555294Y-112473768D01*
X212398485Y-112630579D01*
X212241676Y-112787389D01*
X211980621Y-112787389D01*
X211823810Y-112630580D01*
X211667000Y-112473771D01*
X211667000Y-112212715D01*
X211823809Y-112055905D01*
X211980618Y-111899094D01*
X212111146Y-111899095D01*
X212241674Y-111899095D01*
X212555294Y-112212713D01*
X213000500Y-112212713D01*
X213000500Y-112029274D01*
X212713164Y-111741934D01*
X212425827Y-111454595D01*
X211444398Y-111454595D01*
X210462969Y-111454594D01*
X210175984Y-111741580D01*
X209889000Y-112028565D01*
X209889000Y-112473066D01*
X209777698Y-112584366D01*
X209666396Y-112695667D01*
X209555448Y-112584717D01*
X209444500Y-112473768D01*
X209444500Y-111676490D01*
X209333375Y-111565367D01*
X209222250Y-111454243D01*
X209111125Y-111565367D01*
X209000000Y-111676490D01*
X209000000Y-112473066D01*
X208777750Y-112695312D01*
X208555500Y-112473066D01*
X208555500Y-112029264D01*
X208222448Y-111696245D01*
X208204255Y-111678053D01*
X208186308Y-111660108D01*
X208168634Y-111642436D01*
X208151258Y-111625062D01*
X208134206Y-111608013D01*
X208117505Y-111591314D01*
X208101180Y-111574991D01*
X208085257Y-111559070D01*
X208069761Y-111543576D01*
X208054720Y-111528537D01*
X208040158Y-111513977D01*
X208026101Y-111499923D01*
X208012576Y-111486400D01*
X207999609Y-111473435D01*
X207987224Y-111461052D01*
X207975449Y-111449279D01*
X207964308Y-111438141D01*
X207953828Y-111427663D01*
X207944036Y-111417873D01*
X207934955Y-111408795D01*
X207926614Y-111400455D01*
X207919036Y-111392880D01*
X207912249Y-111386095D01*
X207906279Y-111380126D01*
X207901150Y-111374999D01*
X207896889Y-111370741D01*
X207893522Y-111367376D01*
X207891075Y-111364930D01*
X207889574Y-111363430D01*
X207889044Y-111362902D01*
X207888530Y-111363379D01*
X207887044Y-111364828D01*
X207884613Y-111367223D01*
X207881262Y-111370540D01*
X207877016Y-111374750D01*
X207871903Y-111379830D01*
X207865947Y-111385753D01*
X207859174Y-111392493D01*
X207851611Y-111400025D01*
X207843283Y-111408322D01*
X207834217Y-111417359D01*
X207824437Y-111427110D01*
X207813971Y-111437549D01*
X207802843Y-111448651D01*
X207791080Y-111460389D01*
X207778707Y-111472737D01*
X207765751Y-111485671D01*
X207752237Y-111499164D01*
X207738192Y-111513190D01*
X207723640Y-111527723D01*
X207708608Y-111542738D01*
X207693122Y-111558208D01*
X207677208Y-111574109D01*
X207660891Y-111590414D01*
X207644198Y-111607097D01*
X207627153Y-111624132D01*
X207609785Y-111641494D01*
X207592117Y-111659157D01*
X207574176Y-111677095D01*
X207555987Y-111695282D01*
X207555522Y-111695748D01*
X207222352Y-112028917D01*
X206935192Y-111741756D01*
X206648031Y-111454595D01*
X205888853Y-111454594D01*
X205129674Y-111454594D01*
X204953639Y-111630631D01*
X204777604Y-111806667D01*
X204555706Y-111584770D01*
X204540876Y-111569941D01*
X204526297Y-111555367D01*
X204511999Y-111541077D01*
X204498016Y-111527105D01*
X204484379Y-111513481D01*
X204471119Y-111500237D01*
X204458269Y-111487405D01*
X204445860Y-111475017D01*
X204433924Y-111463104D01*
X204422492Y-111451698D01*
X204411597Y-111440831D01*
X204401270Y-111430534D01*
X204391544Y-111420839D01*
X204382449Y-111411778D01*
X204374018Y-111403383D01*
X204366283Y-111395684D01*
X204359275Y-111388715D01*
X204353026Y-111382505D01*
X204347567Y-111377089D01*
X204342932Y-111372496D01*
X204339151Y-111368758D01*
X204336256Y-111365908D01*
X204334279Y-111363977D01*
X204333251Y-111362996D01*
X204333104Y-111362872D01*
X204332571Y-111363367D01*
X204331066Y-111364834D01*
X204328615Y-111367247D01*
X204325245Y-111370581D01*
X204320981Y-111374809D01*
X204315849Y-111379906D01*
X204309874Y-111385845D01*
X204303084Y-111392602D01*
X204295504Y-111400150D01*
X204287159Y-111408463D01*
X204278076Y-111417515D01*
X204268280Y-111427281D01*
X204257798Y-111437734D01*
X204246655Y-111448849D01*
X204234878Y-111460600D01*
X204222492Y-111472961D01*
X204209524Y-111485907D01*
X204195998Y-111499410D01*
X204181941Y-111513446D01*
X204167380Y-111527988D01*
X204152339Y-111543011D01*
X204136845Y-111558489D01*
X204120924Y-111574396D01*
X204104601Y-111590706D01*
X204087903Y-111607393D01*
X204070856Y-111624431D01*
X204053485Y-111641795D01*
X204035816Y-111659458D01*
X204017876Y-111677395D01*
X203999690Y-111695580D01*
X203999553Y-111695717D01*
X203666706Y-112028563D01*
X203666706Y-113676389D01*
X203352380Y-113676389D01*
X202777706Y-114251065D01*
X202777706Y-115768715D01*
X203444456Y-116435463D01*
X204111206Y-115768715D01*
X204111206Y-114120889D01*
X203666706Y-114120889D01*
X203666706Y-115584562D01*
X203555758Y-115695512D01*
X203545307Y-115705961D01*
X203535121Y-115716143D01*
X203525242Y-115726014D01*
X203515718Y-115735529D01*
X203506591Y-115744642D01*
X203497909Y-115753310D01*
X203489714Y-115761487D01*
X203482053Y-115769128D01*
X203474970Y-115776189D01*
X203468510Y-115782625D01*
X203462719Y-115788391D01*
X203457641Y-115793443D01*
X203453321Y-115797734D01*
X203449804Y-115801222D01*
X203447134Y-115803860D01*
X203445358Y-115805604D01*
X203444520Y-115806409D01*
X203444457Y-115806461D01*
X203443932Y-115805970D01*
X203442455Y-115804525D01*
X203440070Y-115802171D01*
X203436823Y-115798954D01*
X203432758Y-115794918D01*
X203427920Y-115790108D01*
X203422354Y-115784568D01*
X203416106Y-115778344D01*
X203409220Y-115771481D01*
X203401741Y-115764023D01*
X203393714Y-115756014D01*
X203385184Y-115747501D01*
X203376197Y-115738527D01*
X203366796Y-115729137D01*
X203357027Y-115719377D01*
X203346935Y-115709290D01*
X203336565Y-115698923D01*
X203333155Y-115695513D01*
X203222206Y-115584566D01*
X203222206Y-114435215D01*
X203379368Y-114278052D01*
X203536529Y-114120889D01*
X203666706Y-114120889D01*
X204111206Y-114120889D01*
X206333000Y-114120889D01*
X206333000Y-115768009D01*
X206666552Y-116101560D01*
X207000103Y-116435111D01*
X207333302Y-116101912D01*
X207666500Y-115768713D01*
X207666500Y-115121012D01*
X207444250Y-114898766D01*
X207222000Y-115121012D01*
X207222000Y-115584566D01*
X207111051Y-115695513D01*
X207000101Y-115806461D01*
X206889153Y-115695512D01*
X206778206Y-115584562D01*
X206778206Y-114120889D01*
X209889000Y-114120889D01*
X209889037Y-114852726D01*
X209889073Y-115584564D01*
X209777750Y-115695527D01*
X209666428Y-115806490D01*
X209444500Y-115584566D01*
X209444500Y-115121012D01*
X209222250Y-114898766D01*
X209000000Y-115121012D01*
X209000000Y-115768715D01*
X209666750Y-116435463D01*
X210333500Y-115768715D01*
X210333500Y-114120889D01*
X212555294Y-114120889D01*
X212555294Y-115584566D01*
X212444345Y-115695513D01*
X212333396Y-115806461D01*
X212222448Y-115695512D01*
X212111500Y-115584562D01*
X212111500Y-115121016D01*
X212000552Y-115010066D01*
X211990099Y-114999615D01*
X211979905Y-114989431D01*
X211970018Y-114979559D01*
X211960482Y-114970043D01*
X211951341Y-114960928D01*
X211942642Y-114952259D01*
X211934429Y-114944081D01*
X211926747Y-114936439D01*
X211919642Y-114929378D01*
X211913158Y-114922942D01*
X211907342Y-114917176D01*
X211902237Y-114912125D01*
X211897889Y-114907834D01*
X211894343Y-114904349D01*
X211891645Y-114901712D01*
X211889839Y-114899970D01*
X211888970Y-114899168D01*
X211888897Y-114899117D01*
X211888339Y-114899609D01*
X211886829Y-114901054D01*
X211884411Y-114903408D01*
X211881132Y-114906627D01*
X211877037Y-114910664D01*
X211872170Y-114915476D01*
X211866576Y-114921017D01*
X211860302Y-114927243D01*
X211853391Y-114934109D01*
X211845890Y-114941570D01*
X211837842Y-114949581D01*
X211829294Y-114958097D01*
X211820290Y-114967074D01*
X211810875Y-114976466D01*
X211801096Y-114986229D01*
X211790996Y-114996318D01*
X211780621Y-115006688D01*
X211777242Y-115010066D01*
X211666294Y-115121016D01*
X211666294Y-115768009D01*
X212333398Y-116435111D01*
X212666949Y-116101559D01*
X213000500Y-115768008D01*
X213000500Y-114120889D01*
X213888794Y-114120889D01*
X213888794Y-115768715D01*
X214221993Y-116101913D01*
X214240189Y-116120108D01*
X214258139Y-116138056D01*
X214275816Y-116155730D01*
X214293194Y-116173105D01*
X214310248Y-116190155D01*
X214326953Y-116206854D01*
X214343281Y-116223176D01*
X214359207Y-116239095D01*
X214374706Y-116254586D01*
X214389751Y-116269622D01*
X214404317Y-116284178D01*
X214418377Y-116298228D01*
X214431906Y-116311746D01*
X214444878Y-116324706D01*
X214457267Y-116337083D01*
X214469047Y-116348849D01*
X214480192Y-116359981D01*
X214490677Y-116370451D01*
X214500475Y-116380235D01*
X214509561Y-116389305D01*
X214517908Y-116397637D01*
X214525492Y-116405203D01*
X214532285Y-116411980D01*
X214538262Y-116417940D01*
X214543398Y-116423058D01*
X214547666Y-116427308D01*
X214551041Y-116430664D01*
X214553496Y-116433101D01*
X214555006Y-116434591D01*
X214555544Y-116435111D01*
X214555545Y-116435111D01*
X214556059Y-116434617D01*
X214557545Y-116433150D01*
X214559976Y-116430737D01*
X214563328Y-116427404D01*
X214567574Y-116423176D01*
X214572688Y-116418079D01*
X214578645Y-116412140D01*
X214585418Y-116405383D01*
X214592982Y-116397836D01*
X214601310Y-116389523D01*
X214610378Y-116380471D01*
X214620158Y-116370706D01*
X214630626Y-116360252D01*
X214641755Y-116349137D01*
X214653519Y-116337386D01*
X214665893Y-116325024D01*
X214678851Y-116312078D01*
X214692366Y-116298574D01*
X214706413Y-116284537D01*
X214720967Y-116269994D01*
X214736000Y-116254969D01*
X214751488Y-116239489D01*
X214767404Y-116223581D01*
X214783722Y-116207268D01*
X214800417Y-116190579D01*
X214817463Y-116173537D01*
X214834834Y-116156170D01*
X214852503Y-116138503D01*
X214870446Y-116120562D01*
X214889096Y-116101912D01*
X215222294Y-115768713D01*
X215222294Y-114435213D01*
X214777795Y-114435213D01*
X214777794Y-115009888D01*
X214777794Y-115584562D01*
X214666847Y-115695512D01*
X214656396Y-115705961D01*
X214646210Y-115716143D01*
X214636331Y-115726014D01*
X214626807Y-115735529D01*
X214617680Y-115744642D01*
X214608997Y-115753310D01*
X214600803Y-115761487D01*
X214593142Y-115769128D01*
X214586059Y-115776189D01*
X214579599Y-115782625D01*
X214573808Y-115788391D01*
X214568730Y-115793443D01*
X214564410Y-115797734D01*
X214560892Y-115801222D01*
X214558223Y-115803860D01*
X214556447Y-115805604D01*
X214555609Y-115806409D01*
X214555546Y-115806461D01*
X214555021Y-115805970D01*
X214553544Y-115804525D01*
X214551159Y-115802171D01*
X214547912Y-115798954D01*
X214543847Y-115794918D01*
X214539009Y-115790108D01*
X214533443Y-115784568D01*
X214527195Y-115778344D01*
X214520309Y-115771481D01*
X214512830Y-115764023D01*
X214504803Y-115756014D01*
X214496273Y-115747501D01*
X214487286Y-115738527D01*
X214477885Y-115729137D01*
X214468116Y-115719377D01*
X214458024Y-115709290D01*
X214447654Y-115698923D01*
X214444244Y-115695513D01*
X214333294Y-115584566D01*
X214333294Y-114120889D01*
X214463468Y-114120889D01*
X214620631Y-114278051D01*
X214777795Y-114435213D01*
X215222294Y-114435213D01*
X215222294Y-114251063D01*
X214934957Y-113963726D01*
X214647619Y-113676389D01*
X214333294Y-113676389D01*
X214333294Y-112213418D01*
X214444419Y-112102295D01*
X214555544Y-111991171D01*
X214666669Y-112102294D01*
X214777794Y-112213418D01*
X214777794Y-112676971D01*
X214888919Y-112788095D01*
X215000044Y-112899218D01*
X215111169Y-112788095D01*
X215222294Y-112676971D01*
X215222294Y-112029269D01*
X214888919Y-111695895D01*
X214555545Y-111362520D01*
X214222169Y-111695895D01*
X214222169Y-111695895D01*
G37*
X214222169Y-111695895D02*
X213888794Y-112029269D01*
X213888794Y-113676389D01*
X213000500Y-113676389D01*
X213000500Y-113102422D01*
X212555294Y-113102422D01*
X212555294Y-113676389D01*
X210333500Y-113676389D01*
X210333500Y-113546215D01*
X210490309Y-113389405D01*
X210647118Y-113232594D01*
X210823503Y-113232595D01*
X210999887Y-113232595D01*
X211111195Y-113121295D01*
X211222502Y-113009996D01*
X211222501Y-113009994D01*
X210241071Y-113009994D01*
X210065036Y-113186028D01*
X209889000Y-113362063D01*
X209889000Y-113676389D01*
X206778206Y-113676389D01*
X206778206Y-113232595D01*
X206333000Y-113232595D01*
X206333000Y-113676389D01*
X204111206Y-113676389D01*
X204111206Y-112212712D01*
X204193579Y-112130515D01*
X204203118Y-112120997D01*
X204212714Y-112111424D01*
X204222290Y-112101872D01*
X204231764Y-112092423D01*
X204241059Y-112083154D01*
X204250096Y-112074144D01*
X204258793Y-112065473D01*
X204267074Y-112057220D01*
X204274857Y-112049463D01*
X204282065Y-112042282D01*
X204288617Y-112035756D01*
X204294435Y-112029963D01*
X204299439Y-112024983D01*
X204303550Y-112020894D01*
X204304705Y-112019745D01*
X204333458Y-111991174D01*
X204555706Y-112213418D01*
X204555706Y-113009993D01*
X204666831Y-113121117D01*
X204777956Y-113232240D01*
X204889081Y-113121117D01*
X205000206Y-113009993D01*
X205000206Y-112212715D01*
X205313824Y-111899095D01*
X205443998Y-111899094D01*
X205574172Y-111899094D01*
X205444000Y-112029272D01*
X205444000Y-112657213D01*
X206019380Y-113232595D01*
X206333000Y-113232595D01*
X206778206Y-113232595D01*
X206778206Y-113101716D01*
X207000102Y-112879816D01*
X207333301Y-113213015D01*
X207666500Y-113546213D01*
X207666500Y-112213418D01*
X207667205Y-112212713D01*
X206777500Y-112212713D01*
X206777500Y-112473768D01*
X206620691Y-112630579D01*
X206463882Y-112787389D01*
X206202826Y-112787389D01*
X205889206Y-112473771D01*
X205889206Y-112212715D01*
X206046015Y-112055905D01*
X206202824Y-111899094D01*
X206333352Y-111899095D01*
X206463879Y-111899095D01*
X206620690Y-112055904D01*
X206777500Y-112212713D01*
X207667205Y-112212713D01*
X207777625Y-112102294D01*
X207888750Y-111991171D01*
X207999875Y-112102295D01*
X208111000Y-112213418D01*
X208111000Y-112657215D01*
X208444346Y-112990560D01*
X208462545Y-113008758D01*
X208480497Y-113026707D01*
X208498177Y-113044382D01*
X208515559Y-113061757D01*
X208532617Y-113078806D01*
X208549324Y-113095503D01*
X208565656Y-113111823D01*
X208581586Y-113127739D01*
X208597088Y-113143226D01*
X208612137Y-113158258D01*
X208626706Y-113172809D01*
X208640770Y-113186854D01*
X208654304Y-113200365D01*
X208667280Y-113213319D01*
X208679673Y-113225689D01*
X208691458Y-113237448D01*
X208702608Y-113248572D01*
X208713097Y-113259034D01*
X208722901Y-113268809D01*
X208731992Y-113277871D01*
X208740345Y-113286193D01*
X208747934Y-113293751D01*
X208754733Y-113300518D01*
X208760717Y-113306469D01*
X208765859Y-113311577D01*
X208770134Y-113315818D01*
X208773516Y-113319164D01*
X208775978Y-113321591D01*
X208777496Y-113323072D01*
X208778042Y-113323582D01*
X208778044Y-113323582D01*
X208778561Y-113323066D01*
X208780045Y-113321585D01*
X208782462Y-113319169D01*
X208785783Y-113315851D01*
X208789974Y-113311662D01*
X208795005Y-113306634D01*
X208800842Y-113300799D01*
X208807456Y-113294188D01*
X208814813Y-113286834D01*
X208822882Y-113278767D01*
X208831632Y-113270020D01*
X208841030Y-113260625D01*
X208851046Y-113250612D01*
X208861646Y-113240015D01*
X208872799Y-113228864D01*
X208884475Y-113217192D01*
X208896640Y-113205029D01*
X208909263Y-113192409D01*
X208922312Y-113179362D01*
X208935756Y-113165921D01*
X208949563Y-113152117D01*
X208963701Y-113137981D01*
X208978138Y-113123547D01*
X208992843Y-113108844D01*
X209000149Y-113101540D01*
X209221902Y-112879821D01*
X209666396Y-113324317D01*
X209888648Y-113102066D01*
X210110899Y-112879816D01*
X210241071Y-113009994D01*
X211222501Y-113009994D01*
X211111201Y-112898692D01*
X210999899Y-112787389D01*
X210647121Y-112787389D01*
X210490310Y-112630580D01*
X210333500Y-112473771D01*
X210333500Y-112212599D01*
X210490437Y-112055847D01*
X210647374Y-111899094D01*
X211351959Y-111899094D01*
X211286877Y-111964191D01*
X211221794Y-112029287D01*
X211221794Y-112657213D01*
X211797174Y-113232595D01*
X212425117Y-113232595D01*
X212490206Y-113167508D01*
X212555294Y-113102422D01*
X213000500Y-113102422D01*
X213000500Y-112212713D01*
X212555294Y-112212713D01*
X212555294Y-112473768D01*
X212398485Y-112630579D01*
X212241676Y-112787389D01*
X211980621Y-112787389D01*
X211823810Y-112630580D01*
X211667000Y-112473771D01*
X211667000Y-112212715D01*
X211823809Y-112055905D01*
X211980618Y-111899094D01*
X212111146Y-111899095D01*
X212241674Y-111899095D01*
X212555294Y-112212713D01*
X213000500Y-112212713D01*
X213000500Y-112029274D01*
X212713164Y-111741934D01*
X212425827Y-111454595D01*
X211444398Y-111454595D01*
X210462969Y-111454594D01*
X210175984Y-111741580D01*
X209889000Y-112028565D01*
X209889000Y-112473066D01*
X209777698Y-112584366D01*
X209666396Y-112695667D01*
X209555448Y-112584717D01*
X209444500Y-112473768D01*
X209444500Y-111676490D01*
X209333375Y-111565367D01*
X209222250Y-111454243D01*
X209111125Y-111565367D01*
X209000000Y-111676490D01*
X209000000Y-112473066D01*
X208777750Y-112695312D01*
X208555500Y-112473066D01*
X208555500Y-112029264D01*
X208222448Y-111696245D01*
X208204255Y-111678053D01*
X208186308Y-111660108D01*
X208168634Y-111642436D01*
X208151258Y-111625062D01*
X208134206Y-111608013D01*
X208117505Y-111591314D01*
X208101180Y-111574991D01*
X208085257Y-111559070D01*
X208069761Y-111543576D01*
X208054720Y-111528537D01*
X208040158Y-111513977D01*
X208026101Y-111499923D01*
X208012576Y-111486400D01*
X207999609Y-111473435D01*
X207987224Y-111461052D01*
X207975449Y-111449279D01*
X207964308Y-111438141D01*
X207953828Y-111427663D01*
X207944036Y-111417873D01*
X207934955Y-111408795D01*
X207926614Y-111400455D01*
X207919036Y-111392880D01*
X207912249Y-111386095D01*
X207906279Y-111380126D01*
X207901150Y-111374999D01*
X207896889Y-111370741D01*
X207893522Y-111367376D01*
X207891075Y-111364930D01*
X207889574Y-111363430D01*
X207889044Y-111362902D01*
X207888530Y-111363379D01*
X207887044Y-111364828D01*
X207884613Y-111367223D01*
X207881262Y-111370540D01*
X207877016Y-111374750D01*
X207871903Y-111379830D01*
X207865947Y-111385753D01*
X207859174Y-111392493D01*
X207851611Y-111400025D01*
X207843283Y-111408322D01*
X207834217Y-111417359D01*
X207824437Y-111427110D01*
X207813971Y-111437549D01*
X207802843Y-111448651D01*
X207791080Y-111460389D01*
X207778707Y-111472737D01*
X207765751Y-111485671D01*
X207752237Y-111499164D01*
X207738192Y-111513190D01*
X207723640Y-111527723D01*
X207708608Y-111542738D01*
X207693122Y-111558208D01*
X207677208Y-111574109D01*
X207660891Y-111590414D01*
X207644198Y-111607097D01*
X207627153Y-111624132D01*
X207609785Y-111641494D01*
X207592117Y-111659157D01*
X207574176Y-111677095D01*
X207555987Y-111695282D01*
X207555522Y-111695748D01*
X207222352Y-112028917D01*
X206935192Y-111741756D01*
X206648031Y-111454595D01*
X205888853Y-111454594D01*
X205129674Y-111454594D01*
X204953639Y-111630631D01*
X204777604Y-111806667D01*
X204555706Y-111584770D01*
X204540876Y-111569941D01*
X204526297Y-111555367D01*
X204511999Y-111541077D01*
X204498016Y-111527105D01*
X204484379Y-111513481D01*
X204471119Y-111500237D01*
X204458269Y-111487405D01*
X204445860Y-111475017D01*
X204433924Y-111463104D01*
X204422492Y-111451698D01*
X204411597Y-111440831D01*
X204401270Y-111430534D01*
X204391544Y-111420839D01*
X204382449Y-111411778D01*
X204374018Y-111403383D01*
X204366283Y-111395684D01*
X204359275Y-111388715D01*
X204353026Y-111382505D01*
X204347567Y-111377089D01*
X204342932Y-111372496D01*
X204339151Y-111368758D01*
X204336256Y-111365908D01*
X204334279Y-111363977D01*
X204333251Y-111362996D01*
X204333104Y-111362872D01*
X204332571Y-111363367D01*
X204331066Y-111364834D01*
X204328615Y-111367247D01*
X204325245Y-111370581D01*
X204320981Y-111374809D01*
X204315849Y-111379906D01*
X204309874Y-111385845D01*
X204303084Y-111392602D01*
X204295504Y-111400150D01*
X204287159Y-111408463D01*
X204278076Y-111417515D01*
X204268280Y-111427281D01*
X204257798Y-111437734D01*
X204246655Y-111448849D01*
X204234878Y-111460600D01*
X204222492Y-111472961D01*
X204209524Y-111485907D01*
X204195998Y-111499410D01*
X204181941Y-111513446D01*
X204167380Y-111527988D01*
X204152339Y-111543011D01*
X204136845Y-111558489D01*
X204120924Y-111574396D01*
X204104601Y-111590706D01*
X204087903Y-111607393D01*
X204070856Y-111624431D01*
X204053485Y-111641795D01*
X204035816Y-111659458D01*
X204017876Y-111677395D01*
X203999690Y-111695580D01*
X203999553Y-111695717D01*
X203666706Y-112028563D01*
X203666706Y-113676389D01*
X203352380Y-113676389D01*
X202777706Y-114251065D01*
X202777706Y-115768715D01*
X203444456Y-116435463D01*
X204111206Y-115768715D01*
X204111206Y-114120889D01*
X203666706Y-114120889D01*
X203666706Y-115584562D01*
X203555758Y-115695512D01*
X203545307Y-115705961D01*
X203535121Y-115716143D01*
X203525242Y-115726014D01*
X203515718Y-115735529D01*
X203506591Y-115744642D01*
X203497909Y-115753310D01*
X203489714Y-115761487D01*
X203482053Y-115769128D01*
X203474970Y-115776189D01*
X203468510Y-115782625D01*
X203462719Y-115788391D01*
X203457641Y-115793443D01*
X203453321Y-115797734D01*
X203449804Y-115801222D01*
X203447134Y-115803860D01*
X203445358Y-115805604D01*
X203444520Y-115806409D01*
X203444457Y-115806461D01*
X203443932Y-115805970D01*
X203442455Y-115804525D01*
X203440070Y-115802171D01*
X203436823Y-115798954D01*
X203432758Y-115794918D01*
X203427920Y-115790108D01*
X203422354Y-115784568D01*
X203416106Y-115778344D01*
X203409220Y-115771481D01*
X203401741Y-115764023D01*
X203393714Y-115756014D01*
X203385184Y-115747501D01*
X203376197Y-115738527D01*
X203366796Y-115729137D01*
X203357027Y-115719377D01*
X203346935Y-115709290D01*
X203336565Y-115698923D01*
X203333155Y-115695513D01*
X203222206Y-115584566D01*
X203222206Y-114435215D01*
X203379368Y-114278052D01*
X203536529Y-114120889D01*
X203666706Y-114120889D01*
X204111206Y-114120889D01*
X206333000Y-114120889D01*
X206333000Y-115768009D01*
X206666552Y-116101560D01*
X207000103Y-116435111D01*
X207333302Y-116101912D01*
X207666500Y-115768713D01*
X207666500Y-115121012D01*
X207444250Y-114898766D01*
X207222000Y-115121012D01*
X207222000Y-115584566D01*
X207111051Y-115695513D01*
X207000101Y-115806461D01*
X206889153Y-115695512D01*
X206778206Y-115584562D01*
X206778206Y-114120889D01*
X209889000Y-114120889D01*
X209889037Y-114852726D01*
X209889073Y-115584564D01*
X209777750Y-115695527D01*
X209666428Y-115806490D01*
X209444500Y-115584566D01*
X209444500Y-115121012D01*
X209222250Y-114898766D01*
X209000000Y-115121012D01*
X209000000Y-115768715D01*
X209666750Y-116435463D01*
X210333500Y-115768715D01*
X210333500Y-114120889D01*
X212555294Y-114120889D01*
X212555294Y-115584566D01*
X212444345Y-115695513D01*
X212333396Y-115806461D01*
X212222448Y-115695512D01*
X212111500Y-115584562D01*
X212111500Y-115121016D01*
X212000552Y-115010066D01*
X211990099Y-114999615D01*
X211979905Y-114989431D01*
X211970018Y-114979559D01*
X211960482Y-114970043D01*
X211951341Y-114960928D01*
X211942642Y-114952259D01*
X211934429Y-114944081D01*
X211926747Y-114936439D01*
X211919642Y-114929378D01*
X211913158Y-114922942D01*
X211907342Y-114917176D01*
X211902237Y-114912125D01*
X211897889Y-114907834D01*
X211894343Y-114904349D01*
X211891645Y-114901712D01*
X211889839Y-114899970D01*
X211888970Y-114899168D01*
X211888897Y-114899117D01*
X211888339Y-114899609D01*
X211886829Y-114901054D01*
X211884411Y-114903408D01*
X211881132Y-114906627D01*
X211877037Y-114910664D01*
X211872170Y-114915476D01*
X211866576Y-114921017D01*
X211860302Y-114927243D01*
X211853391Y-114934109D01*
X211845890Y-114941570D01*
X211837842Y-114949581D01*
X211829294Y-114958097D01*
X211820290Y-114967074D01*
X211810875Y-114976466D01*
X211801096Y-114986229D01*
X211790996Y-114996318D01*
X211780621Y-115006688D01*
X211777242Y-115010066D01*
X211666294Y-115121016D01*
X211666294Y-115768009D01*
X212333398Y-116435111D01*
X212666949Y-116101559D01*
X213000500Y-115768008D01*
X213000500Y-114120889D01*
X213888794Y-114120889D01*
X213888794Y-115768715D01*
X214221993Y-116101913D01*
X214240189Y-116120108D01*
X214258139Y-116138056D01*
X214275816Y-116155730D01*
X214293194Y-116173105D01*
X214310248Y-116190155D01*
X214326953Y-116206854D01*
X214343281Y-116223176D01*
X214359207Y-116239095D01*
X214374706Y-116254586D01*
X214389751Y-116269622D01*
X214404317Y-116284178D01*
X214418377Y-116298228D01*
X214431906Y-116311746D01*
X214444878Y-116324706D01*
X214457267Y-116337083D01*
X214469047Y-116348849D01*
X214480192Y-116359981D01*
X214490677Y-116370451D01*
X214500475Y-116380235D01*
X214509561Y-116389305D01*
X214517908Y-116397637D01*
X214525492Y-116405203D01*
X214532285Y-116411980D01*
X214538262Y-116417940D01*
X214543398Y-116423058D01*
X214547666Y-116427308D01*
X214551041Y-116430664D01*
X214553496Y-116433101D01*
X214555006Y-116434591D01*
X214555544Y-116435111D01*
X214555545Y-116435111D01*
X214556059Y-116434617D01*
X214557545Y-116433150D01*
X214559976Y-116430737D01*
X214563328Y-116427404D01*
X214567574Y-116423176D01*
X214572688Y-116418079D01*
X214578645Y-116412140D01*
X214585418Y-116405383D01*
X214592982Y-116397836D01*
X214601310Y-116389523D01*
X214610378Y-116380471D01*
X214620158Y-116370706D01*
X214630626Y-116360252D01*
X214641755Y-116349137D01*
X214653519Y-116337386D01*
X214665893Y-116325024D01*
X214678851Y-116312078D01*
X214692366Y-116298574D01*
X214706413Y-116284537D01*
X214720967Y-116269994D01*
X214736000Y-116254969D01*
X214751488Y-116239489D01*
X214767404Y-116223581D01*
X214783722Y-116207268D01*
X214800417Y-116190579D01*
X214817463Y-116173537D01*
X214834834Y-116156170D01*
X214852503Y-116138503D01*
X214870446Y-116120562D01*
X214889096Y-116101912D01*
X215222294Y-115768713D01*
X215222294Y-114435213D01*
X214777795Y-114435213D01*
X214777794Y-115009888D01*
X214777794Y-115584562D01*
X214666847Y-115695512D01*
X214656396Y-115705961D01*
X214646210Y-115716143D01*
X214636331Y-115726014D01*
X214626807Y-115735529D01*
X214617680Y-115744642D01*
X214608997Y-115753310D01*
X214600803Y-115761487D01*
X214593142Y-115769128D01*
X214586059Y-115776189D01*
X214579599Y-115782625D01*
X214573808Y-115788391D01*
X214568730Y-115793443D01*
X214564410Y-115797734D01*
X214560892Y-115801222D01*
X214558223Y-115803860D01*
X214556447Y-115805604D01*
X214555609Y-115806409D01*
X214555546Y-115806461D01*
X214555021Y-115805970D01*
X214553544Y-115804525D01*
X214551159Y-115802171D01*
X214547912Y-115798954D01*
X214543847Y-115794918D01*
X214539009Y-115790108D01*
X214533443Y-115784568D01*
X214527195Y-115778344D01*
X214520309Y-115771481D01*
X214512830Y-115764023D01*
X214504803Y-115756014D01*
X214496273Y-115747501D01*
X214487286Y-115738527D01*
X214477885Y-115729137D01*
X214468116Y-115719377D01*
X214458024Y-115709290D01*
X214447654Y-115698923D01*
X214444244Y-115695513D01*
X214333294Y-115584566D01*
X214333294Y-114120889D01*
X214463468Y-114120889D01*
X214620631Y-114278051D01*
X214777795Y-114435213D01*
X215222294Y-114435213D01*
X215222294Y-114251063D01*
X214934957Y-113963726D01*
X214647619Y-113676389D01*
X214333294Y-113676389D01*
X214333294Y-112213418D01*
X214444419Y-112102295D01*
X214555544Y-111991171D01*
X214666669Y-112102294D01*
X214777794Y-112213418D01*
X214777794Y-112676971D01*
X214888919Y-112788095D01*
X215000044Y-112899218D01*
X215111169Y-112788095D01*
X215222294Y-112676971D01*
X215222294Y-112029269D01*
X214888919Y-111695895D01*
X214555545Y-111362520D01*
X214222169Y-111695895D01*
G36*
X209000000Y-110787490D02*
G01*
X209000000Y-111010449D01*
X209110950Y-111121397D01*
X209221899Y-111232344D01*
X209333200Y-111121042D01*
X209444500Y-111009740D01*
X209444500Y-110787490D01*
X209222250Y-110565244D01*
X209000000Y-110787490D01*
X209000000Y-110787490D01*
G37*
X209000000Y-110787490D02*
X209000000Y-111010449D01*
X209110950Y-111121397D01*
X209221899Y-111232344D01*
X209333200Y-111121042D01*
X209444500Y-111009740D01*
X209444500Y-110787490D01*
X209222250Y-110565244D01*
X209000000Y-110787490D01*
D10*
%LPC*%
D12*
X224166726Y-126833274D03*
X223000000Y-126350000D03*
X221833274Y-126833274D03*
X221350000Y-128000000D03*
X221833274Y-129166726D03*
X223000000Y-129650000D03*
X224166726Y-129166726D03*
X224650000Y-128000000D03*
D13*
X223000000Y-128000000D03*
D12*
X196166726Y-126833274D03*
X195000000Y-126350000D03*
X193833274Y-126833274D03*
X193350000Y-128000000D03*
X193833274Y-129166726D03*
X195000000Y-129650000D03*
X196166726Y-129166726D03*
X196650000Y-128000000D03*
D13*
X195000000Y-128000000D03*
D12*
X224166726Y-98833274D03*
X223000000Y-98350000D03*
X221833274Y-98833274D03*
X221350000Y-100000000D03*
X221833274Y-101166726D03*
X223000000Y-101650000D03*
X224166726Y-101166726D03*
X224650000Y-100000000D03*
D13*
X223000000Y-100000000D03*
D12*
X196166726Y-98833274D03*
X195000000Y-98350000D03*
X193833274Y-98833274D03*
X193350000Y-100000000D03*
X193833274Y-101166726D03*
X195000000Y-101650000D03*
X196166726Y-101166726D03*
X196650000Y-100000000D03*
D13*
X195000000Y-100000000D03*
D12*
X324166726Y-112833274D03*
X323000000Y-112350000D03*
X321833274Y-112833274D03*
X321350000Y-114000000D03*
X321833274Y-115166726D03*
X323000000Y-115650000D03*
X324166726Y-115166726D03*
X324650000Y-114000000D03*
D13*
X323000000Y-114000000D03*
D12*
X96166726Y-112833274D03*
X95000000Y-112350000D03*
X93833274Y-112833274D03*
X93350000Y-114000000D03*
X93833274Y-115166726D03*
X95000000Y-115650000D03*
X96166726Y-115166726D03*
X96650000Y-114000000D03*
D13*
X95000000Y-114000000D03*
D12*
X324166726Y-150833274D03*
X323000000Y-150350000D03*
X321833274Y-150833274D03*
X321350000Y-152000000D03*
X321833274Y-153166726D03*
X323000000Y-153650000D03*
X324166726Y-153166726D03*
X324650000Y-152000000D03*
D13*
X323000000Y-152000000D03*
D12*
X96166726Y-150833274D03*
X95000000Y-150350000D03*
X93833274Y-150833274D03*
X93350000Y-152000000D03*
X93833274Y-153166726D03*
X95000000Y-153650000D03*
X96166726Y-153166726D03*
X96650000Y-152000000D03*
D13*
X95000000Y-152000000D03*
M02*
