G04 #@! TF.GenerationSoftware,KiCad,Pcbnew,(5.1.4)-1*
G04 #@! TF.CreationDate,2021-09-24T23:04:20-04:00*
G04 #@! TF.ProjectId,horizon-mx-bottom-plate,686f7269-7a6f-46e2-9d6d-782d626f7474,rev?*
G04 #@! TF.SameCoordinates,Original*
G04 #@! TF.FileFunction,Legend,Bot*
G04 #@! TF.FilePolarity,Positive*
%FSLAX46Y46*%
G04 Gerber Fmt 4.6, Leading zero omitted, Abs format (unit mm)*
G04 Created by KiCad (PCBNEW (5.1.4)-1) date 2021-09-24 23:04:20*
%MOMM*%
%LPD*%
G04 APERTURE LIST*
%ADD10C,0.150000*%
%ADD11C,0.010000*%
%ADD12C,0.802000*%
%ADD13C,4.502000*%
G04 APERTURE END LIST*
D10*
X220166666Y-96285714D02*
X220166666Y-97095238D01*
X220214285Y-97190476D01*
X220261904Y-97238095D01*
X220357142Y-97285714D01*
X220500000Y-97285714D01*
X220595238Y-97238095D01*
X220166666Y-96904761D02*
X220261904Y-96952380D01*
X220452380Y-96952380D01*
X220547619Y-96904761D01*
X220595238Y-96857142D01*
X220642857Y-96761904D01*
X220642857Y-96476190D01*
X220595238Y-96380952D01*
X220547619Y-96333333D01*
X220452380Y-96285714D01*
X220261904Y-96285714D01*
X220166666Y-96333333D01*
X219690476Y-96952380D02*
X219690476Y-96285714D01*
X219690476Y-95952380D02*
X219738095Y-96000000D01*
X219690476Y-96047619D01*
X219642857Y-96000000D01*
X219690476Y-95952380D01*
X219690476Y-96047619D01*
X219357142Y-96285714D02*
X218976190Y-96285714D01*
X219214285Y-95952380D02*
X219214285Y-96809523D01*
X219166666Y-96904761D01*
X219071428Y-96952380D01*
X218976190Y-96952380D01*
X218642857Y-96952380D02*
X218642857Y-95952380D01*
X218214285Y-96952380D02*
X218214285Y-96428571D01*
X218261904Y-96333333D01*
X218357142Y-96285714D01*
X218500000Y-96285714D01*
X218595238Y-96333333D01*
X218642857Y-96380952D01*
X217309523Y-96285714D02*
X217309523Y-96952380D01*
X217738095Y-96285714D02*
X217738095Y-96809523D01*
X217690476Y-96904761D01*
X217595238Y-96952380D01*
X217452380Y-96952380D01*
X217357142Y-96904761D01*
X217309523Y-96857142D01*
X216833333Y-96952380D02*
X216833333Y-95952380D01*
X216833333Y-96333333D02*
X216738095Y-96285714D01*
X216547619Y-96285714D01*
X216452380Y-96333333D01*
X216404761Y-96380952D01*
X216357142Y-96476190D01*
X216357142Y-96761904D01*
X216404761Y-96857142D01*
X216452380Y-96904761D01*
X216547619Y-96952380D01*
X216738095Y-96952380D01*
X216833333Y-96904761D01*
X215928571Y-96857142D02*
X215880952Y-96904761D01*
X215928571Y-96952380D01*
X215976190Y-96904761D01*
X215928571Y-96857142D01*
X215928571Y-96952380D01*
X215023809Y-96904761D02*
X215119047Y-96952380D01*
X215309523Y-96952380D01*
X215404761Y-96904761D01*
X215452380Y-96857142D01*
X215500000Y-96761904D01*
X215500000Y-96476190D01*
X215452380Y-96380952D01*
X215404761Y-96333333D01*
X215309523Y-96285714D01*
X215119047Y-96285714D01*
X215023809Y-96333333D01*
X214452380Y-96952380D02*
X214547619Y-96904761D01*
X214595238Y-96857142D01*
X214642857Y-96761904D01*
X214642857Y-96476190D01*
X214595238Y-96380952D01*
X214547619Y-96333333D01*
X214452380Y-96285714D01*
X214309523Y-96285714D01*
X214214285Y-96333333D01*
X214166666Y-96380952D01*
X214119047Y-96476190D01*
X214119047Y-96761904D01*
X214166666Y-96857142D01*
X214214285Y-96904761D01*
X214309523Y-96952380D01*
X214452380Y-96952380D01*
X213690476Y-96952380D02*
X213690476Y-96285714D01*
X213690476Y-96380952D02*
X213642857Y-96333333D01*
X213547619Y-96285714D01*
X213404761Y-96285714D01*
X213309523Y-96333333D01*
X213261904Y-96428571D01*
X213261904Y-96952380D01*
X213261904Y-96428571D02*
X213214285Y-96333333D01*
X213119047Y-96285714D01*
X212976190Y-96285714D01*
X212880952Y-96333333D01*
X212833333Y-96428571D01*
X212833333Y-96952380D01*
X211642857Y-95904761D02*
X212500000Y-97190476D01*
X211357142Y-96904761D02*
X211261904Y-96952380D01*
X211071428Y-96952380D01*
X210976190Y-96904761D01*
X210928571Y-96809523D01*
X210928571Y-96761904D01*
X210976190Y-96666666D01*
X211071428Y-96619047D01*
X211214285Y-96619047D01*
X211309523Y-96571428D01*
X211357142Y-96476190D01*
X211357142Y-96428571D01*
X211309523Y-96333333D01*
X211214285Y-96285714D01*
X211071428Y-96285714D01*
X210976190Y-96333333D01*
X210500000Y-96952380D02*
X210500000Y-95952380D01*
X210404761Y-96571428D02*
X210119047Y-96952380D01*
X210119047Y-96285714D02*
X210500000Y-96666666D01*
X209261904Y-96952380D02*
X209261904Y-96428571D01*
X209309523Y-96333333D01*
X209404761Y-96285714D01*
X209595238Y-96285714D01*
X209690476Y-96333333D01*
X209261904Y-96904761D02*
X209357142Y-96952380D01*
X209595238Y-96952380D01*
X209690476Y-96904761D01*
X209738095Y-96809523D01*
X209738095Y-96714285D01*
X209690476Y-96619047D01*
X209595238Y-96571428D01*
X209357142Y-96571428D01*
X209261904Y-96523809D01*
X208785714Y-96952380D02*
X208785714Y-96285714D01*
X208785714Y-96476190D02*
X208738095Y-96380952D01*
X208690476Y-96333333D01*
X208595238Y-96285714D01*
X208500000Y-96285714D01*
X208166666Y-96952380D02*
X208166666Y-96285714D01*
X208166666Y-96476190D02*
X208119047Y-96380952D01*
X208071428Y-96333333D01*
X207976190Y-96285714D01*
X207880952Y-96285714D01*
X207547619Y-96952380D02*
X207547619Y-96285714D01*
X207547619Y-96380952D02*
X207500000Y-96333333D01*
X207404761Y-96285714D01*
X207261904Y-96285714D01*
X207166666Y-96333333D01*
X207119047Y-96428571D01*
X207119047Y-96952380D01*
X207119047Y-96428571D02*
X207071428Y-96333333D01*
X206976190Y-96285714D01*
X206833333Y-96285714D01*
X206738095Y-96333333D01*
X206690476Y-96428571D01*
X206690476Y-96952380D01*
X205785714Y-96952380D02*
X205785714Y-96428571D01*
X205833333Y-96333333D01*
X205928571Y-96285714D01*
X206119047Y-96285714D01*
X206214285Y-96333333D01*
X205785714Y-96904761D02*
X205880952Y-96952380D01*
X206119047Y-96952380D01*
X206214285Y-96904761D01*
X206261904Y-96809523D01*
X206261904Y-96714285D01*
X206214285Y-96619047D01*
X206119047Y-96571428D01*
X205880952Y-96571428D01*
X205785714Y-96523809D01*
X205309523Y-96285714D02*
X205309523Y-96952380D01*
X205309523Y-96380952D02*
X205261904Y-96333333D01*
X205166666Y-96285714D01*
X205023809Y-96285714D01*
X204928571Y-96333333D01*
X204880952Y-96428571D01*
X204880952Y-96952380D01*
X204404761Y-96285714D02*
X204404761Y-96952380D01*
X204404761Y-96380952D02*
X204357142Y-96333333D01*
X204261904Y-96285714D01*
X204119047Y-96285714D01*
X204023809Y-96333333D01*
X203976190Y-96428571D01*
X203976190Y-96952380D01*
X202785714Y-95904761D02*
X203642857Y-97190476D01*
X202452380Y-96952380D02*
X202452380Y-95952380D01*
X202023809Y-96952380D02*
X202023809Y-96428571D01*
X202071428Y-96333333D01*
X202166666Y-96285714D01*
X202309523Y-96285714D01*
X202404761Y-96333333D01*
X202452380Y-96380952D01*
X201404761Y-96952380D02*
X201500000Y-96904761D01*
X201547619Y-96857142D01*
X201595238Y-96761904D01*
X201595238Y-96476190D01*
X201547619Y-96380952D01*
X201500000Y-96333333D01*
X201404761Y-96285714D01*
X201261904Y-96285714D01*
X201166666Y-96333333D01*
X201119047Y-96380952D01*
X201071428Y-96476190D01*
X201071428Y-96761904D01*
X201119047Y-96857142D01*
X201166666Y-96904761D01*
X201261904Y-96952380D01*
X201404761Y-96952380D01*
X200642857Y-96952380D02*
X200642857Y-96285714D01*
X200642857Y-96476190D02*
X200595238Y-96380952D01*
X200547619Y-96333333D01*
X200452380Y-96285714D01*
X200357142Y-96285714D01*
X200023809Y-96952380D02*
X200023809Y-96285714D01*
X200023809Y-95952380D02*
X200071428Y-96000000D01*
X200023809Y-96047619D01*
X199976190Y-96000000D01*
X200023809Y-95952380D01*
X200023809Y-96047619D01*
X199642857Y-96285714D02*
X199119047Y-96285714D01*
X199642857Y-96952380D01*
X199119047Y-96952380D01*
X198595238Y-96952380D02*
X198690476Y-96904761D01*
X198738095Y-96857142D01*
X198785714Y-96761904D01*
X198785714Y-96476190D01*
X198738095Y-96380952D01*
X198690476Y-96333333D01*
X198595238Y-96285714D01*
X198452380Y-96285714D01*
X198357142Y-96333333D01*
X198309523Y-96380952D01*
X198261904Y-96476190D01*
X198261904Y-96761904D01*
X198309523Y-96857142D01*
X198357142Y-96904761D01*
X198452380Y-96952380D01*
X198595238Y-96952380D01*
X197833333Y-96285714D02*
X197833333Y-96952380D01*
X197833333Y-96380952D02*
X197785714Y-96333333D01*
X197690476Y-96285714D01*
X197547619Y-96285714D01*
X197452380Y-96333333D01*
X197404761Y-96428571D01*
X197404761Y-96952380D01*
X212642857Y-104952380D02*
X212642857Y-104285714D01*
X212642857Y-104476190D02*
X212595238Y-104380952D01*
X212547619Y-104333333D01*
X212452380Y-104285714D01*
X212357142Y-104285714D01*
X211642857Y-104904761D02*
X211738095Y-104952380D01*
X211928571Y-104952380D01*
X212023809Y-104904761D01*
X212071428Y-104809523D01*
X212071428Y-104428571D01*
X212023809Y-104333333D01*
X211928571Y-104285714D01*
X211738095Y-104285714D01*
X211642857Y-104333333D01*
X211595238Y-104428571D01*
X211595238Y-104523809D01*
X212071428Y-104619047D01*
X211261904Y-104285714D02*
X211023809Y-104952380D01*
X210785714Y-104285714D01*
X210452380Y-104047619D02*
X210404761Y-104000000D01*
X210309523Y-103952380D01*
X210071428Y-103952380D01*
X209976190Y-104000000D01*
X209928571Y-104047619D01*
X209880952Y-104142857D01*
X209880952Y-104238095D01*
X209928571Y-104380952D01*
X210500000Y-104952380D01*
X209880952Y-104952380D01*
X208452380Y-105285714D02*
X208452380Y-103857142D01*
X206976190Y-104952380D02*
X206976190Y-103952380D01*
X206642857Y-104666666D01*
X206309523Y-103952380D01*
X206309523Y-104952380D01*
X205928571Y-103952380D02*
X205261904Y-104952380D01*
X205261904Y-103952380D02*
X205928571Y-104952380D01*
X213619047Y-105952380D02*
X213619047Y-106666666D01*
X213666666Y-106809523D01*
X213761904Y-106904761D01*
X213904761Y-106952380D01*
X214000000Y-106952380D01*
X212666666Y-106952380D02*
X213142857Y-106952380D01*
X213142857Y-105952380D01*
X211761904Y-106857142D02*
X211809523Y-106904761D01*
X211952380Y-106952380D01*
X212047619Y-106952380D01*
X212190476Y-106904761D01*
X212285714Y-106809523D01*
X212333333Y-106714285D01*
X212380952Y-106523809D01*
X212380952Y-106380952D01*
X212333333Y-106190476D01*
X212285714Y-106095238D01*
X212190476Y-106000000D01*
X212047619Y-105952380D01*
X211952380Y-105952380D01*
X211809523Y-106000000D01*
X211761904Y-106047619D01*
X211047619Y-105952380D02*
X211047619Y-106666666D01*
X211095238Y-106809523D01*
X211190476Y-106904761D01*
X211333333Y-106952380D01*
X211428571Y-106952380D01*
X210095238Y-106952380D02*
X210571428Y-106952380D01*
X210571428Y-105952380D01*
X209190476Y-106857142D02*
X209238095Y-106904761D01*
X209380952Y-106952380D01*
X209476190Y-106952380D01*
X209619047Y-106904761D01*
X209714285Y-106809523D01*
X209761904Y-106714285D01*
X209809523Y-106523809D01*
X209809523Y-106380952D01*
X209761904Y-106190476D01*
X209714285Y-106095238D01*
X209619047Y-106000000D01*
X209476190Y-105952380D01*
X209380952Y-105952380D01*
X209238095Y-106000000D01*
X209190476Y-106047619D01*
X208476190Y-105952380D02*
X208476190Y-106666666D01*
X208523809Y-106809523D01*
X208619047Y-106904761D01*
X208761904Y-106952380D01*
X208857142Y-106952380D01*
X207523809Y-106952380D02*
X208000000Y-106952380D01*
X208000000Y-105952380D01*
X206619047Y-106857142D02*
X206666666Y-106904761D01*
X206809523Y-106952380D01*
X206904761Y-106952380D01*
X207047619Y-106904761D01*
X207142857Y-106809523D01*
X207190476Y-106714285D01*
X207238095Y-106523809D01*
X207238095Y-106380952D01*
X207190476Y-106190476D01*
X207142857Y-106095238D01*
X207047619Y-106000000D01*
X206904761Y-105952380D01*
X206809523Y-105952380D01*
X206666666Y-106000000D01*
X206619047Y-106047619D01*
X205904761Y-105952380D02*
X205904761Y-106666666D01*
X205952380Y-106809523D01*
X206047619Y-106904761D01*
X206190476Y-106952380D01*
X206285714Y-106952380D01*
X204952380Y-106952380D02*
X205428571Y-106952380D01*
X205428571Y-105952380D01*
X204047619Y-106857142D02*
X204095238Y-106904761D01*
X204238095Y-106952380D01*
X204333333Y-106952380D01*
X204476190Y-106904761D01*
X204571428Y-106809523D01*
X204619047Y-106714285D01*
X204666666Y-106523809D01*
X204666666Y-106380952D01*
X204619047Y-106190476D01*
X204571428Y-106095238D01*
X204476190Y-106000000D01*
X204333333Y-105952380D01*
X204238095Y-105952380D01*
X204095238Y-106000000D01*
X204047619Y-106047619D01*
D11*
G36*
X214222169Y-98695895D02*
G01*
X213888794Y-99029269D01*
X213888794Y-100676389D01*
X213000500Y-100676389D01*
X213000500Y-100102422D01*
X212555294Y-100102422D01*
X212555294Y-100676389D01*
X210333500Y-100676389D01*
X210333500Y-100546215D01*
X210490309Y-100389405D01*
X210647118Y-100232594D01*
X210823503Y-100232595D01*
X210999887Y-100232595D01*
X211111195Y-100121295D01*
X211222502Y-100009996D01*
X211222501Y-100009994D01*
X210241071Y-100009994D01*
X210065036Y-100186028D01*
X209889000Y-100362063D01*
X209889000Y-100676389D01*
X206778206Y-100676389D01*
X206778206Y-100232595D01*
X206333000Y-100232595D01*
X206333000Y-100676389D01*
X204111206Y-100676389D01*
X204111206Y-99212712D01*
X204193579Y-99130515D01*
X204203118Y-99120997D01*
X204212714Y-99111424D01*
X204222290Y-99101872D01*
X204231764Y-99092423D01*
X204241059Y-99083154D01*
X204250096Y-99074144D01*
X204258793Y-99065473D01*
X204267074Y-99057220D01*
X204274857Y-99049463D01*
X204282065Y-99042282D01*
X204288617Y-99035756D01*
X204294435Y-99029963D01*
X204299439Y-99024983D01*
X204303550Y-99020894D01*
X204304705Y-99019745D01*
X204333458Y-98991174D01*
X204555706Y-99213418D01*
X204555706Y-100009993D01*
X204666831Y-100121117D01*
X204777956Y-100232240D01*
X204889081Y-100121117D01*
X205000206Y-100009993D01*
X205000206Y-99212715D01*
X205313824Y-98899095D01*
X205443998Y-98899094D01*
X205574172Y-98899094D01*
X205444000Y-99029272D01*
X205444000Y-99657213D01*
X206019380Y-100232595D01*
X206333000Y-100232595D01*
X206778206Y-100232595D01*
X206778206Y-100101716D01*
X207000102Y-99879816D01*
X207333301Y-100213015D01*
X207666500Y-100546213D01*
X207666500Y-99213418D01*
X207667205Y-99212713D01*
X206777500Y-99212713D01*
X206777500Y-99473768D01*
X206620691Y-99630579D01*
X206463882Y-99787389D01*
X206202826Y-99787389D01*
X205889206Y-99473771D01*
X205889206Y-99212715D01*
X206046015Y-99055905D01*
X206202824Y-98899094D01*
X206333352Y-98899095D01*
X206463879Y-98899095D01*
X206620690Y-99055904D01*
X206777500Y-99212713D01*
X207667205Y-99212713D01*
X207777625Y-99102294D01*
X207888750Y-98991171D01*
X207999875Y-99102295D01*
X208111000Y-99213418D01*
X208111000Y-99657215D01*
X208444346Y-99990560D01*
X208462545Y-100008758D01*
X208480497Y-100026707D01*
X208498177Y-100044382D01*
X208515559Y-100061757D01*
X208532617Y-100078806D01*
X208549324Y-100095503D01*
X208565656Y-100111823D01*
X208581586Y-100127739D01*
X208597088Y-100143226D01*
X208612137Y-100158258D01*
X208626706Y-100172809D01*
X208640770Y-100186854D01*
X208654304Y-100200365D01*
X208667280Y-100213319D01*
X208679673Y-100225689D01*
X208691458Y-100237448D01*
X208702608Y-100248572D01*
X208713097Y-100259034D01*
X208722901Y-100268809D01*
X208731992Y-100277871D01*
X208740345Y-100286193D01*
X208747934Y-100293751D01*
X208754733Y-100300518D01*
X208760717Y-100306469D01*
X208765859Y-100311577D01*
X208770134Y-100315818D01*
X208773516Y-100319164D01*
X208775978Y-100321591D01*
X208777496Y-100323072D01*
X208778042Y-100323582D01*
X208778044Y-100323582D01*
X208778561Y-100323066D01*
X208780045Y-100321585D01*
X208782462Y-100319169D01*
X208785783Y-100315851D01*
X208789974Y-100311662D01*
X208795005Y-100306634D01*
X208800842Y-100300799D01*
X208807456Y-100294188D01*
X208814813Y-100286834D01*
X208822882Y-100278767D01*
X208831632Y-100270020D01*
X208841030Y-100260625D01*
X208851046Y-100250612D01*
X208861646Y-100240015D01*
X208872799Y-100228864D01*
X208884475Y-100217192D01*
X208896640Y-100205029D01*
X208909263Y-100192409D01*
X208922312Y-100179362D01*
X208935756Y-100165921D01*
X208949563Y-100152117D01*
X208963701Y-100137981D01*
X208978138Y-100123547D01*
X208992843Y-100108844D01*
X209000149Y-100101540D01*
X209221902Y-99879821D01*
X209666396Y-100324317D01*
X209888648Y-100102066D01*
X210110899Y-99879816D01*
X210241071Y-100009994D01*
X211222501Y-100009994D01*
X211111201Y-99898692D01*
X210999899Y-99787389D01*
X210647121Y-99787389D01*
X210490310Y-99630580D01*
X210333500Y-99473771D01*
X210333500Y-99212599D01*
X210490437Y-99055847D01*
X210647374Y-98899094D01*
X211351959Y-98899094D01*
X211286877Y-98964191D01*
X211221794Y-99029287D01*
X211221794Y-99657213D01*
X211797174Y-100232595D01*
X212425117Y-100232595D01*
X212490206Y-100167508D01*
X212555294Y-100102422D01*
X213000500Y-100102422D01*
X213000500Y-99212713D01*
X212555294Y-99212713D01*
X212555294Y-99473768D01*
X212398485Y-99630579D01*
X212241676Y-99787389D01*
X211980621Y-99787389D01*
X211823810Y-99630580D01*
X211667000Y-99473771D01*
X211667000Y-99212715D01*
X211823809Y-99055905D01*
X211980618Y-98899094D01*
X212111146Y-98899095D01*
X212241674Y-98899095D01*
X212555294Y-99212713D01*
X213000500Y-99212713D01*
X213000500Y-99029274D01*
X212713164Y-98741934D01*
X212425827Y-98454595D01*
X211444398Y-98454595D01*
X210462969Y-98454594D01*
X210175984Y-98741580D01*
X209889000Y-99028565D01*
X209889000Y-99473066D01*
X209777698Y-99584366D01*
X209666396Y-99695667D01*
X209555448Y-99584717D01*
X209444500Y-99473768D01*
X209444500Y-98676490D01*
X209333375Y-98565367D01*
X209222250Y-98454243D01*
X209111125Y-98565367D01*
X209000000Y-98676490D01*
X209000000Y-99473066D01*
X208777750Y-99695312D01*
X208555500Y-99473066D01*
X208555500Y-99029264D01*
X208222448Y-98696245D01*
X208204255Y-98678053D01*
X208186308Y-98660108D01*
X208168634Y-98642436D01*
X208151258Y-98625062D01*
X208134206Y-98608013D01*
X208117505Y-98591314D01*
X208101180Y-98574991D01*
X208085257Y-98559070D01*
X208069761Y-98543576D01*
X208054720Y-98528537D01*
X208040158Y-98513977D01*
X208026101Y-98499923D01*
X208012576Y-98486400D01*
X207999609Y-98473435D01*
X207987224Y-98461052D01*
X207975449Y-98449279D01*
X207964308Y-98438141D01*
X207953828Y-98427663D01*
X207944036Y-98417873D01*
X207934955Y-98408795D01*
X207926614Y-98400455D01*
X207919036Y-98392880D01*
X207912249Y-98386095D01*
X207906279Y-98380126D01*
X207901150Y-98374999D01*
X207896889Y-98370741D01*
X207893522Y-98367376D01*
X207891075Y-98364930D01*
X207889574Y-98363430D01*
X207889044Y-98362902D01*
X207888530Y-98363379D01*
X207887044Y-98364828D01*
X207884613Y-98367223D01*
X207881262Y-98370540D01*
X207877016Y-98374750D01*
X207871903Y-98379830D01*
X207865947Y-98385753D01*
X207859174Y-98392493D01*
X207851611Y-98400025D01*
X207843283Y-98408322D01*
X207834217Y-98417359D01*
X207824437Y-98427110D01*
X207813971Y-98437549D01*
X207802843Y-98448651D01*
X207791080Y-98460389D01*
X207778707Y-98472737D01*
X207765751Y-98485671D01*
X207752237Y-98499164D01*
X207738192Y-98513190D01*
X207723640Y-98527723D01*
X207708608Y-98542738D01*
X207693122Y-98558208D01*
X207677208Y-98574109D01*
X207660891Y-98590414D01*
X207644198Y-98607097D01*
X207627153Y-98624132D01*
X207609785Y-98641494D01*
X207592117Y-98659157D01*
X207574176Y-98677095D01*
X207555987Y-98695282D01*
X207555522Y-98695748D01*
X207222352Y-99028917D01*
X206935192Y-98741756D01*
X206648031Y-98454595D01*
X205888853Y-98454594D01*
X205129674Y-98454594D01*
X204953639Y-98630631D01*
X204777604Y-98806667D01*
X204555706Y-98584770D01*
X204540876Y-98569941D01*
X204526297Y-98555367D01*
X204511999Y-98541077D01*
X204498016Y-98527105D01*
X204484379Y-98513481D01*
X204471119Y-98500237D01*
X204458269Y-98487405D01*
X204445860Y-98475017D01*
X204433924Y-98463104D01*
X204422492Y-98451698D01*
X204411597Y-98440831D01*
X204401270Y-98430534D01*
X204391544Y-98420839D01*
X204382449Y-98411778D01*
X204374018Y-98403383D01*
X204366283Y-98395684D01*
X204359275Y-98388715D01*
X204353026Y-98382505D01*
X204347567Y-98377089D01*
X204342932Y-98372496D01*
X204339151Y-98368758D01*
X204336256Y-98365908D01*
X204334279Y-98363977D01*
X204333251Y-98362996D01*
X204333104Y-98362872D01*
X204332571Y-98363367D01*
X204331066Y-98364834D01*
X204328615Y-98367247D01*
X204325245Y-98370581D01*
X204320981Y-98374809D01*
X204315849Y-98379906D01*
X204309874Y-98385845D01*
X204303084Y-98392602D01*
X204295504Y-98400150D01*
X204287159Y-98408463D01*
X204278076Y-98417515D01*
X204268280Y-98427281D01*
X204257798Y-98437734D01*
X204246655Y-98448849D01*
X204234878Y-98460600D01*
X204222492Y-98472961D01*
X204209524Y-98485907D01*
X204195998Y-98499410D01*
X204181941Y-98513446D01*
X204167380Y-98527988D01*
X204152339Y-98543011D01*
X204136845Y-98558489D01*
X204120924Y-98574396D01*
X204104601Y-98590706D01*
X204087903Y-98607393D01*
X204070856Y-98624431D01*
X204053485Y-98641795D01*
X204035816Y-98659458D01*
X204017876Y-98677395D01*
X203999690Y-98695580D01*
X203999553Y-98695717D01*
X203666706Y-99028563D01*
X203666706Y-100676389D01*
X203352380Y-100676389D01*
X202777706Y-101251065D01*
X202777706Y-102768715D01*
X203444456Y-103435463D01*
X204111206Y-102768715D01*
X204111206Y-101120889D01*
X203666706Y-101120889D01*
X203666706Y-102584562D01*
X203555758Y-102695512D01*
X203545307Y-102705961D01*
X203535121Y-102716143D01*
X203525242Y-102726014D01*
X203515718Y-102735529D01*
X203506591Y-102744642D01*
X203497909Y-102753310D01*
X203489714Y-102761487D01*
X203482053Y-102769128D01*
X203474970Y-102776189D01*
X203468510Y-102782625D01*
X203462719Y-102788391D01*
X203457641Y-102793443D01*
X203453321Y-102797734D01*
X203449804Y-102801222D01*
X203447134Y-102803860D01*
X203445358Y-102805604D01*
X203444520Y-102806409D01*
X203444457Y-102806461D01*
X203443932Y-102805970D01*
X203442455Y-102804525D01*
X203440070Y-102802171D01*
X203436823Y-102798954D01*
X203432758Y-102794918D01*
X203427920Y-102790108D01*
X203422354Y-102784568D01*
X203416106Y-102778344D01*
X203409220Y-102771481D01*
X203401741Y-102764023D01*
X203393714Y-102756014D01*
X203385184Y-102747501D01*
X203376197Y-102738527D01*
X203366796Y-102729137D01*
X203357027Y-102719377D01*
X203346935Y-102709290D01*
X203336565Y-102698923D01*
X203333155Y-102695513D01*
X203222206Y-102584566D01*
X203222206Y-101435215D01*
X203379368Y-101278052D01*
X203536529Y-101120889D01*
X203666706Y-101120889D01*
X204111206Y-101120889D01*
X206333000Y-101120889D01*
X206333000Y-102768009D01*
X206666552Y-103101560D01*
X207000103Y-103435111D01*
X207333302Y-103101912D01*
X207666500Y-102768713D01*
X207666500Y-102121012D01*
X207444250Y-101898766D01*
X207222000Y-102121012D01*
X207222000Y-102584566D01*
X207111051Y-102695513D01*
X207000101Y-102806461D01*
X206889153Y-102695512D01*
X206778206Y-102584562D01*
X206778206Y-101120889D01*
X209889000Y-101120889D01*
X209889037Y-101852726D01*
X209889073Y-102584564D01*
X209777750Y-102695527D01*
X209666428Y-102806490D01*
X209444500Y-102584566D01*
X209444500Y-102121012D01*
X209222250Y-101898766D01*
X209000000Y-102121012D01*
X209000000Y-102768715D01*
X209666750Y-103435463D01*
X210333500Y-102768715D01*
X210333500Y-101120889D01*
X212555294Y-101120889D01*
X212555294Y-102584566D01*
X212444345Y-102695513D01*
X212333396Y-102806461D01*
X212222448Y-102695512D01*
X212111500Y-102584562D01*
X212111500Y-102121016D01*
X212000552Y-102010066D01*
X211990099Y-101999615D01*
X211979905Y-101989431D01*
X211970018Y-101979559D01*
X211960482Y-101970043D01*
X211951341Y-101960928D01*
X211942642Y-101952259D01*
X211934429Y-101944081D01*
X211926747Y-101936439D01*
X211919642Y-101929378D01*
X211913158Y-101922942D01*
X211907342Y-101917176D01*
X211902237Y-101912125D01*
X211897889Y-101907834D01*
X211894343Y-101904349D01*
X211891645Y-101901712D01*
X211889839Y-101899970D01*
X211888970Y-101899168D01*
X211888897Y-101899117D01*
X211888339Y-101899609D01*
X211886829Y-101901054D01*
X211884411Y-101903408D01*
X211881132Y-101906627D01*
X211877037Y-101910664D01*
X211872170Y-101915476D01*
X211866576Y-101921017D01*
X211860302Y-101927243D01*
X211853391Y-101934109D01*
X211845890Y-101941570D01*
X211837842Y-101949581D01*
X211829294Y-101958097D01*
X211820290Y-101967074D01*
X211810875Y-101976466D01*
X211801096Y-101986229D01*
X211790996Y-101996318D01*
X211780621Y-102006688D01*
X211777242Y-102010066D01*
X211666294Y-102121016D01*
X211666294Y-102768009D01*
X212333398Y-103435111D01*
X212666949Y-103101559D01*
X213000500Y-102768008D01*
X213000500Y-101120889D01*
X213888794Y-101120889D01*
X213888794Y-102768715D01*
X214221993Y-103101913D01*
X214240189Y-103120108D01*
X214258139Y-103138056D01*
X214275816Y-103155730D01*
X214293194Y-103173105D01*
X214310248Y-103190155D01*
X214326953Y-103206854D01*
X214343281Y-103223176D01*
X214359207Y-103239095D01*
X214374706Y-103254586D01*
X214389751Y-103269622D01*
X214404317Y-103284178D01*
X214418377Y-103298228D01*
X214431906Y-103311746D01*
X214444878Y-103324706D01*
X214457267Y-103337083D01*
X214469047Y-103348849D01*
X214480192Y-103359981D01*
X214490677Y-103370451D01*
X214500475Y-103380235D01*
X214509561Y-103389305D01*
X214517908Y-103397637D01*
X214525492Y-103405203D01*
X214532285Y-103411980D01*
X214538262Y-103417940D01*
X214543398Y-103423058D01*
X214547666Y-103427308D01*
X214551041Y-103430664D01*
X214553496Y-103433101D01*
X214555006Y-103434591D01*
X214555544Y-103435111D01*
X214555545Y-103435111D01*
X214556059Y-103434617D01*
X214557545Y-103433150D01*
X214559976Y-103430737D01*
X214563328Y-103427404D01*
X214567574Y-103423176D01*
X214572688Y-103418079D01*
X214578645Y-103412140D01*
X214585418Y-103405383D01*
X214592982Y-103397836D01*
X214601310Y-103389523D01*
X214610378Y-103380471D01*
X214620158Y-103370706D01*
X214630626Y-103360252D01*
X214641755Y-103349137D01*
X214653519Y-103337386D01*
X214665893Y-103325024D01*
X214678851Y-103312078D01*
X214692366Y-103298574D01*
X214706413Y-103284537D01*
X214720967Y-103269994D01*
X214736000Y-103254969D01*
X214751488Y-103239489D01*
X214767404Y-103223581D01*
X214783722Y-103207268D01*
X214800417Y-103190579D01*
X214817463Y-103173537D01*
X214834834Y-103156170D01*
X214852503Y-103138503D01*
X214870446Y-103120562D01*
X214889096Y-103101912D01*
X215222294Y-102768713D01*
X215222294Y-101435213D01*
X214777795Y-101435213D01*
X214777794Y-102009888D01*
X214777794Y-102584562D01*
X214666847Y-102695512D01*
X214656396Y-102705961D01*
X214646210Y-102716143D01*
X214636331Y-102726014D01*
X214626807Y-102735529D01*
X214617680Y-102744642D01*
X214608997Y-102753310D01*
X214600803Y-102761487D01*
X214593142Y-102769128D01*
X214586059Y-102776189D01*
X214579599Y-102782625D01*
X214573808Y-102788391D01*
X214568730Y-102793443D01*
X214564410Y-102797734D01*
X214560892Y-102801222D01*
X214558223Y-102803860D01*
X214556447Y-102805604D01*
X214555609Y-102806409D01*
X214555546Y-102806461D01*
X214555021Y-102805970D01*
X214553544Y-102804525D01*
X214551159Y-102802171D01*
X214547912Y-102798954D01*
X214543847Y-102794918D01*
X214539009Y-102790108D01*
X214533443Y-102784568D01*
X214527195Y-102778344D01*
X214520309Y-102771481D01*
X214512830Y-102764023D01*
X214504803Y-102756014D01*
X214496273Y-102747501D01*
X214487286Y-102738527D01*
X214477885Y-102729137D01*
X214468116Y-102719377D01*
X214458024Y-102709290D01*
X214447654Y-102698923D01*
X214444244Y-102695513D01*
X214333294Y-102584566D01*
X214333294Y-101120889D01*
X214463468Y-101120889D01*
X214620631Y-101278051D01*
X214777795Y-101435213D01*
X215222294Y-101435213D01*
X215222294Y-101251063D01*
X214934957Y-100963726D01*
X214647619Y-100676389D01*
X214333294Y-100676389D01*
X214333294Y-99213418D01*
X214444419Y-99102295D01*
X214555544Y-98991171D01*
X214666669Y-99102294D01*
X214777794Y-99213418D01*
X214777794Y-99676971D01*
X214888919Y-99788095D01*
X215000044Y-99899218D01*
X215111169Y-99788095D01*
X215222294Y-99676971D01*
X215222294Y-99029269D01*
X214888919Y-98695895D01*
X214555545Y-98362520D01*
X214222169Y-98695895D01*
X214222169Y-98695895D01*
G37*
X214222169Y-98695895D02*
X213888794Y-99029269D01*
X213888794Y-100676389D01*
X213000500Y-100676389D01*
X213000500Y-100102422D01*
X212555294Y-100102422D01*
X212555294Y-100676389D01*
X210333500Y-100676389D01*
X210333500Y-100546215D01*
X210490309Y-100389405D01*
X210647118Y-100232594D01*
X210823503Y-100232595D01*
X210999887Y-100232595D01*
X211111195Y-100121295D01*
X211222502Y-100009996D01*
X211222501Y-100009994D01*
X210241071Y-100009994D01*
X210065036Y-100186028D01*
X209889000Y-100362063D01*
X209889000Y-100676389D01*
X206778206Y-100676389D01*
X206778206Y-100232595D01*
X206333000Y-100232595D01*
X206333000Y-100676389D01*
X204111206Y-100676389D01*
X204111206Y-99212712D01*
X204193579Y-99130515D01*
X204203118Y-99120997D01*
X204212714Y-99111424D01*
X204222290Y-99101872D01*
X204231764Y-99092423D01*
X204241059Y-99083154D01*
X204250096Y-99074144D01*
X204258793Y-99065473D01*
X204267074Y-99057220D01*
X204274857Y-99049463D01*
X204282065Y-99042282D01*
X204288617Y-99035756D01*
X204294435Y-99029963D01*
X204299439Y-99024983D01*
X204303550Y-99020894D01*
X204304705Y-99019745D01*
X204333458Y-98991174D01*
X204555706Y-99213418D01*
X204555706Y-100009993D01*
X204666831Y-100121117D01*
X204777956Y-100232240D01*
X204889081Y-100121117D01*
X205000206Y-100009993D01*
X205000206Y-99212715D01*
X205313824Y-98899095D01*
X205443998Y-98899094D01*
X205574172Y-98899094D01*
X205444000Y-99029272D01*
X205444000Y-99657213D01*
X206019380Y-100232595D01*
X206333000Y-100232595D01*
X206778206Y-100232595D01*
X206778206Y-100101716D01*
X207000102Y-99879816D01*
X207333301Y-100213015D01*
X207666500Y-100546213D01*
X207666500Y-99213418D01*
X207667205Y-99212713D01*
X206777500Y-99212713D01*
X206777500Y-99473768D01*
X206620691Y-99630579D01*
X206463882Y-99787389D01*
X206202826Y-99787389D01*
X205889206Y-99473771D01*
X205889206Y-99212715D01*
X206046015Y-99055905D01*
X206202824Y-98899094D01*
X206333352Y-98899095D01*
X206463879Y-98899095D01*
X206620690Y-99055904D01*
X206777500Y-99212713D01*
X207667205Y-99212713D01*
X207777625Y-99102294D01*
X207888750Y-98991171D01*
X207999875Y-99102295D01*
X208111000Y-99213418D01*
X208111000Y-99657215D01*
X208444346Y-99990560D01*
X208462545Y-100008758D01*
X208480497Y-100026707D01*
X208498177Y-100044382D01*
X208515559Y-100061757D01*
X208532617Y-100078806D01*
X208549324Y-100095503D01*
X208565656Y-100111823D01*
X208581586Y-100127739D01*
X208597088Y-100143226D01*
X208612137Y-100158258D01*
X208626706Y-100172809D01*
X208640770Y-100186854D01*
X208654304Y-100200365D01*
X208667280Y-100213319D01*
X208679673Y-100225689D01*
X208691458Y-100237448D01*
X208702608Y-100248572D01*
X208713097Y-100259034D01*
X208722901Y-100268809D01*
X208731992Y-100277871D01*
X208740345Y-100286193D01*
X208747934Y-100293751D01*
X208754733Y-100300518D01*
X208760717Y-100306469D01*
X208765859Y-100311577D01*
X208770134Y-100315818D01*
X208773516Y-100319164D01*
X208775978Y-100321591D01*
X208777496Y-100323072D01*
X208778042Y-100323582D01*
X208778044Y-100323582D01*
X208778561Y-100323066D01*
X208780045Y-100321585D01*
X208782462Y-100319169D01*
X208785783Y-100315851D01*
X208789974Y-100311662D01*
X208795005Y-100306634D01*
X208800842Y-100300799D01*
X208807456Y-100294188D01*
X208814813Y-100286834D01*
X208822882Y-100278767D01*
X208831632Y-100270020D01*
X208841030Y-100260625D01*
X208851046Y-100250612D01*
X208861646Y-100240015D01*
X208872799Y-100228864D01*
X208884475Y-100217192D01*
X208896640Y-100205029D01*
X208909263Y-100192409D01*
X208922312Y-100179362D01*
X208935756Y-100165921D01*
X208949563Y-100152117D01*
X208963701Y-100137981D01*
X208978138Y-100123547D01*
X208992843Y-100108844D01*
X209000149Y-100101540D01*
X209221902Y-99879821D01*
X209666396Y-100324317D01*
X209888648Y-100102066D01*
X210110899Y-99879816D01*
X210241071Y-100009994D01*
X211222501Y-100009994D01*
X211111201Y-99898692D01*
X210999899Y-99787389D01*
X210647121Y-99787389D01*
X210490310Y-99630580D01*
X210333500Y-99473771D01*
X210333500Y-99212599D01*
X210490437Y-99055847D01*
X210647374Y-98899094D01*
X211351959Y-98899094D01*
X211286877Y-98964191D01*
X211221794Y-99029287D01*
X211221794Y-99657213D01*
X211797174Y-100232595D01*
X212425117Y-100232595D01*
X212490206Y-100167508D01*
X212555294Y-100102422D01*
X213000500Y-100102422D01*
X213000500Y-99212713D01*
X212555294Y-99212713D01*
X212555294Y-99473768D01*
X212398485Y-99630579D01*
X212241676Y-99787389D01*
X211980621Y-99787389D01*
X211823810Y-99630580D01*
X211667000Y-99473771D01*
X211667000Y-99212715D01*
X211823809Y-99055905D01*
X211980618Y-98899094D01*
X212111146Y-98899095D01*
X212241674Y-98899095D01*
X212555294Y-99212713D01*
X213000500Y-99212713D01*
X213000500Y-99029274D01*
X212713164Y-98741934D01*
X212425827Y-98454595D01*
X211444398Y-98454595D01*
X210462969Y-98454594D01*
X210175984Y-98741580D01*
X209889000Y-99028565D01*
X209889000Y-99473066D01*
X209777698Y-99584366D01*
X209666396Y-99695667D01*
X209555448Y-99584717D01*
X209444500Y-99473768D01*
X209444500Y-98676490D01*
X209333375Y-98565367D01*
X209222250Y-98454243D01*
X209111125Y-98565367D01*
X209000000Y-98676490D01*
X209000000Y-99473066D01*
X208777750Y-99695312D01*
X208555500Y-99473066D01*
X208555500Y-99029264D01*
X208222448Y-98696245D01*
X208204255Y-98678053D01*
X208186308Y-98660108D01*
X208168634Y-98642436D01*
X208151258Y-98625062D01*
X208134206Y-98608013D01*
X208117505Y-98591314D01*
X208101180Y-98574991D01*
X208085257Y-98559070D01*
X208069761Y-98543576D01*
X208054720Y-98528537D01*
X208040158Y-98513977D01*
X208026101Y-98499923D01*
X208012576Y-98486400D01*
X207999609Y-98473435D01*
X207987224Y-98461052D01*
X207975449Y-98449279D01*
X207964308Y-98438141D01*
X207953828Y-98427663D01*
X207944036Y-98417873D01*
X207934955Y-98408795D01*
X207926614Y-98400455D01*
X207919036Y-98392880D01*
X207912249Y-98386095D01*
X207906279Y-98380126D01*
X207901150Y-98374999D01*
X207896889Y-98370741D01*
X207893522Y-98367376D01*
X207891075Y-98364930D01*
X207889574Y-98363430D01*
X207889044Y-98362902D01*
X207888530Y-98363379D01*
X207887044Y-98364828D01*
X207884613Y-98367223D01*
X207881262Y-98370540D01*
X207877016Y-98374750D01*
X207871903Y-98379830D01*
X207865947Y-98385753D01*
X207859174Y-98392493D01*
X207851611Y-98400025D01*
X207843283Y-98408322D01*
X207834217Y-98417359D01*
X207824437Y-98427110D01*
X207813971Y-98437549D01*
X207802843Y-98448651D01*
X207791080Y-98460389D01*
X207778707Y-98472737D01*
X207765751Y-98485671D01*
X207752237Y-98499164D01*
X207738192Y-98513190D01*
X207723640Y-98527723D01*
X207708608Y-98542738D01*
X207693122Y-98558208D01*
X207677208Y-98574109D01*
X207660891Y-98590414D01*
X207644198Y-98607097D01*
X207627153Y-98624132D01*
X207609785Y-98641494D01*
X207592117Y-98659157D01*
X207574176Y-98677095D01*
X207555987Y-98695282D01*
X207555522Y-98695748D01*
X207222352Y-99028917D01*
X206935192Y-98741756D01*
X206648031Y-98454595D01*
X205888853Y-98454594D01*
X205129674Y-98454594D01*
X204953639Y-98630631D01*
X204777604Y-98806667D01*
X204555706Y-98584770D01*
X204540876Y-98569941D01*
X204526297Y-98555367D01*
X204511999Y-98541077D01*
X204498016Y-98527105D01*
X204484379Y-98513481D01*
X204471119Y-98500237D01*
X204458269Y-98487405D01*
X204445860Y-98475017D01*
X204433924Y-98463104D01*
X204422492Y-98451698D01*
X204411597Y-98440831D01*
X204401270Y-98430534D01*
X204391544Y-98420839D01*
X204382449Y-98411778D01*
X204374018Y-98403383D01*
X204366283Y-98395684D01*
X204359275Y-98388715D01*
X204353026Y-98382505D01*
X204347567Y-98377089D01*
X204342932Y-98372496D01*
X204339151Y-98368758D01*
X204336256Y-98365908D01*
X204334279Y-98363977D01*
X204333251Y-98362996D01*
X204333104Y-98362872D01*
X204332571Y-98363367D01*
X204331066Y-98364834D01*
X204328615Y-98367247D01*
X204325245Y-98370581D01*
X204320981Y-98374809D01*
X204315849Y-98379906D01*
X204309874Y-98385845D01*
X204303084Y-98392602D01*
X204295504Y-98400150D01*
X204287159Y-98408463D01*
X204278076Y-98417515D01*
X204268280Y-98427281D01*
X204257798Y-98437734D01*
X204246655Y-98448849D01*
X204234878Y-98460600D01*
X204222492Y-98472961D01*
X204209524Y-98485907D01*
X204195998Y-98499410D01*
X204181941Y-98513446D01*
X204167380Y-98527988D01*
X204152339Y-98543011D01*
X204136845Y-98558489D01*
X204120924Y-98574396D01*
X204104601Y-98590706D01*
X204087903Y-98607393D01*
X204070856Y-98624431D01*
X204053485Y-98641795D01*
X204035816Y-98659458D01*
X204017876Y-98677395D01*
X203999690Y-98695580D01*
X203999553Y-98695717D01*
X203666706Y-99028563D01*
X203666706Y-100676389D01*
X203352380Y-100676389D01*
X202777706Y-101251065D01*
X202777706Y-102768715D01*
X203444456Y-103435463D01*
X204111206Y-102768715D01*
X204111206Y-101120889D01*
X203666706Y-101120889D01*
X203666706Y-102584562D01*
X203555758Y-102695512D01*
X203545307Y-102705961D01*
X203535121Y-102716143D01*
X203525242Y-102726014D01*
X203515718Y-102735529D01*
X203506591Y-102744642D01*
X203497909Y-102753310D01*
X203489714Y-102761487D01*
X203482053Y-102769128D01*
X203474970Y-102776189D01*
X203468510Y-102782625D01*
X203462719Y-102788391D01*
X203457641Y-102793443D01*
X203453321Y-102797734D01*
X203449804Y-102801222D01*
X203447134Y-102803860D01*
X203445358Y-102805604D01*
X203444520Y-102806409D01*
X203444457Y-102806461D01*
X203443932Y-102805970D01*
X203442455Y-102804525D01*
X203440070Y-102802171D01*
X203436823Y-102798954D01*
X203432758Y-102794918D01*
X203427920Y-102790108D01*
X203422354Y-102784568D01*
X203416106Y-102778344D01*
X203409220Y-102771481D01*
X203401741Y-102764023D01*
X203393714Y-102756014D01*
X203385184Y-102747501D01*
X203376197Y-102738527D01*
X203366796Y-102729137D01*
X203357027Y-102719377D01*
X203346935Y-102709290D01*
X203336565Y-102698923D01*
X203333155Y-102695513D01*
X203222206Y-102584566D01*
X203222206Y-101435215D01*
X203379368Y-101278052D01*
X203536529Y-101120889D01*
X203666706Y-101120889D01*
X204111206Y-101120889D01*
X206333000Y-101120889D01*
X206333000Y-102768009D01*
X206666552Y-103101560D01*
X207000103Y-103435111D01*
X207333302Y-103101912D01*
X207666500Y-102768713D01*
X207666500Y-102121012D01*
X207444250Y-101898766D01*
X207222000Y-102121012D01*
X207222000Y-102584566D01*
X207111051Y-102695513D01*
X207000101Y-102806461D01*
X206889153Y-102695512D01*
X206778206Y-102584562D01*
X206778206Y-101120889D01*
X209889000Y-101120889D01*
X209889037Y-101852726D01*
X209889073Y-102584564D01*
X209777750Y-102695527D01*
X209666428Y-102806490D01*
X209444500Y-102584566D01*
X209444500Y-102121012D01*
X209222250Y-101898766D01*
X209000000Y-102121012D01*
X209000000Y-102768715D01*
X209666750Y-103435463D01*
X210333500Y-102768715D01*
X210333500Y-101120889D01*
X212555294Y-101120889D01*
X212555294Y-102584566D01*
X212444345Y-102695513D01*
X212333396Y-102806461D01*
X212222448Y-102695512D01*
X212111500Y-102584562D01*
X212111500Y-102121016D01*
X212000552Y-102010066D01*
X211990099Y-101999615D01*
X211979905Y-101989431D01*
X211970018Y-101979559D01*
X211960482Y-101970043D01*
X211951341Y-101960928D01*
X211942642Y-101952259D01*
X211934429Y-101944081D01*
X211926747Y-101936439D01*
X211919642Y-101929378D01*
X211913158Y-101922942D01*
X211907342Y-101917176D01*
X211902237Y-101912125D01*
X211897889Y-101907834D01*
X211894343Y-101904349D01*
X211891645Y-101901712D01*
X211889839Y-101899970D01*
X211888970Y-101899168D01*
X211888897Y-101899117D01*
X211888339Y-101899609D01*
X211886829Y-101901054D01*
X211884411Y-101903408D01*
X211881132Y-101906627D01*
X211877037Y-101910664D01*
X211872170Y-101915476D01*
X211866576Y-101921017D01*
X211860302Y-101927243D01*
X211853391Y-101934109D01*
X211845890Y-101941570D01*
X211837842Y-101949581D01*
X211829294Y-101958097D01*
X211820290Y-101967074D01*
X211810875Y-101976466D01*
X211801096Y-101986229D01*
X211790996Y-101996318D01*
X211780621Y-102006688D01*
X211777242Y-102010066D01*
X211666294Y-102121016D01*
X211666294Y-102768009D01*
X212333398Y-103435111D01*
X212666949Y-103101559D01*
X213000500Y-102768008D01*
X213000500Y-101120889D01*
X213888794Y-101120889D01*
X213888794Y-102768715D01*
X214221993Y-103101913D01*
X214240189Y-103120108D01*
X214258139Y-103138056D01*
X214275816Y-103155730D01*
X214293194Y-103173105D01*
X214310248Y-103190155D01*
X214326953Y-103206854D01*
X214343281Y-103223176D01*
X214359207Y-103239095D01*
X214374706Y-103254586D01*
X214389751Y-103269622D01*
X214404317Y-103284178D01*
X214418377Y-103298228D01*
X214431906Y-103311746D01*
X214444878Y-103324706D01*
X214457267Y-103337083D01*
X214469047Y-103348849D01*
X214480192Y-103359981D01*
X214490677Y-103370451D01*
X214500475Y-103380235D01*
X214509561Y-103389305D01*
X214517908Y-103397637D01*
X214525492Y-103405203D01*
X214532285Y-103411980D01*
X214538262Y-103417940D01*
X214543398Y-103423058D01*
X214547666Y-103427308D01*
X214551041Y-103430664D01*
X214553496Y-103433101D01*
X214555006Y-103434591D01*
X214555544Y-103435111D01*
X214555545Y-103435111D01*
X214556059Y-103434617D01*
X214557545Y-103433150D01*
X214559976Y-103430737D01*
X214563328Y-103427404D01*
X214567574Y-103423176D01*
X214572688Y-103418079D01*
X214578645Y-103412140D01*
X214585418Y-103405383D01*
X214592982Y-103397836D01*
X214601310Y-103389523D01*
X214610378Y-103380471D01*
X214620158Y-103370706D01*
X214630626Y-103360252D01*
X214641755Y-103349137D01*
X214653519Y-103337386D01*
X214665893Y-103325024D01*
X214678851Y-103312078D01*
X214692366Y-103298574D01*
X214706413Y-103284537D01*
X214720967Y-103269994D01*
X214736000Y-103254969D01*
X214751488Y-103239489D01*
X214767404Y-103223581D01*
X214783722Y-103207268D01*
X214800417Y-103190579D01*
X214817463Y-103173537D01*
X214834834Y-103156170D01*
X214852503Y-103138503D01*
X214870446Y-103120562D01*
X214889096Y-103101912D01*
X215222294Y-102768713D01*
X215222294Y-101435213D01*
X214777795Y-101435213D01*
X214777794Y-102009888D01*
X214777794Y-102584562D01*
X214666847Y-102695512D01*
X214656396Y-102705961D01*
X214646210Y-102716143D01*
X214636331Y-102726014D01*
X214626807Y-102735529D01*
X214617680Y-102744642D01*
X214608997Y-102753310D01*
X214600803Y-102761487D01*
X214593142Y-102769128D01*
X214586059Y-102776189D01*
X214579599Y-102782625D01*
X214573808Y-102788391D01*
X214568730Y-102793443D01*
X214564410Y-102797734D01*
X214560892Y-102801222D01*
X214558223Y-102803860D01*
X214556447Y-102805604D01*
X214555609Y-102806409D01*
X214555546Y-102806461D01*
X214555021Y-102805970D01*
X214553544Y-102804525D01*
X214551159Y-102802171D01*
X214547912Y-102798954D01*
X214543847Y-102794918D01*
X214539009Y-102790108D01*
X214533443Y-102784568D01*
X214527195Y-102778344D01*
X214520309Y-102771481D01*
X214512830Y-102764023D01*
X214504803Y-102756014D01*
X214496273Y-102747501D01*
X214487286Y-102738527D01*
X214477885Y-102729137D01*
X214468116Y-102719377D01*
X214458024Y-102709290D01*
X214447654Y-102698923D01*
X214444244Y-102695513D01*
X214333294Y-102584566D01*
X214333294Y-101120889D01*
X214463468Y-101120889D01*
X214620631Y-101278051D01*
X214777795Y-101435213D01*
X215222294Y-101435213D01*
X215222294Y-101251063D01*
X214934957Y-100963726D01*
X214647619Y-100676389D01*
X214333294Y-100676389D01*
X214333294Y-99213418D01*
X214444419Y-99102295D01*
X214555544Y-98991171D01*
X214666669Y-99102294D01*
X214777794Y-99213418D01*
X214777794Y-99676971D01*
X214888919Y-99788095D01*
X215000044Y-99899218D01*
X215111169Y-99788095D01*
X215222294Y-99676971D01*
X215222294Y-99029269D01*
X214888919Y-98695895D01*
X214555545Y-98362520D01*
X214222169Y-98695895D01*
G36*
X209000000Y-97787490D02*
G01*
X209000000Y-98010449D01*
X209110950Y-98121397D01*
X209221899Y-98232344D01*
X209333200Y-98121042D01*
X209444500Y-98009740D01*
X209444500Y-97787490D01*
X209222250Y-97565244D01*
X209000000Y-97787490D01*
X209000000Y-97787490D01*
G37*
X209000000Y-97787490D02*
X209000000Y-98010449D01*
X209110950Y-98121397D01*
X209221899Y-98232344D01*
X209333200Y-98121042D01*
X209444500Y-98009740D01*
X209444500Y-97787490D01*
X209222250Y-97565244D01*
X209000000Y-97787490D01*
D10*
%LPC*%
D12*
X224166726Y-126833274D03*
X223000000Y-126350000D03*
X221833274Y-126833274D03*
X221350000Y-128000000D03*
X221833274Y-129166726D03*
X223000000Y-129650000D03*
X224166726Y-129166726D03*
X224650000Y-128000000D03*
D13*
X223000000Y-128000000D03*
D12*
X196166726Y-126833274D03*
X195000000Y-126350000D03*
X193833274Y-126833274D03*
X193350000Y-128000000D03*
X193833274Y-129166726D03*
X195000000Y-129650000D03*
X196166726Y-129166726D03*
X196650000Y-128000000D03*
D13*
X195000000Y-128000000D03*
D12*
X224166726Y-98833274D03*
X223000000Y-98350000D03*
X221833274Y-98833274D03*
X221350000Y-100000000D03*
X221833274Y-101166726D03*
X223000000Y-101650000D03*
X224166726Y-101166726D03*
X224650000Y-100000000D03*
D13*
X223000000Y-100000000D03*
D12*
X196166726Y-98833274D03*
X195000000Y-98350000D03*
X193833274Y-98833274D03*
X193350000Y-100000000D03*
X193833274Y-101166726D03*
X195000000Y-101650000D03*
X196166726Y-101166726D03*
X196650000Y-100000000D03*
D13*
X195000000Y-100000000D03*
D12*
X324166726Y-112833274D03*
X323000000Y-112350000D03*
X321833274Y-112833274D03*
X321350000Y-114000000D03*
X321833274Y-115166726D03*
X323000000Y-115650000D03*
X324166726Y-115166726D03*
X324650000Y-114000000D03*
D13*
X323000000Y-114000000D03*
D12*
X96166726Y-112833274D03*
X95000000Y-112350000D03*
X93833274Y-112833274D03*
X93350000Y-114000000D03*
X93833274Y-115166726D03*
X95000000Y-115650000D03*
X96166726Y-115166726D03*
X96650000Y-114000000D03*
D13*
X95000000Y-114000000D03*
D12*
X324166726Y-150833274D03*
X323000000Y-150350000D03*
X321833274Y-150833274D03*
X321350000Y-152000000D03*
X321833274Y-153166726D03*
X323000000Y-153650000D03*
X324166726Y-153166726D03*
X324650000Y-152000000D03*
D13*
X323000000Y-152000000D03*
D12*
X96166726Y-150833274D03*
X95000000Y-150350000D03*
X93833274Y-150833274D03*
X93350000Y-152000000D03*
X93833274Y-153166726D03*
X95000000Y-153650000D03*
X96166726Y-153166726D03*
X96650000Y-152000000D03*
D13*
X95000000Y-152000000D03*
M02*
