G04 #@! TF.GenerationSoftware,KiCad,Pcbnew,(5.1.4)-1*
G04 #@! TF.CreationDate,2021-09-19T23:12:05-04:00*
G04 #@! TF.ProjectId,horizon-mx-bottom-plate,686f7269-7a6f-46e2-9d6d-782d626f7474,rev?*
G04 #@! TF.SameCoordinates,Original*
G04 #@! TF.FileFunction,Copper,L2,Bot*
G04 #@! TF.FilePolarity,Positive*
%FSLAX46Y46*%
G04 Gerber Fmt 4.6, Leading zero omitted, Abs format (unit mm)*
G04 Created by KiCad (PCBNEW (5.1.4)-1) date 2021-09-19 23:12:05*
%MOMM*%
%LPD*%
G04 APERTURE LIST*
%ADD10C,0.700000*%
%ADD11C,4.400000*%
G04 APERTURE END LIST*
D10*
X224166726Y-126833274D03*
X223000000Y-126350000D03*
X221833274Y-126833274D03*
X221350000Y-128000000D03*
X221833274Y-129166726D03*
X223000000Y-129650000D03*
X224166726Y-129166726D03*
X224650000Y-128000000D03*
D11*
X223000000Y-128000000D03*
D10*
X196166726Y-126833274D03*
X195000000Y-126350000D03*
X193833274Y-126833274D03*
X193350000Y-128000000D03*
X193833274Y-129166726D03*
X195000000Y-129650000D03*
X196166726Y-129166726D03*
X196650000Y-128000000D03*
D11*
X195000000Y-128000000D03*
D10*
X224166726Y-98833274D03*
X223000000Y-98350000D03*
X221833274Y-98833274D03*
X221350000Y-100000000D03*
X221833274Y-101166726D03*
X223000000Y-101650000D03*
X224166726Y-101166726D03*
X224650000Y-100000000D03*
D11*
X223000000Y-100000000D03*
D10*
X196166726Y-98833274D03*
X195000000Y-98350000D03*
X193833274Y-98833274D03*
X193350000Y-100000000D03*
X193833274Y-101166726D03*
X195000000Y-101650000D03*
X196166726Y-101166726D03*
X196650000Y-100000000D03*
D11*
X195000000Y-100000000D03*
D10*
X324166726Y-112833274D03*
X323000000Y-112350000D03*
X321833274Y-112833274D03*
X321350000Y-114000000D03*
X321833274Y-115166726D03*
X323000000Y-115650000D03*
X324166726Y-115166726D03*
X324650000Y-114000000D03*
D11*
X323000000Y-114000000D03*
D10*
X96166726Y-112833274D03*
X95000000Y-112350000D03*
X93833274Y-112833274D03*
X93350000Y-114000000D03*
X93833274Y-115166726D03*
X95000000Y-115650000D03*
X96166726Y-115166726D03*
X96650000Y-114000000D03*
D11*
X95000000Y-114000000D03*
D10*
X324166726Y-150833274D03*
X323000000Y-150350000D03*
X321833274Y-150833274D03*
X321350000Y-152000000D03*
X321833274Y-153166726D03*
X323000000Y-153650000D03*
X324166726Y-153166726D03*
X324650000Y-152000000D03*
D11*
X323000000Y-152000000D03*
D10*
X96166726Y-150833274D03*
X95000000Y-150350000D03*
X93833274Y-150833274D03*
X93350000Y-152000000D03*
X93833274Y-153166726D03*
X95000000Y-153650000D03*
X96166726Y-153166726D03*
X96650000Y-152000000D03*
D11*
X95000000Y-152000000D03*
M02*
