G04 #@! TF.GenerationSoftware,KiCad,Pcbnew,(5.1.4)-1*
G04 #@! TF.CreationDate,2021-09-25T13:38:15-04:00*
G04 #@! TF.ProjectId,horizon-mx-bottom-plate,686f7269-7a6f-46e2-9d6d-782d626f7474,rev?*
G04 #@! TF.SameCoordinates,Original*
G04 #@! TF.FileFunction,Profile,NP*
%FSLAX46Y46*%
G04 Gerber Fmt 4.6, Leading zero omitted, Abs format (unit mm)*
G04 Created by KiCad (PCBNEW (5.1.4)-1) date 2021-09-25 13:38:15*
%MOMM*%
%LPD*%
G04 APERTURE LIST*
%ADD10C,0.050000*%
G04 APERTURE END LIST*
D10*
X78000000Y-171000000D02*
G75*
G02X76000000Y-169000000I0J2000000D01*
G01*
X342000000Y-169000000D02*
G75*
G02X340000000Y-171000000I-2000000J0D01*
G01*
X340000000Y-95000000D02*
G75*
G02X342000000Y-97000000I0J-2000000D01*
G01*
X76000000Y-97000000D02*
G75*
G02X78000000Y-95000000I2000000J0D01*
G01*
X76000000Y-169000000D02*
X76000000Y-97000000D01*
X340000000Y-171000000D02*
X78000000Y-171000000D01*
X342000000Y-97000000D02*
X342000000Y-169000000D01*
X78000000Y-95000000D02*
X340000000Y-95000000D01*
X198350000Y-117250000D02*
G75*
G03X198350000Y-117250000I-1100000J0D01*
G01*
X193850000Y-117250000D02*
G75*
G03X193850000Y-117250000I-1100000J0D01*
G01*
X198350000Y-110750000D02*
G75*
G03X198350000Y-110750000I-1100000J0D01*
G01*
X193850000Y-110750000D02*
G75*
G03X193850000Y-110750000I-1100000J0D01*
G01*
X336390000Y-156420000D02*
G75*
G03X336390000Y-156420000I-1350000J0D01*
G01*
X330040000Y-158960000D02*
G75*
G03X330040000Y-158960000I-1350000J0D01*
G01*
X338455000Y-161500000D02*
G75*
G03X338455000Y-161500000I-875000J0D01*
G01*
X334500000Y-161500000D02*
G75*
G03X334500000Y-161500000I-2000000J0D01*
G01*
X328295000Y-161500000D02*
G75*
G03X328295000Y-161500000I-875000J0D01*
G01*
X317390000Y-156420000D02*
G75*
G03X317390000Y-156420000I-1350000J0D01*
G01*
X311040000Y-158960000D02*
G75*
G03X311040000Y-158960000I-1350000J0D01*
G01*
X319455000Y-161500000D02*
G75*
G03X319455000Y-161500000I-875000J0D01*
G01*
X315500000Y-161500000D02*
G75*
G03X315500000Y-161500000I-2000000J0D01*
G01*
X309295000Y-161500000D02*
G75*
G03X309295000Y-161500000I-875000J0D01*
G01*
X298390000Y-156420000D02*
G75*
G03X298390000Y-156420000I-1350000J0D01*
G01*
X292040000Y-158960000D02*
G75*
G03X292040000Y-158960000I-1350000J0D01*
G01*
X300455000Y-161500000D02*
G75*
G03X300455000Y-161500000I-875000J0D01*
G01*
X296500000Y-161500000D02*
G75*
G03X296500000Y-161500000I-2000000J0D01*
G01*
X290295000Y-161500000D02*
G75*
G03X290295000Y-161500000I-875000J0D01*
G01*
X279390000Y-156420000D02*
G75*
G03X279390000Y-156420000I-1350000J0D01*
G01*
X273040000Y-158960000D02*
G75*
G03X273040000Y-158960000I-1350000J0D01*
G01*
X281455000Y-161500000D02*
G75*
G03X281455000Y-161500000I-875000J0D01*
G01*
X277500000Y-161500000D02*
G75*
G03X277500000Y-161500000I-2000000J0D01*
G01*
X271295000Y-161500000D02*
G75*
G03X271295000Y-161500000I-875000J0D01*
G01*
X260390000Y-156420000D02*
G75*
G03X260390000Y-156420000I-1350000J0D01*
G01*
X254040000Y-158960000D02*
G75*
G03X254040000Y-158960000I-1350000J0D01*
G01*
X262455000Y-161500000D02*
G75*
G03X262455000Y-161500000I-875000J0D01*
G01*
X258500000Y-161500000D02*
G75*
G03X258500000Y-161500000I-2000000J0D01*
G01*
X252295000Y-161500000D02*
G75*
G03X252295000Y-161500000I-875000J0D01*
G01*
X241390000Y-156420000D02*
G75*
G03X241390000Y-156420000I-1350000J0D01*
G01*
X235040000Y-158960000D02*
G75*
G03X235040000Y-158960000I-1350000J0D01*
G01*
X243455000Y-161500000D02*
G75*
G03X243455000Y-161500000I-875000J0D01*
G01*
X239500000Y-161500000D02*
G75*
G03X239500000Y-161500000I-2000000J0D01*
G01*
X233295000Y-161500000D02*
G75*
G03X233295000Y-161500000I-875000J0D01*
G01*
X222390000Y-156420000D02*
G75*
G03X222390000Y-156420000I-1350000J0D01*
G01*
X216040000Y-158960000D02*
G75*
G03X216040000Y-158960000I-1350000J0D01*
G01*
X224455000Y-161500000D02*
G75*
G03X224455000Y-161500000I-875000J0D01*
G01*
X220500000Y-161500000D02*
G75*
G03X220500000Y-161500000I-2000000J0D01*
G01*
X214295000Y-161500000D02*
G75*
G03X214295000Y-161500000I-875000J0D01*
G01*
X203390000Y-156420000D02*
G75*
G03X203390000Y-156420000I-1350000J0D01*
G01*
X197040000Y-158960000D02*
G75*
G03X197040000Y-158960000I-1350000J0D01*
G01*
X205455000Y-161500000D02*
G75*
G03X205455000Y-161500000I-875000J0D01*
G01*
X201500000Y-161500000D02*
G75*
G03X201500000Y-161500000I-2000000J0D01*
G01*
X195295000Y-161500000D02*
G75*
G03X195295000Y-161500000I-875000J0D01*
G01*
X184390000Y-156420000D02*
G75*
G03X184390000Y-156420000I-1350000J0D01*
G01*
X178040000Y-158960000D02*
G75*
G03X178040000Y-158960000I-1350000J0D01*
G01*
X186455000Y-161500000D02*
G75*
G03X186455000Y-161500000I-875000J0D01*
G01*
X182500000Y-161500000D02*
G75*
G03X182500000Y-161500000I-2000000J0D01*
G01*
X176295000Y-161500000D02*
G75*
G03X176295000Y-161500000I-875000J0D01*
G01*
X165390000Y-156420000D02*
G75*
G03X165390000Y-156420000I-1350000J0D01*
G01*
X159040000Y-158960000D02*
G75*
G03X159040000Y-158960000I-1350000J0D01*
G01*
X167455000Y-161500000D02*
G75*
G03X167455000Y-161500000I-875000J0D01*
G01*
X163500000Y-161500000D02*
G75*
G03X163500000Y-161500000I-2000000J0D01*
G01*
X157295000Y-161500000D02*
G75*
G03X157295000Y-161500000I-875000J0D01*
G01*
X146390000Y-156420000D02*
G75*
G03X146390000Y-156420000I-1350000J0D01*
G01*
X140040000Y-158960000D02*
G75*
G03X140040000Y-158960000I-1350000J0D01*
G01*
X148455000Y-161500000D02*
G75*
G03X148455000Y-161500000I-875000J0D01*
G01*
X144500000Y-161500000D02*
G75*
G03X144500000Y-161500000I-2000000J0D01*
G01*
X138295000Y-161500000D02*
G75*
G03X138295000Y-161500000I-875000J0D01*
G01*
X127390000Y-156420000D02*
G75*
G03X127390000Y-156420000I-1350000J0D01*
G01*
X121040000Y-158960000D02*
G75*
G03X121040000Y-158960000I-1350000J0D01*
G01*
X129455000Y-161500000D02*
G75*
G03X129455000Y-161500000I-875000J0D01*
G01*
X125500000Y-161500000D02*
G75*
G03X125500000Y-161500000I-2000000J0D01*
G01*
X119295000Y-161500000D02*
G75*
G03X119295000Y-161500000I-875000J0D01*
G01*
X108390000Y-156420000D02*
G75*
G03X108390000Y-156420000I-1350000J0D01*
G01*
X102040000Y-158960000D02*
G75*
G03X102040000Y-158960000I-1350000J0D01*
G01*
X110455000Y-161500000D02*
G75*
G03X110455000Y-161500000I-875000J0D01*
G01*
X106500000Y-161500000D02*
G75*
G03X106500000Y-161500000I-2000000J0D01*
G01*
X100295000Y-161500000D02*
G75*
G03X100295000Y-161500000I-875000J0D01*
G01*
X89390000Y-156420000D02*
G75*
G03X89390000Y-156420000I-1350000J0D01*
G01*
X83040000Y-158960000D02*
G75*
G03X83040000Y-158960000I-1350000J0D01*
G01*
X91455000Y-161500000D02*
G75*
G03X91455000Y-161500000I-875000J0D01*
G01*
X87500000Y-161500000D02*
G75*
G03X87500000Y-161500000I-2000000J0D01*
G01*
X81295000Y-161500000D02*
G75*
G03X81295000Y-161500000I-875000J0D01*
G01*
X336390000Y-137420000D02*
G75*
G03X336390000Y-137420000I-1350000J0D01*
G01*
X330040000Y-139960000D02*
G75*
G03X330040000Y-139960000I-1350000J0D01*
G01*
X338455000Y-142500000D02*
G75*
G03X338455000Y-142500000I-875000J0D01*
G01*
X334500000Y-142500000D02*
G75*
G03X334500000Y-142500000I-2000000J0D01*
G01*
X328295000Y-142500000D02*
G75*
G03X328295000Y-142500000I-875000J0D01*
G01*
X317390000Y-137420000D02*
G75*
G03X317390000Y-137420000I-1350000J0D01*
G01*
X311040000Y-139960000D02*
G75*
G03X311040000Y-139960000I-1350000J0D01*
G01*
X319455000Y-142500000D02*
G75*
G03X319455000Y-142500000I-875000J0D01*
G01*
X315500000Y-142500000D02*
G75*
G03X315500000Y-142500000I-2000000J0D01*
G01*
X309295000Y-142500000D02*
G75*
G03X309295000Y-142500000I-875000J0D01*
G01*
X298390000Y-137420000D02*
G75*
G03X298390000Y-137420000I-1350000J0D01*
G01*
X292040000Y-139960000D02*
G75*
G03X292040000Y-139960000I-1350000J0D01*
G01*
X300455000Y-142500000D02*
G75*
G03X300455000Y-142500000I-875000J0D01*
G01*
X296500000Y-142500000D02*
G75*
G03X296500000Y-142500000I-2000000J0D01*
G01*
X290295000Y-142500000D02*
G75*
G03X290295000Y-142500000I-875000J0D01*
G01*
X279390000Y-137420000D02*
G75*
G03X279390000Y-137420000I-1350000J0D01*
G01*
X273040000Y-139960000D02*
G75*
G03X273040000Y-139960000I-1350000J0D01*
G01*
X281455000Y-142500000D02*
G75*
G03X281455000Y-142500000I-875000J0D01*
G01*
X277500000Y-142500000D02*
G75*
G03X277500000Y-142500000I-2000000J0D01*
G01*
X271295000Y-142500000D02*
G75*
G03X271295000Y-142500000I-875000J0D01*
G01*
X260390000Y-137420000D02*
G75*
G03X260390000Y-137420000I-1350000J0D01*
G01*
X254040000Y-139960000D02*
G75*
G03X254040000Y-139960000I-1350000J0D01*
G01*
X262455000Y-142500000D02*
G75*
G03X262455000Y-142500000I-875000J0D01*
G01*
X258500000Y-142500000D02*
G75*
G03X258500000Y-142500000I-2000000J0D01*
G01*
X252295000Y-142500000D02*
G75*
G03X252295000Y-142500000I-875000J0D01*
G01*
X241390000Y-137420000D02*
G75*
G03X241390000Y-137420000I-1350000J0D01*
G01*
X235040000Y-139960000D02*
G75*
G03X235040000Y-139960000I-1350000J0D01*
G01*
X243455000Y-142500000D02*
G75*
G03X243455000Y-142500000I-875000J0D01*
G01*
X239500000Y-142500000D02*
G75*
G03X239500000Y-142500000I-2000000J0D01*
G01*
X233295000Y-142500000D02*
G75*
G03X233295000Y-142500000I-875000J0D01*
G01*
X222390000Y-137420000D02*
G75*
G03X222390000Y-137420000I-1350000J0D01*
G01*
X216040000Y-139960000D02*
G75*
G03X216040000Y-139960000I-1350000J0D01*
G01*
X224455000Y-142500000D02*
G75*
G03X224455000Y-142500000I-875000J0D01*
G01*
X220500000Y-142500000D02*
G75*
G03X220500000Y-142500000I-2000000J0D01*
G01*
X214295000Y-142500000D02*
G75*
G03X214295000Y-142500000I-875000J0D01*
G01*
X203390000Y-137420000D02*
G75*
G03X203390000Y-137420000I-1350000J0D01*
G01*
X197040000Y-139960000D02*
G75*
G03X197040000Y-139960000I-1350000J0D01*
G01*
X205455000Y-142500000D02*
G75*
G03X205455000Y-142500000I-875000J0D01*
G01*
X201500000Y-142500000D02*
G75*
G03X201500000Y-142500000I-2000000J0D01*
G01*
X195295000Y-142500000D02*
G75*
G03X195295000Y-142500000I-875000J0D01*
G01*
X184390000Y-137420000D02*
G75*
G03X184390000Y-137420000I-1350000J0D01*
G01*
X178040000Y-139960000D02*
G75*
G03X178040000Y-139960000I-1350000J0D01*
G01*
X186455000Y-142500000D02*
G75*
G03X186455000Y-142500000I-875000J0D01*
G01*
X182500000Y-142500000D02*
G75*
G03X182500000Y-142500000I-2000000J0D01*
G01*
X176295000Y-142500000D02*
G75*
G03X176295000Y-142500000I-875000J0D01*
G01*
X165390000Y-137420000D02*
G75*
G03X165390000Y-137420000I-1350000J0D01*
G01*
X159040000Y-139960000D02*
G75*
G03X159040000Y-139960000I-1350000J0D01*
G01*
X167455000Y-142500000D02*
G75*
G03X167455000Y-142500000I-875000J0D01*
G01*
X163500000Y-142500000D02*
G75*
G03X163500000Y-142500000I-2000000J0D01*
G01*
X157295000Y-142500000D02*
G75*
G03X157295000Y-142500000I-875000J0D01*
G01*
X146390000Y-137420000D02*
G75*
G03X146390000Y-137420000I-1350000J0D01*
G01*
X140040000Y-139960000D02*
G75*
G03X140040000Y-139960000I-1350000J0D01*
G01*
X148455000Y-142500000D02*
G75*
G03X148455000Y-142500000I-875000J0D01*
G01*
X144500000Y-142500000D02*
G75*
G03X144500000Y-142500000I-2000000J0D01*
G01*
X138295000Y-142500000D02*
G75*
G03X138295000Y-142500000I-875000J0D01*
G01*
X127390000Y-137420000D02*
G75*
G03X127390000Y-137420000I-1350000J0D01*
G01*
X121040000Y-139960000D02*
G75*
G03X121040000Y-139960000I-1350000J0D01*
G01*
X129455000Y-142500000D02*
G75*
G03X129455000Y-142500000I-875000J0D01*
G01*
X125500000Y-142500000D02*
G75*
G03X125500000Y-142500000I-2000000J0D01*
G01*
X119295000Y-142500000D02*
G75*
G03X119295000Y-142500000I-875000J0D01*
G01*
X108390000Y-137420000D02*
G75*
G03X108390000Y-137420000I-1350000J0D01*
G01*
X102040000Y-139960000D02*
G75*
G03X102040000Y-139960000I-1350000J0D01*
G01*
X110455000Y-142500000D02*
G75*
G03X110455000Y-142500000I-875000J0D01*
G01*
X106500000Y-142500000D02*
G75*
G03X106500000Y-142500000I-2000000J0D01*
G01*
X100295000Y-142500000D02*
G75*
G03X100295000Y-142500000I-875000J0D01*
G01*
X89390000Y-137420000D02*
G75*
G03X89390000Y-137420000I-1350000J0D01*
G01*
X83040000Y-139960000D02*
G75*
G03X83040000Y-139960000I-1350000J0D01*
G01*
X91455000Y-142500000D02*
G75*
G03X91455000Y-142500000I-875000J0D01*
G01*
X87500000Y-142500000D02*
G75*
G03X87500000Y-142500000I-2000000J0D01*
G01*
X81295000Y-142500000D02*
G75*
G03X81295000Y-142500000I-875000J0D01*
G01*
X336390000Y-118420000D02*
G75*
G03X336390000Y-118420000I-1350000J0D01*
G01*
X330040000Y-120960000D02*
G75*
G03X330040000Y-120960000I-1350000J0D01*
G01*
X338455000Y-123500000D02*
G75*
G03X338455000Y-123500000I-875000J0D01*
G01*
X334500000Y-123500000D02*
G75*
G03X334500000Y-123500000I-2000000J0D01*
G01*
X328295000Y-123500000D02*
G75*
G03X328295000Y-123500000I-875000J0D01*
G01*
X317390000Y-118420000D02*
G75*
G03X317390000Y-118420000I-1350000J0D01*
G01*
X311040000Y-120960000D02*
G75*
G03X311040000Y-120960000I-1350000J0D01*
G01*
X319455000Y-123500000D02*
G75*
G03X319455000Y-123500000I-875000J0D01*
G01*
X315500000Y-123500000D02*
G75*
G03X315500000Y-123500000I-2000000J0D01*
G01*
X309295000Y-123500000D02*
G75*
G03X309295000Y-123500000I-875000J0D01*
G01*
X298390000Y-118420000D02*
G75*
G03X298390000Y-118420000I-1350000J0D01*
G01*
X292040000Y-120960000D02*
G75*
G03X292040000Y-120960000I-1350000J0D01*
G01*
X300455000Y-123500000D02*
G75*
G03X300455000Y-123500000I-875000J0D01*
G01*
X296500000Y-123500000D02*
G75*
G03X296500000Y-123500000I-2000000J0D01*
G01*
X290295000Y-123500000D02*
G75*
G03X290295000Y-123500000I-875000J0D01*
G01*
X279390000Y-118420000D02*
G75*
G03X279390000Y-118420000I-1350000J0D01*
G01*
X273040000Y-120960000D02*
G75*
G03X273040000Y-120960000I-1350000J0D01*
G01*
X281455000Y-123500000D02*
G75*
G03X281455000Y-123500000I-875000J0D01*
G01*
X277500000Y-123500000D02*
G75*
G03X277500000Y-123500000I-2000000J0D01*
G01*
X271295000Y-123500000D02*
G75*
G03X271295000Y-123500000I-875000J0D01*
G01*
X260390000Y-118420000D02*
G75*
G03X260390000Y-118420000I-1350000J0D01*
G01*
X254040000Y-120960000D02*
G75*
G03X254040000Y-120960000I-1350000J0D01*
G01*
X262455000Y-123500000D02*
G75*
G03X262455000Y-123500000I-875000J0D01*
G01*
X258500000Y-123500000D02*
G75*
G03X258500000Y-123500000I-2000000J0D01*
G01*
X252295000Y-123500000D02*
G75*
G03X252295000Y-123500000I-875000J0D01*
G01*
X241390000Y-118420000D02*
G75*
G03X241390000Y-118420000I-1350000J0D01*
G01*
X235040000Y-120960000D02*
G75*
G03X235040000Y-120960000I-1350000J0D01*
G01*
X243455000Y-123500000D02*
G75*
G03X243455000Y-123500000I-875000J0D01*
G01*
X239500000Y-123500000D02*
G75*
G03X239500000Y-123500000I-2000000J0D01*
G01*
X233295000Y-123500000D02*
G75*
G03X233295000Y-123500000I-875000J0D01*
G01*
X184390000Y-118420000D02*
G75*
G03X184390000Y-118420000I-1350000J0D01*
G01*
X178040000Y-120960000D02*
G75*
G03X178040000Y-120960000I-1350000J0D01*
G01*
X186455000Y-123500000D02*
G75*
G03X186455000Y-123500000I-875000J0D01*
G01*
X182500000Y-123500000D02*
G75*
G03X182500000Y-123500000I-2000000J0D01*
G01*
X176295000Y-123500000D02*
G75*
G03X176295000Y-123500000I-875000J0D01*
G01*
X165390000Y-118420000D02*
G75*
G03X165390000Y-118420000I-1350000J0D01*
G01*
X159040000Y-120960000D02*
G75*
G03X159040000Y-120960000I-1350000J0D01*
G01*
X167455000Y-123500000D02*
G75*
G03X167455000Y-123500000I-875000J0D01*
G01*
X163500000Y-123500000D02*
G75*
G03X163500000Y-123500000I-2000000J0D01*
G01*
X157295000Y-123500000D02*
G75*
G03X157295000Y-123500000I-875000J0D01*
G01*
X146390000Y-118420000D02*
G75*
G03X146390000Y-118420000I-1350000J0D01*
G01*
X140040000Y-120960000D02*
G75*
G03X140040000Y-120960000I-1350000J0D01*
G01*
X148455000Y-123500000D02*
G75*
G03X148455000Y-123500000I-875000J0D01*
G01*
X144500000Y-123500000D02*
G75*
G03X144500000Y-123500000I-2000000J0D01*
G01*
X138295000Y-123500000D02*
G75*
G03X138295000Y-123500000I-875000J0D01*
G01*
X127390000Y-118420000D02*
G75*
G03X127390000Y-118420000I-1350000J0D01*
G01*
X121040000Y-120960000D02*
G75*
G03X121040000Y-120960000I-1350000J0D01*
G01*
X129455000Y-123500000D02*
G75*
G03X129455000Y-123500000I-875000J0D01*
G01*
X125500000Y-123500000D02*
G75*
G03X125500000Y-123500000I-2000000J0D01*
G01*
X119295000Y-123500000D02*
G75*
G03X119295000Y-123500000I-875000J0D01*
G01*
X108390000Y-118420000D02*
G75*
G03X108390000Y-118420000I-1350000J0D01*
G01*
X102040000Y-120960000D02*
G75*
G03X102040000Y-120960000I-1350000J0D01*
G01*
X110455000Y-123500000D02*
G75*
G03X110455000Y-123500000I-875000J0D01*
G01*
X106500000Y-123500000D02*
G75*
G03X106500000Y-123500000I-2000000J0D01*
G01*
X100295000Y-123500000D02*
G75*
G03X100295000Y-123500000I-875000J0D01*
G01*
X89390000Y-118420000D02*
G75*
G03X89390000Y-118420000I-1350000J0D01*
G01*
X83040000Y-120960000D02*
G75*
G03X83040000Y-120960000I-1350000J0D01*
G01*
X91455000Y-123500000D02*
G75*
G03X91455000Y-123500000I-875000J0D01*
G01*
X87500000Y-123500000D02*
G75*
G03X87500000Y-123500000I-2000000J0D01*
G01*
X81295000Y-123500000D02*
G75*
G03X81295000Y-123500000I-875000J0D01*
G01*
X336390000Y-99420000D02*
G75*
G03X336390000Y-99420000I-1350000J0D01*
G01*
X330040000Y-101960000D02*
G75*
G03X330040000Y-101960000I-1350000J0D01*
G01*
X338455000Y-104500000D02*
G75*
G03X338455000Y-104500000I-875000J0D01*
G01*
X334500000Y-104500000D02*
G75*
G03X334500000Y-104500000I-2000000J0D01*
G01*
X328295000Y-104500000D02*
G75*
G03X328295000Y-104500000I-875000J0D01*
G01*
X317390000Y-99420000D02*
G75*
G03X317390000Y-99420000I-1350000J0D01*
G01*
X311040000Y-101960000D02*
G75*
G03X311040000Y-101960000I-1350000J0D01*
G01*
X319455000Y-104500000D02*
G75*
G03X319455000Y-104500000I-875000J0D01*
G01*
X315500000Y-104500000D02*
G75*
G03X315500000Y-104500000I-2000000J0D01*
G01*
X309295000Y-104500000D02*
G75*
G03X309295000Y-104500000I-875000J0D01*
G01*
X298390000Y-99420000D02*
G75*
G03X298390000Y-99420000I-1350000J0D01*
G01*
X292040000Y-101960000D02*
G75*
G03X292040000Y-101960000I-1350000J0D01*
G01*
X300455000Y-104500000D02*
G75*
G03X300455000Y-104500000I-875000J0D01*
G01*
X296500000Y-104500000D02*
G75*
G03X296500000Y-104500000I-2000000J0D01*
G01*
X290295000Y-104500000D02*
G75*
G03X290295000Y-104500000I-875000J0D01*
G01*
X279390000Y-99420000D02*
G75*
G03X279390000Y-99420000I-1350000J0D01*
G01*
X273040000Y-101960000D02*
G75*
G03X273040000Y-101960000I-1350000J0D01*
G01*
X281455000Y-104500000D02*
G75*
G03X281455000Y-104500000I-875000J0D01*
G01*
X277500000Y-104500000D02*
G75*
G03X277500000Y-104500000I-2000000J0D01*
G01*
X271295000Y-104500000D02*
G75*
G03X271295000Y-104500000I-875000J0D01*
G01*
X260390000Y-99420000D02*
G75*
G03X260390000Y-99420000I-1350000J0D01*
G01*
X254040000Y-101960000D02*
G75*
G03X254040000Y-101960000I-1350000J0D01*
G01*
X262455000Y-104500000D02*
G75*
G03X262455000Y-104500000I-875000J0D01*
G01*
X258500000Y-104500000D02*
G75*
G03X258500000Y-104500000I-2000000J0D01*
G01*
X252295000Y-104500000D02*
G75*
G03X252295000Y-104500000I-875000J0D01*
G01*
X241390000Y-99420000D02*
G75*
G03X241390000Y-99420000I-1350000J0D01*
G01*
X235040000Y-101960000D02*
G75*
G03X235040000Y-101960000I-1350000J0D01*
G01*
X243455000Y-104500000D02*
G75*
G03X243455000Y-104500000I-875000J0D01*
G01*
X239500000Y-104500000D02*
G75*
G03X239500000Y-104500000I-2000000J0D01*
G01*
X233295000Y-104500000D02*
G75*
G03X233295000Y-104500000I-875000J0D01*
G01*
X184390000Y-99420000D02*
G75*
G03X184390000Y-99420000I-1350000J0D01*
G01*
X178040000Y-101960000D02*
G75*
G03X178040000Y-101960000I-1350000J0D01*
G01*
X186455000Y-104500000D02*
G75*
G03X186455000Y-104500000I-875000J0D01*
G01*
X182500000Y-104500000D02*
G75*
G03X182500000Y-104500000I-2000000J0D01*
G01*
X176295000Y-104500000D02*
G75*
G03X176295000Y-104500000I-875000J0D01*
G01*
X165390000Y-99420000D02*
G75*
G03X165390000Y-99420000I-1350000J0D01*
G01*
X159040000Y-101960000D02*
G75*
G03X159040000Y-101960000I-1350000J0D01*
G01*
X167455000Y-104500000D02*
G75*
G03X167455000Y-104500000I-875000J0D01*
G01*
X163500000Y-104500000D02*
G75*
G03X163500000Y-104500000I-2000000J0D01*
G01*
X157295000Y-104500000D02*
G75*
G03X157295000Y-104500000I-875000J0D01*
G01*
X146390000Y-99420000D02*
G75*
G03X146390000Y-99420000I-1350000J0D01*
G01*
X140040000Y-101960000D02*
G75*
G03X140040000Y-101960000I-1350000J0D01*
G01*
X148455000Y-104500000D02*
G75*
G03X148455000Y-104500000I-875000J0D01*
G01*
X144500000Y-104500000D02*
G75*
G03X144500000Y-104500000I-2000000J0D01*
G01*
X138295000Y-104500000D02*
G75*
G03X138295000Y-104500000I-875000J0D01*
G01*
X127390000Y-99420000D02*
G75*
G03X127390000Y-99420000I-1350000J0D01*
G01*
X121040000Y-101960000D02*
G75*
G03X121040000Y-101960000I-1350000J0D01*
G01*
X129455000Y-104500000D02*
G75*
G03X129455000Y-104500000I-875000J0D01*
G01*
X125500000Y-104500000D02*
G75*
G03X125500000Y-104500000I-2000000J0D01*
G01*
X119295000Y-104500000D02*
G75*
G03X119295000Y-104500000I-875000J0D01*
G01*
X108390000Y-99420000D02*
G75*
G03X108390000Y-99420000I-1350000J0D01*
G01*
X102040000Y-101960000D02*
G75*
G03X102040000Y-101960000I-1350000J0D01*
G01*
X110455000Y-104500000D02*
G75*
G03X110455000Y-104500000I-875000J0D01*
G01*
X106500000Y-104500000D02*
G75*
G03X106500000Y-104500000I-2000000J0D01*
G01*
X100295000Y-104500000D02*
G75*
G03X100295000Y-104500000I-875000J0D01*
G01*
X89390000Y-99420000D02*
G75*
G03X89390000Y-99420000I-1350000J0D01*
G01*
X83040000Y-101960000D02*
G75*
G03X83040000Y-101960000I-1350000J0D01*
G01*
X91455000Y-104500000D02*
G75*
G03X91455000Y-104500000I-875000J0D01*
G01*
X87500000Y-104500000D02*
G75*
G03X87500000Y-104500000I-2000000J0D01*
G01*
X81295000Y-104500000D02*
G75*
G03X81295000Y-104500000I-875000J0D01*
G01*
X334150000Y-167400000D02*
G75*
G03X334150000Y-165000000I0J1200000D01*
G01*
X330850000Y-165000000D02*
G75*
G03X330850000Y-167400000I0J-1200000D01*
G01*
X334150000Y-167400000D02*
X330850000Y-167400000D01*
X330850000Y-165000000D02*
X334150000Y-165000000D01*
X315150000Y-167400000D02*
G75*
G03X315150000Y-165000000I0J1200000D01*
G01*
X311850000Y-165000000D02*
G75*
G03X311850000Y-167400000I0J-1200000D01*
G01*
X315150000Y-167400000D02*
X311850000Y-167400000D01*
X311850000Y-165000000D02*
X315150000Y-165000000D01*
X296150000Y-167400000D02*
G75*
G03X296150000Y-165000000I0J1200000D01*
G01*
X292850000Y-165000000D02*
G75*
G03X292850000Y-167400000I0J-1200000D01*
G01*
X296150000Y-167400000D02*
X292850000Y-167400000D01*
X292850000Y-165000000D02*
X296150000Y-165000000D01*
X277150000Y-167400000D02*
G75*
G03X277150000Y-165000000I0J1200000D01*
G01*
X273850000Y-165000000D02*
G75*
G03X273850000Y-167400000I0J-1200000D01*
G01*
X277150000Y-167400000D02*
X273850000Y-167400000D01*
X273850000Y-165000000D02*
X277150000Y-165000000D01*
X258150000Y-167400000D02*
G75*
G03X258150000Y-165000000I0J1200000D01*
G01*
X254850000Y-165000000D02*
G75*
G03X254850000Y-167400000I0J-1200000D01*
G01*
X258150000Y-167400000D02*
X254850000Y-167400000D01*
X254850000Y-165000000D02*
X258150000Y-165000000D01*
X239150000Y-167400000D02*
G75*
G03X239150000Y-165000000I0J1200000D01*
G01*
X235850000Y-165000000D02*
G75*
G03X235850000Y-167400000I0J-1200000D01*
G01*
X239150000Y-167400000D02*
X235850000Y-167400000D01*
X235850000Y-165000000D02*
X239150000Y-165000000D01*
X220150000Y-167400000D02*
G75*
G03X220150000Y-165000000I0J1200000D01*
G01*
X216850000Y-165000000D02*
G75*
G03X216850000Y-167400000I0J-1200000D01*
G01*
X220150000Y-167400000D02*
X216850000Y-167400000D01*
X216850000Y-165000000D02*
X220150000Y-165000000D01*
X201150000Y-167400000D02*
G75*
G03X201150000Y-165000000I0J1200000D01*
G01*
X197850000Y-165000000D02*
G75*
G03X197850000Y-167400000I0J-1200000D01*
G01*
X201150000Y-167400000D02*
X197850000Y-167400000D01*
X197850000Y-165000000D02*
X201150000Y-165000000D01*
X182150000Y-167400000D02*
G75*
G03X182150000Y-165000000I0J1200000D01*
G01*
X178850000Y-165000000D02*
G75*
G03X178850000Y-167400000I0J-1200000D01*
G01*
X182150000Y-167400000D02*
X178850000Y-167400000D01*
X178850000Y-165000000D02*
X182150000Y-165000000D01*
X163150000Y-167400000D02*
G75*
G03X163150000Y-165000000I0J1200000D01*
G01*
X159850000Y-165000000D02*
G75*
G03X159850000Y-167400000I0J-1200000D01*
G01*
X163150000Y-167400000D02*
X159850000Y-167400000D01*
X159850000Y-165000000D02*
X163150000Y-165000000D01*
X144150000Y-167400000D02*
G75*
G03X144150000Y-165000000I0J1200000D01*
G01*
X140850000Y-165000000D02*
G75*
G03X140850000Y-167400000I0J-1200000D01*
G01*
X144150000Y-167400000D02*
X140850000Y-167400000D01*
X140850000Y-165000000D02*
X144150000Y-165000000D01*
X125150000Y-167400000D02*
G75*
G03X125150000Y-165000000I0J1200000D01*
G01*
X121850000Y-165000000D02*
G75*
G03X121850000Y-167400000I0J-1200000D01*
G01*
X125150000Y-167400000D02*
X121850000Y-167400000D01*
X121850000Y-165000000D02*
X125150000Y-165000000D01*
X106150000Y-167400000D02*
G75*
G03X106150000Y-165000000I0J1200000D01*
G01*
X102850000Y-165000000D02*
G75*
G03X102850000Y-167400000I0J-1200000D01*
G01*
X106150000Y-167400000D02*
X102850000Y-167400000D01*
X102850000Y-165000000D02*
X106150000Y-165000000D01*
X87150000Y-167400000D02*
G75*
G03X87150000Y-165000000I0J1200000D01*
G01*
X83850000Y-165000000D02*
G75*
G03X83850000Y-167400000I0J-1200000D01*
G01*
X87150000Y-167400000D02*
X83850000Y-167400000D01*
X83850000Y-165000000D02*
X87150000Y-165000000D01*
X334150000Y-148400000D02*
G75*
G03X334150000Y-146000000I0J1200000D01*
G01*
X330850000Y-146000000D02*
G75*
G03X330850000Y-148400000I0J-1200000D01*
G01*
X334150000Y-148400000D02*
X330850000Y-148400000D01*
X330850000Y-146000000D02*
X334150000Y-146000000D01*
X315150000Y-148400000D02*
G75*
G03X315150000Y-146000000I0J1200000D01*
G01*
X311850000Y-146000000D02*
G75*
G03X311850000Y-148400000I0J-1200000D01*
G01*
X315150000Y-148400000D02*
X311850000Y-148400000D01*
X311850000Y-146000000D02*
X315150000Y-146000000D01*
X296150000Y-148400000D02*
G75*
G03X296150000Y-146000000I0J1200000D01*
G01*
X292850000Y-146000000D02*
G75*
G03X292850000Y-148400000I0J-1200000D01*
G01*
X296150000Y-148400000D02*
X292850000Y-148400000D01*
X292850000Y-146000000D02*
X296150000Y-146000000D01*
X277150000Y-148400000D02*
G75*
G03X277150000Y-146000000I0J1200000D01*
G01*
X273850000Y-146000000D02*
G75*
G03X273850000Y-148400000I0J-1200000D01*
G01*
X277150000Y-148400000D02*
X273850000Y-148400000D01*
X273850000Y-146000000D02*
X277150000Y-146000000D01*
X258150000Y-148400000D02*
G75*
G03X258150000Y-146000000I0J1200000D01*
G01*
X254850000Y-146000000D02*
G75*
G03X254850000Y-148400000I0J-1200000D01*
G01*
X258150000Y-148400000D02*
X254850000Y-148400000D01*
X254850000Y-146000000D02*
X258150000Y-146000000D01*
X239150000Y-148400000D02*
G75*
G03X239150000Y-146000000I0J1200000D01*
G01*
X235850000Y-146000000D02*
G75*
G03X235850000Y-148400000I0J-1200000D01*
G01*
X239150000Y-148400000D02*
X235850000Y-148400000D01*
X235850000Y-146000000D02*
X239150000Y-146000000D01*
X220150000Y-148400000D02*
G75*
G03X220150000Y-146000000I0J1200000D01*
G01*
X216850000Y-146000000D02*
G75*
G03X216850000Y-148400000I0J-1200000D01*
G01*
X220150000Y-148400000D02*
X216850000Y-148400000D01*
X216850000Y-146000000D02*
X220150000Y-146000000D01*
X201150000Y-148400000D02*
G75*
G03X201150000Y-146000000I0J1200000D01*
G01*
X197850000Y-146000000D02*
G75*
G03X197850000Y-148400000I0J-1200000D01*
G01*
X201150000Y-148400000D02*
X197850000Y-148400000D01*
X197850000Y-146000000D02*
X201150000Y-146000000D01*
X182150000Y-148400000D02*
G75*
G03X182150000Y-146000000I0J1200000D01*
G01*
X178850000Y-146000000D02*
G75*
G03X178850000Y-148400000I0J-1200000D01*
G01*
X182150000Y-148400000D02*
X178850000Y-148400000D01*
X178850000Y-146000000D02*
X182150000Y-146000000D01*
X163150000Y-148400000D02*
G75*
G03X163150000Y-146000000I0J1200000D01*
G01*
X159850000Y-146000000D02*
G75*
G03X159850000Y-148400000I0J-1200000D01*
G01*
X163150000Y-148400000D02*
X159850000Y-148400000D01*
X159850000Y-146000000D02*
X163150000Y-146000000D01*
X144150000Y-148400000D02*
G75*
G03X144150000Y-146000000I0J1200000D01*
G01*
X140850000Y-146000000D02*
G75*
G03X140850000Y-148400000I0J-1200000D01*
G01*
X144150000Y-148400000D02*
X140850000Y-148400000D01*
X140850000Y-146000000D02*
X144150000Y-146000000D01*
X125150000Y-148400000D02*
G75*
G03X125150000Y-146000000I0J1200000D01*
G01*
X121850000Y-146000000D02*
G75*
G03X121850000Y-148400000I0J-1200000D01*
G01*
X125150000Y-148400000D02*
X121850000Y-148400000D01*
X121850000Y-146000000D02*
X125150000Y-146000000D01*
X106150000Y-148400000D02*
G75*
G03X106150000Y-146000000I0J1200000D01*
G01*
X102850000Y-146000000D02*
G75*
G03X102850000Y-148400000I0J-1200000D01*
G01*
X106150000Y-148400000D02*
X102850000Y-148400000D01*
X102850000Y-146000000D02*
X106150000Y-146000000D01*
X87150000Y-148400000D02*
G75*
G03X87150000Y-146000000I0J1200000D01*
G01*
X83850000Y-146000000D02*
G75*
G03X83850000Y-148400000I0J-1200000D01*
G01*
X87150000Y-148400000D02*
X83850000Y-148400000D01*
X83850000Y-146000000D02*
X87150000Y-146000000D01*
X334150000Y-129400000D02*
G75*
G03X334150000Y-127000000I0J1200000D01*
G01*
X330850000Y-127000000D02*
G75*
G03X330850000Y-129400000I0J-1200000D01*
G01*
X334150000Y-129400000D02*
X330850000Y-129400000D01*
X330850000Y-127000000D02*
X334150000Y-127000000D01*
X315150000Y-129400000D02*
G75*
G03X315150000Y-127000000I0J1200000D01*
G01*
X311850000Y-127000000D02*
G75*
G03X311850000Y-129400000I0J-1200000D01*
G01*
X315150000Y-129400000D02*
X311850000Y-129400000D01*
X311850000Y-127000000D02*
X315150000Y-127000000D01*
X296150000Y-129400000D02*
G75*
G03X296150000Y-127000000I0J1200000D01*
G01*
X292850000Y-127000000D02*
G75*
G03X292850000Y-129400000I0J-1200000D01*
G01*
X296150000Y-129400000D02*
X292850000Y-129400000D01*
X292850000Y-127000000D02*
X296150000Y-127000000D01*
X277150000Y-129400000D02*
G75*
G03X277150000Y-127000000I0J1200000D01*
G01*
X273850000Y-127000000D02*
G75*
G03X273850000Y-129400000I0J-1200000D01*
G01*
X277150000Y-129400000D02*
X273850000Y-129400000D01*
X273850000Y-127000000D02*
X277150000Y-127000000D01*
X258150000Y-129400000D02*
G75*
G03X258150000Y-127000000I0J1200000D01*
G01*
X254850000Y-127000000D02*
G75*
G03X254850000Y-129400000I0J-1200000D01*
G01*
X258150000Y-129400000D02*
X254850000Y-129400000D01*
X254850000Y-127000000D02*
X258150000Y-127000000D01*
X239150000Y-129400000D02*
G75*
G03X239150000Y-127000000I0J1200000D01*
G01*
X235850000Y-127000000D02*
G75*
G03X235850000Y-129400000I0J-1200000D01*
G01*
X239150000Y-129400000D02*
X235850000Y-129400000D01*
X235850000Y-127000000D02*
X239150000Y-127000000D01*
X182150000Y-129400000D02*
G75*
G03X182150000Y-127000000I0J1200000D01*
G01*
X178850000Y-127000000D02*
G75*
G03X178850000Y-129400000I0J-1200000D01*
G01*
X182150000Y-129400000D02*
X178850000Y-129400000D01*
X178850000Y-127000000D02*
X182150000Y-127000000D01*
X163150000Y-129400000D02*
G75*
G03X163150000Y-127000000I0J1200000D01*
G01*
X159850000Y-127000000D02*
G75*
G03X159850000Y-129400000I0J-1200000D01*
G01*
X163150000Y-129400000D02*
X159850000Y-129400000D01*
X159850000Y-127000000D02*
X163150000Y-127000000D01*
X144150000Y-129400000D02*
G75*
G03X144150000Y-127000000I0J1200000D01*
G01*
X140850000Y-127000000D02*
G75*
G03X140850000Y-129400000I0J-1200000D01*
G01*
X144150000Y-129400000D02*
X140850000Y-129400000D01*
X140850000Y-127000000D02*
X144150000Y-127000000D01*
X125150000Y-129400000D02*
G75*
G03X125150000Y-127000000I0J1200000D01*
G01*
X121850000Y-127000000D02*
G75*
G03X121850000Y-129400000I0J-1200000D01*
G01*
X125150000Y-129400000D02*
X121850000Y-129400000D01*
X121850000Y-127000000D02*
X125150000Y-127000000D01*
X106150000Y-129400000D02*
G75*
G03X106150000Y-127000000I0J1200000D01*
G01*
X102850000Y-127000000D02*
G75*
G03X102850000Y-129400000I0J-1200000D01*
G01*
X106150000Y-129400000D02*
X102850000Y-129400000D01*
X102850000Y-127000000D02*
X106150000Y-127000000D01*
X87150000Y-129400000D02*
G75*
G03X87150000Y-127000000I0J1200000D01*
G01*
X83850000Y-127000000D02*
G75*
G03X83850000Y-129400000I0J-1200000D01*
G01*
X87150000Y-129400000D02*
X83850000Y-129400000D01*
X83850000Y-127000000D02*
X87150000Y-127000000D01*
X334150000Y-110400000D02*
G75*
G03X334150000Y-108000000I0J1200000D01*
G01*
X330850000Y-108000000D02*
G75*
G03X330850000Y-110400000I0J-1200000D01*
G01*
X334150000Y-110400000D02*
X330850000Y-110400000D01*
X330850000Y-108000000D02*
X334150000Y-108000000D01*
X315150000Y-110400000D02*
G75*
G03X315150000Y-108000000I0J1200000D01*
G01*
X311850000Y-108000000D02*
G75*
G03X311850000Y-110400000I0J-1200000D01*
G01*
X315150000Y-110400000D02*
X311850000Y-110400000D01*
X311850000Y-108000000D02*
X315150000Y-108000000D01*
X296150000Y-110400000D02*
G75*
G03X296150000Y-108000000I0J1200000D01*
G01*
X292850000Y-108000000D02*
G75*
G03X292850000Y-110400000I0J-1200000D01*
G01*
X296150000Y-110400000D02*
X292850000Y-110400000D01*
X292850000Y-108000000D02*
X296150000Y-108000000D01*
X277150000Y-110400000D02*
G75*
G03X277150000Y-108000000I0J1200000D01*
G01*
X273850000Y-108000000D02*
G75*
G03X273850000Y-110400000I0J-1200000D01*
G01*
X277150000Y-110400000D02*
X273850000Y-110400000D01*
X273850000Y-108000000D02*
X277150000Y-108000000D01*
X258150000Y-110400000D02*
G75*
G03X258150000Y-108000000I0J1200000D01*
G01*
X254850000Y-108000000D02*
G75*
G03X254850000Y-110400000I0J-1200000D01*
G01*
X258150000Y-110400000D02*
X254850000Y-110400000D01*
X254850000Y-108000000D02*
X258150000Y-108000000D01*
X239150000Y-110400000D02*
G75*
G03X239150000Y-108000000I0J1200000D01*
G01*
X235850000Y-108000000D02*
G75*
G03X235850000Y-110400000I0J-1200000D01*
G01*
X239150000Y-110400000D02*
X235850000Y-110400000D01*
X235850000Y-108000000D02*
X239150000Y-108000000D01*
X182150000Y-110400000D02*
G75*
G03X182150000Y-108000000I0J1200000D01*
G01*
X178850000Y-108000000D02*
G75*
G03X178850000Y-110400000I0J-1200000D01*
G01*
X182150000Y-110400000D02*
X178850000Y-110400000D01*
X178850000Y-108000000D02*
X182150000Y-108000000D01*
X163150000Y-110400000D02*
G75*
G03X163150000Y-108000000I0J1200000D01*
G01*
X159850000Y-108000000D02*
G75*
G03X159850000Y-110400000I0J-1200000D01*
G01*
X163150000Y-110400000D02*
X159850000Y-110400000D01*
X159850000Y-108000000D02*
X163150000Y-108000000D01*
X144150000Y-110400000D02*
G75*
G03X144150000Y-108000000I0J1200000D01*
G01*
X140850000Y-108000000D02*
G75*
G03X140850000Y-110400000I0J-1200000D01*
G01*
X144150000Y-110400000D02*
X140850000Y-110400000D01*
X140850000Y-108000000D02*
X144150000Y-108000000D01*
X125150000Y-110400000D02*
G75*
G03X125150000Y-108000000I0J1200000D01*
G01*
X121850000Y-108000000D02*
G75*
G03X121850000Y-110400000I0J-1200000D01*
G01*
X125150000Y-110400000D02*
X121850000Y-110400000D01*
X121850000Y-108000000D02*
X125150000Y-108000000D01*
X106150000Y-110400000D02*
G75*
G03X106150000Y-108000000I0J1200000D01*
G01*
X102850000Y-108000000D02*
G75*
G03X102850000Y-110400000I0J-1200000D01*
G01*
X106150000Y-110400000D02*
X102850000Y-110400000D01*
X102850000Y-108000000D02*
X106150000Y-108000000D01*
X87150000Y-110400000D02*
G75*
G03X87150000Y-108000000I0J1200000D01*
G01*
X83850000Y-108000000D02*
G75*
G03X83850000Y-110400000I0J-1200000D01*
G01*
X87150000Y-110400000D02*
X83850000Y-110400000D01*
X83850000Y-108000000D02*
X87150000Y-108000000D01*
X217720000Y-99030000D02*
X217720000Y-126970000D01*
X215520000Y-99030000D02*
X215520000Y-126970000D01*
X202480000Y-99030000D02*
X202480000Y-126970000D01*
X200280000Y-99030000D02*
X200280000Y-126970000D01*
X217720000Y-126970000D02*
G75*
G02X215520000Y-126970000I-1100000J0D01*
G01*
X202480000Y-126970000D02*
G75*
G02X200280000Y-126970000I-1100000J0D01*
G01*
X215520000Y-99030000D02*
G75*
G02X217720000Y-99030000I1100000J0D01*
G01*
X200280000Y-99030000D02*
G75*
G02X202480000Y-99030000I1100000J0D01*
G01*
M02*
